<?xml version="1.0" encoding="UTF-8"?>
<svg id="Layer_1" xmlns="http://www.w3.org/2000/svg" viewBox="0 0 400 400">
  <defs>
    <style>
      .cls-1 {
        fill: #fff;
      }
    </style>
  </defs>
  <path class="cls-1" d="M61.72,20.49h277v360H61.72V20.49ZM223.71,233.24c.12,0,.24,0,.36,0,.19,19.99.39,39.97.56,59.96.15,17.32.32,34.65.32,51.97,0,3.48.98,5.71,4.57,6.53,1.61.36,3.11,1.19,4.68,1.72,2.97.99,6.13,3.01,8.89,2.58,2.8-.43,5.15-3.43,7.83-5.09,3.58-2.21,5.69-5.37,7.2-9.22,3.75-9.61,7.85-19.07,11.5-28.72,8.89-23.5,16.65-47.37,22.86-71.73,5.63-22.08,11.18-44.18,13.78-66.88,1.24-10.79,1.43-21.59-.51-32.35-5.39-29.87-32.2-39.48-51.87-35.91-9.11,1.65-17.58,4.84-26.04,8.41-4.02,1.7-5.27,4.03-5.2,8.3.5,27.31.77,54.63,1.05,81.94.1,9.49.02,18.99.02,28.49ZM168.58,199.37c3.29,1.84,6.09,3.61,9.06,4.99,2.65,1.23,3.42,2.99,3.43,5.87.07,45.33.2,90.66.44,135.99.06,11.43-2.03,8.43,8.76,13.1,8.61,3.72,8.67,3.57,16.64-1.53q5.85-3.74,5.84-10.56c-.26-74.66-.6-149.32-.65-223.99,0-6.12-1.06-10.04-7.56-11.62-4.3-1.05-8.31-4.28-12.52-4.4-4.24-.13-8.53,2.48-12.84,3.69-2.49.7-3.79,2.23-4.82,4.53-13.35,29.76-26.8,59.48-40.21,89.21-1.89,4.2-3.7,8.44-5.69,12.98,4.5,2.67,8.55,5.27,12.8,7.48,1.08.56,2.96.28,4.19-.24,3.05-1.31,5.86-3.19,8.92-4.47,4.09-1.71,6.74-4.51,8.39-8.62,1.65-4.12,3.75-8.07,5.81-12.4ZM288.62,81.85c.2-4.41.44-8.55.57-12.69.1-3.39-.18-3.71-3.67-4.85-5.06-1.65-10.18-3.12-15.17-4.97-2.87-1.07-5.37-.86-8.16.26-10.96,4.4-21.99,8.64-33.01,12.89-4.02,1.55-8.14,4.23-12.14,4.1-4.22-.13-8.36-2.96-12.51-4.69-16.57-6.95-33.11-13.97-49.71-20.86-2.08-.86-4.6-1.92-6.62-1.48-7.11,1.54-14.09,3.68-21.48,5.7,0,4.79.17,9.27-.06,13.73-.16,2.99.93,4.54,3.72,5.58,6.08,2.26,12.05,4.8,18.07,7.23,21.59,8.75,43.17,17.5,64.75,26.28,2.5,1.02,4.75,1.72,7.61.58,19.78-7.89,39.65-15.57,59.48-23.33,2.76-1.08,5.48-2.28,8.33-3.47ZM121.04,237.78c-4.34,1.31-5.58,4.86-5.37,9.24.14,3.01,1.58,5.42,3.75,7.36,3.36,2.98,6.81,5.85,10.26,8.74.44.37,1.05.52,1.59.77.07-1.39-.33-2.41-1.05-3.06-3.1-2.77-6.29-5.45-9.46-8.14-2.18-1.84-3.37-4.09-3.1-6.99.2-2.08.8-4.31,2.91-4.79,1.3-.3,3.19.6,4.39,1.52,3.3,2.52,6.35,5.37,9.56,8.02.65.53,1.57.72,2.37,1.07-.23-1.64-.93-2.66-1.83-3.46-3.12-2.75-6.25-5.5-9.49-8.11-2.16-1.74-2.98-3.91-2.82-6.57.11-1.91.55-3.67,2.5-4.54,1.75-.78,3.27-.11,4.61,1,3.33,2.76,6.6,5.59,9.94,8.34.65.54,1.5.83,2.26,1.24.22-.28.44-.57.66-.85-1.65-1.49-3.26-3.02-4.95-4.46-2.66-2.26-5.21-4.7-8.12-6.6-3.66-2.4-6.92-1.05-7.99,3.18-.51,2.01-.39,4.19-.62,7.1ZM167.24,249.26c.25-.28.51-.56.76-.84-.28-.56-.43-1.26-.87-1.64-3.63-3.14-7.21-6.36-11.01-9.29-4.51-3.48-7.95-2.11-9.66,3.38-1.12,3.62-.08,6.78,2.34,9.13,4.14,4.03,8.72,7.6,13.14,11.33.13.11.57-.14,1.2-.31-.93-3.63-5.21-4.39-6.7-8.11,1.09-2.58,2.34-5.54,3.75-8.87,2.68,1.99,4.86,3.61,7.04,5.22ZM121.79,144.89c.3-.31.6-.62.89-.93-2.38-2.35-4.76-4.71-7.21-7.13,1.4-3.21,2.68-6.17,3.96-9.1,3.23,1.15,4.5,4.57,8.88,4.58-4.4-4.63-8.5-8.17-12.79-11.46-4.65-3.56-9.19-1.35-9.84,4.51-.42,3.76.82,6.92,3.54,9.41,3.67,3.36,7.5,6.55,11.29,9.78.3.26.85.23,1.28.33ZM130.29,126.8c5.4-9.36,3.16-18.42-5.2-23.34-2.56-1.51-5.3-2.2-7.98-.45-2.67,1.74-3.7,4.6-4.3,7.56-.13.64.41,1.66.96,2.14,5.38,4.66,10.82,9.25,16.52,14.09ZM162.78,130.85c-.4-.14-.8-.27-1.19-.41-1.42,3.02-2.84,6.04-4.45,9.48-2.48-2.11-4.46-3.8-6.24-5.31-.02-3.3,3.35-5.6,1.57-9.5-1.48,2.83-2.66,5.07-3.97,7.58-2.44-2.03-4.44-3.69-5.99-4.98.18-4.6,3.79-7.59,2.57-11.89-1.77,2.94-2.99,6.12-4.55,9.12-1.15,2.22-.66,3.65,1.18,5.12,4.79,3.84,9.48,7.8,14.25,11.66.58.47,1.41.62,2.36,1.01,1.6-4.13,4.41-7.52,4.46-11.9ZM109.59,328.4c3.53,4.36,15.29,13.92,18.4,15.02,3.87-6.25,4.8-9.02,3.75-12.33-1.65,3.41-3.1,6.42-4.75,9.83-2.48-2.14-4.45-3.84-6.17-5.33.08-3.31,3.07-5.58,1.59-9.52-1.57,2.91-2.77,5.12-4.1,7.58-2.35-2.04-4.33-3.76-6.32-5.49.86-2.21,1.66-4.04,2.27-5.93.57-1.77,2.35-3.36.64-6.22-2.22,4.35-3.89,8.37-5.3,12.38ZM134.31,143.92c1.34-3.37,2.63-6.4,3.73-9.5.22-.63-.24-1.51-.39-2.27-.3-.02-.59-.04-.89-.06-1.64,4.09-3.28,8.18-5.03,12.55,6.3,5.17,12.26,10.07,18.25,14.99,3.84-5.67,5.27-10.07,4.14-12.91-1.59,3.23-3.09,6.28-4.71,9.6-2.38-1.98-4.4-3.65-6.22-5.17.03-3.23,2.96-5.46,1.68-9.71-1.54,3.06-2.66,5.28-3.94,7.82-2.28-1.84-4.2-3.39-6.61-5.34ZM147.12,165.02c.21-1.38.4-1.86.28-1.96-4.26-3.69-8.4-7.56-12.91-10.93-2.71-2.03-5.95-.74-7.51,2.3-2.2,4.3-1.17,9.39,2.91,13.11,3.2,2.91,6.57,5.63,9.95,8.34.58.46,1.56.41,2.36.6-1.26-2.33-2.94-3.88-4.66-5.38-2.39-2.07-4.89-4.02-7.18-6.19-2.62-2.48-3.2-5.73-1.81-8.64,1.13-2.36,3.07-3.14,5.31-1.77,1.97,1.21,3.71,2.81,5.52,4.26,2.43,1.95,4.85,3.92,7.75,6.27ZM137.65,186.04c.07-5.9-5.18-13.15-10.79-14.92-4.42-1.39-7.66.44-8.47,5.01-.28,1.59-.24,3.34.1,4.92,1.09,5,4.16,8.67,8.53,11.16,5.5,3.13,10.56.13,10.63-6.18ZM129.53,323.87c3.51,2.17,4.81,2.13,6.74-.08,2.21-2.54,2.75-5.6,2.63-8.86-.14-3.74-1.45-6.14-3.98-6.78-3.21-.82-4.85,1.39-6.4,3.62-1.32,1.89-2.47,3.96-4.92,4.56-3.15-2.34-3.93-3.75-3.16-7.03.44-1.88,1.1-4,2.39-5.29,1.11-1.12,3.25-1.23,5.03-1.81-3.09-2.14-4.3-2.11-6.39.07-2.78,2.9-3.75,8.88-2.04,12.65,1.87,4.13,5.12,4.7,8.14,1.36,1.11-1.23,1.96-2.68,2.98-3.99,1.08-1.4,2.43-2.4,4.28-1.85,2.08.61,2.58,2.4,2.73,4.31.4,5.12-2.2,8.31-8.03,9.15ZM142.27,251.8c1.35,4.51,3.84,7.17,5.6,10.17,1.86,3.18,3.86,6.27,5.8,9.4-3.27-.31-5.89-1.26-8.54-2.1-2.73-.86-5.28-2.47-8.81-2.58.52,1.05.65,1.78,1.07,2.09,1.86,1.33,18.16,6.64,20.39,6.76-.76-3.61-11.27-20.18-15.51-23.74ZM115.88,214.09c.94-2.64,1.9-4.77,2.44-7.01.83-3.4.36-6.65-2.36-9.17-2.77-2.58-6.07-2.1-7.85,1.24-1.16,2.19-2.05,4.53-2.9,6.87-.2.55.2,1.32.51,3.02,1.03-1.89,1.61-2.81,2.06-3.79.63-1.35,1.04-2.82,1.76-4.12,1.6-2.92,3.74-3.11,5.91-.66,1.63,1.84,1.53,4,.93,6.12-.49,1.75-1.2,3.46-2.02,5.08-1.21,2.38-.5,4.08,1.46,5.6,1.83,1.43,3.54,3.01,5.38,4.43.52.4,1.3.47,1.96.69.2-.29.39-.58.59-.87-2.57-2.42-5.15-4.84-7.88-7.41ZM113.27,352.47c-.18-2.9,2.6-5.02,1.79-9.13-1.76,2.95-3,5.06-4.37,7.35-2.34-2.02-4.33-3.74-6.16-5.32.45-3.99,3.83-6.68,3.01-11.7-2.8,4.24-4.45,7.88-5.54,11.69,3.55,4.6,15.23,14.14,18.58,15-1.64-3.69-5.49-4.96-7.31-7.89ZM99.57,277.4c-1.39,2.9-2.7,5.84-4.21,8.68-1.05,1.98-.65,3.36,1.01,4.76,4.82,4.08,9.55,8.26,14.35,12.37.43.37,1.05.53,2.16,1.06-.85-4.74-5.83-5.37-7.05-8.93q1.88-5.37,1.15-7.9c-1.25,2.2-2.35,4.15-3.68,6.52-2.32-2.12-4.34-3.97-6.09-5.57.7-4.04,3.6-6.84,2.37-10.98ZM160.73,111.01c-.15-1.42,0-3-.53-4.29-.8-1.94-1.89-3.85-3.23-5.46-1.13-1.35-2.92-1.52-4.59-.72-2.55,1.21-5.27,7.62-4.51,11.83,1.45-2.95,2.43-5.33,3.74-7.53,1.66-2.8,4.2-2.84,5.8-.02.76,1.34.85,3.12.96,4.73.07,1.08-.35,2.19-.54,3.24,5.3,2.03,8.73,2.22,12.1.58-2.86-1.92-6.23-1.08-9.18-2.36ZM120.87,91.21c.22,1.81.09,2.51.39,2.9,1.91,2.52,15.2,13.03,17.61,14.03,3.53-6.19,4.46-9.1,3.68-12.8-1.76,3.64-3.24,6.73-4.83,10.03-5.67-4.77-10.83-9.1-16.85-14.17ZM143.64,308.38c.38-.4.77-.8,1.15-1.2-4.82-5.7-11.51-9.47-16.68-14.98.79-1.96,1.63-3.75,2.24-5.61.58-1.78,2.34-3.39.62-6.17-2.59,4.03-3.58,8.33-5.48,12.79,6.07,5.07,12.11,10.12,18.16,15.17ZM171.2,241.33c2.9-2.98,5.3-9.61,4.4-13.73-1.64,3.98-2.92,7.11-4.34,10.54-6.07-4.14-10.78-9.68-17.63-13.74.37,1.47.33,2.1.62,2.35,5.63,4.89,11.3,9.74,16.95,14.58ZM123.64,276.42c-3.01-2.47-5.65-4.67-8.33-6.82-2.66-2.13-4.8-5.04-8.85-6.17,2.14,3.66,13.8,13.76,17.93,15.82,3.44-5.15,4.76-9.39,3.66-12.68-1.52,3.39-2.9,6.49-4.41,9.85ZM133.12,273.42c.84,4.05,3.89,4.92,5.72,6.82,1.85,1.9,3.89,3.64,5.99,5.26,2.1,1.62,3.79,3.9,6.91,5.15-1.49-3.82-10.88-12.39-18.63-17.23ZM131.73,202.42c-1.95-1.75-3.89-3.51-5.86-5.23-2.13-1.86-4.24-3.75-6.47-5.5-1.92-1.51-3.36-3.93-6.61-4.03,3.03,4.57,15.22,14.71,18.93,14.76ZM102.53,270.62c1.78,3.92,13.9,14.75,17.92,16.46-.93-3.06-11.32-12.75-17.92-16.46Z"/>
  <path d="M223.71,233.24c0-9.5.08-18.99-.02-28.49-.28-27.32-.55-54.63-1.05-81.94-.08-4.28,1.17-6.61,5.2-8.3,8.46-3.57,16.93-6.76,26.04-8.41,19.68-3.57,46.49,6.04,51.87,35.91,1.94,10.76,1.75,21.57.51,32.35-2.61,22.69-8.16,44.8-13.78,66.88-6.21,24.35-13.97,48.23-22.86,71.73-3.65,9.64-7.75,19.11-11.5,28.72-1.5,3.85-3.62,7.01-7.2,9.22-2.68,1.66-5.03,4.65-7.83,5.09-2.77.43-5.92-1.58-8.89-2.58-1.58-.53-3.07-1.35-4.68-1.72-3.59-.81-4.57-3.05-4.57-6.53,0-17.32-.18-34.65-.32-51.97-.17-19.99-.37-39.97-.56-59.96-.12,0-.24,0-.36,0ZM225.49,120.55c0,2.45-.02,4.24,0,6.02.34,29.15.68,58.31,1.02,87.46.33,28.65.67,57.3.96,85.96.15,14.49.18,28.99.29,43.49.01,1.46.17,2.92.26,4.43,4.36,1.67,8.28,3.83,13.38,4.7-.96-76.08-1.92-151.78-2.88-227.83-4.24-1.38-8.27-2.69-13.03-4.24ZM258.51,279.46c.31.03.62.07.94.1,1.77-4.98,3.6-9.95,5.3-14.95,9.3-27.29,15.85-55.25,20.47-83.68,1.36-8.38,2.46-16.82,1.5-25.35-.53-4.69-1.62-9.22-4.89-12.85-2.65-2.95-5.91-4.42-10.45-3.98.75,1.8,1.38,2.97,1.73,4.21.98,3.49,2.44,6.99,2.64,10.54.33,5.96.34,12.02-.4,17.93-2.36,18.83-6.59,37.34-12.21,55.42-3.52,11.3-5.36,22.53-4.68,34.31.35,6.08.06,12.19.06,18.29ZM259.08,230.74c.21-.37.49-.71.61-1.11,6.13-21.23,11.33-42.68,13.79-64.68,1.01-9.08-.19-17.86-5.39-25.65-4.59.44-5.64.84-10.56,4.13.44,28.89-.25,58.08,1.56,87.32ZM273.77,110.11c-7.56-2.28-14.18-2.36-21-.89-8.64,1.86-16.93,4.51-25.32,8.83,3.2,1.11,5.88,1.93,8.48,2.97,2.67,1.07,4.96.63,7.57-.54,6.34-2.85,12.79-5.48,19.32-7.85,3.23-1.17,6.74-1.58,10.95-2.52Z"/>
  <path d="M168.58,199.37c-2.05,4.34-4.16,8.28-5.81,12.4-1.65,4.11-4.3,6.91-8.39,8.62-3.06,1.28-5.87,3.16-8.92,4.47-1.24.53-3.11.81-4.19.24-4.25-2.21-8.3-4.81-12.8-7.48,1.99-4.54,3.79-8.78,5.69-12.98,13.41-29.74,26.86-59.45,40.21-89.21,1.03-2.3,2.33-3.83,4.82-4.53,4.32-1.21,8.61-3.82,12.84-3.69,4.2.12,8.22,3.35,12.52,4.4,6.5,1.59,7.55,5.51,7.56,11.62.05,74.66.39,149.32.65,223.99q.02,6.82-5.84,10.56c-7.97,5.1-8.04,5.25-16.64,1.53-10.79-4.67-8.7-1.67-8.76-13.1-.24-45.33-.38-90.66-.44-135.99,0-2.88-.77-4.64-3.43-5.87-2.98-1.38-5.77-3.15-9.06-4.99ZM156.89,190.47c.92.08,1.3,0,1.57.15,7.71,4.28,15.4,8.6,23.13,12.84,1.67.92,2.38,2.17,2.29,4.03-.08,1.5,0,3,0,4.5.01,45.16.02,90.32.03,135.49,0,1.97,0,3.93,0,6.04,4.44,1.83,8.49,3.49,13.08,5.38.16-2.4.36-4.02.35-5.63-.04-5.66-.18-11.33-.23-16.99-.39-39.32-.82-78.65-1.12-117.97-.23-30.16-.3-60.33-.45-90.49,0-1.33.17-2.72-.15-3.98-.25-1-.91-2.32-1.75-2.69-5.11-2.27-10.32-4.31-15.85-6.57-15.41,34.19-30.63,67.94-45.96,101.95,3.77,2.11,7.02,3.92,10.37,5.8,5.37-10.91,9.42-21.79,14.7-31.86ZM206.43,115.69c-3.85-1.68-6.7-2.87-9.5-4.16-2.42-1.11-4.78-2.3-7.48-.85-2.34,1.26-5.39.98-7.73,3.31,4.21,1.76,7.99,3.42,11.84,4.89,1.17.45,2.68.76,3.81.42,2.75-.84,5.37-2.11,9.06-3.62Z"/>
  <path d="M288.62,81.85c-2.85,1.19-5.57,2.39-8.33,3.47-19.83,7.77-39.69,15.45-59.48,23.33-2.86,1.14-5.11.43-7.61-.58-21.57-8.78-43.16-17.52-64.75-26.28-6.01-2.44-11.99-4.98-18.07-7.23-2.78-1.03-3.88-2.59-3.72-5.58.24-4.46.06-8.94.06-13.73,7.39-2.02,14.37-4.16,21.48-5.7,2.01-.44,4.53.62,6.62,1.48,16.6,6.89,33.14,13.91,49.71,20.86,4.14,1.74,8.29,4.56,12.51,4.69,4,.13,8.12-2.55,12.14-4.1,11.02-4.25,22.05-8.49,33.01-12.89,2.79-1.12,5.28-1.33,8.16-.26,4.98,1.85,10.11,3.32,15.17,4.97,3.48,1.14,3.77,1.46,3.67,4.85-.13,4.14-.37,8.28-.57,12.69ZM133.06,56.43c2.08,1.04,3.04,1.59,4.04,2.02,5.21,2.19,10.44,4.36,15.66,6.53,20.27,8.42,40.54,16.84,60.81,25.27,2.17.91,4.14,1.52,6.66.54,19.54-7.56,39.15-14.94,58.72-22.4,1.1-.42,2.09-1.11,3.83-2.04-4.83-1.52-8.83-2.63-12.71-4.06-2.52-.92-4.73-.79-7.21.19-13.29,5.26-26.69,10.27-39.94,15.64-3.96,1.6-7.3,1.68-11.34-.07-19.38-8.39-38.91-16.43-58.4-24.55-1.35-.56-2.96-1.34-4.25-1.07-4.97,1.03-9.86,2.45-15.87,4ZM129.64,70.91c12,5.91,82.9,34.07,86.61,34.36v-10.77c-28.7-11.98-57.38-23.99-86.61-35.91v12.32Z"/>
  <path d="M121.04,237.78c.23-2.91.11-5.09.62-7.1,1.07-4.22,4.33-5.58,7.99-3.18,2.9,1.9,5.45,4.35,8.12,6.6,1.69,1.44,3.3,2.97,4.95,4.46-.22.28-.44.57-.66.85-.76-.41-1.61-.7-2.26-1.24-3.34-2.75-6.61-5.58-9.94-8.34-1.34-1.11-2.86-1.78-4.61-1-1.95.87-2.38,2.63-2.5,4.54-.16,2.66.66,4.83,2.82,6.57,3.24,2.61,6.37,5.35,9.49,8.11.9.79,1.6,1.81,1.83,3.46-.8-.35-1.73-.53-2.37-1.07-3.21-2.64-6.26-5.49-9.56-8.02-1.2-.92-3.09-1.82-4.39-1.52-2.1.48-2.71,2.71-2.91,4.79-.27,2.9.92,5.15,3.1,6.99,3.18,2.68,6.36,5.36,9.46,8.14.72.65,1.12,1.67,1.05,3.06-.53-.25-1.15-.4-1.59-.77-3.44-2.88-6.9-5.75-10.26-8.74-2.17-1.93-3.61-4.35-3.75-7.36-.21-4.38,1.04-7.92,5.37-9.24Z"/>
  <path d="M167.24,249.26c-2.18-1.62-4.36-3.24-7.04-5.22-1.41,3.33-2.66,6.29-3.75,8.87,1.49,3.71,5.77,4.47,6.7,8.11-.63.17-1.07.42-1.2.31-4.42-3.73-9.01-7.3-13.14-11.33-2.41-2.35-3.46-5.52-2.34-9.13,1.71-5.49,5.15-6.86,9.66-3.38,3.8,2.93,7.38,6.15,11.01,9.29.44.38.59,1.09.87,1.64-.25.28-.51.56-.76.84ZM158.54,242.41c-1.16-1.01-1.89-1.67-2.64-2.3-1.73-1.43-3.56-2.64-5.83-1.15-1.76,1.15-2.46,4.36-1.57,6.82,1.01,2.79,3.09,4.45,5.89,5.89,1.43-3.19,2.71-6.03,4.16-9.26Z"/>
  <path d="M121.79,144.89c-.43-.1-.98-.08-1.28-.33-3.79-3.23-7.62-6.42-11.29-9.78-2.72-2.48-3.95-5.64-3.54-9.41.65-5.87,5.19-8.08,9.84-4.51,4.28,3.28,8.39,6.82,12.79,11.46-4.38-.02-5.65-3.44-8.88-4.58-1.27,2.93-2.56,5.89-3.96,9.1,2.45,2.42,4.83,4.78,7.21,7.13-.3.31-.6.62-.89.93ZM113.33,135.44c.99-1.96,1.76-3.4,2.44-4.87.73-1.6,1.37-3.23,2.07-4.89-1.49-1.22-2.55-2.28-3.78-3.06-3-1.89-5.55-.84-6.31,2.58-.53,2.36-.25,4.63,1.51,6.46,1.14,1.18,2.39,2.24,4.07,3.8Z"/>
  <path d="M130.29,126.8c-5.7-4.84-11.15-9.42-16.52-14.09-.55-.48-1.08-1.5-.96-2.14.59-2.96,1.62-5.83,4.3-7.56,2.68-1.74,5.42-1.06,7.98.45,8.37,4.92,10.6,13.97,5.2,23.34ZM114.98,110.04c2.55,3.37,11.34,10.82,14.84,12.59,2.93-5.27,2.45-8.78-1.91-13.92-4.97-5.85-9.39-5.4-12.93,1.33Z"/>
  <path d="M162.78,130.85c-.05,4.38-2.86,7.76-4.46,11.9-.95-.4-1.78-.55-2.36-1.01-4.77-3.86-9.46-7.82-14.25-11.66-1.84-1.47-2.33-2.91-1.18-5.12,1.56-3.01,2.79-6.18,4.55-9.12,1.22,4.3-2.39,7.29-2.57,11.89,1.55,1.29,3.55,2.95,5.99,4.98,1.31-2.51,2.49-4.75,3.97-7.58,1.77,3.9-1.59,6.2-1.57,9.5,1.78,1.51,3.75,3.2,6.24,5.31,1.62-3.44,3.03-6.46,4.45-9.48.4.14.8.27,1.19.41Z"/>
  <path d="M109.59,328.4c1.4-4.02,3.08-8.03,5.3-12.38,1.7,2.86-.07,4.45-.64,6.22-.61,1.89-1.41,3.72-2.27,5.93,1.99,1.73,3.97,3.44,6.32,5.49,1.33-2.46,2.52-4.67,4.1-7.58,1.48,3.94-1.51,6.21-1.59,9.52,1.72,1.49,3.69,3.19,6.17,5.33,1.65-3.41,3.11-6.42,4.75-9.83,1.05,3.31.12,6.08-3.75,12.33-3.11-1.11-14.87-10.67-18.4-15.02Z"/>
  <path d="M134.31,143.92c2.42,1.95,4.33,3.5,6.61,5.34,1.28-2.55,2.4-4.76,3.94-7.82,1.28,4.24-1.65,6.48-1.68,9.71,1.82,1.51,3.84,3.19,6.22,5.17,1.63-3.31,3.13-6.36,4.71-9.6,1.13,2.84-.3,7.23-4.14,12.91-6-4.92-11.95-9.82-18.25-14.99,1.75-4.37,3.39-8.46,5.03-12.55.3.02.59.04.89.06.15.76.61,1.64.39,2.27-1.1,3.1-2.39,6.14-3.73,9.5Z"/>
  <path d="M147.12,165.02c-2.9-2.35-5.31-4.32-7.75-6.27-1.82-1.45-3.55-3.05-5.52-4.26-2.23-1.37-4.17-.59-5.31,1.77-1.4,2.91-.82,6.16,1.81,8.64,2.29,2.17,4.8,4.11,7.18,6.19,1.72,1.5,3.41,3.05,4.66,5.38-.8-.19-1.78-.14-2.36-.6-3.38-2.71-6.75-5.43-9.95-8.34-4.09-3.72-5.11-8.81-2.91-13.11,1.56-3.04,4.8-4.33,7.51-2.3,4.51,3.37,8.64,7.24,12.91,10.93.12.11-.07.58-.28,1.96Z"/>
  <path d="M137.65,186.04c-.07,6.3-5.14,9.31-10.63,6.18-4.37-2.49-7.44-6.16-8.53-11.16-.34-1.58-.38-3.33-.1-4.92.81-4.57,4.06-6.4,8.47-5.01,5.61,1.77,10.86,9.02,10.79,14.92ZM135.82,185.84c.09-4.74-3.93-10.58-8.61-12.5-4.18-1.71-7.33.34-7.49,4.87-.17,4.8,4.29,10.94,9.13,12.6,4.11,1.4,6.88-.57,6.96-4.96Z"/>
  <path d="M129.53,323.87c5.83-.84,8.43-4.03,8.03-9.15-.15-1.91-.65-3.69-2.73-4.31-1.85-.55-3.21.46-4.28,1.85-1.01,1.32-1.87,2.77-2.98,3.99-3.03,3.35-6.27,2.77-8.14-1.36-1.7-3.76-.74-9.75,2.04-12.65,2.09-2.18,3.3-2.21,6.39-.07-1.78.59-3.91.69-5.03,1.81-1.29,1.29-1.95,3.42-2.39,5.29-.77,3.28,0,4.7,3.16,7.03,2.45-.6,3.6-2.67,4.92-4.56,1.55-2.23,3.19-4.44,6.4-3.62,2.52.64,3.84,3.04,3.98,6.78.12,3.25-.42,6.32-2.63,8.86-1.92,2.21-3.23,2.25-6.74.08Z"/>
  <path d="M142.27,251.8c4.24,3.56,14.76,20.13,15.51,23.74-2.23-.12-18.54-5.43-20.39-6.76-.43-.31-.55-1.04-1.07-2.09,3.54.11,6.08,1.73,8.81,2.58,2.66.83,5.27,1.79,8.54,2.1-1.94-3.13-3.94-6.22-5.8-9.4-1.76-3-4.24-5.66-5.6-10.17Z"/>
  <path d="M115.88,214.09c2.73,2.57,5.3,4.99,7.88,7.41-.2.29-.39.58-.59.87-.66-.22-1.44-.29-1.96-.69-1.84-1.42-3.55-3-5.38-4.43-1.96-1.52-2.66-3.22-1.46-5.6.82-1.62,1.53-3.33,2.02-5.08.59-2.12.7-4.28-.93-6.12-2.17-2.45-4.3-2.25-5.91.66-.72,1.3-1.13,2.76-1.76,4.12-.45.98-1.03,1.9-2.06,3.79-.31-1.7-.71-2.47-.51-3.02.86-2.33,1.74-4.68,2.9-6.87,1.78-3.34,5.07-3.82,7.85-1.24,2.72,2.53,3.18,5.77,2.36,9.17-.54,2.24-1.51,4.38-2.44,7.01Z"/>
  <path d="M113.27,352.47c1.82,2.93,5.68,4.2,7.31,7.89-3.35-.86-15.03-10.4-18.58-15,1.09-3.81,2.73-7.46,5.54-11.69.82,5.01-2.56,7.71-3.01,11.7,1.83,1.58,3.82,3.3,6.16,5.32,1.36-2.3,2.61-4.4,4.37-7.35.81,4.11-1.98,6.23-1.79,9.13Z"/>
  <path d="M99.57,277.4c1.24,4.14-1.67,6.94-2.37,10.98,1.76,1.61,3.77,3.45,6.09,5.57,1.34-2.37,2.44-4.32,3.68-6.52q.73,2.53-1.15,7.9c1.21,3.57,6.19,4.2,7.05,8.93-1.1-.53-1.72-.69-2.16-1.06-4.79-4.11-9.53-8.3-14.35-12.37-1.66-1.4-2.06-2.78-1.01-4.76,1.51-2.84,2.81-5.78,4.21-8.68Z"/>
  <path d="M160.73,111.01c2.95,1.29,6.33.44,9.18,2.36-3.37,1.64-6.8,1.45-12.1-.58.19-1.04.61-2.16.54-3.24-.11-1.6-.2-3.39-.96-4.73-1.6-2.83-4.14-2.78-5.8.02-1.3,2.19-2.29,4.58-3.74,7.53-.76-4.2,1.96-10.61,4.51-11.83,1.68-.8,3.47-.63,4.59.72,1.34,1.61,2.43,3.51,3.23,5.46.54,1.29.38,2.87.53,4.29Z"/>
  <path d="M120.87,91.21c6.02,5.07,11.18,9.4,16.85,14.17,1.59-3.3,3.08-6.39,4.83-10.03.78,3.69-.16,6.61-3.68,12.8-2.41-1-15.7-11.51-17.61-14.03-.29-.39-.17-1.1-.39-2.9Z"/>
  <path d="M143.64,308.38c-6.05-5.05-12.09-10.1-18.16-15.17,1.91-4.46,2.89-8.76,5.48-12.79,1.72,2.77-.03,4.39-.62,6.17-.61,1.86-1.45,3.66-2.24,5.61,5.18,5.51,11.87,9.28,16.68,14.98-.38.4-.77.8-1.15,1.2Z"/>
  <path d="M171.2,241.33c-5.65-4.84-11.32-9.69-16.95-14.58-.29-.25-.25-.88-.62-2.35,6.85,4.06,11.57,9.6,17.63,13.74,1.41-3.44,2.7-6.56,4.34-10.54.9,4.12-1.49,10.76-4.4,13.73Z"/>
  <path d="M123.64,276.42c1.5-3.36,2.89-6.46,4.41-9.85,1.1,3.29-.21,7.54-3.66,12.68-4.13-2.06-15.79-12.16-17.93-15.82,4.04,1.13,6.19,4.04,8.85,6.17,2.68,2.15,5.32,4.35,8.33,6.82Z"/>
  <path d="M133.12,273.42c7.75,4.83,17.13,13.41,18.63,17.23-3.12-1.26-4.81-3.53-6.91-5.15-2.1-1.62-4.15-3.35-5.99-5.26-1.84-1.89-4.88-2.77-5.72-6.82Z"/>
  <path d="M131.73,202.42c-3.71-.05-15.9-10.19-18.93-14.76,3.25.1,4.69,2.52,6.61,4.03,2.22,1.74,4.33,3.64,6.47,5.5,1.97,1.72,3.91,3.49,5.86,5.23Z"/>
  <path d="M102.53,270.62c6.6,3.71,16.99,13.4,17.92,16.46-4.02-1.71-16.14-12.54-17.92-16.46Z"/>
  <path class="cls-1" d="M225.49,120.55c4.75,1.55,8.78,2.86,13.03,4.24.96,76.04,1.92,151.75,2.88,227.83-5.1-.87-9.02-3.03-13.38-4.7-.09-1.51-.25-2.97-.26-4.43-.11-14.5-.14-28.99-.29-43.49-.29-28.65-.63-57.31-.96-85.96-.33-29.15-.68-58.31-1.02-87.46-.02-1.78,0-3.57,0-6.02Z"/>
  <path class="cls-1" d="M258.51,279.46c0-6.1.29-12.21-.06-18.29-.67-11.78,1.17-23,4.68-34.31,5.63-18.08,9.85-36.59,12.21-55.42.74-5.91.73-11.97.4-17.93-.2-3.55-1.65-7.05-2.64-10.54-.35-1.24-.98-2.41-1.73-4.21,4.54-.43,7.8,1.04,10.45,3.98,3.27,3.63,4.36,8.16,4.89,12.85.96,8.53-.14,16.97-1.5,25.35-4.61,28.43-11.17,56.39-20.47,83.68-1.71,5.01-3.53,9.97-5.3,14.95-.31-.03-.62-.07-.94-.1Z"/>
  <path class="cls-1" d="M259.08,230.74c-1.8-29.24-1.12-58.43-1.56-87.32,4.92-3.29,5.97-3.69,10.56-4.13,5.2,7.79,6.41,16.57,5.39,25.65-2.46,22.01-7.66,43.45-13.79,64.68-.11.4-.4.74-.61,1.11Z"/>
  <path class="cls-1" d="M273.77,110.11c-4.21.94-7.72,1.35-10.95,2.52-6.53,2.37-12.98,5-19.32,7.85-2.6,1.17-4.9,1.61-7.57.54-2.59-1.04-5.27-1.86-8.48-2.97,8.39-4.32,16.68-6.97,25.32-8.83,6.82-1.47,13.43-1.39,21,.89Z"/>
  <path class="cls-1" d="M156.89,190.47c-5.28,10.06-9.32,20.95-14.7,31.86-3.35-1.88-6.59-3.69-10.37-5.8,15.33-34.01,30.55-67.76,45.96-101.95,5.53,2.26,10.74,4.3,15.85,6.57.84.37,1.5,1.69,1.75,2.69.31,1.26.14,2.65.15,3.98.15,30.16.22,60.33.45,90.49.3,39.32.73,78.65,1.12,117.97.06,5.66.19,11.33.23,16.99.01,1.62-.19,3.24-.35,5.63-4.59-1.89-8.64-3.55-13.08-5.38,0-2.11,0-4.07,0-6.04-.01-45.16-.02-90.32-.03-135.49,0-1.5-.07-3,0-4.5.09-1.87-.62-3.12-2.29-4.03-7.73-4.25-15.42-8.57-23.13-12.84-.26-.15-.65-.07-1.57-.15ZM163.85,175.69c7.4,5.68,17.07,11.24,21.02,12.05,1.08-4.57.49-9.22.62-13.8.13-4.65.06-9.31.09-13.97.03-4.66.18-9.32.06-13.97-.12-4.5.8-9.09-.68-13.99-.92.68-1.65.94-1.88,1.43-6.42,14.03-12.8,28.08-19.23,42.25Z"/>
  <path class="cls-1" d="M206.43,115.69c-3.69,1.51-6.31,2.78-9.06,3.62-1.13.35-2.64.03-3.81-.42-3.85-1.47-7.63-3.13-11.84-4.89,2.33-2.33,5.38-2.05,7.73-3.31,2.7-1.45,5.06-.26,7.48.85,2.8,1.29,5.65,2.48,9.5,4.16Z"/>
  <path class="cls-1" d="M133.06,56.43c6.01-1.55,10.9-2.97,15.87-4,1.29-.27,2.9.5,4.25,1.07,19.49,8.12,39.02,16.16,58.4,24.55,4.04,1.75,7.38,1.68,11.34.07,13.25-5.37,26.65-10.38,39.94-15.64,2.47-.98,4.69-1.11,7.21-.19,3.88,1.42,7.88,2.53,12.71,4.06-1.73.93-2.73,1.62-3.83,2.04-19.58,7.46-39.18,14.84-58.72,22.4-2.52.97-4.48.36-6.66-.54-20.27-8.44-40.54-16.85-60.81-25.27-5.22-2.17-10.45-4.33-15.66-6.53-1.01-.42-1.96-.97-4.04-2.02Z"/>
  <path class="cls-1" d="M129.64,70.91v-12.32c29.23,11.92,57.91,23.93,86.61,35.91v10.77c-3.71-.29-74.62-28.45-86.61-34.36Z"/>
  <path class="cls-1" d="M158.54,242.41c-1.45,3.23-2.73,6.07-4.16,9.26-2.8-1.44-4.89-3.1-5.89-5.89-.88-2.45-.19-5.66,1.57-6.82,2.27-1.49,4.1-.29,5.83,1.15.76.63,1.49,1.29,2.64,2.3Z"/>
  <path class="cls-1" d="M113.33,135.44c-1.68-1.56-2.94-2.62-4.07-3.8-1.77-1.83-2.04-4.1-1.51-6.46.77-3.42,3.32-4.47,6.31-2.58,1.23.78,2.29,1.84,3.78,3.06-.7,1.66-1.34,3.3-2.07,4.89-.68,1.48-1.45,2.91-2.44,4.87Z"/>
  <path class="cls-1" d="M114.98,110.04c3.53-6.73,7.96-7.18,12.93-1.33,4.36,5.13,4.85,8.65,1.91,13.92-3.5-1.76-12.29-9.22-14.84-12.59Z"/>
  <path class="cls-1" d="M135.82,185.84c-.08,4.39-2.85,6.37-6.96,4.96-4.85-1.65-9.3-7.79-9.13-12.6.16-4.53,3.31-6.58,7.49-4.87,4.68,1.92,8.7,7.76,8.61,12.5Z"/>
  <path d="M163.85,175.69c6.44-14.17,12.81-28.23,19.23-42.25.22-.49.96-.75,1.88-1.43,1.47,4.9.55,9.49.68,13.99.13,4.65-.03,9.31-.06,13.97-.03,4.66.04,9.32-.09,13.97-.13,4.58.46,9.23-.62,13.8-3.95-.81-13.62-6.37-21.02-12.05ZM168.34,175.71c5.31,3.16,9.56,5.7,14.39,8.58,0-3.56.09-6.19-.02-8.81-.13-3.1-2.42-4.73-5.37-3.68-2.75.98-5.38,2.31-9,3.91Z"/>
  <path class="cls-1" d="M168.34,175.71c3.62-1.59,6.25-2.93,9-3.91,2.95-1.05,5.24.58,5.37,3.68.11,2.62.02,5.25.02,8.81-4.84-2.88-9.09-5.42-14.39-8.58Z"/>
</svg>