<?xml version="1.0" encoding="UTF-8"?>
<svg id="Layer_1" xmlns="http://www.w3.org/2000/svg" viewBox="0 0 400 400">
  <defs>
    <style>
      .cls-1 {
        letter-spacing: -.03em;
      }

      .cls-2 {
        fill: #4a4a4a;
      }

      .cls-3 {
        fill: #fff;
      }

      .cls-4 {
        fill: none;
        stroke: #3f403e;
        stroke-miterlimit: 10;
        stroke-width: 3px;
      }

      .cls-5 {
        letter-spacing: 0em;
      }

      .cls-6 {
        fill: #555;
      }

      .cls-7 {
        fill: #f7f7f7;
      }

      .cls-8 {
        letter-spacing: -.05em;
      }

      .cls-9 {
        fill: #666565;
        font-family: MicrosoftYaHeiLight, 'Microsoft YaHei';
        font-size: 18px;
      }

      .cls-10 {
        fill: #6a6b6b;
        font-family: MyriadPro-Regular, 'Myriad Pro';
        font-size: 23px;
      }

      .cls-11 {
        letter-spacing: -.08em;
      }

      .cls-12 {
        letter-spacing: -.03em;
      }
    </style>
  </defs>
  <path class="cls-2" d="M70.65,216.81v19.78c-.92.2-1.63.35-2.3.5-.34-.5-.85-.91-.85-1.31-.05-7.81-.03-15.62-.03-23.7h39.19v24.53c-.71.16-1.42.33-2.08.48-.35-.5-.87-.89-.88-1.29-.05-6.24-.04-12.48-.04-19h-33Z"/>
  <path class="cls-2" d="M216.7,224.41h-16.8v7.47h14.88c1.34-1,.87-5.45,5.65-3.81-1.24,2.53-2.37,4.85-3.5,7.16h-21.91v-10.76h-17.1v-29.89h16.94v-6.23h4.52v5.86c5.82.66,11.49-.02,17.33.41v29.78Z"/>
  <path class="cls-2" d="M168.01,221.25v2.95h-18.57v12.51c-1.25.11-1.96.17-3.23.28v-12.56h-23.31c-.19-.95-.33-1.66-.57-2.92,2.66-.15,5.14-.29,7.89-.44v-13.84h15.73v-8.98l-1.91-1.91h-11.25c-4.25,1.84-4.03,8.28-9.93,9.49-.28-6.16,4.8-8.59,7.64-12.44v-4.76c.75-.18,1.46-.35,2.53-.61.28,1.56.53,2.99.84,4.68h32.05c.32.9.57,1.58.95,2.64-5.15,1.72-10.34.08-15.43.97l-2.1,2.1c.53,2.58-1.6,6.08,2.58,8.8h14.44c.09.97.16,1.68.28,2.95h-17.17v11.1h18.57Z"/>
  <path class="cls-2" d="M300.19,216.53v-4.8h-5.94c-.1-1.05-.15-1.56-.26-2.65,1.91-.2,3.82-.41,5.76-.61,1.1-1.77,1.02-4.69,4.55-4.51.22.49.62,1.08.74,1.73.14.74.03,1.53.03,2.64h12.26c.27-1.52.52-2.96.79-4.49,3.08.19,4.12,2.03,4.47,4.96h5.96c.07,1.06.1,1.57.17,2.65-1.91.19-3.83.39-6.05.61v4.22c2.15.13,4.62.29,7.34.46v4.34h-16.35c1.81,1.81,3.54,3.54,5.52,5.52,1.06-.88,3.07-2.54,5.07-4.2.67.8.98,1.17,1.63,1.94-1.59,1.82-3.24,3.72-4.87,5.6,1.94,3.78,5.82,1.8,8.97,2.45.11.92.19,1.64.31,2.69h-8.91c-4.21-4.3-8.78-8.96-13.36-13.63h-7.34v8.74c1.08,3.34,4.59,1.54,7.27,2.35.1.74.21,1.45.36,2.53h-10.98v-13.45c-1.66-.25-3.11-.47-4.68-.71v-4.38h7.55Z"/>
  <path class="cls-2" d="M328.67,190.57v11.53c-12.39.7-24.84-.06-37.51.4v26.5c-1.76,2.61-3.02,4.46-4.52,6.68-1.1-.7-2.32-1.47-3.99-2.53,1.49-1.07,2.71-1.95,3.53-2.55v-39.96c6.05-1.15,35.78-1.19,42.49-.06Z"/>
  <path class="cls-2" d="M239.49,208.94c1.38-1.38,1.93-1.93,2.58-2.58-.66-.71-1.33-1.42-2.24-2.39h-8.46v-13.79h23.09v13.57h-8.97v4.79h10.55c.08,1.25.13,1.96.2,2.97h-26.55v-2.57h9.8Z"/>
  <path class="cls-6" d="M237.33,232.27h2.97c.09-1.91.19-3.85.3-6.06h-8.85c-.81-3.76-1.57-7.26-2.39-11.06h26.8c-.22,3.54,1.44,7.34-1.96,10.77h-8.64v9.17c-2.7.14-5.14.27-7.94.41-.11-1.27-.2-2.25-.29-3.23Z"/>
  <path class="cls-2" d="M339.43,103.1h-10.5v-8.91h10.5v8.91Z"/>
  <path class="cls-2" d="M339.43,153.57h-10.5v-9.9h10.5v9.9Z"/>
  <path class="cls-2" d="M339.43,136.93h-10.5v-9.9h10.5v9.9Z"/>
  <path class="cls-2" d="M339.43,120.01h-10.5v-9.9h10.5v9.9Z"/>
  <path class="cls-2" d="M259.58,216.26v-4.21h12.14c.79-1.08,1.67-2.29,2.55-3.49l1.41,1.41c-1.81,1.81-3.68,3.68-6.29,6.29h-9.82Z"/>
  <path class="cls-2" d="M273.24,188.85c1.64,1.51,2.39,2.2,3.68,3.39-1.69,1.03-3.13,2.03-4.68,2.8-1.93.97-3.89,2.07-5.97,2.52-1.97.43-4.11.09-6.51.09v-4.62h10.69c.71-1.06,1.56-2.35,2.79-4.19Z"/>
  <path class="cls-2" d="M269.95,232.55c.96-1.21,1.92-2.44,2.88-3.65.97.33,1.66.57,3.1,1.06-1.67,2.05-3.07,3.76-4.27,5.22h-12.07v-2.64h10.35Z"/>
  <path class="cls-3" d="M199.77,221v-8.93h13.62v8.93h-13.62Z"/>
  <path class="cls-3" d="M181.02,221v-8.93h13.62v8.93h-13.62Z"/>
  <path class="cls-3" d="M194.66,208.53h-13.64v-8.91h13.64v8.91Z"/>
  <path class="cls-3" d="M213.66,199.48v8.93h-13.62v-8.93h13.62Z"/>
  <path class="cls-3" d="M252.85,218.12v3.88h-18.81v-3.88h18.81Z"/>
  <path class="cls-3" d="M133.68,221v-10.5h12.05v10.5h-12.05Z"/>
  <path class="cls-7" d="M317.51,211.81v4.44h-12.14c-.07-4.38-.07-4.4,2.83-4.44,3.06-.03,6.13,0,9.31,0Z"/>
  <path class="cls-3" d="M291.05,198.98v-5.78h34.83c-.57,2.13.5,3.92,0,5.78h-34.83Z"/>
  <path class="cls-3" d="M234.4,200.55v-7.37h16.77v7.37h-16.77Z"/>
  <text class="cls-10" transform="translate(55.96 289.28)"><tspan x="0" y="0">Chongqing</tspan><tspan class="cls-8" x="108.31" y="0"> </tspan><tspan class="cls-11" x="112.12" y="0">Y</tspan><tspan x="122.82" y="0">outh </tspan><tspan class="cls-12" x="173.37" y="0">F</tspan><tspan x="183.98" y="0">ilm </tspan><tspan class="cls-1" x="218.84" y="0">F</tspan><tspan x="229.33" y="0">esti</tspan><tspan class="cls-5" x="262.96" y="0">v</tspan><tspan x="273.93" y="0">al</tspan></text>
  <polygon class="cls-4" points="119.28 253.94 344.34 253.94 344.34 87.5 300.07 87.5 183.85 155.16 118.89 139.03 119.28 253.94"/>
  <text class="cls-9" transform="translate(91.15 156.62)"><tspan x="0" y="0">重</tspan><tspan x="0" y="21.6">庆</tspan></text>
  <rect class="cls-2" x="85.39" y="218.54" width="3.33" height="9.17" transform="translate(-140.15 147.36) rotate(-50.25)"/>
  <rect class="cls-2" x="241.75" y="194.55" width="2.56" height="4.45" transform="translate(-63.67 257.78) rotate(-50.25)"/>
  <rect class="cls-2" x="249.29" y="228.22" width="4.08" height="5.29" transform="translate(-86.88 276.45) rotate(-50.25)"/>
  <rect class="cls-2" x="230.92" y="229.1" width="4.08" height="5.29" transform="translate(263.85 558.88) rotate(-140.25)"/>
  <rect class="cls-2" x="85.39" y="228.2" width="3.33" height="9.17" transform="translate(-147.58 150.84) rotate(-50.25)"/>
  <rect class="cls-2" x="62.89" y="205.44" width="48.47" height="2.95"/>
  <rect class="cls-2" x="62.89" y="198.8" width="48.47" height="2.95"/>
  <rect class="cls-2" x="62.89" y="191.62" width="48.47" height="2.95"/>
  <rect class="cls-2" x="84.1" y="187.68" width="6.52" height="17.76"/>
</svg>