<?xml version="1.0" encoding="UTF-8"?>
<svg id="Layer_1" xmlns="http://www.w3.org/2000/svg" xmlns:xlink="http://www.w3.org/1999/xlink" viewBox="0 0 400 400">
  <defs>
    <style>
      .cls-1 {
        clip-path: url(#clippath-76);
      }

      .cls-2 {
        clip-path: url(#clippath-51);
      }

      .cls-3 {
        clip-path: url(#clippath-34);
      }

      .cls-4 {
        clip-path: url(#clippath-38);
      }

      .cls-5 {
        clip-path: url(#clippath-21);
      }

      .cls-6 {
        clip-path: url(#clippath-6);
      }

      .cls-7 {
        clip-path: url(#clippath-7);
      }

      .cls-8 {
        clip-path: url(#clippath-17);
      }

      .cls-9 {
        clip-path: url(#clippath-80);
      }

      .cls-10 {
        clip-path: url(#clippath-31);
      }

      .cls-11 {
        clip-path: url(#clippath-79);
      }

      .cls-12 {
        clip-path: url(#clippath-75);
      }

      .cls-13 {
        clip-path: url(#clippath-15);
      }

      .cls-14 {
        clip-path: url(#clippath-33);
      }

      .cls-15 {
        clip-path: url(#clippath-61);
      }

      .cls-16 {
        clip-path: url(#clippath-18);
      }

      .cls-17 {
        clip-path: url(#clippath-47);
      }

      .cls-18 {
        clip-path: url(#clippath-4);
      }

      .cls-19 {
        clip-path: url(#clippath-71);
      }

      .cls-20 {
        clip-path: url(#clippath-22);
      }

      .cls-21 {
        clip-path: url(#clippath-23);
      }

      .cls-22 {
        clip-path: url(#clippath-82);
      }

      .cls-23 {
        clip-path: url(#clippath-54);
      }

      .cls-24 {
        clip-path: url(#clippath-66);
      }

      .cls-25 {
        clip-path: url(#clippath-9);
      }

      .cls-26 {
        clip-path: url(#clippath-70);
      }

      .cls-27 {
        clip-path: url(#clippath-10);
      }

      .cls-28 {
        clip-path: url(#clippath-42);
      }

      .cls-29 {
        clip-path: url(#clippath-59);
      }

      .cls-30 {
        fill: #fff;
      }

      .cls-31 {
        clip-path: url(#clippath-43);
      }

      .cls-32 {
        clip-path: url(#clippath-64);
      }

      .cls-33 {
        clip-path: url(#clippath-25);
      }

      .cls-34 {
        clip-path: url(#clippath-27);
      }

      .cls-35 {
        clip-path: url(#clippath-60);
      }

      .cls-36 {
        clip-path: url(#clippath-93);
      }

      .cls-37 {
        clip-path: url(#clippath-11);
      }

      .cls-38 {
        clip-path: url(#clippath-57);
      }

      .cls-39 {
        clip-path: url(#clippath-88);
      }

      .cls-40 {
        fill: none;
      }

      .cls-41 {
        clip-path: url(#clippath-85);
      }

      .cls-42 {
        clip-path: url(#clippath-36);
      }

      .cls-43 {
        clip-path: url(#clippath-92);
      }

      .cls-44 {
        clip-path: url(#clippath-35);
      }

      .cls-45 {
        clip-path: url(#clippath-48);
      }

      .cls-46 {
        clip-path: url(#clippath-28);
      }

      .cls-47 {
        clip-path: url(#clippath-1);
      }

      .cls-48 {
        clip-path: url(#clippath-56);
      }

      .cls-49 {
        clip-path: url(#clippath-90);
      }

      .cls-50 {
        clip-path: url(#clippath-45);
      }

      .cls-51 {
        clip-path: url(#clippath-89);
      }

      .cls-52 {
        clip-path: url(#clippath-46);
      }

      .cls-53 {
        clip-path: url(#clippath-40);
      }

      .cls-54 {
        clip-path: url(#clippath-5);
      }

      .cls-55 {
        clip-path: url(#clippath-20);
      }

      .cls-56 {
        clip-path: url(#clippath-95);
      }

      .cls-57 {
        clip-path: url(#clippath-8);
      }

      .cls-58 {
        clip-path: url(#clippath-52);
      }

      .cls-59 {
        clip-path: url(#clippath-41);
      }

      .cls-60 {
        clip-path: url(#clippath-67);
      }

      .cls-61 {
        clip-path: url(#clippath-74);
      }

      .cls-62 {
        clip-path: url(#clippath-3);
      }

      .cls-63 {
        clip-path: url(#clippath-26);
      }

      .cls-64 {
        clip-path: url(#clippath-91);
      }

      .cls-65 {
        clip-path: url(#clippath-12);
      }

      .cls-66 {
        clip-path: url(#clippath-50);
      }

      .cls-67 {
        clip-path: url(#clippath-14);
      }

      .cls-68 {
        clip-path: url(#clippath-30);
      }

      .cls-69 {
        clip-path: url(#clippath-77);
      }

      .cls-70 {
        clip-path: url(#clippath-19);
      }

      .cls-71 {
        clip-path: url(#clippath-78);
      }

      .cls-72 {
        clip-path: url(#clippath-72);
      }

      .cls-73 {
        clip-path: url(#clippath-84);
      }

      .cls-74 {
        clip-path: url(#clippath-32);
      }

      .cls-75 {
        clip-path: url(#clippath-55);
      }

      .cls-76 {
        clip-path: url(#clippath-73);
      }

      .cls-77 {
        clip-path: url(#clippath-53);
      }

      .cls-78 {
        clip-path: url(#clippath-39);
      }

      .cls-79 {
        clip-path: url(#clippath-81);
      }

      .cls-80 {
        clip-path: url(#clippath-16);
      }

      .cls-81 {
        clip-path: url(#clippath-2);
      }

      .cls-82 {
        clip-path: url(#clippath-29);
      }

      .cls-83 {
        clip-path: url(#clippath-49);
      }

      .cls-84 {
        clip-path: url(#clippath-37);
      }

      .cls-85 {
        clip-path: url(#clippath-58);
      }

      .cls-86 {
        clip-path: url(#clippath-13);
      }

      .cls-87 {
        clip-path: url(#clippath-86);
      }

      .cls-88 {
        clip-path: url(#clippath-63);
      }

      .cls-89 {
        clip-path: url(#clippath-24);
      }

      .cls-90 {
        clip-path: url(#clippath-94);
      }

      .cls-91 {
        clip-path: url(#clippath);
      }

      .cls-92 {
        clip-path: url(#clippath-87);
      }

      .cls-93 {
        clip-path: url(#clippath-68);
      }

      .cls-94 {
        clip-path: url(#clippath-83);
      }

      .cls-95 {
        clip-path: url(#clippath-65);
      }

      .cls-96 {
        clip-path: url(#clippath-44);
      }

      .cls-97 {
        clip-path: url(#clippath-62);
      }

      .cls-98 {
        clip-path: url(#clippath-69);
      }
    </style>
    <clipPath id="clippath">
      <rect class="cls-40" x="11.62" y="135.78" width="379.86" height="90.83"/>
    </clipPath>
    <clipPath id="clippath-1">
      <rect class="cls-40" x="11.62" y="135.78" width="379.86" height="90.83"/>
    </clipPath>
    <clipPath id="clippath-2">
      <rect class="cls-40" x="11.62" y="135.78" width="379.86" height="90.83"/>
    </clipPath>
    <clipPath id="clippath-3">
      <rect class="cls-40" x="11.62" y="135.78" width="379.86" height="90.83"/>
    </clipPath>
    <clipPath id="clippath-4">
      <rect class="cls-40" x="11.62" y="135.78" width="379.86" height="90.83"/>
    </clipPath>
    <clipPath id="clippath-5">
      <rect class="cls-40" x="11.62" y="135.78" width="379.86" height="90.83"/>
    </clipPath>
    <clipPath id="clippath-6">
      <rect class="cls-40" x="11.62" y="135.78" width="379.86" height="90.83"/>
    </clipPath>
    <clipPath id="clippath-7">
      <rect class="cls-40" x="11.62" y="135.78" width="379.86" height="90.83"/>
    </clipPath>
    <clipPath id="clippath-8">
      <rect class="cls-40" x="11.62" y="135.78" width="379.86" height="90.83"/>
    </clipPath>
    <clipPath id="clippath-9">
      <rect class="cls-40" x="11.62" y="135.78" width="379.86" height="90.83"/>
    </clipPath>
    <clipPath id="clippath-10">
      <rect class="cls-40" x="11.62" y="135.78" width="379.86" height="90.83"/>
    </clipPath>
    <clipPath id="clippath-11">
      <rect class="cls-40" x="11.62" y="135.78" width="379.86" height="90.83"/>
    </clipPath>
    <clipPath id="clippath-12">
      <rect class="cls-40" x="11.62" y="135.78" width="379.86" height="90.83"/>
    </clipPath>
    <clipPath id="clippath-13">
      <rect class="cls-40" x="11.62" y="135.78" width="379.86" height="90.83"/>
    </clipPath>
    <clipPath id="clippath-14">
      <rect class="cls-40" x="11.62" y="135.78" width="379.86" height="90.83"/>
    </clipPath>
    <clipPath id="clippath-15">
      <rect class="cls-40" x="11.62" y="135.78" width="379.86" height="90.83"/>
    </clipPath>
    <clipPath id="clippath-16">
      <rect class="cls-40" x="11.62" y="135.78" width="379.86" height="90.83"/>
    </clipPath>
    <clipPath id="clippath-17">
      <rect class="cls-40" x="11.62" y="135.78" width="379.86" height="90.83"/>
    </clipPath>
    <clipPath id="clippath-18">
      <rect class="cls-40" x="11.62" y="135.78" width="379.86" height="90.83"/>
    </clipPath>
    <clipPath id="clippath-19">
      <rect class="cls-40" x="11.62" y="135.78" width="379.86" height="90.83"/>
    </clipPath>
    <clipPath id="clippath-20">
      <rect class="cls-40" x="11.62" y="135.78" width="379.86" height="90.83"/>
    </clipPath>
    <clipPath id="clippath-21">
      <rect class="cls-40" x="11.62" y="135.78" width="379.86" height="90.83"/>
    </clipPath>
    <clipPath id="clippath-22">
      <rect class="cls-40" x="11.62" y="135.78" width="379.86" height="90.83"/>
    </clipPath>
    <clipPath id="clippath-23">
      <rect class="cls-40" x="11.62" y="135.78" width="379.86" height="90.83"/>
    </clipPath>
    <clipPath id="clippath-24">
      <rect class="cls-40" x="11.62" y="135.78" width="379.86" height="90.83"/>
    </clipPath>
    <clipPath id="clippath-25">
      <rect class="cls-40" x="11.62" y="135.78" width="379.86" height="90.83"/>
    </clipPath>
    <clipPath id="clippath-26">
      <rect class="cls-40" x="11.62" y="135.78" width="379.86" height="90.83"/>
    </clipPath>
    <clipPath id="clippath-27">
      <rect class="cls-40" x="11.62" y="135.78" width="379.86" height="90.83"/>
    </clipPath>
    <clipPath id="clippath-28">
      <rect class="cls-40" x="11.62" y="135.78" width="379.86" height="90.83"/>
    </clipPath>
    <clipPath id="clippath-29">
      <rect class="cls-40" x="11.62" y="135.78" width="379.86" height="90.83"/>
    </clipPath>
    <clipPath id="clippath-30">
      <rect class="cls-40" x="11.62" y="135.78" width="379.86" height="90.83"/>
    </clipPath>
    <clipPath id="clippath-31">
      <rect class="cls-40" x="11.62" y="135.78" width="379.86" height="90.83"/>
    </clipPath>
    <clipPath id="clippath-32">
      <rect class="cls-40" x="11.62" y="135.78" width="379.86" height="90.83"/>
    </clipPath>
    <clipPath id="clippath-33">
      <rect class="cls-40" x="11.62" y="135.78" width="379.86" height="90.83"/>
    </clipPath>
    <clipPath id="clippath-34">
      <rect class="cls-40" x="11.62" y="135.78" width="379.86" height="90.83"/>
    </clipPath>
    <clipPath id="clippath-35">
      <rect class="cls-40" x="11.62" y="135.78" width="379.86" height="90.83"/>
    </clipPath>
    <clipPath id="clippath-36">
      <rect class="cls-40" x="11.62" y="135.78" width="379.86" height="90.83"/>
    </clipPath>
    <clipPath id="clippath-37">
      <rect class="cls-40" x="11.62" y="135.78" width="379.86" height="90.83"/>
    </clipPath>
    <clipPath id="clippath-38">
      <rect class="cls-40" x="11.62" y="135.78" width="379.86" height="90.83"/>
    </clipPath>
    <clipPath id="clippath-39">
      <rect class="cls-40" x="11.62" y="135.78" width="379.86" height="90.83"/>
    </clipPath>
    <clipPath id="clippath-40">
      <rect class="cls-40" x="11.62" y="135.78" width="379.86" height="90.83"/>
    </clipPath>
    <clipPath id="clippath-41">
      <rect class="cls-40" x="11.62" y="135.78" width="379.86" height="90.83"/>
    </clipPath>
    <clipPath id="clippath-42">
      <rect class="cls-40" x="11.62" y="135.78" width="379.86" height="90.83"/>
    </clipPath>
    <clipPath id="clippath-43">
      <rect class="cls-40" x="11.62" y="135.78" width="379.86" height="90.83"/>
    </clipPath>
    <clipPath id="clippath-44">
      <rect class="cls-40" x="11.62" y="135.78" width="379.86" height="90.83"/>
    </clipPath>
    <clipPath id="clippath-45">
      <rect class="cls-40" x="11.62" y="135.78" width="379.86" height="90.83"/>
    </clipPath>
    <clipPath id="clippath-46">
      <rect class="cls-40" x="11.62" y="135.78" width="379.86" height="90.83"/>
    </clipPath>
    <clipPath id="clippath-47">
      <rect class="cls-40" x="11.62" y="135.78" width="379.86" height="90.83"/>
    </clipPath>
    <clipPath id="clippath-48">
      <rect class="cls-40" x="11.62" y="135.78" width="379.86" height="90.83"/>
    </clipPath>
    <clipPath id="clippath-49">
      <rect class="cls-40" x="11.62" y="135.78" width="379.86" height="90.83"/>
    </clipPath>
    <clipPath id="clippath-50">
      <rect class="cls-40" x="11.62" y="135.78" width="379.86" height="90.83"/>
    </clipPath>
    <clipPath id="clippath-51">
      <rect class="cls-40" x="11.62" y="135.78" width="379.86" height="90.83"/>
    </clipPath>
    <clipPath id="clippath-52">
      <rect class="cls-40" x="11.62" y="135.78" width="379.86" height="90.83"/>
    </clipPath>
    <clipPath id="clippath-53">
      <rect class="cls-40" x="11.62" y="135.78" width="379.86" height="90.83"/>
    </clipPath>
    <clipPath id="clippath-54">
      <rect class="cls-40" x="11.62" y="135.78" width="379.86" height="90.83"/>
    </clipPath>
    <clipPath id="clippath-55">
      <rect class="cls-40" x="11.62" y="135.78" width="379.86" height="90.83"/>
    </clipPath>
    <clipPath id="clippath-56">
      <rect class="cls-40" x="11.62" y="135.78" width="379.86" height="90.83"/>
    </clipPath>
    <clipPath id="clippath-57">
      <rect class="cls-40" x="11.62" y="135.78" width="379.86" height="90.83"/>
    </clipPath>
    <clipPath id="clippath-58">
      <rect class="cls-40" x="11.62" y="135.78" width="379.86" height="90.83"/>
    </clipPath>
    <clipPath id="clippath-59">
      <rect class="cls-40" x="11.62" y="135.78" width="379.86" height="90.83"/>
    </clipPath>
    <clipPath id="clippath-60">
      <rect class="cls-40" x="11.62" y="135.78" width="379.86" height="90.83"/>
    </clipPath>
    <clipPath id="clippath-61">
      <rect class="cls-40" x="11.62" y="135.78" width="379.86" height="90.83"/>
    </clipPath>
    <clipPath id="clippath-62">
      <rect class="cls-40" x="11.62" y="135.78" width="379.86" height="90.83"/>
    </clipPath>
    <clipPath id="clippath-63">
      <rect class="cls-40" x="11.62" y="135.78" width="379.86" height="90.83"/>
    </clipPath>
    <clipPath id="clippath-64">
      <rect class="cls-40" x="11.62" y="135.78" width="379.86" height="90.83"/>
    </clipPath>
    <clipPath id="clippath-65">
      <rect class="cls-40" x="11.62" y="135.78" width="379.86" height="90.83"/>
    </clipPath>
    <clipPath id="clippath-66">
      <rect class="cls-40" x="11.62" y="135.78" width="379.86" height="90.83"/>
    </clipPath>
    <clipPath id="clippath-67">
      <rect class="cls-40" x="11.62" y="135.78" width="379.86" height="90.83"/>
    </clipPath>
    <clipPath id="clippath-68">
      <rect class="cls-40" x="11.62" y="135.78" width="379.86" height="90.83"/>
    </clipPath>
    <clipPath id="clippath-69">
      <rect class="cls-40" x="11.62" y="135.78" width="379.86" height="90.83"/>
    </clipPath>
    <clipPath id="clippath-70">
      <rect class="cls-40" x="11.62" y="135.78" width="379.86" height="90.83"/>
    </clipPath>
    <clipPath id="clippath-71">
      <rect class="cls-40" x="11.62" y="135.78" width="379.86" height="90.83"/>
    </clipPath>
    <clipPath id="clippath-72">
      <rect class="cls-40" x="11.62" y="135.78" width="379.86" height="90.83"/>
    </clipPath>
    <clipPath id="clippath-73">
      <rect class="cls-40" x="11.62" y="135.78" width="379.86" height="90.83"/>
    </clipPath>
    <clipPath id="clippath-74">
      <rect class="cls-40" x="11.62" y="135.78" width="379.86" height="90.83"/>
    </clipPath>
    <clipPath id="clippath-75">
      <rect class="cls-40" x="11.62" y="135.78" width="379.86" height="90.83"/>
    </clipPath>
    <clipPath id="clippath-76">
      <rect class="cls-40" x="11.62" y="135.78" width="379.86" height="90.83"/>
    </clipPath>
    <clipPath id="clippath-77">
      <rect class="cls-40" x="11.62" y="135.78" width="379.86" height="90.83"/>
    </clipPath>
    <clipPath id="clippath-78">
      <rect class="cls-40" x="11.62" y="135.78" width="379.86" height="90.83"/>
    </clipPath>
    <clipPath id="clippath-79">
      <rect class="cls-40" x="11.62" y="135.78" width="379.86" height="90.83"/>
    </clipPath>
    <clipPath id="clippath-80">
      <rect class="cls-40" x="11.62" y="135.78" width="379.86" height="90.83"/>
    </clipPath>
    <clipPath id="clippath-81">
      <rect class="cls-40" x="11.62" y="135.78" width="379.86" height="90.83"/>
    </clipPath>
    <clipPath id="clippath-82">
      <rect class="cls-40" x="11.62" y="135.78" width="379.86" height="90.83"/>
    </clipPath>
    <clipPath id="clippath-83">
      <rect class="cls-40" x="11.62" y="135.78" width="379.86" height="90.83"/>
    </clipPath>
    <clipPath id="clippath-84">
      <rect class="cls-40" x="11.62" y="135.78" width="379.86" height="90.83"/>
    </clipPath>
    <clipPath id="clippath-85">
      <rect class="cls-40" x="11.62" y="135.78" width="379.86" height="90.83"/>
    </clipPath>
    <clipPath id="clippath-86">
      <rect class="cls-40" x="11.62" y="135.78" width="379.86" height="90.83"/>
    </clipPath>
    <clipPath id="clippath-87">
      <rect class="cls-40" x="11.62" y="135.78" width="379.86" height="90.83"/>
    </clipPath>
    <clipPath id="clippath-88">
      <rect class="cls-40" x="11.62" y="135.78" width="379.86" height="90.83"/>
    </clipPath>
    <clipPath id="clippath-89">
      <rect class="cls-40" x="11.62" y="135.78" width="379.86" height="90.83"/>
    </clipPath>
    <clipPath id="clippath-90">
      <rect class="cls-40" x="11.62" y="135.78" width="379.86" height="90.83"/>
    </clipPath>
    <clipPath id="clippath-91">
      <rect class="cls-40" x="11.62" y="135.78" width="379.86" height="90.83"/>
    </clipPath>
    <clipPath id="clippath-92">
      <rect class="cls-40" x="11.62" y="135.78" width="379.86" height="90.83"/>
    </clipPath>
    <clipPath id="clippath-93">
      <rect class="cls-40" x="11.62" y="135.78" width="379.86" height="90.83"/>
    </clipPath>
    <clipPath id="clippath-94">
      <rect class="cls-40" x="11.62" y="135.78" width="379.86" height="90.83"/>
    </clipPath>
    <clipPath id="clippath-95">
      <rect class="cls-40" x="11.62" y="135.78" width="379.86" height="90.83"/>
    </clipPath>
  </defs>
  <g class="cls-91">
    <path d="M18.36,172.06c.8.17,1.04.09,1.16-.49l.17.05-.53,2.31-.16-.05c.13-.48.03-.8-.87-1l-5.02-1.11-.23.96c-.2.87-.03,1.33.64,1.56l-.05.19-1.51-.35.05-.17c.11-.09.19-.13.27-.32.07-.13.16-.33.21-.6l.8-3.47c.11-.56.11-.83,0-1.09l.04-.2,1.49.35-.03.13c-.57,0-1.01.16-1.24,1.2l-.23,1.03,5.01,1.09h.01Z"/>
  </g>
  <g class="cls-47">
    <path d="M18.75,164.57l1.77.85c.72.35,1.04.29,1.31-.23l.17.09-1.05,2.21-.21-.11c.23-.47.17-.8-.64-1.16l-3.77-1.83c-.72-.35-1.01-.32-1.31.2l-.13-.09,1.07-2.17.13.09c-.23.47-.13.8.64,1.16l1.73.84,1.6-3.31-1.73-.84c-.72-.36-1.04-.31-1.28.21l-.2-.13,1.04-2.16.17.09c-.27.53-.09.83.64,1.17l3.79,1.83c.72.35,1.04.29,1.31-.23l.17.09-1.01,2.23-.21-.13c.23-.45.17-.75-.64-1.15l-1.73-.84-1.6,3.31h-.01Z"/>
  </g>
  <g class="cls-81">
    <path d="M26.68,153.5l-.13.17c-.53-.29-.67-.23-1.09.29l-1.07,1.31,1.87,1.53c.27.2.43.2.67-.09l.75-.88c.64-.76.76-.99.35-1.87l.13-.16.77,1.04-3.13,3.73-.13-.13c.33-.4.33-.67-.33-1.23l-3.24-2.72c-.64-.53-.93-.53-1.31-.09l-.17-.13,3.11-3.73.87.73-.05.09c-.67-.36-.87-.24-1.33.33l-1.24,1.51,2.2,1.83,1.2-1.47c.31-.33.36-.53-.04-.97l.13-.13,1.24,1.04Z"/>
  </g>
  <g class="cls-62">
    <path d="M39.29,145.95c-.17.96-.64,1.63-1.39,2.05-1.47.8-2.57.13-3.16-.89l-1.63-2.89c-.44-.8-.72-.8-1.2-.53l-.08-.19,2.13-1.2.08.17c-.47.27-.53.53-.13,1.31l1.67,2.97c.49.89,1.39,1.28,2.37.69.67-.35,1.07-1.04,1.13-1.87l-2-3.55c-.36-.71-.67-.85-1.15-.63l-.09-.17,2.05-1.16.11.17c-.49.29-.53.61-.13,1.31l2.04,3.65c.45.8.73.8,1.2.53l.09.19-1.47.8-.4-.8-.05.03Z"/>
  </g>
  <g class="cls-18">
    <path d="M49.98,143.28l-.2.03-6.05-4.49h-.04l1.2,4.57c.16.67.48.85,1.07.67l.04.19-1.97.49-.05-.16c.53-.13.8-.37.53-1.31l-1-3.83c-.17-.72-.49-1.07-1.28-.96l-.09-.16,1.68-.44,5.38,4.03h.05l-.99-3.8c-.23-.84-.49-1.01-1.07-.87l-.05-.2,1.97-.49.05.17c-.64.13-.8.49-.57,1.24l1.37,5.37v-.05Z"/>
  </g>
  <g class="cls-54">
    <path d="M55.47,141.45c.04.8.27,1.04.8,1.04v.21l-2.4.13-.03-.21c.53-.03.76-.27.69-1.11l-.2-4.19c-.07-.85-.24-1.07-.83-1.03l-.04-.23,2.4-.13.04.21c-.53.03-.76.29-.69,1.11l.27,4.17h-.01Z"/>
  </g>
  <g class="cls-6">
    <path d="M62.27,143.16l-.17-.03-1.33-5.68c-.2-.84-.32-1.2-.96-1.31l.03-.2,2.4.32-.03.2c-.47-.05-.72.13-.61.69l1.03,4.53,2.13-3.96c.27-.53.21-.89-.4-1.01l.04-.19,1.95.27-.03.2c-.49-.04-.93.27-1.39,1.15l-2.67,5.04v-.03Z"/>
  </g>
  <g class="cls-7">
    <path d="M72.89,143.28l-.17-.05c.05-.63-.03-.71-.67-.93l-1.56-.59-.84,2.27c-.13.32-.05.47.29.61l1.11.4c.93.32,1.17.37,1.84-.32l.17.05-.71,1.07-4.57-1.65.05-.17c.49.17.8.13,1.07-.72l1.47-3.93c.27-.8.16-1.07-.36-1.28l.07-.19,4.57,1.65-.4,1.07-.13-.05c.13-.75-.08-.87-.77-1.12l-1.83-.67-.99,2.72,1.76.64c.44.13.64.13.89-.35l.16.05-.47,1.47v.03Z"/>
  </g>
  <g class="cls-57">
    <path d="M80.53,142.84l.63.4c.87.53,1.07,1.47.57,2.2-.44.64-1.2,1.04-2.17.44l-.72-.49,1.71-2.53h-.01ZM78.69,145.64l.47.27c1.04.67.47,2.21.67,4.16l1.16.76.13-.16c-.88-.69-.04-2.8-.67-4.13,1,.27,1.67,0,2.07-.67.48-.75.33-1.84-.91-2.71l-2.31-1.52-.13.23c.48.29.56.53.07,1.28l-2.31,3.49c-.49.76-.8.76-1.2.47l-.13.17,2.03,1.33.11-.17c-.47-.29-.49-.64-.05-1.31l1.01-1.51h0Z"/>
  </g>
  <g class="cls-25">
    <path d="M89.42,151.74l-.13-.13c.63-.8.43-1.57-.07-2.04-.49-.49-1.13-.61-1.56-.13-.91.85.07,2.33.07,3.67,0,.67-.23,1.04-.53,1.36-.8.72-2,.72-2.73-.03-.49-.53-.67-1.2-.84-1.36-.09-.09-.2-.09-.35,0l-.13-.13,1.29-1.29.13.16c-.85.87-.45,1.87-.04,2.32.53.57,1.28.64,1.8.13.84-.83-.05-2.51-.05-3.55,0-.57.24-1.04.63-1.39.72-.72,1.77-.69,2.53.09.48.49.53.93.71,1.11.09.09.13.09.27,0l.13.13-1.11,1.09h-.01Z"/>
  </g>
  <g class="cls-27">
    <path d="M89.99,158.97c-.67.45-.8.77-.44,1.23l-.13.13-1.4-2,.13-.13c.33.47.63.49,1.33.03l3.44-2.37c.69-.49.8-.8.44-1.24l.13-.13,1.4,2-.13.13c-.33-.47-.67-.49-1.33-.03l-3.44,2.4h0Z"/>
  </g>
  <g class="cls-37">
    <path d="M93.35,165.07c-.72.35-.87.53-.64,1.11l-.17.11-.97-2.17.17-.09c.2.44.44.64,1.28.27l4.66-2.13-.4-.88c-.37-.84-.8-1.07-1.47-.84l-.08-.19,1.39-.64.09.16c0,.13-.04.23,0,.4,0,.13.08.35.21.61l1.47,3.2c.24.51.45.75.67.85l.11.17-1.39.64-.05-.11c.47-.35.72-.72.29-1.68l-.47-.93-4.66,2.16h-.04Z"/>
  </g>
  <g class="cls-65">
    <path d="M95.99,173.23c-.8.19-1.01.4-.89.93l-.17.07-.53-2.4.17-.07c.13.49.29.8,1.2.57l2.11-.44,1.89-1.87c.64-.6.72-.83.64-1.33l.17-.07.53,2.57-.16.05c-.13-.72-.43-.76-.77-.4l-1.73,1.73,1.87.69c.59.2,1.07.13.97-.44l.17-.04.37,1.8-.17.05c-.13-.49-.32-.64-.99-.89l-2.67-1-2,.48h-.01Z"/>
  </g>
  <g class="cls-86">
    <path d="M16.15,190.33c1.84-.53,3.37.05,3.84,1.6.37,1.33-.44,2.76-2.49,3.33-1.55.47-3.33.05-3.81-1.6-.43-1.47.59-2.8,2.47-3.33M15.84,189.32c-1.91.53-2.99,2.49-2.44,4.44.53,1.95,2.49,3.01,4.44,2.47,1.87-.53,2.93-2.49,2.37-4.44-.57-1.95-2.43-3.01-4.37-2.47"/>
  </g>
  <g class="cls-67">
    <path d="M18.55,202.38c-.72.4-.84.72-.53,1.2l-.19.08-1.2-2.13.19-.08c.29.49.57.53,1.31.13l3.65-2.08c.72-.43.84-.67.53-1.17l.19-.09,2.29,4.03-1.04.61-.09-.13c.64-.53.57-.75.23-1.37l-.84-1.47-2.47,1.33.87,1.55c.27.44.53.47,1.07.27l.09.13-1.65.97-.09-.13c.4-.27.53-.63.29-1.03l-.87-1.52-1.73.93v-.03Z"/>
  </g>
  <g class="cls-13">
    <path d="M31.48,215.35l-.16-.11c.27-.53.23-.67-.32-1.11l-1.27-1.07-1.55,1.87c-.2.27-.2.43.09.67l.91.71c.8.64.99.76,1.87.32l.13.13-1.01.8-3.77-3.07.11-.13c.4.33.69.33,1.24-.33l2.67-3.24c.53-.67.53-.97.11-1.33l.13-.13,3.73,3.07-.73.87-.09-.09c.35-.67.2-.87-.35-1.33l-1.51-1.2-1.77,2.19,1.47,1.2c.33.27.53.33.97-.07l.13.13-1.04,1.25h.01Z"/>
  </g>
  <g class="cls-80">
    <path d="M39.12,215.57l1.16.53c1.95.88,2,2.67,1.31,4.13-.8,1.65-2.17,2.29-3.68,1.6l-.64-.29c-.53-.27-.69-.53-.27-1.47l2.13-4.5h-.01ZM36.13,219.94c-.36.8-.67.87-1.17.67l-.09.17,2.89,1.33c2.4,1.11,4.03.13,4.72-1.39.72-1.6.35-3.68-2-4.74l-2.8-1.31-.11.17c.53.23.57.53.27,1.28l-1.73,3.8h.03Z"/>
  </g>
  <g class="cls-8">
    <path d="M47.98,224.2c-.17.8-.03,1.11.53,1.2l-.07.19-2.37-.53.05-.19c.51.13.77-.05.97-.87l.89-4.09c.17-.84.05-1.07-.53-1.2l.07-.19,2.37.51-.05.17c-.56-.11-.83.11-1,.88l-.89,4.11h.03Z"/>
  </g>
  <g class="cls-16">
    <path d="M60.13,226.34h-.19l-4.8-5.8h-.04l.05,4.72c0,.67.29.93.89.89v.21l-2.03.03v-.2c.53,0,.84-.17.8-1.16l-.03-3.96c-.04-.76-.24-1.2-1.03-1.24v-.2l1.73-.03,4.27,5.2h.03l-.05-3.96c0-.87-.27-1.11-.83-1.11v-.2h2.01v.16c-.67,0-.87.29-.87,1.07l.08,5.57h-.01Z"/>
  </g>
  <g class="cls-70">
    <path d="M67.2,221.53l-.77-2.76.64-.17c1.04-.29,1.71.13,1.95.99.23.8-.2,1.53-1.16,1.77l-.67.19h.01ZM66.96,224.02c.23.83.09,1.07-.47,1.25l.05.17,3-.84c1.2-.32,1.91-1.2,1.65-2.13-.24-.88-1.15-1.47-2.19-1.37.8-.53,1.11-1.11.89-1.83-.23-.84-1.13-1.39-2.69-.96l-2.43.67.05.19c.53-.13.8,0,1.01.84l1.12,4.05v-.04ZM67.25,221.78l.61-.17c1.16-.33,2.05.11,2.32,1.07.27.93-.23,1.55-.89,1.73l-.53.13c-.48.13-.71-.03-.97-.89l-.53-1.87Z"/>
  </g>
  <g class="cls-55">
    <path d="M80.89,218.52c-.17.99-.61,1.63-1.39,2.09-1.43.84-2.53.13-3.13-.84l-1.68-2.87c-.47-.8-.72-.8-1.2-.53l-.08-.16,2.13-1.2.08.16c-.47.29-.53.53-.13,1.31l1.73,2.93c.51.89,1.37,1.24,2.36.67.67-.4,1.07-1.07,1.09-1.95l-2.03-3.52c-.4-.67-.67-.8-1.16-.53l-.13-.19,2.07-1.2.09.19c-.49.29-.53.61-.13,1.31l2.13,3.63c.44.8.76.8,1.2.53l.11.16-1.43.84-.53-.83h.03Z"/>
  </g>
  <g class="cls-5">
    <path d="M83.59,209.39l.49-.49c.72-.72,1.65-.8,2.29-.13.53.53.77,1.41-.04,2.21l-.57.57-2.17-2.16ZM85.99,211.79l.37-.4c.87-.88,2.23-.04,4.23.13l.96-.99-.13-.16c-.85.72-2.73-.53-4.21-.17.51-.89.33-1.63-.19-2.13-.64-.67-1.77-.73-2.84.33l-1.95,1.97.13.13c.4-.36.67-.43,1.29.19l3.01,2.96c.64.64.61.93.23,1.31l.13.13,1.69-1.73-.13-.13c-.4.4-.71.35-1.33-.2l-1.25-1.27v.03Z"/>
  </g>
  <g class="cls-20">
    <path d="M97.05,202.38c-.13.37-.67,1.47-.84,1.68-1.53,2.53-3.56,2.44-4.89,1.63-2.03-1.24-2.23-3.47-1.39-4.89.49-.8.96-.96,1.2-1.39.13-.17.13-.29,0-.44l.13-.16,1.68,1.04-.09.13c-1.2-.51-2.23.19-2.72.97-.71,1.17-.21,2.67,1.37,3.67,1.68,1.04,3.53.8,4.37-.57.27-.4.51-1.01,0-1.33l-.67-.37c-.67-.44-1.03-.44-1.33.05l-.13.23-.17-.13,1.43-2.31.17.09c-.35.53-.13.85.35,1.17l1.56.93h-.03Z"/>
  </g>
  <g class="cls-21">
    <path d="M96.85,194.62l1.87.53c.77.21,1.07.11,1.23-.48l.17.04-.67,2.36-.16-.05c.13-.49.05-.8-.8-1.04l-4.04-1.16c-.8-.21-1.07-.13-1.24.45l-.17-.05.67-2.35.16.05c-.13.53-.03.8.8,1.04l1.84.53,1.01-3.52-1.83-.53c-.83-.21-1.07-.11-1.25.45l-.17-.05.67-2.32.17.05c-.13.53.05.8.8,1.04l4.04,1.16c.77.23,1.07.13,1.23-.44l.23.08-.67,2.32-.19-.05c.13-.49.05-.8-.8-1.01l-1.89-.53-1.07,3.47h.07Z"/>
  </g>
  <g class="cls-89">
    <path d="M15.52,181.81c0,.32-.27.61-.61.57-.32,0-.61-.27-.61-.61,0-.31.27-.6.63-.6.36.04.61.31.61.67"/>
  </g>
  <g class="cls-33">
    <path d="M99.69,181.81c0,.32-.27.61-.61.57-.32,0-.61-.27-.61-.61s.27-.6.61-.6c.36.08.61.33.61.67"/>
  </g>
  <g class="cls-63">
    <path d="M74.29,212.37c.47-.27.89-.53,1.36-.87l1.16-.69,1.03-.8,1.11-.83.23-.23.27-.13c.32-.23.64-.53.93-.8l.67-.71.8-.67c.11-.09.13-.2.27-.29.19-.2.43-.4.6-.61l.4-.48c.47-.44.89-.93,1.28-1.43l.93-1.13c.2-.29.44-.57.64-.87l.32-.35,1.01-1.41c.09-.13.13-.32.27-.49.09-.13.13-.23.23-.32.05-.13.13-.27.17-.4l.67-1.2c.17-.27.35-.6.53-.88.13-.32.21-.64.36-.93.13-.32.32-.67.47-.99.53-1.39,1.04-2.8,1.47-4.27,0-.17.04-.35.08-.53.13-.51.27-1.07.35-1.6l.09-.85c.09-.48.17-.93.23-1.4l.09-1.11.11-.44.05-.93.09-.48v-.67c.08-1.43.11-2.93.04-4.32-.05-.72-.2-1.47-.29-2.13-.08-.77-.13-1.49-.27-2.21-.4-1.97-.97-3.87-1.67-5.73-.09-.27-.27-.49-.35-.8-.24-.53-.51-1.03-.73-1.55l-.27-.44c-.23-.47-.35-.96-.61-1.39-.16-.27-.33-.48-.51-.77l-.4-.84c-.49-.8-1.01-1.57-1.53-2.33l-.57-.67-.67-.84c-.2-.2-.44-.4-.61-.64-.13-.13-.17-.29-.29-.4-.13-.17-.32-.35-.49-.53l-.31-.27c-.27-.27-.49-.53-.72-.83l-.67-.64-.64-.67-.89-.69-.93-.8c-.2-.16-.44-.27-.64-.4l-.8-.59c-.21-.13-.4-.29-.56-.47l-.44-.27-.57-.4c-.64-.4-1.31-.69-1.97-1.01-.23-.13-.49-.29-.72-.47-.44-.2-.84-.44-1.24-.64l-1.04-.44c-.19-.08-.36-.16-.53-.27l-.4-.16c-.27-.04-.47-.13-.71-.24-.67-.23-1.33-.4-2-.61-.32-.09-.64-.23-.99-.32-.69-.2-1.43-.32-2.13-.47-.48-.13-.97-.23-1.44-.32l-.93-.11c-.53-.13-1.07-.2-1.63-.27l-.64-.03-.44-.05-.84-.03c-.67-.05-1.33-.09-2-.09-.27.09-.6.03-.88.03h-.99c-.09,0-.17,0-.29.04l-.72.03-.37.09-.37.05c-.13,0-.23-.03-.35.03-.05.03-.13.03-.23.03-.13,0-.32,0-.44.05-.32,0-.84.05-1.07.17-.09.03-.13.03-.23.03-.2,0-.49,0-.67.11-.53,0-1.01.23-1.51.35-.27.05-.57.09-.8.23-.24,0-.48.07-.67.16-.33,0-.63.2-.93.32-.16.05-.4.05-.53.17-.35,0-.67.19-.93.31l-.61.27c-1.07.47-2.13.96-3.13,1.47-.16.13-.33.24-.51.33-1.2.69-2.4,1.36-3.47,2.27-.33.23-.67.44-.97.69-.19.13-.36.29-.53.44-.29.23-.64.44-.93.69-.61.49-1.2,1.11-1.77,1.65-.35.31-.72.67-1.07.93-.13.16-.23.31-.35.4-.16.19-.33.33-.48.48-.27.27-.44.57-.67.84-.23.21-.44.4-.64.67l-.27.33c-.37.44-.72.84-1.04,1.28l-.67,1.07c-.32.4-.67.93-.93,1.33-.05.16-.13.31-.2.45l-.64,1.07c-.17.37-.32.8-.49,1.16l-.17.33c-.17.32-.32.67-.53,1.01-.08.21-.16.45-.27.67s-.21.43-.31.67l-.27.77c-.13.27-.2.53-.32.8-.53,1.73-.99,3.44-1.33,5.22l-.09,1.01c-.04.4-.16.84-.21,1.2-.03.31-.03.67-.09.93-.03.24-.05.48-.05.73-.05,1.47-.03,2.88.03,4.27.03.67.13,1.37.2,2.04l.05.87c.09.89.27,1.83.4,2.72.05.23.13.47.17.69.13.69.32,1.39.53,2.09l.16.48c0,.13.08.32.11.49l.8,2.27c.16.29.27.53.4.84.11.17.13.4.19.57.2.48.49.93.76,1.37.16.37.43.72.6,1.13,0,.13.03.27.13.4.04.09.13.13.19.27.08.13.13.32.21.49.17.32.4.64.64.93l.4.53c.17.24.4.48.57.71l.4.61c.27.29.49.61.8.89.21.27.43.53.63.83.27.29.53.53.8.84.21.27.4.53.67.8.33.31.67.67,1.03.97l.53.53c.29.27.64.43.89.67l.8.8.59.44c.24.21.45.45.71.67l.93.67c.23.11.47.16.67.31.23.17.49.35.72.53l.76.43c.89.53,1.87,1.04,2.8,1.51.45.2.85.47,1.29.61.45.17.85.32,1.25.49.13.07.29.11.47.13.4.13.8.32,1.2.47l.32.09c.35.13.69.29,1.07.4l1.33.27c.67.13,1.36.32,2.03.44.27.03.49.05.72.05.32.04.67.11,1.01.13l.8.05.48.09c.17,0,.35.04.53.04.4.05.8.13,1.2.17.2.03.4.03.64.03l.37-.05c.37,0,.8.05,1.2.05.21,0,.45-.03.67,0,.48.03.91-.05,1.33-.13h.63c.27-.04.53-.11.8-.11.97-.09,1.89-.2,2.83-.37.32-.09.64-.13.93-.27l1.2-.27c.19-.05.36-.13.56-.23.31-.09.63-.17.93-.29l.4-.13.67-.16c.48-.13.93-.31,1.44-.48l.84-.4c.27-.13.56-.23.83-.35l.23-.13c.27-.16.56-.27.83-.4l.96-.56c.16-.13.33-.19.51-.27"/>
  </g>
  <g class="cls-34">
    <path class="cls-30" d="M56.67,213.8h-.03v-.03c-.05,0-.09-.05-.09-.09l-.33-.57-.76-.87c-.76-.72-1.63-1.33-2.53-1.73l-.59-.2c-.23-.09-.4-.23-.64-.29-.2-.09-.44-.09-.67-.13-.23-.07-.47-.13-.69-.16l-1.43-.32c-.47-.05-.93-.13-1.39-.17-.37,0-.72,0-1.07-.04-1.68-.17-3.36-.32-4.98-.61-.56-.08-1.12-.08-1.67-.16-.53-.09-1.07-.27-1.6-.44-.29-.09-.57-.13-.84-.27s-.53-.23-.8-.35c-.19-.11-.4-.19-.56-.27-.13-.11-.27-.19-.4-.27-.05-.04-.13-.07-.17-.13-.44-.35-.8-.84-1.16-1.28-.27-.32-.4-.72-.53-1.13-.04-.21-.11-.4-.16-.63-.23-.93-.23-1.87-.23-2.89,0-.2,0-.4-.04-.61.03-.76.09-1.53.09-2.27l-.03-.49.03-2.27c0-.49.05-.99.03-1.47-.03-2,.03-4.11.05-6.16l-.05-.85.03-.93-.03-.44.13-1.39c0-.36-.04-.73-.04-1.07,0-.27.05-.51.03-.77-.03-.23-.05-.44-.05-.67.04-.2.04-.4.04-.61l-.03-1.24c0-.23.07-.49.04-.76-.03-.29-.05-.53-.05-.84s.04-.69.08-1.01-.03-.67-.03-.99l.03-2.17.03-.44-.05-.93.09-.8c.04-1.29.04-2.63.07-3.89v-1.31c-.03-.32-.05-.61-.05-.93.04-.2.04-.44.04-.64l-.03-3.33c0-.4.04-.77.04-1.15l-.03-1.36.04-.89c0-.27-.05-.61.03-.8,0-.07.09-.07.13-.07.6-.09,1.15-.13,1.64-.09.61.09,1.2,0,1.8,0h1.65c.32,0,.64-.03.99-.05.67,0,1.2.04,1.81,0h2.93c.32,0,.64,0,.93-.04.27,0,.49.05.8.05h.97c.51,0,1.07,0,1.6.04l.71.05c.72,0,1.47-.03,2.2-.05l1.47.05c.4,0,.8-.09,1.23-.09l.93.03.84-.03.99.09c.27-.03.49-.03.76-.03l1.47.05c.21-.04.45-.04.67-.07,1.33-.03,2.59,0,3.92-.03l.87-.05c.61-.04,1.2,0,1.8-.04.04.04.19.04.31.04.51.05,1.07,0,1.64.03.23,0,.4.05.64.05.24-.03.48-.03.73-.03.37.03.84.05,1.2.05.27,0,.53-.05.83-.05l.61.05.87-.03.61.09.49-.03c.19.04.36.04.53.04l.53-.03.93.04c.51-.03,1.03.03,1.55.03l.76-.05c.17.04.32.04.49.04.13,0,.35-.03.49.03l.03.03c.11.17.04.47.04.69,0,.67-.03,1.37,0,2.08.03.44.03.93.03,1.36l-.03.44c.03.33.03.67.03.93l-.05.93.11,1.23-.05.47c-.03.27.05.53.05.8l-.05.8-.03.99-.05.77.09,1.2c-.07.13-.07.27-.07.43-.03.32-.05.67-.03.99,0,.57.05,1.2.05,1.77l-.05.37c.03.27.03.53.03.8-.03.27-.05.63-.05.97,0,.23.05.47.05.69l-.05.37c.03.17.03.32.03.49-.03.64-.05,1.2-.05,1.87.03.31.03.63.03.93l.05.36-.03.64.03.4-.05.67c0,.32.09.64.05.99-.03.89-.09,1.77-.09,2.69,0,.37.05.69.05,1.04-.03.2-.05.4-.05.61,0,.44,0,.87-.03,1.28l-.04.69c.03.87.03,1.73.03,2.57,0,.63-.07,1.25-.07,1.84l.05.99c0,.13-.04.27-.04.37v.69l.03,1.65c0,.64,0,1.33-.04,2.03l-.03.53.05.36c-.04.4-.04.8-.07,1.2-.03.31.03.67.03,1-.03.2-.09.44-.13.64,0,.23-.04.47-.08.67-.08.4-.33.93-.53,1.28-.17.29-.47.44-.69.67-.13.13-.29.23-.44.35-.27.23-.53.47-.84.64-.17.09-.4.13-.57.23-.4.13-.8.32-1.2.49-.35.13-.76.23-1.11.37l-.29.09c-.2,0-.47.09-.64.17-.17,0-.35.03-.49.09-.27,0-.47.09-.67.13-.05.04-.13.07-.2.07-.13,0-.23.03-.32.05-.19,0-.67.09-.83.17-.17,0-.4-.04-.53,0-.13,0-.24.04-.33.07-.17,0-.35-.03-.49.05h-.27c-.13,0-.27,0-.37.07-.13,0-.27.03-.35.05-.23,0-.53-.04-.72.04l-.27.03c-.23,0-.47-.09-.67.03-.13,0-.27-.03-.37.03h-.17c-.2,0-.47,0-.64.04-.11.03-.19.03-.27.03l-.19.03c-.05.03-.13.03-.17.03h-.29s-.27,0-.36.07l-.27.03c-.13,0-.29,0-.4.05-.13,0-.27,0-.37.07-.13,0-.23.03-.32.05-.08,0-.19,0-.27.04l-.19.03c-.13,0-.37.05-.49.13-.11,0-.21,0-.31.04-.32,0-.61.13-.87.27-.23.09-.44.13-.64.23-.44,0-.87.37-1.16.64-.27.23-.61.32-.87.57-.71.84-1.15,1.73-1.49,2.64"/>
  </g>
  <rect class="cls-40" x="11.62" y="135.78" width="379.86" height="90.83"/>
  <path d="M60.13,209.39c.16-.09.36-.13.56-.23.37-.13.8-.17,1.2-.27.75-.13,1.47-.35,2.19-.53h.53c.31-.07.59-.13.88-.16l1.2-.05c.45-.03.93-.13,1.41-.17l1.28-.09c.37-.05.76-.13,1.13-.17.11-.03.27-.03.36-.03.57-.09,1.16-.23,1.68-.35.17-.07.37-.07.53-.13.53-.13,1.07-.35,1.57-.53.45-.13.85-.27,1.25-.45.35-.13.67-.4.99-.61.57-.37,1.2-.8,1.6-1.39.13-.27.32-.69.35-1.01.03-.13.03-.32.03-.47.13-.67.09-1.43.09-2.13.03-.27.03-.48.03-.75-.03-.13-.03-.27-.03-.4v-.83l-.05-.32v-.56c0-.17.04-.32.04-.53,0-.19-.05-.33-.05-.53,0-.23.04-.4.04-.64.03-.8,0-1.63.03-2.44l-.03-.6.03-2.13c.05-1.96.03-4.04.05-6-.04-.19-.04-.43-.04-.63-.03-.05-.03-.13-.03-.17.03-.13.05-.32.03-.49-.03-.13-.03-.23-.03-.35,0-.13.05-.32.05-.49,0-.35-.11-.67-.11-1.01,0-.27.03-.48.05-.71,0-.13,0-.23-.03-.35l.05-.33-.05-.4.05-.47c0-.13-.05-.27-.05-.4l.03-2.53c0-.19.05-.36.05-.53s-.05-.32-.05-.49l.05-.29.05-.83-.03-1.33-.05-.44c0-.35.05-.67.05-.99l-.05-.77c.03-2-.05-3.91,0-5.9.03-1.07.03-2.19.03-3.29.03-.61-.03-1.24-.03-1.8s0-1.11.03-1.71c0-.05-.29-.03-.35,0l-1.73-.03c-.37-.03-.76-.05-1.16-.05-.13,0-.27-.03-.35.03l-.43.05-.64-.09-2.17-.03c-.2,0-.72-.04-.87,0h-1.05c-.31-.04-.71-.16-1-.04-.09.03-.17.03-.27.03-.27,0-.53,0-.8-.04-.4-.03-.83-.09-1.23-.09-.32.09-.76-.05-1.07.05-.09.03-.13.03-.27.03h-.99c-.16,0-.4-.03-.51.03-.09,0-.23-.03-.32.03-.27,0-.49-.05-.76-.05l-1.93-.03c-.23,0-.57-.05-.8.03,0,.05-.04.05-.13.05-.09.03-.17.03-.29.03-.35,0-.96-.17-1.28-.05-.03.03-.09.03-.17.03-.13,0-.29,0-.4.05l-2.76-.03h-.72c-.13,0-.29-.05-.37,0-.23,0-.47,0-.69-.03-.32-.03-1.01-.13-1.31-.03h-.64c-.13-.03-.29-.05-.44,0-.17,0-.44-.03-.61.03-.37,0-.69-.05-1.07-.05-.13,0-.27-.03-.37.03-.23,0-.53-.05-.76.03h-1.04c-.17,0-.4-.03-.53.03-.43,0-.88,0-1.33.03-.27-.03-.83-.13-1.07-.03-.27,0-.77-.09-.97-.03-.61,0-1.13-.03-1.71-.09-.2-.03-.53-.09-.72,0-.13,0-.27-.03-.35.03-.23,0-.53-.05-.72.03-.17,0-.49-.05-.67.03-.72,0-1.53-.04-2.32-.07-.23,0-.53-.05-.76.03-.31,0-.91-.05-1.12.03-.13,0-.47-.07-.53.04-.19.27-.07,1.07-.07,1.31v2.13l-.08,2.37c0,.23-.05.37-.05.61l.03.61-.09.61c.07.45.07.89.07,1.29-.03.69-.05,1.47-.05,2.2.03.29.03.57.03.87.03.09.03.19.03.29-.03.17-.05.35-.05.53.03,1.27-.03,2.48-.03,3.76l.03,1.63c-.03.27-.05.51-.05.8l.03,1.2-.03,2.48c.03.29.03.57.03.87l-.05,1.12.03,4.49c0,.36-.05.67-.05,1.07v1.17c.03.17.03.35.03.53-.03,1.33-.09,2.6-.09,3.96,0,.61-.05,1.16-.09,1.73v.8l.05.31-.05.32c-.03.29-.03.61-.03.89,0,.33,0,.77.03,1.15,0,.17.05.32.05.49s-.09.29-.09.47c0,.23.05.37.05.61-.03,1.6.03,3.16.72,4.37.51.84,1.44,1.36,2.27,1.73.59.27,1.2.53,1.84.69.47.13.93.17,1.43.27l1.16.2c.37,0,.76.04,1.11.08.8.09,1.6.23,2.4.35.37.03.8.05,1.16.05.13.03.32.05.49.13h.88l.99.11c.13.03.32.03.49.03.13.05.29.05.44.13l1.2.16.4.13c.27.08.51.13.8.27.4.13.8.27,1.2.43l.83.44.47.29c.32.17.64.32.89.53.35.31.61.67.89,1,.11.13.16.27.31.32,0,.05.03.03.05.03,0-.05.13-.13.2-.2l.17-.27c.67-1,1.68-1.73,2.72-2.27.33-.24.51-.32.67-.36"/>
  <g class="cls-46">
    <path class="cls-30" d="M60.29,162.03h-.09v-.31c.05-.32.29-.47.47-.69.32.29-.17.76-.37.99"/>
  </g>
  <g class="cls-82">
    <path class="cls-30" d="M61.92,159.42c.13-.13.2-.32.32-.47l.29-.31c.23.03.44.05.67.05v.11c-.32,0-1.2,1.11-1.43,1.39-.09.13-.2.4-.35.47-.09.05-.2,0-.27-.05-.23-.13-.05-.35.03-.53,0-.08.04-.19.11-.27.09-.07.17-.11.27-.13.11-.05.23-.17.35-.27"/>
  </g>
  <g class="cls-68">
    <path class="cls-30" d="M59.8,160.17c.05-.13.05-.32.13-.49.08-.17.31-.23.48-.37.16-.13.16-.29.27-.44.13-.13.27-.17.4-.23h.4c0,.13-.21.32-.31.44-.09.2-.17.37-.29.53-.13.16-.23.33-.35.51-.11.13-.13.27-.24.4-.09.05-.13.13-.23.17-.05.08-.13.13-.2.21l-.2.2c-.13.16-.13.4-.29.53-.13.13-.44.17-.64.13h-.07c0-.11.4-.73.49-.83.09-.09.2-.09.29-.17.04-.09.04-.2.11-.29.05-.13.2-.16.23-.31"/>
  </g>
  <g class="cls-10">
    <path class="cls-30" d="M57.47,159.74c0-.13.16-.27.21-.4.05-.17-.03-.32.13-.49.13-.16.93,0,1.17-.16h.49v.05s-.04.03-.04.05c-.23.35-.35.72-.53,1.11l-.21.4-.16.45c-.13.29-.53.8-.89.87-.04,0,0-.31-.04-.36-.03-.13-.09-.27-.05-.4.03-.17.13-.29.13-.47-.13-.21-.24-.44-.19-.67"/>
  </g>
  <g class="cls-74">
    <path class="cls-30" d="M54.99,158.7c.13-.13.53-.07.72-.11.2.05.69.05.93.05l.03.4c.03.13.05.2.05.32l-.05.35c-.03.49-.09.99-.09,1.47l.05.88h-.03v-.03c-.4,0-.84-1.2-1.01-1.47-.11-.16-.24-.27-.33-.4-.23-.32-.63-1.12-.27-1.47"/>
  </g>
  <g class="cls-14">
    <path class="cls-30" d="M52.44,158.93c.05-.2.53-.2.72-.32.17,0,.44-.03.53.05.45.23.63.87.8,1.28l.4.8.27.4c.05.13.09.27.09.45,0,.13.03.32-.09.4-.09.05-.23.03-.32-.03-.13-.05-2.4-2.84-2.4-2.99v-.04"/>
  </g>
  <g class="cls-3">
    <path class="cls-30" d="M51.26,158.63c.23.05.35.13.53.27.27.23.45.53.67.8.08.16.13.31.27.45.16.16.33.31.48.48.15.17.29.35.4.53l.13.21.31.27c.2.2.4.47.49.69-.05,0-.05.05-.05.09-.17,0-.37-.04-.49-.13l-.63-.61c-.13-.13-.29-.17-.4-.32-.23-.29-.37-.64-.64-.89-.13-.13-.35-.17-.49-.32l-.03-.04c-.13-.17-.23-.4-.35-.57-.13-.2-.4-.35-.53-.53v-.07c-.07-.21.17-.27.32-.33"/>
  </g>
  <g class="cls-44">
    <path class="cls-30" d="M58.2,165.12c.09.03.17.03.27.03.27.09.49.49.4.8-.05.13-.23.27-.35.4-.11.04-.24.16-.36.16-.17-.03-.13-.4-.05-.49.04-.16.21-.19.21-.36,0-.27-.13-.37-.13-.53"/>
  </g>
  <g class="cls-42">
    <path class="cls-30" d="M58.64,163.82c-.13.05-.23.23-.35.23-.17,0-.27-.27-.4-.4-.13-.13-.44-.19-.37-.45.03-.13.13-.13.17-.17v-.03c.2.07.35.16.53.24.21.09.43.13.67.23.04.03.04.05.04.13-.07.13-.2.2-.29.27"/>
  </g>
  <g class="cls-84">
    <path class="cls-30" d="M58.24,167.67c-.05.23-.53.32-.72.2-.27-.13.23-.49.35-.57.11.05.4.2.37.37"/>
  </g>
  <g class="cls-4">
    <path class="cls-30" d="M56.87,167.47c-.09.03-.13-.05-.17-.09-.09-.04-.13-.04-.23-.11-.13-.17-.13-.35-.13-.61,0-.13,0-.29.04-.4.03-.09.13-.13.23-.2.13,0,.17.04.27.07.09.05.72.67.72.72.03.27-.53.61-.73.64"/>
  </g>
  <g class="cls-78">
    <path class="cls-30" d="M60.53,165.5c0,.23-.13.47-.33.53,0,.07-.13,0-.13,0,0-.24.27-.4.43-.53h.04Z"/>
  </g>
  <g class="cls-53">
    <path class="cls-30" d="M59.95,165.1c-.09.05-.13.13-.27.13s-.13-.07-.17-.16c-.03-.09-.03-1.07.03-1.2.03-.11.2-.19.29-.27.23.08.23.21.29.43.11.37.21.77-.19,1.07"/>
  </g>
  <g class="cls-59">
    <path class="cls-30" d="M59.58,166.9s.03.03,0,.03c0,.13-.4.4-.53.27-.16-.17.07-.35.16-.47.16.03.27.05.37.17"/>
  </g>
  <g class="cls-28">
    <path class="cls-30" d="M56.74,163.63h.32c.16.07.8.56.75.83-.05.23-.27.35-.44.49-.17.13-.35.33-.61.36-.23.03-.53-1.01-.53-1.2.04-.08.4-.45.48-.48h.03"/>
  </g>
  <g class="cls-31">
    <path class="cls-30" d="M56,166.14c-.13.13-.29.29-.43.29-.13.03-.17-.09-.29-.13-.2-.19-.35-.56-.29-.85l.13-.27c.11-.27.07-.29.27-.49.27.11,1.07.67.97,1.03-.07.19-.27.33-.36.4"/>
  </g>
  <g class="cls-96">
    <path class="cls-30" d="M56.14,167.84h-.04c0,.05-.13.03-.13.03-.48-.09-1-.23-.63-.8.09,0,.13,0,.17.04.13.11.13.21.23.31.13.19.33.24.4.44"/>
  </g>
  <g class="cls-50">
    <path class="cls-30" d="M53.98,163.9s.23-.27.32-.33v-.03c.4.27.69.69.29,1.13-.09.09-.2.17-.32.2-.35.05-.2-.4-.23-.57.03-.16-.04-.31-.07-.4"/>
  </g>
  <g class="cls-52">
    <path class="cls-30" d="M54.7,163.3v-.09c.05-.03.13-.03.17-.05.4-.05.64-.13.96-.29.09.03.27.03.32.13.19.27-.63.83-.85.8-.27-.03-.4-.35-.59-.49"/>
  </g>
  <g class="cls-17">
    <path class="cls-30" d="M54.2,165.9c.05,0,.13,0,.17.04.13.09.69.61.69.8.03.16-.44.48-.61.51-.13.04-.13-.08-.17-.16-.13-.4-.2-.8-.07-1.2"/>
  </g>
  <g class="cls-45">
    <path class="cls-30" d="M53.58,165.52c-.29.09-.23-.49-.23-.69.24.09.69.61.24.69"/>
  </g>
  <g class="cls-83">
    <path class="cls-30" d="M57.43,197.89c0-.08.67-1.07.8-1.17.04-.05.11-.13.16-.13v-.04h.45c0,.16-.72,1.27-.93,1.33-.13.07-.32.04-.49.04v-.03h.01Z"/>
  </g>
  <g class="cls-66">
    <path class="cls-30" d="M52.7,197.81c-.17.09-.44.03-.64.03,0-.29,1.16-1.11,1.39-1.33h.47c-.03.24-1,1.2-1.2,1.31"/>
  </g>
  <g class="cls-2">
    <path class="cls-30" d="M61.16,203.92c-.2.09-.47-.09-.57-.23s-.13-.35-.23-.53c-.09-.27-.17-.6-.32-.88-.09-.17-.23-.47-.2-.69.03-.13.13-.2.27-.29.09.03.13.05.2.13l.13.27.27.88c.11.35.24.69.4,1.01.03.07.17.29.05.33"/>
  </g>
  <g class="cls-58">
    <path class="cls-30" d="M60.13,196.47c.13.23,1.03,1.2.97,1.39-.03.05-.05.05-.13.05h-2.23v-.03h-.03c0-.13.09-.2.13-.29.13-.29.71-1.07.67-1.36,0-.09-.08-.17-.16-.17-.37-.13-.84-.03-1.24-.03-.24,0-.71-.11-.91,0-.4,0-1.83-.21-2,.13-.05.09.03.17.05.27.13.32.44.64.64.93.13.17.23.35.35.53v.04s-.05.03-.09.03c-.87-.03-1.73-.05-2.61-.05v-.04s1.28-1.51,1.43-1.68c0-.04-.03-.04-.03-.04-.13-.03-.32-.05-.47-.05l-.8-.05c-.71-.04-1.52,0-2.21-.07,0-.09,1.07-1.11,1.23-1.24.89-.93,1.83-1.87,2.8-2.8.31-.31.63-.67.97-1,.13-.09.2-.2.32-.27v-.05c.19.13.4.32.53.49.29.29.53.57.84.87.17.13.35.32.53.49.8.84,1.64,1.63,2.45,2.44.32.35.8.69,1.04,1.07l-.17.03h-.8c-.08,0-.21-.03-.31,0-.36,0-.8-.05-1.07.09,0,.17.16.31.27.4"/>
  </g>
  <g class="cls-77">
    <path class="cls-30" d="M51.31,200.02c.13-.24,2.53-.04,2.93-.04.64,0,1.2-.09,1.77-.09.83,0,1.67.05,2.51.05l1.31-.03c.99-.03,2,.03,2.96.03v-.03c.05,0,.05-.29.05-.35l.03-1.95c0-.44-.03-.89.05-1.31.49.27.44.89.47,1.47l.03,1.09-.05.61c0,.29.07.64-.04.89v.05h-.03s-.17,0-.27,0h-1.47c-.21,0-.51-.04-.71.04-.17,0-.44-.03-.61.03-.53,0-1.11,0-1.68-.05-.27,0-.61-.11-.84,0-.44,0-.84-.04-1.24-.04-.09,0-.2-.03-.29.03-.23,0-.76-.11-.93,0-.13,0-.29-.04-.4,0h-1.2c-.21-.04-.48-.04-.75-.04h-.27c-.09.03-.17.03-.29.03-.47,0-.84.11-1.04-.31.03.04,0-.04.03-.11"/>
  </g>
  <g class="cls-23">
    <path class="cls-30" d="M63.2,207.78c-.11.13-.4.13-.53.17l-.03-2.4c.03-.23-.03-.49.03-.69.03-.09.05-.13.13-.13.13,0,.31,0,.43.04.05,0,.05.32.05.4-.03.17.03.35.03.53,0,.27-.05.51-.03.8-.03.29.05,1.07-.09,1.28"/>
  </g>
  <g class="cls-75">
    <path class="cls-30" d="M72.53,206.76c-.13,0-.24.03-.33.05-.13,0-.47.09-.61.13-.31,0-.53.13-.8.16l-.53.09c-.11,0-.27,0-.36.04-.09.03-.13.03-.23.03s-.13.05-.2.09c-.16,0-.43-.03-.53.05-.09.03-.13.03-.23.03-.29,0-.67-.05-.89.09-.13,0-.27-.03-.35.03-.13,0-.27-.03-.37-.05,0,.05-.37.13-.44.13-.21,0-.48,0-.67.04-.07.03-.16.03-.24.03-.2,0-.47-.03-.64.05-.13,0-.29,0-.4.05-.2,0-.72.05-.84-.05-.19-.13-.08-2.13-.08-2.53l-.03-.53c0-.2.05-.84-.29-.76-.17,0-.61-.05-.72.03-.2,0-.76.03-.87-.09-.21-.2-.31-.93-.43-1.24-.17-.44-.44-.87-.49-1.36,0-.05,0-.13.04-.17.09-.13.49-.09.67-.09.35,0,2.03.03,2.17-.23.09-.13.05-.64.03-.84.03-.29.03-.61.03-.89.03-.47-.09-1.01.05-1.43,1.07,1.17,2.27,2.21,3.36,3.33.13.13.2.27.29.4.27.27.57.51.87.77.76.72,1.47,1.56,2.2,2.29l1.73,1.71c.13.13.29.23.32.35.07.2-.11.27-.17.29"/>
  </g>
  <rect class="cls-40" x="11.62" y="135.78" width="379.86" height="90.83"/>
  <path class="cls-30" d="M70.46,177.23l.53-.6c.19-.23.43-.37.63-.53.27-.31.53-.56.8-.85.33-.27.63-.6.93-.85l1.81-1.87c.93-.85,1.87-1.76,2.72-2.67.23-.27.53-.48.69-.73.13.21.05.8.05,1.07.05.67,0,1.41.03,2.13l.05,1.07c-.03.37-.05.76-.05,1.13l.05.67-.03.32c.03.11.03.27.03.36l-.05.29c-.05.56-.05,1.15-.05,1.73l.09.88-.05.49c0,.37,0,.76-.04,1.11-.03.13-.03.27-.03.37,0,.23.05.49.05.72-.04.32-.11.67-.11,1.01l.09,1.28c-.04.27-.07.53-.07.8.03.08.03.16.03.27l-.03.85.05.61c0,.13-.04.29-.07.44-.03.29,0,.61.03.87.05.44.03,1.01,0,1.43l-.05.32c-.03.27.05.48.05.75l-.05.44.03.45c-.03.2-.03.44-.03.64s.13,1.31-.05,1.31c-.13,0-1.12-1.07-1.29-1.24l-3.73-3.77c-.2-.2-.35-.44-.53-.61l-.53-.49-.27-.31c-1.2-1.2-2.4-2.37-3.6-3.53-.23-.2-1.77-1.77-1.77-1.87l.03-.08c.13-.29.61-.64.84-.84.27-.27.47-.53.69-.8l.69-.67.27-.21c.16-.2.4-.4.56-.61.2-.27.37-.45.57-.67"/>
  <g class="cls-48">
    <path class="cls-30" d="M63.33,159.9c.13-.08.2-.08.29-.19.05-.09.13-.17.17-.29.17-.27.35-.47.53-.67l.24-.2c.13-.11.37-.04.53-.04.33,0,.67-.03,1-.05.16-.04.31-.04.44-.07.24,0,.48,0,.73.03s.53.09.84.09c.27,0,.47-.09.72-.09l.27.05c.29.03.67.03.93-.05v.03h.03c0,.05,0,.03-.03.03l-.03.05c-.29.4-.72.72-1.07,1.07l-2,1.97c-.13.13-.32.27-.47.4-.61.61-1.16,1.28-1.77,1.87l-.67.63c-.13.13-.27.23-.37.32-.13.13-.29.32-.4.49-.37.4-.8.8-1.16,1.16-.17.24-.37.45-.53.67-.4.4-.83.83-1.25,1.2-.69.69-1.39,1.39-2.13,2.05-.21.23-.43.49-.67.67v.03h-.04v-.03h-.03c.03-.09.03-.17.03-.29l-.03-.67.09-.35c.03-.23-.05-.4.03-.57.05-.13.2-.13.29-.27.16-.17.27-.4.48-.53.23-.16.53-.21.76-.33l.44-.29c.32-.23.72-.4.96-.72l.2-.4.27-.35c.05-.13.05-.35.13-.53.04-.21.16-.43.16-.71l-.09-.72c-.03-.33-.2-.59-.4-.83-.09-.09-.17-.17-.23-.32-.04,0,0-.09.04-.13.05-.04.09-.13.13-.19.24-.32.45-.67.77-.89.16-.13.19-.29.33-.44.13-.17.35-.27.53-.44.08-.13.13-.23.21-.32.07-.13.11-.27.19-.35.09-.13.23-.13.32-.23l.29-.27"/>
  </g>
  <g class="cls-38">
    <path class="cls-30" d="M45.31,158.57c.29,0,.69.04.96-.04.23.05.47.03.72.03h1.33c.13.04.23.07.35.07.23,0,.53-.13.76-.09.29.09.53.4.72.61.33.32.67.67,1.03.99.23.23.44.53.67.76.29.29.57.49.87.8.17.16.27.33.44.51.09.09.17.13.29.23.17.13.35.35.44.53-.09,0-.27.24-.32.31-.27.27-.47.53-.53.89-.05.13-.08.29-.08.44-.05.23-.13.47-.09.72l.13.49.21.53c.08.16.11.4.27.53.08.13.27.17.36.27.13.09.17.23.29.32.11.05.21.13.33.13.13.13.32.24.49.33.23.13.47.23.67.4l.35.49c.13.13.29.23.37.4l.13.4c0,.13-.04.27,0,.37.04.29.16.67.11.96-.27,0-.8-.64-.96-.8l-1.16-1.07c-.29-.31-.53-.63-.84-.91-.53-.57-1.16-1.11-1.71-1.68-.29-.32-.61-.61-.89-.89l-.37-.45c-1.03-.99-2.04-1.97-3.03-2.96l-.8-.87c-.59-.59-1.12-1.17-1.73-1.73-.31-.31-.93-.67-1.07-1.07h1.27"/>
  </g>
  <g class="cls-85">
    <path class="cls-30" d="M38.74,189.2c-.47.44-.84.93-1.28,1.36l-2,1.95c-.21.23-.51.47-.67.69h-.04c0,.05-.09-.13-.09-.13,0-.24,0-.48-.03-.67l.05-2.07c0-.53.03-1.11,0-1.65l-.03-.56c.03-.53.05-1.07.03-1.63l-.03-.69.03-1.01-.03-.64c0-.57,0-1.2.03-1.77-.03-.17-.03-.35-.03-.53.03-.21.05-.43.05-.67.05-.51,0-.97.03-1.44,0-.4.03-.73.05-1.12,0-.8-.05-1.53-.03-2.32l.09-1.11-.05-.63c0-.8.04-1.6.04-2.37-.03-.17-.03-.32-.03-.49.04-.2.04-.4.04-.61,0-.23-.05-.47-.03-.69.04-.13.04-.27.07-.4l-.03-1.13c.32.13.53.47.8.69.53.53,1.07,1.04,1.64,1.56.17.2.37.4.53.61.4.37.83.8,1.2,1.2l.37.43c.27.27.53.47.8.76.13.11.19.27.31.33.64.61,1.28,1.16,1.91,1.73.61.61,1.2,1.2,1.8,1.87.37.33,2.76,2.6,2.61,2.93l-.11.21c-.29.51-.93,1.03-1.36,1.44-.13.13-.23.32-.4.47l-1.04,1.04-1.47,1.47-1,.99c-.09.09-.13.17-.27.29l-2.43,2.29"/>
  </g>
  <g class="cls-29">
    <path class="cls-30" d="M51.95,204.02c-.27,0-1.16-.07-1.31.04-.05.05-.05.13-.09.17v2.49c0,.35.04.87-.04,1.24-.03.09-.05.17-.13.23v.03c-.27,0-.51-.13-.73-.13-.23-.04-.47,0-.67,0-.13,0-.32-.04-.49-.04l-.99-.09c-.11-.03-.31-.03-.43.03-.72,0-1.43-.13-2.13-.23-.32,0-.64,0-.96-.07l-.8-.13c-.11,0-.21-.04-.33-.08-.13-.04-.31-.04-.48-.04l-1.13-.2c-.31-.05-.67-.05-.91-.17h-.03v-.07c.05,0,.03.03.05-.03.17-.27.49-.53.72-.8l.67-.67c.32-.31.69-.63,1.04-.93l.49-.51c.13-.13.29-.32.4-.47.84-.8,1.73-1.63,2.57-2.49.53-.53.99-1.07,1.53-1.6.73-.69,1.47-1.39,2.19-2.13l.61-.67c.13.19.05.91.03,1.17-.03.4-.05.83-.05,1.23,0,.27-.03.53.05.8.09.21.23.4.35.6.09.13.13.27.27.32.17.13.8.13,1.04.13.44-.03.89-.05,1.36-.05,0,.29-.17.67-.29.93-.17.47-.37.93-.53,1.43-.07.17-.13.4-.27.53-.11.11-.24.04-.36.11-.07.09-.13.13-.19.13"/>
  </g>
  <g class="cls-35">
    <path class="cls-30" d="M54.07,209.58c-.32-.03-.61-.27-.89-.37-.23-.11-.49-.16-.69-.27h-.03v-.04h.03c0-.05-.03-.03.03-.03.47,0,2.61.09,2.8-.13.11-.08.11-.48.11-.67,0-1-.13-2.33.8-2.85.16-.08.31-.08.45-.13.27,0,.87.09.84.44,0,.09-.13.09-.17.09-.61.09-.72.4-.99.87-.2.37-.17,1.04-.17,1.56-.03.49-.03.96-.03,1.47,0,.04-.31,0-.4,0-.16,0-.31.07-.45.07h-1.2"/>
  </g>
  <g class="cls-15">
    <path class="cls-30" d="M57.58,210.17c-.13.13-.23.27-.32.4-.27.29-.53.53-.72.87h-.03c-.17-.23-.37-.44-.57-.64-.17-.19-.53-.4-.8-.51v-.03h-.04v-.05h.03c0-.05.05-.03.09-.05.13-.03.24-.05.36-.05.35-.03.72-.03,1.07-.03.03-.05.03-.13.05-.17.04-.13.04-.32.07-.47l-.05-.44c.04-.13.04-.29.04-.44,0-.32-.05-.67-.03-.99.04-.17.11-.35.13-.53.05-.21.09-.45.27-.63.13-.16.35-.13.53-.21.07.03.13.05.16.13.05.21.03.51.03.71.03.53.03,1.07.03,1.63.03.11.13.21.13.33.11.17.16.35.24.53h.03c-.13.27-.44.45-.64.63"/>
  </g>
  <g class="cls-97">
    <path class="cls-30" d="M58.8,209.35c-.16-.13-.27-.4-.27-.63.13,0,.31.03.45-.03l1.04.04v.05c-.13,0-.27.09-.35.13l-.87.4v.03"/>
  </g>
  <g class="cls-88">
    <path class="cls-30" d="M48.01,183.81c0-.29.05-.57.05-.87l-.05-.97c0-.53.05-1.04.05-1.56l-.05-.93c.03-.23.03-.49.03-.72l-.05-.72c0-.4.13-.72.13-1.11-.04-.24-.04-.45-.07-.67.03-.13.03-.27.03-.4.03-.45.09-.88.09-1.33,0-.33-.05-.83.03-1.07.09-.31.93-1.25,1.2-1.37v-.03c.07.23.04.53,0,.8,0,.31-.04.63,0,.93,0,.21,0,.4.04.67v1.17l-.05.53c.03.19.03.43.03.63-.03.53-.05,1.2-.03,1.73.03.61-.05,1.24-.05,1.87,0,.21,0,.45.04.67,0,.48,0,.93.03,1.4l-.05.67v1.07c0,.44.07,1.2-.04,1.56-.05.13-.17.17-.27.29l-.29.44c-.09.09-.2.17-.29.29-.13.19-.2.4-.32.6v.03h-.04c0-.57-.09-1.2-.09-1.8,0-.35.05-.72.09-1.04-.03-.33-.09-.57-.09-.8"/>
  </g>
  <g class="cls-32">
    <path class="cls-30" d="M48.62,187.66c.13-.37.29-.49.57-.72.13-.16.27-.33.48-.45.8-.53,2.03-.53,3.01-.32.17.05.37.13.53.13.67.13,1.2.19,1.73.51.36.2.67.49.97.76.09.05.17.13.27.13.13.13.29.36.49.36.29,0,.47-.37.69-.53.23-.16.47-.33.76-.48.73-.35,1.47-.72,2.27-.93.31-.05.59-.13.88-.2.17-.03.35-.03.49-.09l.72.03c.4.05.84.27,1.16.49l.44.47c.23.27.47.49.53.84h-.04c0,.05-.27.03-.32.03-.67,0-1.31,0-1.97-.03-.23,0-.53-.05-.76.05-.23,0-.53-.13-.72-.03-.04.03-.13.03-.21.03-.27,0-.53-.05-.76.05-.13,0-.23.04-.32.07-.2,0-.67-.05-.8.03-.04.05-.13.05-.24.05-.09.04-.17.04-.29.04-.13,0-.35.03-.44.13-.05,0-.03.16-.03.21.03.53-.4,1.03-.96,1.03-.47,0-.8-.32-.89-.76-.04-.13,0-.35-.11-.47-.05-.05-.13-.09-.17-.05h-.83c-.49,0-.96-.04-1.47-.08-.16,0-.33-.03-.45.03l-1.11-.03c-.16,0-.4-.03-.53.05-.53,0-1.11-.05-1.65-.05-.17,0-.47-.05-.64.03-.17,0-.32,0-.47-.05.05,0,.13-.13.17-.27"/>
  </g>
  <g class="cls-95">
    <path class="cls-30" d="M65.53,175.32c0-.29-.05-.61-.09-.87l-.03-.47c0-.05.03-.35-.03-.35h-.09c-.05.6-.03,1.27-.05,1.93,0,.27-.13.44-.13.67v.37c-.04.13-.04.23-.04.35-.13,0-.27-.04-.29-.16-.05-.2.05-.4.05-.57l-.05-.4c0-.72.05-1.53.05-2.23-.03-.13-.03-.27-.03-.37-.03-.05-.03-.13-.05-.17h-.09v.04h-.04c-.03.51-.09,1-.13,1.52,0,.09-.04.17-.04.29h-.09c-.13-.4-.13-.93-.13-1.43,0-.27.04-.53-.04-.77-.09.17-.09.35-.13.53v.83c0,.29.04.57.04.87-.13,1.79-.09,3.52-.09,5.33-.03.36-.03.73-.03,1.07-.03.33-.09.67-.09,1,0,.47.04.93.04,1.39-.03.43-.05.93-.03,1.37,0,.05.04.23.11.23v.03h.03v-.03h.03c.09-.27.05-.53.05-.87.03-.49.09-.99.05-1.47,0-.33-.09-.73.03-1.03.03-.05.05-.05.13-.05.11.03.13.23.13.32.05.37-.03.76-.03,1.16v.93c0,.35-.03.69.03,1.01.03.19-.03.36.03.53.03.09.05.32.17.32.03-.53.05-1.11.05-1.63v-.76c0-.27.04-.49.04-.72l.09-.48c0-.23-.09-.47-.09-.64-.05-.32-.03-.69-.03-1.07,0-.17,0-.37.07-.53.03-.07.13-.13.13-.16h.03c.13.09.17.2.2.35.05.37.03.84,0,1.24-.03.13-.05.27-.05.4,0,.35.11.69.11,1.07-.03.13-.03.29-.03.44,0,.64,0,1.2-.03,1.83,0,.47.05.93.09,1.36v.27h.11c.13-.27.09-.61.09-.93.03-.35.05-.76.03-1.11-.03-.23-.05-.49-.13-.72,0-.27.11-.49.11-.76.03-.4-.05-.71-.05-1.09.04-.4.07-.8.07-1.2v-.93l-.05-.4c0-.19.07-.33.07-.53l-.03-.99.03-1.47c.11-.71.13-1.2.13-1.69M64.49,180.12s-.17.27-.17.11c-.05-.09-.03-.23-.03-.35-.03-.31,0-.63-.03-.91v-1.2c0-.31-.03-.63.09-.88.09.05.17.13.17.23.09.35.03.72.03,1.11,0,.53.11,1.43-.07,1.87M64.57,175.56c-.27-.04-.31-.21-.16-.43.13.09.27.4.13.4M65.03,179.36h-.09c-.13-.27-.05-.48-.05-.77,0-.37-.09-.76.09-1.07.09.03.17.05.23.13.08.27.08,1.76-.21,1.73"/>
  </g>
  <g class="cls-24">
    <path class="cls-30" d="M63.6,178.63l-.05-.53c0-.8.03-1.6.05-2.36l-.03-.72c0-.61,0-1.2-.03-1.73l-.09-.53c-.04-.19,0-.43,0-.63,0-.09.04-.29-.04-.29-.13-.07-.32-.04-.49-.07-.2-.03-.4-.05-.64-.05-.23.09-.53.05-.8.13-1.15.21-2.21.36-3.23.88-.27.13-.49.27-.69.49-.13.16-.13.36-.17.6-.09.53-.09,1.11-.09,1.68-.03.31-.05.59-.05.88,0,.44,0,.84-.03,1.28l-.05.49-.05,1.2c-.03.61.03,1.2.03,1.77.03.53-.03,1.16-.03,1.71.03.16.03.33.03.48-.03.09-.03.17-.03.29,0,.27.05.53.05.8,0,.8-.03,1.79.29,2.36.03.03.13.17.13.09.33-.13.63-.4.97-.57.29-.16.61-.27.87-.4.35-.19.53-.33.99-.33.13-.09.53-.13.69-.13.09-.04.13-.04.23-.04l.19-.03c.32-.17,1.11-.03,1.43.05l.51.13c.09-.51,0-1.03-.03-1.49l.05-.8-.03-1,.05-.49c.03-.4,0-.8.03-1.16.03-.23.05-.47.05-.69.03-.37.03-.8.03-1.27M57.84,179.83c.76-.71,1.73-1.07,2.64-1.44.29-.13.64-.32.99-.32.11-.09.36-.23.51-.23v-.03c.17.03.32.13.32.32,0,.17-.09.32-.23.4-.27.17-.61.2-.89.32-.35.13-.72.27-1.07.35-.23.09-.49.13-.72.23-.44.17-.84.4-1.2.64-.16.09-.31.2-.48.23-.05,0-.09,0-.13-.03-.17-.16.17-.36.27-.45M62.15,182.35c-.27.16-.6.16-.85.24l-.8.2c-.93.23-1.69.61-2.51,1.07-.09.05-.35.29-.47.13-.09-.13.13-.27.17-.33.32-.27.64-.47.96-.67.37-.23.72-.44,1.16-.61.13-.09.27-.13.4-.23.49-.21,1.04-.33,1.56-.51.13,0,.29,0,.44.05.24.13.17.53-.05.67M62.23,174.73c-.13.09-.29.13-.44.13-.35.13-.69.24-1.04.33-.49.13-.99.31-1.43.53l-.96.53c-.05.04-.49.27-.49.16h-.03c.05-.32.44-.53.67-.69.13-.09.27-.17.37-.27.32-.2.67-.4.99-.53.35-.19.72-.27,1.11-.4l.4-.16c.16-.05.31-.13.48-.17.13,0,.29-.03.4.03.27.05.16.37,0,.49"/>
  </g>
  <g class="cls-60">
    <path class="cls-30" d="M56.44,174.48c-.05-.47.03-.93-.23-1.28-.49-.67-1.16-.89-1.87-1.16-.19-.08-.4-.13-.56-.19l-.64-.13c-.32-.08-.69-.13-1.07-.16l-1.47-.03c-.16.05-.4.05-.51.17-.09.13-.05.69-.05.93,0,.84-.05,1.68-.05,2.53,0,.51,0,1.03-.03,1.55l-.09,1.29c0,.29.13.57.13.89l-.05,1.97c-.03.27-.05.53-.05.8-.03.56.03,1.07.03,1.64-.03.27-.05.53-.05.8s.09.51.09.73c0,.29-.05.53-.05.84h.35c.08-.05.19-.05.31-.05.09-.07.2-.07.32-.07.09-.03.13-.03.23-.03.29-.13,1.11.03,1.39.09.37.05.72.05,1.11.13.45.08,1.12.33,1.49.53.13.09.89.67.99.67v-.03c.2-.32.17-.64.23-1.04.05-.47.09-.93.09-1.43.03-.69.05-1.47.05-2.17l-.03-.93.05-2.64c0-1.4.07-2.88-.04-4.24M55.35,183.96c-.53-.27-1.11-.48-1.68-.67l-.61-.11-.93-.2c-.35-.04-.69-.04-1.04-.13l-.13-.05c-.27-.13-.27-.69.13-.69v-.03c.27,0,.44.05.67.13.23.04.47.04.67.11l.53.2c.56.17,1.07.35,1.6.61.13.07.27.11.4.13.27.13.71.47.93.69.08.09.21.13.21.29-.31.07-.53-.2-.75-.27M56.08,180.55l-.05.03v.03c-.24.03-1.12-.69-1.37-.8-.32-.16-.64-.27-.96-.4-.44-.19-.87-.36-1.36-.45l-.53-.09c-.27-.04-.67.04-.85-.13-.24-.17-.11-.67.21-.67v-.03c1.39.09,2.53.72,3.68,1.36.29.17,1.07.64,1.24.96,0,.04.05.21,0,.19M56.19,176.67c-.03.07-.13.07-.23.07-.17-.04-.32-.19-.49-.27-.19-.13-.36-.21-.56-.33-.99-.49-2.05-.8-3.11-1.07-.29-.09-.69-.05-.96-.23-.23-.13-.23-.44-.03-.57.48,0,.83.13,1.23.27l.35.09c.27.05.53.17.8.29.21.09.43.13.67.23.11.07.19.13.31.19.31.13.63.29.91.44.21.04,1.25.67,1.13.93"/>
  </g>
  <rect class="cls-40" x="11.62" y="135.78" width="379.86" height="90.83"/>
  <path d="M54.5,147.13c-.47.05-.93.13-1.43.17-.4.05-.8.13-1.24.13-.99.19-1.93.4-2.89.56-1.36.29-2.64.84-3.87,1.36-2.36.93-4.53,2.08-6.66,3.47-.51.35-4,2.8-4,3.2l1.69.11c1.39.09,2.8.03,4.17.03l2.53.13c.33-.16.88-.11,1.29-.11,1.16,0,2.27.09,3.36.09.53-.24,1.47-.04,2.08-.04h5.6l6.26.13c3.87-.04,7.7-.11,11.56-.13.29-.13.72,0,1.04,0,.67.03,1.37.05,2,.05.36,0,.71,0,1.07-.04.67.03,1.37.09,2.08.05l.76.04c.47,0-.37-.67-.53-.84-.48-.53-1-.93-1.6-1.31l-1.03-.8c-.69-.48-1.43-.93-2.13-1.44-4.4-2.64-8.66-4.23-14.1-4.8-.8,0-1.6,0-2.37-.04-1.2.05-2.45.03-3.64.03"/>
  <g class="cls-93">
    <path d="M32.55,157.74c-.48.49-1.2,1.2-1.67,1.71l-2.99,4c-2.08,3.51-3.33,7.2-4.27,11.3-.13.67-.13,1.31-.19,2-.32,3.39-.4,7.2.13,10.53.13.53.27,1.09.43,1.64.17.89.29,1.73.61,2.57.29.69.53,1.39.87,2.13.33,1.03.85,1.96,1.33,2.88,1.17,2.27,2.53,4.4,4.16,6.46.23.31.84,1.15,1.24,1.15v-.09c.32-.67.09-2.53.09-3.29,0-1.28,0-2.57-.03-3.87,0-1.17-.05-2.4.03-3.57.13-2.57.03-5.2.05-7.82.03-2.2.13-4.47.13-6.72,0-2.13-.11-4.44.07-6.49,0-.23,0-.47-.04-.69v-1.93c.03-.91.09-1.81.13-2.71-.11-1.87-.11-3.83-.16-5.77-.05-1.36.13-2.67.05-3.41"/>
  </g>
  <g class="cls-98">
    <path d="M81.67,157.94c-.13,1.31.13,3.36.09,4.72-.05,2.99-.05,5.94-.05,9.01v14.46c0,2.72-.13,5.41,0,8.2v3.36c0,2.05.21,4.2-.19,6.17-.03.13-.29,1.01-.09,1.01.67,0,3.93-4.66,4.4-5.41.31-.61.63-1.2.97-1.8l.53-1.2c.63-1.12,1.33-2.48,1.76-3.73.87-2.56,1.43-5.22,1.8-8.06.13-.93.09-1.83.13-2.8,0-.53.04-1.07.04-1.57-.05-2.8-.37-5.73-1.11-8.22-.72-2.47-1.83-4.84-3.04-7.04-.44-.8-.96-1.47-1.43-2.23-.69-1.01-3.41-5.16-3.87-4.86"/>
  </g>
  <g class="cls-26">
    <path d="M77.2,208.44c-1.89,1.47-5.86,1.6-8.4,1.87-.63.11-1.29.19-1.93.27-3.16.16-7.3.45-8.44,3.69-.13.33-.13.43-.23.77-.05.32,1.43.03,2.05.03.16-.09.48-.09.75-.09l.47-.09c.4-.2.93-.23,1.44-.23.32-.16.72-.16,1.11-.16.4-.23,1.44-.37,1.96-.37.89-.29,1.8-.61,2.67-.93,2.53-1.01,5.2-2.05,7.36-3.77.29-.27.69-.33,1.2-1"/>
  </g>
  <g class="cls-19">
    <path d="M37.96,209.08c.53.67,1.36.84,2.05,1.31.4.29.99.61,1.39.89,1.53.72,2.69,1.33,4.23,1.87,1.73.53,3.4,1.09,5.25,1.44.64.13,4.86.89,5.04.49.27-.64-1.13-2.23-1.63-2.64-.47-.37-.99-.64-1.47-.89-.48-.27-1.07-.4-1.57-.53-.69-.19-1.36-.4-2.13-.53-.67-.13-1.41-.13-2.13-.17-.64-.13-1.28-.23-1.95-.32-.84-.13-1.68-.13-2.53-.2-1.55-.27-2.97-.63-4.53-.71"/>
  </g>
  <g class="cls-72">
    <path d="M138.57,156.19h-3.24v16.46c0,1.28.13,2.17.47,2.61.32.47.93.67,1.83.67v.64h-7.56v-.63c.93,0,1.6-.27,1.91-.8s.49-1.37.49-2.6v-16.35h-3.07c-1.47,0-2.53.23-3.24.69-.67.47-1.04,1.24-1.16,2.35h-.64v-4.89h.63c.57.53,1.65.8,3.2.8h11.22c1.6,0,2.75-.27,3.37-.8h.67v4.89h-.44c-.27-1.2-.72-2-1.43-2.4-.67-.43-1.67-.64-3.04-.64"/>
  </g>
  <g class="cls-76">
    <path d="M163.03,172.54v-6.2h-11.65v6.2c0,1.28.17,2.13.53,2.64.36.51,1,.76,1.93.76v.61h-7.73v-.67c.93,0,1.57-.27,1.92-.75.35-.49.53-1.39.53-2.64v-13.33c0-1.31-.19-2.2-.53-2.69-.35-.49-.99-.72-1.87-.72v-.64h7.73v.65c-.93,0-1.6.27-1.96.8-.35.51-.53,1.37-.53,2.63v6.08h11.66v-6.08c0-1.31-.17-2.2-.49-2.69-.32-.47-.96-.72-1.87-.72v-.63h7.66v.61c-.89,0-1.53.27-1.87.76-.36.49-.53,1.39-.53,2.67v13.37c0,1.27.17,2.16.53,2.63.33.49.97.72,1.87.72v.67h-7.68v-.67c.96,0,1.6-.27,1.91-.71.27-.51.44-1.37.44-2.67"/>
  </g>
  <g class="cls-61">
    <path d="M185,163.23h.64v5.2h-.64c-.23-.89-.53-1.47-.84-1.71-.32-.23-1.04-.35-2.13-.35h-5.33v7.65c0,.53.13.89.36,1.13.23.23.64.32,1.2.32h3.73c1.33,0,2.27-.11,2.8-.24.49-.13.93-.44,1.28-.8.35-.4.72-1.07,1.13-1.96h.64l-1,4.03h-15.41v-.64c.93,0,1.6-.27,1.93-.73.32-.49.49-1.36.49-2.61v-13.36c0-1.31-.17-2.2-.49-2.69-.35-.49-.99-.72-1.91-.72v-.61h15.41v3.56h-.4c-.23-1-.53-1.67-.93-2s-1.28-.51-2.64-.51h-6.17v9.16h5.97c.8,0,1.36-.16,1.65-.45.29-.31.49-.85.64-1.67"/>
  </g>
  <g class="cls-12">
    <path d="M215.44,172.06v-12.86c0-1.24-.17-2.13-.49-2.61-.32-.48-.93-.75-1.8-.8v-.64h7.56v.63c-.89,0-1.53.27-1.87.76-.36.49-.53,1.39-.53,2.67v13.37c0,1.23.17,2.13.53,2.63.33.49.97.76,1.87.76v.64h-5.28v-2.99c-2,2.35-4.4,3.51-7.12,3.51-2.27,0-4.05-.67-5.33-2s-1.95-3.15-1.95-5.37v-10.53c0-1.27-.17-2.16-.49-2.67-.32-.48-.99-.75-1.97-.75v-.63h7.73v.6c-.96,0-1.63.23-1.97.72s-.49,1.36-.49,2.64v10.84c0,1.77.49,3.13,1.47,4.13.93,1,2.27,1.49,4,1.49,2.6.03,4.62-1.16,6.16-3.53"/>
  </g>
  <g class="cls-1">
    <path d="M239.93,155.77v-.64h6.45v.64c-1.04,0-1.73.23-2.13.72s-.63,1.36-.63,2.64v17.38h-.67l-15.15-18.61v15.03c0,1.07.23,1.83.64,2.27.44.47,1.16.69,2.17.69v.61h-6.48v-.64c1.04,0,1.73-.27,2.13-.8.33-.56.53-1.49.53-2.88v-12.46c0-1.36-.27-2.32-.72-2.93-.47-.61-1.31-.93-2.44-1.04v-.67h5.46l13.46,16.66v-12.48c0-1.31-.17-2.23-.53-2.76-.43-.51-1.09-.76-2.11-.76"/>
  </g>
  <g class="cls-69">
    <path d="M257.13,155.16v.64c-.89,0-1.53.27-1.87.76-.36.48-.53,1.37-.53,2.67v13.33c0,1.29.17,2.19.53,2.67.33.48.97.71,1.87.71v.61h-7.7v-.67c.93,0,1.56-.27,1.91-.71.35-.49.53-1.39.53-2.67v-13.33c0-1.31-.19-2.2-.51-2.69-.32-.49-.99-.72-1.95-.72v-.63h7.73v.03Z"/>
  </g>
  <g class="cls-71">
    <path d="M280.72,155.16v.67c-1.56,0-2.87,1.39-3.87,4.13l-6.33,16.87h-.61l-6.62-17.35c-.64-1.6-1.16-2.61-1.6-3.04-.47-.44-1.11-.64-1.95-.67v-.61h7.78v.64c-1.24,0-1.87.49-1.87,1.47,0,.31.11.67.24,1.07l5.24,13.78,5-13.33c.2-.53.32-1.07.32-1.47,0-1.03-.67-1.55-1.92-1.55v-.61h6.18Z"/>
  </g>
  <g class="cls-11">
    <path d="M296.39,163.23h.64v5.2h-.64c-.23-.89-.53-1.47-.84-1.71-.32-.23-1.04-.35-2.13-.35h-5.33v7.65c0,.53.13.89.36,1.13.23.23.64.32,1.2.32h3.73c1.33,0,2.27-.11,2.8-.24.53-.13.93-.44,1.31-.8.35-.4.72-1.07,1.13-1.96h.64l-1,4.03h-15.41v-.64c.93,0,1.6-.27,1.93-.73.32-.49.49-1.36.49-2.61v-13.36c0-1.31-.17-2.2-.53-2.69-.33-.49-.97-.72-1.89-.72v-.61h15.41v3.56h-.4c-.23-1-.53-1.67-.93-2s-1.28-.51-2.64-.51h-6.17v9.16h5.97c.8,0,1.36-.16,1.65-.45.31-.31.51-.85.67-1.67"/>
  </g>
  <g class="cls-9">
    <path d="M309.03,166.63h-1.73v5.86c0,1.29.17,2.16.53,2.67.33.48.97.75,1.89.75v.67h-7.7v-.67c.96,0,1.6-.27,1.95-.75.32-.49.49-1.39.49-2.64v-13.42c0-1.28-.16-2.13-.48-2.61-.32-.49-.99-.72-1.95-.72v-.64h8.8c2.16,0,3.87.53,5.17,1.6,1.31,1.04,1.95,2.4,1.95,4.03,0,2.61-1.47,4.37-4.44,5.24.63.4,1.27.99,1.87,1.71.61.72,1.43,1.95,2.4,3.6,1.11,1.87,2,3.11,2.61,3.68.64.59,1.28.91,1.97.93v.63h-4.37c-.89-1.07-2-2.67-3.28-4.8-1.36-2.19-2.44-3.6-3.2-4.21-.72-.53-1.6-.87-2.48-.87M309.51,155.99h-2.23v9.77h2.64c1.57,0,2.83-.47,3.69-1.36.89-.89,1.33-2.09,1.33-3.56s-.49-2.63-1.47-3.52c-1-.88-2.33-1.33-3.96-1.33"/>
  </g>
  <g class="cls-79">
    <path d="M335.07,154.84h.61v5.01h-.64c-.13-1.39-.64-2.47-1.51-3.24-.87-.8-1.95-1.16-3.24-1.16-1.16,0-2.09.29-2.8.87-.67.59-1.03,1.37-1.03,2.36,0,.89.29,1.73.87,2.47.57.72,1.87,1.68,3.8,2.87,2.27,1.36,3.77,2.53,4.57,3.53.8,1.01,1.16,2.17,1.16,3.47,0,1.69-.61,3.15-1.8,4.31-1.2,1.2-2.61,1.8-4.29,1.8-.99,0-2.2-.27-3.71-.8-.61-.24-1.01-.33-1.2-.33-.33,0-.63.29-.8.8h-.64v-5.78h.64c.03,1.6.53,2.88,1.56,3.84,1.01.96,2.23,1.47,3.6,1.47s2.35-.36,3.13-1.07c.8-.67,1.2-1.6,1.2-2.77,0-.87-.33-1.68-1-2.49-.64-.8-2-1.8-4.03-3.07-1.65-1.04-2.8-1.83-3.33-2.44s-.99-1.24-1.24-1.97c-.29-.67-.44-1.47-.44-2.29,0-1.65.53-2.99,1.63-4,1.07-1.01,2.48-1.53,4.19-1.53.93,0,1.97.17,3.11.53.53.19.89.27,1.11.27.17,0,.29,0,.35-.11,0-.05.07-.23.16-.49"/>
  </g>
  <g class="cls-22">
    <path d="M348.11,155.16v.64c-.89,0-1.56.27-1.87.76-.36.48-.53,1.37-.53,2.67v13.33c0,1.29.17,2.19.53,2.67.33.48.97.71,1.87.71v.61h-7.7v-.67c.93,0,1.56-.27,1.91-.71.36-.49.53-1.39.53-2.67v-13.33c0-1.31-.17-2.2-.49-2.69-.32-.49-.99-.72-1.95-.72v-.63h7.73l-.03.03Z"/>
  </g>
  <g class="cls-94">
    <path d="M365.11,156.19h-3.24v16.46c0,1.28.13,2.17.45,2.61.32.47.93.67,1.83.67v.64h-7.54v-.63c.93,0,1.6-.27,1.91-.8.31-.53.49-1.37.49-2.6v-16.35h-3.11c-1.47,0-2.53.23-3.23.69-.67.47-1.04,1.24-1.16,2.35h-.63v-4.89h.63c.53.53,1.65.8,3.2.8h11.22c1.63,0,2.76-.27,3.39-.8h.67v4.89h-.44c-.27-1.2-.72-2-1.43-2.4-.61-.43-1.63-.64-2.99-.64"/>
  </g>
  <g class="cls-73">
    <path d="M388.05,158.19l-4.8,7.6v6.74c0,1.31.16,2.2.48,2.69.31.49.93.72,1.84.72v.61h-7.82v-.64c1.07,0,1.79-.27,2.13-.8s.53-1.37.53-2.63v-6.73l-4.58-7.1c-.76-1.2-1.36-1.95-1.83-2.32-.48-.35-1.15-.53-2-.61v-.61h8.4v.67c-1.49,0-2.21.32-2.21,1.01,0,.29.13.67.44,1.13l4.23,6.5,3.39-5.36c.49-.8.76-1.47.76-2.05,0-.8-.47-1.2-1.43-1.2v-.63h5.86v.64c-.8.05-1.4.23-1.84.53-.4.27-.93.88-1.56,1.87"/>
  </g>
  <g class="cls-41">
    <path d="M132.05,193.02c1.01,0,1.87.44,2.64,1.24.76.84,1.13,1.83,1.13,2.96,0,1.97-.77,3.97-2.24,5.94s-3.28,2.96-5.33,2.96c-1.16,0-2.05-.4-2.8-1.2-.73-.83-1.07-1.87-1.07-3.15,0-2.2.8-4.23,2.4-6.05,1.57-1.8,3.33-2.71,5.25-2.71M129.06,205.02c1.2,0,2.27-.76,3.2-2.23.88-1.51,1.37-3.31,1.37-5.36,0-.93-.23-1.73-.72-2.35-.48-.64-1.09-.96-1.81-.96-1.16,0-2.2.76-3.13,2.23s-1.4,3.24-1.4,5.28c0,1.07.23,1.89.69,2.51.4.57,1.07.89,1.8.89"/>
  </g>
  <g class="cls-87">
    <path d="M145.04,193.41l-.13,1.01h-2.53l-2.09,10.89c-.53,2.96-1.15,5.06-1.81,6.4s-1.6,2.37-2.8,3.11c-1.17.72-2.48,1.11-3.84,1.11-1.83,0-3.31-.32-4.35-1.01l.53-2.61h.67c.4,1.92,1.47,2.88,3.27,2.88,1.33,0,2.53-.49,3.53-1.47,1.01-.97,1.87-3.2,2.53-6.7l2.36-12.64h-2.67l.13-1.01h2.64l.93-4.53c.49-2.4,1.28-4.05,2.37-4.98,1.11-.89,2.4-1.36,3.95-1.36.69,0,1.56.17,2.53.49l.13-.45h.76l-.71,3.36h-.76c-.13-1.77-.93-2.67-2.35-2.67-1.8,0-3.01,1.53-3.65,4.57l-1.2,5.57,2.53.08v-.03Z"/>
  </g>
  <g class="cls-92">
    <path d="M170.8,192.42h.64v5.2h-.63c-.23-.91-.53-1.49-.84-1.73-.31-.24-1.04-.33-2.13-.33h-5.33v7.68c0,.53.13.91.36,1.15.23.23.64.32,1.2.32h3.73c1.33,0,2.27-.09,2.8-.23s.93-.44,1.31-.8c.37-.4.72-1.07,1.13-1.96h.64l-.99,4h-15.41v-.64c.96,0,1.6-.27,1.95-.72.32-.49.49-1.36.49-2.61v-13.41c0-1.31-.16-2.2-.51-2.69-.35-.49-.99-.71-1.91-.71v-.64h15.39v3.55h-.4c-.23-1.01-.53-1.68-.93-2.03-.4-.32-1.28-.49-2.64-.49h-6.17v9.16h5.97c.8,0,1.36-.13,1.65-.44.27-.24.48-.8.63-1.6"/>
  </g>
  <g class="cls-39">
    <path d="M176.62,205.68v-.6c.88,0,1.55-.27,1.87-.76.35-.49.53-1.39.53-2.64v-13.36c0-1.28-.19-2.17-.53-2.67s-.99-.76-1.87-.76v-.64h9.89c3.65,0,6.57,1.04,8.8,3.13,2.19,2.09,3.29,4.72,3.29,7.94s-1.07,5.64-3.15,7.52c-2.09,1.87-4.98,2.8-8.66,2.8h-10.2l.03.03ZM185.95,185.12h-4.07v15.79c0,1.53.17,2.53.53,3.13.36.53,1.12.84,2.21.84h2.21c2.64,0,4.69-.84,6.2-2.53,1.52-1.69,2.27-4.04,2.27-6.97,0-3.13-.8-5.6-2.48-7.46-1.64-1.84-3.93-2.8-6.86-2.8"/>
  </g>
  <g class="cls-51">
    <path d="M209.09,184.29v.67c-.89,0-1.53.27-1.87.75s-.53,1.39-.53,2.67v13.36c0,1.28.17,2.17.53,2.64.33.49.97.72,1.87.72v.64h-7.7v-.64c.93,0,1.56-.27,1.91-.72.36-.49.53-1.39.53-2.67v-13.37c0-1.31-.17-2.2-.49-2.69-.32-.48-.99-.71-1.95-.71v-.64h7.73-.03Z"/>
  </g>
  <g class="cls-49">
    <path d="M228.1,184.92v-.64h6.46v.63c-1.04,0-1.77.23-2.13.72-.4.51-.63,1.37-.63,2.67v17.39h-.67l-15.14-18.59v15.03c0,1.07.23,1.83.64,2.27s1.16.69,2.17.69v.64h-6.49v-.64c1.04,0,1.73-.27,2.13-.8.33-.56.53-1.49.53-2.88v-12.53c0-1.33-.27-2.31-.72-2.93-.49-.6-1.31-.93-2.44-1.03v-.64h5.49l13.46,16.66v-12.53c0-1.31-.19-2.23-.56-2.76-.43-.47-1.12-.75-2.11-.75"/>
  </g>
  <g class="cls-64">
    <path d="M246.79,205.68h-9.86v-.64c.91,0,1.55-.27,1.89-.72.35-.49.53-1.39.53-2.64v-13.36c0-1.31-.19-2.2-.51-2.69-.32-.48-.99-.71-1.95-.71v-.64h8.08c2.32,0,4.13.45,5.46,1.41s2,2.2,2,3.77c0,2.27-1.44,3.89-4.31,4.82v.12c1.63.31,2.96,1.03,3.97,2.16,1.01,1.11,1.53,2.4,1.53,3.87,0,1.6-.64,2.85-1.87,3.81-1.24.96-2.93,1.43-4.98,1.43M242.2,185.12v9.06h2.19c1.56,0,2.8-.4,3.71-1.2.89-.83,1.36-1.89,1.36-3.29s-.47-2.57-1.36-3.36c-.89-.8-2.17-1.2-3.8-1.2h-2.09ZM244.2,194.98h-2.04v6.3c0,1.39.13,2.35.47,2.84.29.49.89.76,1.77.76h1.77c1.24,0,2.27-.44,3.04-1.24.8-.84,1.2-1.95,1.2-3.33,0-1.6-.56-2.87-1.69-3.83-1.16-1-2.67-1.49-4.53-1.49"/>
  </g>
  <g class="cls-43">
    <path d="M272.7,201.22v-12.86c0-1.24-.17-2.13-.49-2.61-.31-.51-.93-.77-1.76-.8v-.64h7.53v.64c-.89,0-1.53.27-1.87.76-.36.49-.53,1.39-.53,2.67v13.38c0,1.24.17,2.13.53,2.64.33.49.97.76,1.87.76v.64h-5.28v-2.97c-2,2.33-4.4,3.49-7.13,3.49-2.27,0-4.05-.67-5.33-2.03s-1.95-3.13-1.95-5.36v-10.53c0-1.27-.17-2.16-.49-2.67-.33-.48-1-.75-1.96-.75v-.64h7.73v.64c-.96,0-1.63.23-1.95.72-.35.49-.53,1.36-.53,2.64v10.84c0,1.77.51,3.13,1.47,4.13s2.29,1.49,4.03,1.49c2.56-.03,4.6-1.24,6.1-3.6"/>
  </g>
  <g class="cls-36">
    <path d="M288.13,195.78h-1.73v5.86c0,1.29.17,2.16.53,2.67.33.48.97.75,1.87.75v.61h-7.7v-.61c.93,0,1.6-.27,1.95-.76.32-.48.49-1.37.49-2.63v-13.42c0-1.28-.13-2.13-.48-2.61-.32-.48-.99-.71-1.95-.71v-.64h8.8c2.16,0,3.87.51,5.17,1.6,1.31,1.03,1.95,2.4,1.95,4,0,2.63-1.47,4.4-4.44,5.25.63.4,1.27.99,1.87,1.71.61.72,1.43,1.95,2.4,3.6,1.11,1.87,2,3.11,2.64,3.68s1.28.89,1.97.93v.61h-4.37c-.89-1.07-2-2.67-3.28-4.8-1.36-2.19-2.44-3.6-3.2-4.21-.67-.56-1.55-.88-2.48-.88M288.62,185.12h-2.23v9.77h2.61c1.56,0,2.8-.47,3.68-1.36.89-.89,1.33-2.09,1.33-3.56s-.49-2.61-1.47-3.51c-.97-.88-2.27-1.33-3.93-1.33"/>
  </g>
  <g class="cls-90">
    <path d="M322.78,196.45v.61c-.96,0-1.63.23-2.03.64-.4.44-.61,1.2-.61,2.23v5.77c-.49.13-1.43.27-2.8.35-1.33.13-2.43.17-3.17.17-3.95,0-7.01-.99-9.24-2.93s-3.31-4.53-3.31-7.7c0-2.23.48-4.23,1.44-6.02s2.32-3.2,4.05-4.27c1.73-1.04,3.56-1.56,5.53-1.56,1.16,0,2.44.2,3.83.64.87.27,1.53.37,2,.37.61,0,1.01-.23,1.2-.69h.67v6.32h-.6c-.24-1.77-1.07-3.16-2.4-4.2-1.33-1.03-2.93-1.6-4.7-1.6-2.27,0-4.13.91-5.56,2.73-1.47,1.8-2.17,4.13-2.17,6.98,0,3.12.84,5.73,2.53,7.81,1.69,2.08,3.76,3.11,6.3,3.11,2.4,0,3.6-.8,3.6-2.31v-2.32c0-1.31-.17-2.23-.53-2.76-.33-.53-.93-.8-1.81-.8h-.8v-.6c-.08.03,8.56.03,8.56.03h.03Z"/>
  </g>
  <g class="cls-56">
    <path d="M341.44,201.68v-6.2h-11.65v6.2c0,1.28.17,2.13.53,2.64.33.49,1,.76,1.93.76v.64h-7.73v-.64c.93,0,1.56-.27,1.91-.76s.53-1.39.53-2.64v-13.36c0-1.31-.19-2.2-.53-2.69-.35-.48-.99-.71-1.91-.71v-.64h7.73v.63c-.93,0-1.6.27-1.95.8-.33.51-.51,1.37-.51,2.63v6.08h11.65v-6.08c0-1.31-.17-2.2-.49-2.69-.32-.49-.97-.72-1.89-.72v-.64h7.68v.64c-.89,0-1.56.27-1.87.76s-.53,1.39-.53,2.67v13.36c0,1.28.17,2.17.53,2.64.33.47.97.72,1.87.72v.63h-7.68v-.61c.93,0,1.6-.27,1.91-.73.31-.49.48-1.39.48-2.67"/>
  </g>
</svg>