<?xml version="1.0" encoding="UTF-8"?>
<svg id="Layer_1" xmlns="http://www.w3.org/2000/svg" viewBox="0 0 400 400">
  <defs>
    <style>
      .cls-1 {
        fill: #fff;
      }
    </style>
  </defs>
  <path d="M39.48,318.25c-.62-.86-1.23-1.72-2.3-2.12-.29-.11-.49-.47-.74-.71-.77-.74-1.5-1.5-2.43-2.07-.84-.51-1.39-1.39-2.31-1.9-.91-.51-1.49-1.47-2.45-2.05-1.06-.64-1.9-1.66-2.93-2.61v-9.63c2.08,1.71,4.04,3.33,6.06,4.99v-3.57c-1.38-1.45-3.06-2.74-4.78-3.99-.91-.66-1.64-1.54-2.58-2.21-1.42-1-2.63-2.3-3.95-3.45-.6-.52-1.24-.98-1.87-1.46-.63-.48-1.11-1.09-1.83-1.52-1-.6-1.76-1.6-2.76-2.31-1.31-.93-2.36-2.21-3.66-3.15-2.26-1.64-4.17-3.69-6.45-5.3-.94-.66-1.67-1.62-2.51-2.47v-10.65c.37.17.68.24.89.42,2.28,1.98,4.5,4.03,6.83,5.95,1.59,1.31,3.21,2.58,4.77,3.93,1.81,1.57,3.67,3.1,5.5,4.66,2.48,2.12,5.02,4.16,7.51,6.26,1.57,1.32,3.13,2.68,4.9,3.96.22-1.13.03-2.3.11-3.55-2.04-1.7-4.09-3.42-6.1-5.09v-9.77c4.59,3.85,8.96,7.51,13.51,11.32v38.08h-.41Z"/>
  <path d="M45.34,288.51v-19.21c2.58-2.15,5.3-4.4,8.11-6.73v8.07c2.19-1.87,4.1-3.57,6.08-5.19,1.81-1.48,3.59-2.98,5.37-4.5,2.48-2.11,5.02-4.16,7.51-6.27,1.73-1.46,3.4-3.01,5.2-4.37,2.06-1.56,3.89-3.38,6.01-4.87,1.37-.96,2.46-2.3,3.81-3.3,1.33-.98,2.42-2.24,3.85-3.12,1.07-.66,1.95-1.61,2.91-2.45,1.21-1.06,2.34-2.23,3.64-3.18,2.25-1.65,4.15-3.71,6.45-5.3,1.32-.91,2.34-2.25,3.67-3.14,1.5-1.01,2.69-2.35,4.11-3.45,1.77-1.37,3.13-3.23,4.15-5.25.79-1.56,1.36-3.22,1.25-4.98-.23-.24-.42-.43-.68-.71-.76.41-1.63.73-2.32,1.27-1.83,1.45-3.5,3.09-5.38,4.47-2.25,1.65-4.18,3.68-6.45,5.3-1.31.93-2.37,2.2-3.65,3.16-2.11,1.59-3.99,3.47-6.16,5.01-1.14.8-2.02,1.94-3.18,2.77-1.3.93-2.36,2.21-3.66,3.15-2.09,1.52-3.88,3.39-6.01,4.86-1.09.75-1.91,1.85-3.03,2.63-1.31.92-2.36,2.21-3.66,3.15-2.09,1.52-3.92,3.35-6,4.88-1.23.9-2.26,2.09-3.5,3.03-1.42,1.08-2.76,2.28-4.19,3.33-2.48,1.83-5.41,2.61-8.39,2.11-2.03-.34-3.51-1.59-4.69-3.3-.86-1.25-1.3-2.54-1.22-4.04.05-1.03,0-2.06.01-3.09.03-4.27,1.37-8.2,3.82-11.59,1.42-1.96,2.83-4.11,5.14-5.29.35-.18.59-.57.88-.86,1.22-1.23,2.62-2.21,4.02-3.22,1.08-.78,2.04-1.73,3.05-2.61,2.17-1.89,4.29-3.86,6.53-5.66,1.77-1.42,3.46-2.94,5.22-4.35,2.01-1.61,3.85-3.43,6-4.88.98-.66,1.79-1.59,2.84-2.55v-5.33c2.7-2.24,5.39-4.48,8.23-6.83v16.58c-1.44.76-2.52,2.14-3.97,3.11-1.15.77-2.03,1.92-3.19,2.76-1.3.93-2.36,2.21-3.66,3.15-2.09,1.52-3.88,3.39-6.01,4.86-1.09.75-1.91,1.85-3.03,2.63-1.31.92-2.36,2.21-3.66,3.15-2.09,1.52-3.84,3.45-6.03,4.85-.4.25-.67.69-1.03,1-.74.66-1.46,1.34-2.27,1.95-1.47,1.11-2.58,2.64-3.39,4.33-.59,1.25-.9,2.57-.83,3.92.34.34.63.63.94.94.09-.03.18-.08.27-.1,2.1-.5,3.64-1.97,5.25-3.23,2.16-1.69,4.11-3.65,6.26-5.34,1.78-1.41,3.4-3.01,5.2-4.37,2.06-1.55,3.89-3.38,6.01-4.87,1.37-.96,2.45-2.32,3.81-3.29,1.35-.96,2.42-2.24,3.84-3.13,1-.63,1.75-1.61,2.74-2.33,1.41-1.02,2.57-2.38,3.96-3.44,2.1-1.61,3.97-3.5,6.17-5,.93-.63,1.63-1.55,2.59-2.21,1.37-.95,2.53-2.2,3.8-3.3.65-.56,1.33-1.08,2.01-1.61.63-.48,1.09-1.1,1.84-1.52,1.09-.61,1.91-1.66,2.93-2.41,1.61-1.19,3.24-2.39,5.39-2.42,1.78-1.07,3.46-.03,5.03.48,1.92.63,3.07,2.28,3.75,4.21.29.83.44,1.64.41,2.51-.04,1.51-.03,3.02,0,4.53.03,2.06-.65,3.97-1.34,5.84-1.15,3.12-3.17,5.67-5.49,8.05-2.27,2.32-4.86,4.25-7.31,6.34-1.51,1.29-2.95,2.69-4.59,3.82-1.36.95-2.44,2.22-3.86,3.11-.95.59-1.63,1.54-2.59,2.2-1.37.95-2.46,2.3-3.82,3.28-1.35.97-2.42,2.24-3.84,3.13-1,.63-1.74,1.63-2.75,2.33-1.26.87-2.28,2.08-3.51,3.01-2.28,1.72-4.23,3.83-6.61,5.43-.93.63-1.63,1.55-2.59,2.21-1.37.95-2.53,2.2-3.8,3.3-.65.56-1.34,1.08-2.01,1.61-.63.48-1.11,1.09-1.83,1.52-1.01.6-1.75,1.6-2.76,2.31-1.26.88-2.28,2.08-3.51,3.01-2.28,1.72-4.23,3.83-6.61,5.43-1.05.7-1.95,1.63-2.9,2.46-2.17,1.89-4.33,3.8-6.52,5.68-.8.68-1.66,1.29-2.54,1.97Z"/>
  <path d="M53.5,222.27v5.58c-2.67,2.21-5.37,4.44-8.17,6.76v-35.46c1.41-.71,2.45-2.14,3.92-3.07.99-.63,1.79-1.58,2.74-2.33,2.26-1.78,4.29-3.86,6.56-5.62,2.04-1.58,3.86-3.42,6.01-4.86.93-.63,1.64-1.54,2.59-2.2,1.42-1,2.63-2.3,3.95-3.45.6-.52,1.24-.98,1.87-1.46.63-.48,1.11-1.09,1.83-1.52,1-.6,1.76-1.59,2.76-2.3,1.3-.93,2.37-2.2,3.66-3.15,2.24-1.65,4.13-3.73,6.45-5.3.98-.66,1.8-1.57,2.74-2.33,2.24-1.8,4.33-3.8,6.55-5.64,1.56-1.29,3.2-2.51,4.89-3.63.77-.51,1.79-.69,2.68-.96,2.14-.65,5.98.19,7.44,1.77,1.1,1.19,2.2,2.57,2.21,4.42,0,.84.24,1.67.39,2.51.18,1.02-.31,1.94-.41,2.92-.09.91.25,1.89-.42,2.71.2,1.85-.75,3.43-1.51,4.93-.78,1.53-1.73,3.04-2.93,4.38-.98,1.09-1.81,2.4-2.99,3.24-1.75,1.24-3.09,2.95-4.9,3.97,1.91,1.91,3.73,3.73,5.67,5.67.49-.39,1.1-.94,1.78-1.39,1.61-1.07,2.83-2.6,4.44-3.68,1.27-.86,2.29-2.07,3.51-3.01,2.14-1.67,4.07-3.59,6.32-5.13.72-.5,1.27-1.25,1.91-1.87.23-.22.51-.38.73-.55.15.12.21.15.25.2.04.05.08.11.08.17,0,3.56,0,7.13,0,10.5-6.79,5.7-13.46,11.29-20,16.77-3.92-3.93-7.79-7.8-11.75-11.76-2.16,1.87-3.97,3.63-5.96,5.14-2.05,1.56-3.88,3.39-6.01,4.86-1.26.87-2.33,2.02-3.5,3.03-.7.6-1.45,1.16-2.16,1.76-.71.6-1.33,1.27-2.13,1.79-.99.64-1.8,1.57-2.75,2.32-2.15,1.69-4.13,3.61-6.26,5.34-1.76,1.43-3.51,2.85-5.21,4.36-1.69,1.51-3.57,2.79-5.19,4.38-.5.5-1.17.83-1.7,1.19ZM53.54,211.28c2.03-1.76,3.78-3.41,5.7-4.86.92-.69,1.68-1.54,2.58-2.2,1.67-1.22,3.27-2.51,4.76-3.94.96-.93,1.94-1.87,3.04-2.61,2.15-1.45,3.99-3.26,6-4.87,1.76-1.42,3.47-2.9,5.21-4.36,2.5-2.1,5.04-4.14,7.5-6.27,2.57-2.23,5.19-4.39,7.81-6.54,1.88-1.55,3.59-3.29,5.39-4.93,1.88-1.72,2.99-3.91,3.76-6.27.35-1.06.51-2.22-.29-3.23-1.65.79-3.06,1.77-4.41,2.92-.92.78-1.73,1.71-2.73,2.35-1.41.9-2.51,2.14-3.84,3.12-1.34,1-2.44,2.34-3.82,3.28-.96.66-1.65,1.58-2.58,2.21-2.2,1.49-4.06,3.38-6.16,4.99-1.38,1.06-2.54,2.43-3.95,3.44-1,.71-1.74,1.7-2.74,2.33-1.41.9-2.52,2.14-3.84,3.12-1.34,1-2.44,2.34-3.82,3.28-.96.66-1.65,1.58-2.58,2.21-2.2,1.49-4.07,3.38-6.16,4.99-1.44,1.11-2.71,2.41-4.08,3.61-.18.16-.46.2-.73.32v7.91Z"/>
  <path d="M112.84,123.92v10.5c-.17.86-.79,1.18-1.35,1.6-.55.41-.95,1-1.48,1.43-1.12.91-2.33,1.71-3.43,2.64-2.2,1.86-4.27,3.88-6.54,5.64-2.04,1.58-3.86,3.42-6.01,4.86-.93.63-1.64,1.54-2.58,2.21-1.42,1-2.63,2.3-3.95,3.45-.6.52-1.24.98-1.87,1.46-.63.48-1.11,1.09-1.83,1.52-1.01.6-1.76,1.6-2.76,2.3-1.25.88-2.28,2.08-3.51,3.01-2.28,1.72-4.24,3.81-6.6,5.44-.97.67-1.8,1.58-2.74,2.33-2.25,1.8-4.28,3.86-6.56,5.62-2.04,1.58-3.86,3.42-6.01,4.86-.78.53-1.38,1.34-2.08,2.04v5.2c-2.69,2.26-5.32,4.47-7.99,6.71-.41-1.75-.54-24.04-.24-35.01,1.62-1.71,3.47-3.12,5.33-4.55,1.28-.98,2.32-2.29,3.66-3.14,1.54-.98,2.55-2.5,4.13-3.44,1.13-.67,2.04-1.72,3.06-2.58,1.42-1.19,2.77-2.46,4.31-3.52,1.04-.72,1.95-1.63,2.9-2.46,2.17-1.89,4.29-3.85,6.52-5.67,2.63-2.15,5.25-4.31,7.81-6.54,2.46-2.13,5.01-4.17,7.5-6.27,1.73-1.46,3.41-2.99,5.2-4.37,2.04-1.57,3.86-3.41,6.01-4.86,1.1-.74,2.08-1.68,3.04-2.61,1.49-1.44,3.09-2.72,4.76-3.94,1.13-.83,2.16-1.81,3.19-2.76,2.07-1.9,4.28-3.66,6.42-5.48,2.22-1.89,4.4-3.83,6.75-5.5.32,1.54.41,11.88.16,19.1-1.35,1.07-2.7,2.12-4.03,3.22-1.28,1.05-2.52,2.15-3.72,3.18-.2-.09-.26-.1-.31-.14-.05-.04-.13-.1-.13-.15,0-2.33,0-4.67,0-7.2-.48.32-.87.56-1.24.84-.42.32-.81.69-1.23,1.02-1.34,1.07-2.57,2.27-4.01,3.23-.93.62-1.63,1.54-2.59,2.2-1.37.95-2.46,2.3-3.82,3.28-1.34.97-2.42,2.23-3.84,3.13-1,.63-1.75,1.62-2.74,2.33-1.41,1.01-2.57,2.38-3.95,3.44-2.1,1.61-3.96,3.5-6.16,5-.93.63-1.63,1.55-2.58,2.21-1.37.95-2.46,2.3-3.82,3.28-1.34.97-2.41,2.25-3.84,3.12-1.07.66-1.95,1.61-2.91,2.45-1.21,1.06-2.34,2.23-3.64,3.18-2.25,1.65-4.15,3.71-6.45,5.3-1.32.91-2.37,2.2-3.65,3.16-2.29,1.7-4.26,3.79-6.61,5.42-.44.31-.79.77-1.22,1.2v7.63c1.06-.84,2.08-1.61,3.05-2.44,2.09-1.78,4.12-3.63,6.23-5.37,1.8-1.49,3.58-2.99,5.36-4.5,2.48-2.11,5.01-4.17,7.5-6.27,1.73-1.46,3.41-2.99,5.2-4.37,2.04-1.57,3.88-3.39,6-4.87,1.31-.91,2.39-2.16,3.65-3.16,1.4-1.11,2.65-2.38,4.15-3.4.93-.63,1.66-1.52,2.59-2.2,1.41-1.02,2.57-2.38,3.95-3.44,2.1-1.61,3.98-3.48,6.16-5,1.26-.88,2.33-2.02,3.5-3.03.58-.5,1.19-.94,1.94-1.53Z"/>
  <path d="M316.25,133.2v9.34h-153.8v-9.34h153.8Z"/>
  <path d="M126.07,228.63v15.17c-2.66,2.21-5.26,4.36-7.99,6.63-.47-1.25,0-2.43-.4-3.71-7.93,6.66-15.76,13.23-23.71,19.9v13.46c-2.68,2.23-5.39,4.48-8.12,6.75.03.01-.03,0-.06-.03-.04-.04-.1-.11-.1-.16,0-4.25,0-8.51,0-12.92-.64.46-1.21.82-1.72,1.24-.52.42-.96.96-1.51,1.35-2.33,1.66-4.29,3.75-6.61,5.43-.97.7-1.79,1.59-2.74,2.34-2.15,1.69-4.14,3.61-6.26,5.35-1.86,1.52-3.66,3.11-5.51,4.64-2.62,2.16-5.28,4.27-7.8,6.53v3.96c-2.61,2.2-5.3,4.47-8.18,6.89-.21-2.72-.07-5.23-.1-7.73-.03-2.53,0-5.07,0-7.55.35-.19.67-.29.91-.49,1.27-1.1,2.44-2.33,3.79-3.32,2.25-1.65,4.15-3.71,6.45-5.3,1.32-.91,2.37-2.2,3.66-3.16,2.29-1.7,4.27-3.78,6.61-5.43.98-.69,1.85-1.53,2.76-2.32,2.08-1.79,4.09-3.66,6.24-5.37,1.77-1.41,3.46-2.92,5.2-4.38,2.55-2.14,5.15-4.22,7.67-6.39,1.71-1.48,3.39-3.02,5.19-4.37,2.07-1.55,3.88-3.39,6-4.87,1.37-.96,2.52-2.22,3.79-3.32.65-.56,1.33-1.08,2.01-1.61.63-.48,1.11-1.09,1.83-1.52,1.01-.6,1.75-1.61,2.76-2.31,1.26-.88,2.28-2.08,3.51-3.01,2.28-1.72,4.23-3.83,6.61-5.43,1.05-.7,1.94-1.63,2.91-2.46.91-.78,1.83-1.56,2.93-2.5Z"/>
  <path d="M39.89,215.57c0,5.66-.04,11.43.02,17.2.03,2.6-1.4,4.31-3.15,5.89-.23.2-.56.39-.85.4-2.66.14-5.25.06-7.64-1.46-2.48-1.57-4.54-3.59-6.47-5.73-1.99-2.22-3.24-4.92-4.17-7.74-.4-1.22-.65-2.49-1.03-3.99-1.91-.38-4.05-.8-6.33-1.25-.18.96-.05,1.98-.07,2.98-.02.96,0,1.92,0,2.89v3.09c0,.96.02,1.92,0,2.89-.02,1,.1,2.01-.12,3.26-2.76-2.32-5.34-4.49-8.06-6.77v-18.07c1.24-.62,2.4.51,3.64.26.99.82,2.27.26,3.4.75,1.1.48,2.62.05,3.67.57,1.14.56,2.46-.24,3.6,1.16.03-1.12.05-1.84.06-2.56,0-.75,0-1.5,0-2.2-1.68-1.73-3.53-3.15-5.38-4.58-1.33-1.02-2.44-2.33-3.8-3.3-1.35-.97-2.37-2.31-3.85-3.12-.52-.28-.89-.85-1.4-1.37v-3.39c0-1.24,0-2.47,0-3.71,0-1.14-.03-2.29.04-3.8,4.57,3.57,8.62,7.19,12.84,10.61,4.19,3.39,8.22,6.97,12.41,10.36,4.24,3.43,8.33,7.05,12.67,10.75ZM24.62,213.84c0,2.36-.1,4.54.05,6.71.06.91.3,1.87.76,2.75.97,1.89,2.07,3.27,3.97,4.64h1.64c.21-.21.4-.4.55-.55v-7.68c-2.24-1.89-4.48-3.79-6.96-5.88Z"/>
  <path d="M71.72,132.99c-2.27,1.9-4.42,3.7-6.62,5.53-.87-.66-1.79-1.3-2.64-2.02-1.33-1.13-2.55-2.41-3.94-3.47-2.1-1.61-3.98-3.49-6.16-5-.98-.68-1.79-1.59-2.74-2.34-2.26-1.79-4.29-3.86-6.57-5.62-2.04-1.58-3.85-3.43-6.02-4.86-.88-.58-1.57-1.42-2.43-2.07-2.34-1.79-4.49-3.82-6.68-5.71,1.79-1.54,3.53-3.1,5.33-4.58,1.94-1.59,3.89-3.17,5.91-4.65,1.36-1,2.93-1.48,4.61-1.83,1.2-.25,2.36-.37,3.55-.34,3.94.11,7.4,1.42,10.19,4.26.79.8,1.53,1.68,2.18,2.6.75,1.07,1.22,2.27,1.21,3.62-.01.96.02,1.93-.02,2.89-.01.3-.21.59-.35.96,5.28,2.17,10.37,4.94,15.74,7.09.24.1.55.01.97.01.31-.41.68-.89,1.08-1.42.67.37,1.23.57,1.66.93,1.24,1.03,2.41,2.14,3.64,3.19.53.46,1.13.84,1.79,1.33-2.58,2.16-5.05,4.22-7.51,6.28-3.3-1.55-6.58-3.08-9.86-4.63-1.96-.92-3.85-1.99-5.87-2.77-1.97-.76-3.79-1.8-5.72-2.63-1.08-.46-1.28-.44-2.26.59,5.8,4.85,11.59,9.7,17.5,14.65ZM47.25,112.54c1.15-.6,2.18-1.51,3.17-2.49,1.01-1,1.69-2.05,1.38-3.61-.8-.04-.45-1.21-1.38-1.41-.64-.13-1.16-.8-1.62-1.15h-3.14c-1.45,1.14-2.97,2.33-4.49,3.52,2,1.69,3.99,3.37,6.08,5.14Z"/>
  <path d="M234.96,118.55c1.67,1.91,3.33,3.81,5.09,5.82h-11.52c-1.52-1.78-3.16-3.7-4.81-5.63h-2.69v5.64h-9.48v-30.42h1.76c6.25,0,12.51-.05,18.76.02,3.45.04,6.5,1.16,8.97,3.71,1.74,1.8,2.72,3.88,3.1,6.36.13.83.45,1.66.34,2.51-.33,2.58-.78,5.04-2.58,7.19-1.74,2.07-3.76,3.45-6.31,4.17-.17.05-.3.28-.64.62ZM235.02,107.33c0-.23,0-.78,0-1.33.02-1.45-.6-2.37-1.91-3.12-1.06-.61-2.21-.93-3.27-1.01-2.77-.22-5.58-.08-8.23-.08-.29.29-.43.43-.57.57v8.5c3.11,0,6.2.18,9.25-.07,1.91-.16,3.91-.75,4.74-3.47Z"/>
  <path d="M16.37,153c-1.71-1.13-3.1-2.79-4.89-3.97-.88-.58-1.57-1.42-2.42-2.08-2.49-1.92-4.8-4.09-7.05-6.04v-10.61c.21-.03.39-.11.46-.05.89.7,1.77,1.39,2.63,2.13,2.18,1.88,4.26,3.9,6.54,5.64,2.05,1.57,3.87,3.4,6,4.87,1.32.91,2.37,2.2,3.65,3.16,2.29,1.7,4.28,3.76,6.6,5.43,1.14.81,2.12,1.85,3.2,2.74,1.38,1.13,2.72,2.31,4.15,3.39,1.66,1.25,3.13,2.76,4.57,4.05v32.58c-4.59-3.85-9.06-7.6-13.48-11.3v-11.12c1.76,1.48,3.41,2.87,5.21,4.38v-10.4c-2.13-1.82-4.41-3.78-6.8-5.83-.25,1.16-.07,2.34-.11,3.5-.03,1.17,0,2.33,0,3.5v3.74c-2.85-2.36-5.56-4.61-8.25-6.84v-10.86Z"/>
  <path d="M39.94,275.2c-3.09-2.61-5.9-4.97-8.71-7.34,0-2.38.07-4.71-.02-7.04-.11-3.02-1.19-5.68-3.28-7.91-.61-.65-1.22-1.29-1.75-1.84h-.96c-.07.13-.17.24-.17.36,0,2.61-.02,5.22,0,7.83.02,1.88-.69,3.38-1.99,4.76-1.58,1.68-3.41,2.47-5.67,2.28-.92-.08-1.82.11-2.78-.24-1.58-.57-2.88-1.5-4.09-2.55-1.3-1.12-2.53-2.34-3.65-3.64-2.04-2.37-3.51-5.04-4.16-8.17-.22-1.06-.13-2.13-.4-3.13-.7-2.62-.27-5.25-.36-7.88-.08-2.67-.02-5.35-.02-8.06.81.15,1.33.64,1.92,1.12,1.54,1.26,2.9,2.74,4.58,3.83.62.4,1.08,1.05,1.75,1.71,0,1.57.07,3.27-.02,4.97-.09,1.82.22,3.59.56,5.47.47.84,1.07,1.76,1.5,2.75.51,1.17,1.39,1.88,2.47,2.45.74.39,1.4.44,2.04-.35v-10.84c.87-1.97,1.82-3.44,3.77-4.24.6,0,1.42.02,2.24,0,2.34-.06,4.26.98,6.05,2.33,1.48,1.12,3.02,2.14,4.34,3.48,2.37,2.4,3.97,5.3,5.34,8.31.55,1.2.78,2.59.98,3.92.87,5.75.22,11.54.48,17.67Z"/>
  <path d="M76.09,110.17c2.22-1.87,4.41-3.71,6.65-5.59,1.69,1.35,3.32,2.66,5.02,4.01.75-.75,1.39-1.35,1.99-2,1.48-1.61,1.58-4.32.26-6.04-2.37-3.09-6.21-3.74-9.59-2.04-.86.44-1.58,1.15-2.41,1.65-2.17,1.3-4.37,2.5-7.02,2.47-.49,0-.99.38-1.48.36-.84-.03-1.68-.37-2.51-.36-2.09.03-3.95-.75-5.69-1.71-2.3-1.28-4.06-3.22-5.58-5.37-.08-1.17-1.14-2.03-1.01-3.3.08-.77-.55-1.45-.41-2.3.48-2.72,1.05-5.37,3.27-7.3,1.16-1.01,2.32-2.04,3.47-3.06,1.06.87,2.13,1.73,3.19,2.62,1.08.9,2.14,1.83,3.28,2.8-1.15,1.47-2.8,2.48-3.67,4.16-.05,1.32-.12,2.58.76,3.79.95,1.32,3.38,2.66,4.83,2.13,1.31-.49,2.62-.98,3.73-1.98,1.75-1.57,3.98-2.25,6.21-2.89,2.26-.66,4.62-.67,6.83-.31,2.88.47,5.66,1.41,8.12,3.28,2.12,1.61,3.73,3.5,4.87,5.82.94,1.9,1.23,5,.58,7.08-1.06,3.37-1.46,4.61-3.71,6.48-2.19,1.82-4.25,3.8-6.59,5.44-.6.42-1.05,1.05-1.67,1.68-4.06-3.05-7.67-6.46-11.7-9.55Z"/>
  <path d="M74.79,87.37c-3.82-3.19-7.61-6.36-11.49-9.61,7.62-6.39,15.12-12.69,22.66-19.02,2.02,1.67,3.92,3.23,5.8,4.8,1.84,1.53,3.68,3.08,5.64,4.72-1.06.98-1.93,2.17-3.11,2.76-1.26.64-1.76,2.28-3.21,2.37-1.01-.78-1.91-1.46-2.78-2.17-.81-.67-1.58-1.38-2.36-2.06-.54.54-.97.97-1.53,1.52.98.75,1.65,1.76,2.79,2.41,1.09.61,1.74,1.8,2.89,2.48,1.01.6,1.75,1.61,2.75,2.32,1.31.93,2.36,2.21,3.66,3.15,2.09,1.52,3.89,3.38,6.01,4.86,1.37.96,2.53,2.21,3.79,3.32,1.11.98,2.16,2.03,3.34,2.9,1.88,1.39,3.71,2.83,5.37,4.6-2.16,1.81-4.32,3.62-6.55,5.48-1.9-1.65-3.81-3.42-5.82-5.05-1.6-1.3-3.17-2.64-4.78-3.91-2.02-1.6-3.87-3.4-6-4.88-1.09-.75-1.96-1.8-3.03-2.63-2.17-1.67-4.16-3.58-6.25-5.35-1.63-1.37-3.31-2.67-4.99-4.02-.54.37-1.17.8-1.92,1.33,1.71,1.45,3.36,2.85,5.1,4.33-.71,1.16-1.92,1.87-2.99,2.74-1.04.84-2.02,1.75-3,2.62Z"/>
  <path d="M5.57,126.11c.58-.47,1.08-.87,1.58-1.28,1.38-1.14,2.67-2.36,4.16-3.37.93-.63,1.63-1.55,2.58-2.2,1.37-.95,2.46-2.29,3.81-3.28,1.39-1.02,2.55-2.29,3.98-3.27,1.43-.98,2.64-2.28,3.97-3.46,3.22,2.7,6.46,5.42,9.82,8.24-1.82,2.06-4.27,3.38-6.24,5.48-1.39-.56-2.49-1.59-3.56-2.55-2.3,1.96-4.6,3.9-6.98,5.92,2.11,1.76,4.12,3.43,6.23,5.19.8-.7,1.65-1.42,2.46-2.19.77-.74,1.69-1.17,2.49-1.72,2.26,1.89,4.33,3.62,6.48,5.42-1.65,1.38-3.16,2.63-4.77,3.97,1.5,1.55,3.16,2.81,4.84,4.05,1.18.87,2.24,1.92,3.34,2.89,1.26,1.11,2.45,2.31,3.78,3.33,1.85,1.42,3.71,2.84,5.39,4.6-1.9,2.11-4.28,3.68-6.34,5.49-1.55-.96-2.71-2.34-4.22-3.33-.99-.65-1.75-1.62-2.74-2.33-1.3-.93-2.37-2.2-3.66-3.15-2.24-1.65-4.12-3.74-6.45-5.29-.93-.62-1.67-1.51-2.58-2.2-2.12-1.62-4.08-3.45-6.1-5.2-1.97-1.7-3.89-3.48-5.94-5.07-1.68-1.31-3.39-2.58-4.88-4.1-.18-.18-.31-.4-.45-.58Z"/>
  <path d="M189.57,117.74c-.22.22-.36.36-.58.58h-17.06v6.07h-9.3c-.31-1.62-.42-24.19-.13-30.37h29.12v8.14h-19.62v7.86h17.58v7.71Z"/>
  <path d="M279.62,124.37h-12.31c1.49-.65,2.71-1.15,3.19-2.55,0-.41,0-.81,0-1.22-.04-1.46-.61-2.32-2.03-2.71-1.3-.36-2.67-.52-3.98-.85-3.04-.78-6.17-1.15-9.09-2.43-2.15-.94-3.77-2.35-4.98-4.27-.43-.69-.82-1.49-.92-2.28-.2-1.66-1.06-3.34-.04-5.01-.06-2.84,1.49-4.91,3.51-6.55,1.89-1.53,4.06-2.56,6.58-3.03,2.51-.47,5-.42,7.46-.26,3.27.21,6.23,1.47,8.75,3.71,1.72,1.53,2.78,3.45,3.76,5.62v1.61c-2.97.6-5.88,1.2-8.86,1.8-.7-1.88-1.7-3.57-3.52-4.55-1.09-.59-2.34-1.05-3.56-.8-1.57.33-3.29.59-4.09,2.15-.21.66-.38,1.21-.62,1.97.53.74,1.14,1.58,1.55,2.15,1.92.84,3.68.98,5.35,1.4,1.42.36,2.89.72,4.37.94.84.13,5,1.61,5.52,2.08,1.01.92,2.07,1.84,2.89,2.93.63.84,1,1.92,1.32,2.94.21.68-.12,1.63.24,2.16.52.76.17,1.19-.09,1.79-.12.29.02.68-.03,1.02-.1.76-.24,1.52-.36,2.24Z"/>
  <path d="M292.66,283.16h-4.68c-.51-.69.14-1.13.26-1.68.25-1.2.41-2.41.8-3.58.37-1.1.44-2.29.72-3.42.29-1.18.53-2.37.9-3.54.41-1.3.43-2.75.46-4.14.06-3.29.02-6.57.02-9.93h23.83v8.55h-3.94v1.26h4.1c-.43,1.3-.82,2.47-1.21,3.66h-2.91c-.03.43-.06.81-.09,1.26h4.72c.7.77-.14,1.27-.19,1.89-.05.63-.29,1.24-.45,1.9h-7.37c.51.37.92.66,1.44,1.03,1.25-.62,2.95-.07,4.72-.26-.58,1.01-1.11,1.92-1.7,2.94,1.23,1.47,2.66,2.74,4.51,4h-6.33c-1.21-1.02-2.53-2.13-3.98-3.36-.42,1.19-.82,2.3-1.21,3.4h-8.1v-7.7h-2.42c-.89,2.35-1.32,4.94-1.87,7.7ZM296.11,261.7h13.95v-1.1h-13.95v1.1ZM305.32,279.08c-1.11-1.22-2.08-2.18-3.49-2.81.09.99-.1,1.92.13,2.81h3.36ZM295.2,271.59h3.73v-1.16h-2.78c-.07-.64-.12-1.15-.22-2.14-.31,1.4-.51,2.32-.73,3.31ZM306.76,265.55h-3.64v1.1h3.64v-1.1ZM303.13,271.6h3.69c-.03-.44-.06-.81-.09-1.11h-3.61v1.11ZM296.08,265.51c0,.99,0,1.81.01,2.63,0,.06.17.11.4.26v-1.63c.92-.05,1.7-.08,2.4-.12v-1.14h-2.82Z"/>
  <path d="M294.91,102.21h-12.38v-8.05c1.77-.3,26.18-.41,33.68-.13v8.05s-.01.03-.06.07c-.05.04-.12.07-.18.07-3.97,0-7.95,0-11.99,0v21.97c-.11.13-.15.19-.21.22-.05.04-.12.07-.17.07-2.88,0-5.75,0-8.7,0v-22.26Z"/>
  <path d="M252.11,279.01c-.24.93-.41,1.61-.59,2.28-.17.62-.36,1.22-.55,1.88h-14.23v-6.48c-3.19-.17-6.31-.01-9.5-.1v-16.41h9.37v-4.5h4.97v4.41h9.48v16.5h-9.4v2.42h10.45ZM236.6,266.27v-2.41h-4.29c-.17.17-.31.31-.51.51v1.9h4.8ZM246.12,263.89h-4.4v2.34h4.4v-2.34ZM236.6,272.45v-2.03c-1.68,0-3.28,0-4.81,0v2.03h4.81ZM241.66,272.42h4.52c-.03-.72-.06-1.36-.09-1.92h-4.43v1.92Z"/>
  <path d="M2.01,178.84v-11.23c1.9,1.62,3.59,3.21,5.43,4.58,2.23,1.67,4.14,3.71,6.45,5.29,1.26.87,2.29,2.07,3.5,3.02,2.14,1.66,4.1,3.55,6.31,5.14,1.13.81,2.02,1.94,3.18,2.77,1.31.93,2.36,2.21,3.66,3.15,2.09,1.52,3.88,3.39,6.01,4.86,1.2.83,2.22,1.93,3.27,2.86v11.1c-1.9-1.62-3.59-3.21-5.43-4.58-2.07-1.54-3.88-3.39-6.01-4.86-1.09-.75-1.9-1.85-3.03-2.63-1.26-.87-2.28-2.08-3.51-3.01-2.11-1.59-3.97-3.49-6.16-4.99-1.1-.75-2.04-1.72-3.05-2.6-2.17-1.89-4.29-3.85-6.54-5.64-.73-.58-1.44-1.17-2.14-1.77-.65-.56-1.36-1.04-1.93-1.46Z"/>
  <path d="M126.04,166.8c-.88.61-1.46,1.69-2.62,2.27-.98.49-1.56,1.59-2.6,2.18-1.02.58-1.59,1.81-2.87,2.44v-48.82c2.56-2.13,5.25-4.36,8.08-6.71v48.65Z"/>
  <path d="M220.25,262.15h-7.84v2.78s0,.02.05.06c.05.04.11.08.17.08,2.46,0,4.93,0,7.41,0,.29.8.03,1.44-.27,2.11-.26.58-.36,1.23-.55,1.93h-6.83c-.13,1.12-.03,2.18-.08,3.39h10.84c-.44,1.37-.82,2.58-1.22,3.78-.04.12-.19.2-.35.36h-9.22v6.48h-4.56v-6.44h-14.41c.44-1.47.85-2.82,1.27-4.21h4.01v-7.37h9.07c0-.88,0-1.61,0-2.35-.15-.15-.29-.29-.58-.58h-11.85c.93-2.28,1.79-4.38,2.67-6.53h4.74c-.26.87-.53,1.74-.85,2.78h19.49c-.4,1.34-.75,2.53-1.11,3.73ZM203.7,272.42h4.1c-.04-1.13.05-2.19-.05-3.16h-4.05v3.16Z"/>
  <path d="M229.18,208.95h-4.49v-9.65c-1.97,3.37-3.47,6.68-5.36,9.68h-2.78c-.56-.99-1.18-2.03-1.73-3.11-1.01-1.98-1.98-3.99-2.98-6.01-.15.12-.21.15-.25.2-.04.05-.08.11-.08.17,0,2.88,0,5.75,0,8.7h-4.4l-.55-.55c0-6.21,0-12.45,0-18.7,0-.12.06-.25.11-.42h5c2.08,3.83,4.15,7.64,6.31,11.62.62-.98,1.26-1.86,1.76-2.82,1.27-2.42,2.47-4.88,3.74-7.31.26-.51.67-.94,1.08-1.5h4.61v19.71Z"/>
  <path d="M195.86,124.4v-30.37h9.26c.29,1.71.39,23.9.13,30.37h-9.39Z"/>
  <path d="M62.82,140.51c-2.31,1.92-4.4,3.64-6.6,5.47-1.78-1.52-3.46-3.09-5.29-4.46-2.23-1.67-4.12-3.75-6.46-5.29-1-.66-1.85-1.53-2.76-2.31-2.08-1.79-4.14-3.6-6.22-5.39-1.12-.96-2.27-1.88-3.54-2.93,2.11-1.8,4.11-3.49,6.19-5.26,1.05-.19,1.68.78,2.4,1.34,2.16,1.69,4.13,3.61,6.27,5.33,1.76,1.42,3.45,2.94,5.22,4.35,2.02,1.6,3.9,3.37,5.99,4.88,1.67,1.21,3.12,2.74,4.81,4.26Z"/>
  <path d="M197.14,241.94h-4.96v-19.65h4.08c3,3.51,6.17,7.23,9.4,11v-11.09c.93,0,1.79,0,2.66-.01.88,0,1.77,0,2.71,0v19.69h-4.31c-3.06-3.48-6.21-7.08-9.59-10.92v10.98Z"/>
  <path d="M341.07,175.52v-19.13c.18-.18.32-.32.53-.53h3.62c3.17,3.7,6.46,7.54,9.8,11.44v-11.45h4.91v19.68h-4.18c-3.1-3.55-6.16-7.07-9.22-10.58.04-.03-.02,0-.06.05-.04.05-.07.12-.07.17,0,3.42,0,6.85,0,10.34h-5.33Z"/>
  <path d="M188.55,260.87c-.35,1.29-.63,2.32-.92,3.37h-8.22c-.04.25-.07.44-.13.78h12.42c.02,1.27-.55,2.22-.93,3.29h-28.27v-3.21h11.75c.06-.25.1-.43.19-.78-2.9-.18-5.76,0-8.66-.1v-3.22h8.52c.03-.33.05-.51.09-.85h-9.87v-3.25h9.71c.08-.44.15-.81.24-1.25h4.76c.05.33.11.7.19,1.15h10.15c.03.64.23,1.17-.18,1.76-.31.45-.4,1.06-.59,1.61h-9.43v.7h9.18Z"/>
  <path d="M241.14,241.94h-4.2c-3.27-3.73-6.46-7.37-9.69-11.05v10.96c-.84.22-1.65.1-2.44.12-.81.02-1.63,0-2.52,0v-19.72c.57-.02,1.23-.05,1.88-.07.62-.01,1.24,0,1.96,0,1.91,1.86,3.63,3.97,5.34,6.11,1.4,1.77,3.01,3.38,4.71,5.26v-11.32c.86-.02,1.65-.04,2.45-.05.81,0,1.63,0,2.5,0v19.75Z"/>
  <path d="M264.74,167.65v-11.79h4.38c.15.15.34.34.51.51v19.17h-4.41c-1.58-1.9-3.31-3.74-4.89-5.74-1.37-1.74-2.97-3.3-4.63-5.1v10.82h-4.91v-19.67h3.95c3.2,3.78,6.48,7.64,10,11.79Z"/>
  <path d="M263.54,227.84c-1.48.46-2.87.89-4.39,1.36-1.3-1.5-2.84-2.93-5.06-2.86-2.13.07-3.67,1.36-4.97,3.13-.57,1.76-.9,3.64.34,5.48.76,1.12,1.68,1.97,2.95,2.51,1.43.61,2.9.57,4.17-.08,1.02-.52,2.24-1.14,2.38-2.73-.92-.21-1.87-.07-2.8-.09-.95-.03-1.91,0-2.92,0v-4.03h11.03c.1,2.38.15,4.67-1.15,6.89-1.4,2.38-3.86,4.01-6.19,4.63-2.17.58-4.27.48-6.25-.14-2.14-.67-3.99-2.06-5.32-3.93-1.15-1.61-1.93-3.41-1.67-5.49.15-1.25-.1-2.48.35-3.77.4-1.15,1.04-2.1,1.73-2.99,1.14-1.46,2.58-2.62,4.41-3.25,2.22-.76,4.22-.91,6.39-.45,1.76.37,3.27,1.09,4.67,2.2,1.04.82,1.91,1.96,2.31,3.61Z"/>
  <path d="M172.38,175.49v-19.65h3.9c3.08,3.63,6.25,7.37,9.65,11.38v-3.76c0-2.13-.02-4.25.02-6.38,0-.42.23-.84.35-1.25h4.52v19.69c-.58.02-1.24.05-1.9.07-.62.01-1.24,0-2.1,0-3.04-3.49-6.19-7.11-9.54-10.95v10.85h-4.9Z"/>
  <path d="M187.51,283.17h-7.22c-.25-1.08-1.36-1.87-.79-3.27h3.53c-.05-.19-.05-.25-.08-.29-.04-.05-.1-.11-.16-.11-3.84,0-7.69,0-11.68,0v3.66h-4.91v-13.93h21.3v13.94ZM171.12,272.83h11.88v-.68h-11.88v.68ZM171.16,275.86c3.36.51,10.52.43,12.07,0h-12.07Z"/>
  <path d="M243.04,168.82c2.12,2.34,4.02,4.44,6.05,6.69-1.03.19-2.01.07-2.97.09-1.03.02-2.05,0-3.21,0-.9-1.09-1.84-2.22-2.79-3.35-.9-1.08-2.19-1.82-2.82-3.21h-1.4v6.46h-4.95v-19.69h3.39c1.92,0,3.85-.06,5.77.02,1.17.05,2.35.24,3.48.53,1.69.43,2.74,1.41,3.8,3.24.1.17.22.33.3.45.13.79.25,1.55.41,2.58-.41,1.08-.38,2.65-1.32,3.86-.9,1.17-2.24,1.73-3.76,2.32ZM243.25,162.49c-.22-1.32-1.06-1.78-1.87-2.11h-5.45v4.49c1.44,0,2.8-.02,4.16,0,1.24.02,2.11-.58,2.77-1.57.17-.26.27-.57.39-.82Z"/>
  <path d="M317.96,165.84c.07-1.18-.08-2.34.36-3.54,1.12-3.1,3.75-5.41,6.85-6.46,1.04-.35,2.23-.52,3.31-.4,1.71.19,3.5.39,5,1.3,1.77,1.07,3.27,2.51,4.23,4.37.49.96.95,1.99.86,3.14-.05.68-.09,1.38,0,2.06.36,2.65-.96,4.76-2.53,6.55-1.74,1.99-4.08,3.23-6.89,3.15-.55-.01-1.1,0-1.65,0-3.58,0-6.45-1.87-8.37-5.1-.97-1.62-1.42-3.23-1.18-5.07ZM330.32,160.34h-4.13c-.88.79-1.87,1.68-2.66,2.4-1.19,3.17-.96,5.93,1.7,7.87,1.88,1.37,4.17,1.36,6.06,0,2.68-1.93,2.82-4.71,1.78-7.79-.88-.79-1.87-1.68-2.75-2.47Z"/>
  <path d="M272.11,204.38v4.03c-.19.19-.33.33-.53.53h-14.54c-.13-.13-.28-.28-.5-.5v-19.04c1.59-.29,9.83-.37,15.12-.13v3.99h-9.77v3.73h8.97v4.14h-8.99v3.24h10.23Z"/>
  <path d="M217.74,160.27v3.32h9.35v4.15h-9.32v3.6s0,.02.06.06c.05.04.12.07.17.07,3.29,0,6.58,0,9.94,0v4.03h-15.14v-19.61h15.17v4.38h-10.23Z"/>
  <path d="M290.71,194.48c-1.58.34-3.15.67-4.72,1-.39-1.2-1.4-1.74-2.06-2.57h-2.94c-.3.32-.63.67-1,1.06v1.2c.49.62,1.2.87,1.99,1.05,1.62.37,3.24.78,4.84,1.23,1.92.55,2.98,1.18,3.62,2.94.37,1.01,1.35,2.24.26,3.47.21,1.55-.83,2.42-1.75,3.4-1.05,1.11-2.37,1.57-3.82,1.72-1.05.11-2.11.84-3.1.37-.87-.41-1.69-.28-2.46-.37-.64-.29-1.22-.55-1.79-.81-1.7-.79-2.72-2.2-3.49-3.84-.27-.57-.08-1.04.44-1.42,1.53-.19,3.09-.39,4.61-.59.56,1.08.64,2.38,2.08,2.55h3.31c.33-.34.67-.68,1.02-1.03v-1.26c-.33-.3-.68-.62-1.02-.92-2.42-.6-4.95-.75-7.24-1.93-1.18-.61-2.06-1.47-2.43-2.68-.35-1.14-.99-2.37-.03-3.56,0-1.8,1.4-2.73,2.55-3.65.98-.79,2.3-1.17,3.67-1.06.75.06,1.51,0,2.27.01,3.23,0,6.01,1.84,7.19,4.78.09.23.01.54.01.91Z"/>
  <path d="M162.61,241.9c1.97-3.44,4.07-6.57,6.02-9.9-1-1.57-2.06-3.18-3.07-4.82-.97-1.57-1.89-3.16-2.94-4.91h5.91c1.16,1.94,2.4,4.02,3.7,6.21,1.13-.77,1.42-2.1,2.13-3.12.74-1.07,1.44-2.17,2.05-3.1h5.86c-1.75,2.76-3.42,5.41-5.11,8.05-.47.74-.9,1.46-.77,2.1,2.03,3.26,3.92,6.32,5.89,9.48h-5.77c-1.67-1.74-2.33-4.4-4.25-6.23-1.32,2.13-2.56,4.13-3.87,6.24h-5.8Z"/>
  <path d="M353.6,208.92c-1.42-.73-1-2.57-1.94-3.63h-7.9c-.49,1.2-.98,2.43-1.48,3.65h-4.79c-.15-.15-.29-.29-.43-.43,2.68-6.4,5.36-12.8,8.05-19.23h5.29c1.25,3.19,2.65,6.44,4.01,9.72,1.35,3.26,2.63,6.55,4.26,9.92h-5.07ZM345.49,200.67h4.53c-.73-1.8-1.43-3.55-2.24-5.55-.8,1.94-1.53,3.69-2.3,5.55Z"/>
  <path d="M279.15,155.84h4.88c.42.86,1.03,1.68,1.21,2.58.28,1.42,1.12,2.56,1.55,3.9.76,2.35,1.82,4.6,2.8,6.86.9,2.08,1.61,4.26,2.72,6.33h-5.18c-.98-.72-.84-2.13-1.58-3.18h-8.06c-.38,1.04-.78,2.11-1.17,3.18h-5.44c.51-1.26.97-2.43,1.44-3.59.93-2.29,1.86-4.59,2.84-6.85.93-2.15,1.7-4.38,2.76-6.48.45-.91.83-1.85,1.23-2.76ZM279.41,167.69h4.48c-.72-1.91-1.39-3.66-2.37-5.73-.79,2.13-1.43,3.87-2.12,5.73Z"/>
  <path d="M361.29,175.52c.85-1.64,1.42-3.3,2.08-4.94.49-1.23,1.09-2.43,1.6-3.66,1.26-3.05,2.7-6.02,3.73-9.17.21-.65.65-1.24,1.01-1.91h4.78c2.96,6.4,5.51,13.02,8.37,19.67h-5.35c-.44-1.01-.92-2.12-1.38-3.18h-8.1c-.39,1.07-.76,2.08-1.16,3.19h-5.57ZM374.4,167.66c-.77-1.94-1.49-3.78-2.25-5.69-.78,1.93-1.51,3.76-2.28,5.69h4.54Z"/>
  <path d="M289.06,232.3c0-.62-.04-1.24,0-1.85.27-3.66,1.9-6.39,5.29-8.06.77-.38,1.54.1,2.3-.48.48-.37,1.34-.27,2.07.17.51.31,1.31.12,1.91.35,2.86,1.09,4.21,3.53,5.34,6.14-.26,1.29.62,2.49.39,3.73-.46,2.45-.47,5.08-2.45,7-.28,1.38-1.65,1.57-2.55,2.23-.84.61-1.86.96-2.93.84-1.11-.12-2.3.41-3.35-.36-3.07-.53-4.43-2.87-5.59-5.36-.64-1.37-.41-2.88-.43-4.35ZM294.01,229.51c0,1.54-.13,3.06.03,4.56.17,1.6.59,3.13,2.41,3.81,1.32.49,3.04.12,3.73-1.1.8-1.43,1.02-3.04,1.24-4.63.04-.25.04-.63-.11-.76-.51-.46-.19-1.03-.31-1.53-.13-.56-.33-1.1-.55-1.83-.9-1.06-2.04-2.06-3.74-1.6-1.7.27-1.9,1.84-2.72,3.09Z"/>
  <path d="M318.09,189.27h5.82c1.66,4.06,3.33,8.17,5.1,12.5,1.78-4.21,3.47-8.31,5.13-12.5h5.64c-2.8,6.58-5.59,13.13-8.38,19.7h-4.7c-.31-.85-.61-1.81-1.01-2.72-.41-.93-.97-1.76-1.21-2.8-.27-1.15-1.04-2.16-1.53-3.27-1.08-2.44-2.06-4.91-3.17-7.34-.5-1.09-.91-2.23-1.69-3.56Z"/>
  <path d="M254.37,189.27v4.41h-10.18v3.73h9.42c-.24,1.56.42,3.11-.5,4.58h-8.97v6.98c-1.7-.15-3.37.44-4.96-.39v-19.32h15.19Z"/>
  <path d="M164.13,189.24h15.12v4.48h-10.16v3.66c2.89.14,5.88,0,8.93.08v4.45c-2.9.17-5.88,0-8.93.09v6.94c-.86.02-1.65.04-2.45.05-.81,0-1.63,0-2.51,0v-19.75Z"/>
  <path d="M280.22,237.82h7.15v4.08h-14.32c-.02-.43-.05-.95-.07-1.47-.01-.48,0-.96,0-1.54,1.6-1.6,3.23-3.26,4.9-4.88.61-.59,1.35-1.07,2.01-1.62,1.19-.99,2.08-2.2,2.61-3.74-.19-.61-.41-1.28-.64-2.02-.57-.22-1.16-.44-1.83-.69q-2.07.83-3.07,3.29c-1.4-.3-2.84-.61-4.26-.92-.02-2.94,2.06-5.59,4.87-6.09.58-.11,1.14-.38,1.68-.41,2.59-.13,5.91.91,7.36,3.94.72,1.51.55,4.26-.5,5.85-.64.97-1.42,1.77-2.22,2.58-1.15,1.17-2.32,2.31-3.65,3.65Z"/>
  <path d="M307.58,228.25c.2-1.52.73-2.85,1.54-3.99.8-1.14,2.13-1.74,3.46-2.01.64-.13,1.22-.46,1.88-.48,2.52-.04,6.28,1.24,7.24,4.33.48,1.54.5,4.03-.41,5.29-.58.81-1.21,1.59-1.9,2.31-1.28,1.34-2.62,2.63-4.07,4.09h7.1v4.09h-14.33v-3.05c1.46-1.46,2.89-2.94,4.39-4.37,1.07-1.02,2.19-1.98,3.33-2.91.8-.66,1.07-1.62,1.6-2.44.55-.85-.44-1.43-.38-2.24.03-.34-.58-.67-1.15-.6-.2.03-.44-.24-.77-.44-.54.6-1.65.22-2.11,1.11-.38.73-.68,1.5-1.03,2.29-1.46-.33-2.9-.66-4.36-1Z"/>
  <path d="M258.61,256.85h15.54v8.57h-5.21c-.04.32-.07.51-.11.85h6.74c-.21,1.05-.39,1.92-.58,2.85h-17.16c-.62-.95.99-1.71.02-2.79h6.34c.06-.24.11-.43.16-.6-.13-.1-.23-.24-.33-.24-1.78-.01-3.56,0-5.4,0v-8.62ZM262.7,262.93h7.34v-.68h-7.34v.68ZM262.72,259.36c0,.11,0,.23.01.34,2.38,0,4.76,0,7.14,0,.05,0,.11-.08.14-.14.02-.03,0-.09-.02-.2h-7.28Z"/>
  <path d="M303.57,208.3c-.36.36-.51.51-.64.64h-4.23c-.2-.2-.35-.35-.56-.56v-14.99h-6.09v-4.13h17.56v4.06h-6.03v14.99Z"/>
  <path d="M199.54,175.52v-15.11h-6.53c-.03-.72-.06-1.37-.07-2.03-.01-.68,0-1.35,0-1.97.21-.21.36-.35.56-.56h17.12c.02.66.05,1.39.06,2.12.01.74,0,1.49,0,2.3h-6.12v15.25h-5.01Z"/>
  <path d="M301.92,175.56h-4.95v-15.13c-1.05-.19-2.06-.07-3.06-.09-1.02-.02-2.04,0-3.13,0v-4.43h17.19v4.37c-.91.15-1.93.04-2.93.06-1.02.02-2.04,0-3.12,0v15.22Z"/>
  <path d="M360.09,189.24h4.81v15.19c3.18.06,6.3,0,9.49.04v4.39s-.01.03-.07.07c-.05.03-.12.07-.18.07-4.66,0-9.32,0-14.05,0v-19.75Z"/>
  <path d="M189.71,189.24h4.82v15.18c3.18.1,6.3,0,9.49.06v4.42h-14.31v-19.65Z"/>
  <path d="M384.43,155.84h4.82v15.55c3.18.18,6.3,0,9.49.11v3.99h-14.3v-19.65Z"/>
  <path d="M274.18,270.08v6.05h-4.86v7.01h-5.44c-.29-.79-.62-1.68-.94-2.55.52-.3.91-.52,1.31-.75v-3.57h-5.22c-.2-1.05-.07-2.06-.09-3.06-.02-1.02,0-2.04,0-3.13h15.23ZM269.63,272.56h-6.52v1.09h6.52v-1.09Z"/>
  <path d="M327.84,228.17c-1.68.84-3.03,1.51-4.45,2.22v-4.4c2.02-1.18,4.17-2.45,6.38-3.74h2.98v19.64h-4.91v-13.7Z"/>
  <path d="M315.47,175.56h-5.36v-2.45c0-5.21,0-10.42,0-15.62,0-.6-.15-1.26.66-1.65h4.07c.65.36.63.89.63,1.45-.01,3.56,0,7.13,0,10.69v7.58Z"/>
  <path d="M316.67,189.27v19.65h-4.72c-.28-1.67-.37-13.61-.13-19.65h4.85Z"/>
  <path d="M186.27,208.96h-4.81v-19.71c.71-.01,1.51-.04,2.3-.04.81,0,1.63,0,2.51,0v19.75Z"/>
  <path d="M188.78,222.26v19.65h-4.72c-.29-1.67-.38-13.35-.13-19.65h4.85Z"/>
  <path d="M218.86,241.94h-4.81v-19.71h4.81v19.71Z"/>
  <path d="M168.94,175.56h-4.81v-19.67c1.52-.2,3.14,0,4.81-.12v19.79Z"/>
  <path d="M249.15,124.47c-.75-1.18-1.08-2.32-.88-3.68,3.27-.51,6.46-1.34,9.7-1.75.56,2.56,1.86,4.29,4.2,5.16,0,.05,0,.11-.01.14-.04.05-.1.13-.15.13-4.24,0-8.49,0-12.86,0Z"/>
  <path d="M279.59,274.97h5.28c-1.21,2.92-3.11,5.4-4.62,8.15h-5.43c1.65-2.81,3.19-5.46,4.77-8.15Z"/>
  <path d="M280.38,273.23h-5.52c1.66-2.72,3.21-5.29,4.71-7.75h5.36c-1.38,2.73-3.02,5.2-4.55,7.75Z"/>
  <path d="M284.94,256.89c-1.56,2.6-3.07,5.12-4.61,7.69h-5.48c1.66-2.73,3.22-5.29,4.67-7.69h5.41Z"/>
  <path d="M259.11,277.06h3.02c.02,1.37-1.18,4.84-2.1,6.1h-3.02c-.02-1.37,1.18-4.84,2.1-6.1Z"/>
  <path d="M269.7,277.04h3.2c.59,1.92,1.21,3.91,1.88,6.11-1.33.12-2.52.04-3.8.07-.16-2.09-1.49-3.88-1.28-6.18Z"/>
  <path class="cls-1" d="M53.54,211.28v-7.91c.27-.11.55-.16.73-.32,1.37-1.2,2.64-2.51,4.08-3.61,2.1-1.61,3.96-3.51,6.16-4.99.93-.63,1.62-1.55,2.58-2.21,1.37-.94,2.47-2.28,3.82-3.28,1.33-.99,2.43-2.22,3.84-3.12,1-.63,1.74-1.62,2.74-2.33,1.41-1.01,2.57-2.38,3.95-3.44,2.1-1.61,3.96-3.5,6.16-4.99.93-.63,1.62-1.55,2.58-2.21,1.37-.94,2.47-2.28,3.82-3.28,1.33-.98,2.43-2.23,3.84-3.12,1-.63,1.81-1.57,2.73-2.35,1.35-1.14,2.76-2.12,4.41-2.92.8,1.01.64,2.16.29,3.23-.77,2.36-1.89,4.55-3.76,6.27-1.8,1.64-3.51,3.39-5.39,4.93-2.62,2.16-5.24,4.32-7.81,6.54-2.46,2.13-5.01,4.17-7.5,6.27-1.73,1.46-3.45,2.94-5.21,4.36-2,1.61-3.85,3.42-6,4.87-1.1.74-2.08,1.68-3.04,2.61-1.49,1.44-3.09,2.72-4.76,3.94-.91.67-1.67,1.51-2.58,2.2-1.91,1.44-3.66,3.1-5.7,4.86Z"/>
  <path class="cls-1" d="M24.62,213.84c2.47,2.09,4.72,3.99,6.96,5.88v7.68c-.15.15-.34.34-.55.55h-1.64c-1.89-1.37-2.99-2.75-3.97-4.64-.46-.89-.69-1.84-.76-2.75-.15-2.17-.05-4.35-.05-6.71Z"/>
  <path class="cls-1" d="M47.25,112.54c-2.09-1.76-4.08-3.45-6.08-5.14,1.52-1.19,3.04-2.38,4.49-3.52h3.14c.46.35.99,1.01,1.62,1.15.93.2.58,1.37,1.38,1.41.32,1.56-.37,2.62-1.38,3.61-1,.98-2.03,1.89-3.17,2.49Z"/>
  <path class="cls-1" d="M235.02,107.33c-.83,2.72-2.83,3.31-4.74,3.47-3.05.25-6.13.07-9.25.07v-8.5c.14-.14.29-.29.57-.57,2.65,0,5.45-.15,8.23.08,1.05.08,2.21.41,3.27,1.01,1.31.75,1.94,1.67,1.91,3.12,0,.55,0,1.1,0,1.33Z"/>
  <path class="cls-1" d="M296.11,261.7v-1.1h13.95v1.1h-13.95Z"/>
  <path class="cls-1" d="M305.32,279.08h-3.36c-.23-.89-.04-1.82-.13-2.81,1.41.63,2.38,1.59,3.49,2.81Z"/>
  <path class="cls-1" d="M295.2,271.59c.22-.99.42-1.91.73-3.31.1.99.15,1.5.22,2.14h2.78v1.16h-3.73Z"/>
  <path class="cls-1" d="M306.76,265.55v1.1h-3.64v-1.1h3.64Z"/>
  <path class="cls-1" d="M303.13,271.6v-1.11h3.61c.02.3.05.67.09,1.11h-3.69Z"/>
  <path class="cls-1" d="M296.08,265.51h2.82v1.14c-.7.03-1.48.07-2.4.12v1.63c-.24-.15-.4-.2-.4-.26-.02-.82-.01-1.63-.01-2.63Z"/>
  <path class="cls-1" d="M236.6,266.27h-4.8v-1.9c.2-.2.34-.34.51-.51h4.29v2.41Z"/>
  <path class="cls-1" d="M246.12,263.89v2.34h-4.4v-2.34h4.4Z"/>
  <path class="cls-1" d="M236.6,272.45h-4.81v-2.03c1.53,0,3.13,0,4.81,0v2.03Z"/>
  <path class="cls-1" d="M241.66,272.42v-1.92h4.43c.03.56.06,1.21.09,1.92h-4.52Z"/>
  <path class="cls-1" d="M203.7,272.42v-3.16h4.05c.11.98.01,2.04.05,3.16h-4.1Z"/>
  <path class="cls-1" d="M171.12,272.83v-.68h11.88v.68h-11.88Z"/>
  <path class="cls-1" d="M171.16,275.86h12.07c-1.55.43-8.71.51-12.07,0Z"/>
  <path class="cls-1" d="M243.25,162.49c-.12.25-.22.56-.39.82-.65.98-1.53,1.58-2.77,1.57-1.36-.02-2.72,0-4.16,0v-4.49h5.45c.82.33,1.65.79,1.87,2.11Z"/>
  <path class="cls-1" d="M330.32,160.34c.88.79,1.87,1.68,2.75,2.47,1.04,3.08.9,5.86-1.78,7.79-1.88,1.36-4.18,1.37-6.06,0-2.67-1.94-2.89-4.69-1.7-7.87.79-.72,1.79-1.61,2.66-2.4h4.13Z"/>
  <path class="cls-1" d="M345.49,200.67c.77-1.86,1.49-3.6,2.3-5.55.8,2,1.51,3.75,2.24,5.55h-4.53Z"/>
  <path class="cls-1" d="M279.41,167.69c.69-1.86,1.33-3.6,2.12-5.73.98,2.07,1.65,3.83,2.37,5.73h-4.48Z"/>
  <path class="cls-1" d="M374.4,167.66h-4.54c.78-1.93,1.51-3.76,2.28-5.69.76,1.92,1.49,3.76,2.25,5.69Z"/>
  <path class="cls-1" d="M294.01,229.51c.81-1.25,1.02-2.82,2.72-3.09,1.7-.46,2.84.54,3.74,1.6.22.72.42,1.27.55,1.83.12.5-.2,1.07.31,1.53.15.13.14.51.11.76-.22,1.59-.44,3.21-1.24,4.63-.69,1.22-2.41,1.59-3.73,1.1-1.82-.68-2.24-2.21-2.41-3.81-.16-1.49-.03-3.02-.03-4.56Z"/>
  <path class="cls-1" d="M262.7,262.93v-.68h7.34v.68h-7.34Z"/>
  <path class="cls-1" d="M262.72,259.36h7.28c.01.1.04.16.02.2-.03.06-.09.14-.14.14-2.38,0-4.76,0-7.14,0,0-.11,0-.23-.01-.34Z"/>
  <path class="cls-1" d="M269.63,272.56v1.09h-6.52v-1.09h6.52Z"/>
</svg>