<?xml version="1.0" encoding="UTF-8"?>
<svg xmlns="http://www.w3.org/2000/svg" version="1.1" viewBox="0 0 400 400">
  <!-- Generator: Adobe Illustrator 28.6.0, SVG Export Plug-In . SVG Version: 1.2.0 Build 709)  -->
  <g>
    <g id="Layer_1">
      <path d="M108.2,207.9c0,26.3-21.4,47.7-47.7,47.7-26.4,0-47.9-21.3-47.9-47.7,0-26.5,21.3-47.8,47.7-47.8,26.6,0,47.8,21.2,47.9,47.8h0ZM60.5,162.5c-25,0-45.4,20.2-45.4,45.1,0,25.1,20.2,45.5,45.2,45.5,25.1,0,45.5-20.2,45.5-45.2,0-25.1-20.2-45.4-45.3-45.4h0Z"/>
      <path d="M249.5,186.4c2.5.3,2.8.8,1.4,2.8-.7,1.1-1.2,2.1-.4,3.3.4.6.3,1.3-.3,1.9s-.8.7-.4,1.3c.2.2.3.5.7.4.6-.2.7-.7.9-1.2.2-.6.2-1.2,0-1.9-.2-.8-.2-1.6.1-2.4.2-.4.3-.8.8-.7.4,0,.4.5.5.8.2.6.3,1.1.5,1.7,1,3.4.3,5.8-2.7,7.8-1.7,1.2-2.8,2.6-3.3,4.6-.3,1.2,0,2,1.2,2.5,1.1.5,1.9,0,2.4-.9.5-1,.9-2.1,1.3-3.2.7-1.8,1.9-2.1,3.2-.7.4.4.7.9,1,1.4.6.9.6,1.5-.6,1.9-1.1.4-2.2.9-3.1,1.8-.5.5-.6,1,.2,1.3,3.4,1.6,6.2,4.1,9.6,5.7.9.4,2.2.9,1.9,2.1-.2,1.1-1.6,1.2-2.5,1.4-.9.2-1.9.2-2.8,0-1.1-.3-2.1-1-1.9-2.1.3-1.6-.6-2.1-1.6-2.6-2.6-1.5-5.5-2.6-8.4-3.4-.9-.2-1.6-.1-2.3.7-2.2,2.5-5,4.3-7.8,5.9-2.2,1.3-4.5,1.3-6.6-.2-1.3-.9-2.8-5.4-2-6.9,1.1-2,2.9-3.5,5.2-4.2,1.6-.4,3.2-.4,4.8-.4,1.2,0,2.4,0,3.6,0,1,0,1.3-.6,1.4-1.4,0-1.1-.8-.8-1.4-.7-1.7.2-3.3,0-4.8-.9-.9-.6-.9-1.1-.2-1.7,1.5-1.2,3-2.6,5.2-2.1.6.1,1.1,0,1.7-.3.8-.5.9-1,.2-1.6-.6-.5-1.2-.8-1.8-1.3-.5-.4-1.1-.8-.8-1.5.2-.7.8-1,1.4-1.1.4-.1.9-.1,1.4-.2.4-.1,1-.2,1.1-.7,0-.5-.5-.5-.9-.7-1.6-.8-1.8-2.1-.4-2.9,2.3-1.4,3.8-3.6,6.1-5.3-.8-.5-1.4-.2-1.9,0-1.5.6-2.8,1.5-4.2,2.4-2.1,1.4-4.1.6-4.3-2.1-.2-1.7.5-3.3,1.1-4.8.3-.8.9-.4,1.2,0,1.5,2.5,3.6,1.9,5.7,1.2,1.3-.4,2.7-.7,3.9-1.3,1.6-.7,3.2-.7,4.9-.6,2.1.2,2.6.7,2.6,2.6,0,1.8-.7,2.5-2.6,2.7-1.7.2-6.1,2.3-7.2,3.6h0ZM237.9,208.9c-2.2,0-4.2.5-5.9,1.8-.8.7-.8,1.6-.7,2.5,0,.5.4.6.9.6,2.3-.1,4.6-.4,6.5-1.8.8-.6,1.8-1.5,1.4-2.6-.3-.9-1.5-.4-2.3-.6h0Z"/>
      <path d="M207.4,199.7c0,4.6-2.1,10.7-3.9,16.8-.6,2-1.2,4-2.3,5.7-.5.7-.9,1.8-2.1,1.4-1.1-.4-1.4-1.6-1.2-2.6.2-1.7,1.2-3.1,2.4-4.3,1-1,1.6-2.1,2-3.4,1.2-4.1,2.2-8.3,2.3-12.7,0-1.4-.2-2.8-.8-4-.2-.4-.4-.9-1-.8-.5,0-.6.5-.7.9-.1.5-.4,1-.4,1.5-.2,4.5-3.8,6-7.1,7.5-1.9.9-2.9,0-2.9-2.2,0-2.6,1.1-4.9,1.6-7.4.2-.9,1.3-1.1,1.9-1.7,1-1,2.8-2,1.8-3.6-.8-1.3-2.4-.4-3.6,0-3.6.9-4.6,2.1-4.4,5.9.2,3.5-.9,6.8-2.6,9.7-2.1,3.6-5.5,4.6-8.6.7-.6-.7-1-1.6-.7-2.6.5-1.9.6-3.9,1-5.8.4-2.2,1.7-4.1,3.7-5.2,3.1-1.7,4.4-4.3,4.7-7.7.2-2.3.8-4.5,1.1-6.8.3-2.4,1.8-4.3,3-6.3.2-.3.4-.6.8-.5.4.1.5.6.4,1-.1.5-.1,1.1-.4,1.5-2.2,2.8-1.8,5.9-1.5,9.1,0,1,.3,2.1.1,3.1-.2,1.2.2,1.3,1.2.9,1.8-.7,3.5-1.4,5.5-1.2,1.2.1,2.1.4,2.7,1.4.6,1,1.6,1.7,2.7,2.1,4.2,1.5,5.5,3.4,5.3,9.8h0ZM181.2,200.4c.2.6,0,1.4.8,1.7.8.3,1.3-.3,1.7-.9.8-.9.9-2.1,1.1-3.2.1-.7-.1-.9-.9-.8-1,.1-2.8,2.1-2.8,3.2h0ZM195.9,200.3c1.2-.4,2-1,2.2-2,0-.4-.4-.4-.6-.4-1.4.1-1.3,1.2-1.6,2.4Z"/>
      <path d="M161.7,201.5c.5,0,.7,0,.8,0,1-.2,1.8-1.3,2.9-.8,1.6.7,3,1.8,4.1,3.1.5.6.6,1.2.3,1.9-.9,1.8-1.6,3.7-2.6,5.4-1.1,2.1-2.3,2.5-4.6,1.8-.7-.2-1.6-.4-1.6-1.3,0-.9.8-1.2,1.5-1.5,1.3-.4,2.3-1.1,3.2-2s1.6-1.3,1.1-2.3c-.6-1.1-1.7-1.5-2.9-1.4-2.4.3-5.6,3.3-6,5.7-.1.6-.2,1.1-.7,1.5-1.6,1.2-2.7,2.8-3.6,4.6-.3.7-.9,1.3-1.7,1.2-.7,0-1-.6-1.2-1.1-.3-.8,0-1.4.6-1.9.2-.1.4-.3.5-.5.6-.6,1.6-1.3,1-2.1-.6-.8-1.4.1-2.1.5-.3.2-.6.4-.9.2-.4-.2-.4-.7-.3-1.1.2-1.6.8-3.1,2.3-4,1.1-.7,2.2-1.4,3.3-2.1.4-.3.9-.7.6-1.3-.3-.6-.8-.4-1.3-.2-1.3.5-1.8,0-1.7-1.4.1-1.3.3-2.6,1.8-3.3.7-.4,1.3-1,1.5-1.8.4-1.3,0-2.3-1.1-3-1.1-.8-1.7.3-2.2,1-1.4,1.6-2.2,3.5-3.1,5.3-2.8,5.9-5.7,11.8-8.6,17.6-1.2,2.4-3,3.1-5.6,2.6-.7-.1-1.3-.4-1.3-1.1,0-.8.7-.8,1.3-.8.7,0,1.2-.4,1.6-.9,1.6-2.1,3.2-4.2,4.4-6.6,2.6-5.4,5.4-10.8,7.7-16.3,1.4-3.3,4.5-4.4,7.1-6.2.2-.1.6-.2.8-.2,2.2.6,3.7-.4,5.3-1.7.9-.7,2.1-1.2,3.2-.3.9.8.8,3.6-.1,4.4-1,.9-2,1.8-2.6,3-.5,1-.7,1.8.8,2.2,1,.3,1.2.9.3,1.7-1,.9-1.3,2.3-2.1,3.6h0Z"/>
      <path d="M304,190.3c-.5,0-1.1,0-1.6,0-3.7-1.1-6.4.4-8.8,3.1-2,2.3-4.1,4.5-5.5,7.3-.5,1-.6,1.9.3,2.8,1.3,1.4,1.3,2.9.2,4.4-.1.1-.2.3-.3.4-1.1,2.2-1.1,2.3-3.3,1-.7-.4-.9.2-1.3.4-.9.6-1.6,2.1-2.8,1.6-1.3-.6-.3-2.1-.5-3.1-.2-1.5.5-2.5,1.4-3.6,1.1-1.2,2-2.6,2.2-4.2.1-.8.1-1.6-.6-2.1-.6-.4-1.2,0-1.8.2-3,1.3-4.4,3.8-3.8,7,.6,3-.8,5.5-2,8-.3.6-.8.7-1.5.6-1.6-.4-3-2.8-2.2-4.3,1.1-2.2,1.1-4.5.6-6.9-.7-3-1.1-6.1.4-9.1.6-1.2,0-2.5.3-3.8.1-.8.1-1.8,1.1-1.9,1,0,1.2.9,1.4,1.7.3.9.4,1.8.1,2.7-.3,1.1-.4,2.2,0,3.4.4,1.1,1,1.3,1.6.3,1.1-1.6,2.6-2.9,4.3-3.9,2-1.2,3.4-2.9,3.5-5.4,0-.7.2-1.5.9-1.8.7-.2,1.1.6,1.6,1.1.6.5,1,1.2,1.7,1.5,1.6.7,1.5,1.7.6,2.8-.5.6-1,1.3-1.6,1.8-.6.5-1.1,1.1-.7,2,1.4-.8,2.6-1.8,3.5-3.1,2.4-3.6,6.1-5.5,9.6-7.6,1.1-.7,2.3-1.2,3.5-1.9,1.1-.6,2.3-.1,3.2,1.4.7,1.2.4,2-.9,2.6-1.8.8-2.9,2.1-2.7,4.2h0c-.5-.3-.5,0-.4.3h0c0,0,0,0,0,0Z"/>
      <path d="M334.6,197.2c-1.2.3-2,1-2.8,1.6-1.8,1.3-3.7,2.3-5.8,2.9-1.1.3-2.1.5-2.4,1.9,0,.2-.2.4-.4.5-1.4.8-5.2-.4-5.9-1.9-.4-.9-.2-1.5.4-2.2.6-.6.8-1.5,2-1.1,2.3.6,4.4,0,6.4-1.3,2.2-1.4,4.4-3,6.6-4.3,2.5-1.5,4.9-3.1,7.8-3.7.6-.1,1.4-.3,1.8.2.5.6-.2,1.1-.5,1.6-1.6,3.3-4,6-6.3,8.8-1.6,1.9-1.6,3.9-.5,5.4,1.5,2.1,2.8,2.4,5.4,1.8.6-.2,1.5-1,2,0,.5.8,0,1.7-.4,2.4-.3.6-.9.9-1.4,1.2-.6.4-.9.7-.5,1.5,1,1.9.6,3.6-1,5.2-1.2,1.1-2.2,2.4-3.4,3.5-.7.6-1.7,1.3-2.6.6-1.1-.8-2-1.9-2.2-3.4-.1-.6.4-.7.9-.8,1,0,2-.2,2.8-.7.7-.4,1.2-1,1.1-1.8-.2-1-1.1-.6-1.7-.6-1.2,0-2.4.3-3.6,0-.5-.1-1.1-.4-1.2-1.1-.1-.6.5-.8.9-1.1.5-.3,1-.6,1.5-.9,1.4-.9,1.8-2,.9-3.5-1.2-2-1.4-3.9.2-6,1-1.2,1.3-3,2-4.7h0Z"/>
      <path d="M371.5,204.2c-1.6.6-2.8,1.2-3.9-.3-.6-.9-.8-1.5.5-1.9,1.8-.5,3.3-1.5,5.2-2.5-1.6-.4-2.6-1.2-3.5-2.2-.4-.5-.8-1.1,0-1.4,1.5-.5,2.5-1.8,4-2.2.6-.2,1.3-.3,1.8.2.5.5.1,1.1,0,1.6q-1.2,3.6,2.4,3.5c1,0,2,0,2.3,1.2.3,1.3-.5,3.7-1.7,3.8-2.8.2-4,2.9-6.3,3.9-.8.4-.8.9,0,1.4,2.8,1.6,5.2,3.8,7.8,5.6.4.3.9.5,1.4.7,2.9,1.1,4.8,0,5.4-3.1.2-.8.2-2,1.1-2.1.6,0,.8,1.1.9,1.8.5,2,.7,4.1,1.7,5.9.3.5,0,1.1-.3,1.6-1.4,2.3-4.8,3.4-7.3,2.3-2.6-1.1-4.7-2.9-6.7-4.8-2.3-2.1-4.5-4.2-7.4-5.6-.7-.3-1.2-.9-1.5-1.6-.5-1-.4-1.7.6-2.3,1.4-.8,2.8-1.7,3.5-3.7h0Z"/>
      <path d="M304.2,190c1-.8,2-1.6,3-2.3,1.8-1.1,2.6-.7,2.6,1.5,0,.6,0,1.2-.4,1.6-3,2.9-2,6.5-1.7,9.9.3,2.6.6,5.1.9,7.7.1.9-.1,1.6-.7,2.2-.9,1-2,1.9-3.1,2.7-.8.6-1.8.6-2.6.3-.6-.2-1.1-.7-.3-1.3,2.5-1.7,2.4-4.2,2.1-6.8-.2-2.6-1-5.1,0-7.7.3-.8-.3-1-1-1-1.2,0-2.1.6-3,1.3-.6.5-1.1,1-1.6,1.6-.9.9-1.6,1.8-3.1,1-2-1.1-2.7-2.5-2.3-4.7.3-1.6,1.3-2.1,2.8-2.2,3-.3,5.9-1,8-3.5h0c.2,0,.4,0,.4-.3h0c0,0,0,0,0,0Z"/>
      <path d="M328.4,182.2c0-.6,0-.9,0-1.2.1-.4.2-.9.5-1.1.4-.2.7.2.9.5,1,1.4,2.3,1.1,3.5.4,1.5-.8,2.7-1.9,4.4-2.4.3-.1.7-.5.9-.8.8-2.2,3-2.7,4.8-3.6,1.2-.5,2.1.2,3,.8.9.5.6,1.5.4,2.2-.6,2.2-1.8,4-3.7,5.2-.7.4-1.2.9-1.5,1.7-.7,1.7-2.2,2.9-3.2,4.5-.2.4-.8.7-1.4.2-.5-.4,0-.8.1-1.2.3-.6.5-1.3.8-1.9.2-.6.6-1.5.1-2s-1.4,0-2.1.2c-1.2.4-1.9,1.5-2.7,2.4-.9,1.1-1.9,1.1-2.7,0-.9-1.3-2.3-2.3-2.1-3.9h0Z"/>
      <path d="M378.6,186.6c0,0-.6,0-1,.3-2.1,1.7-4.9,1.9-7.1,3.4-.8.6-1.9,1.1-2.7-.2-.6-1.1,0-3,1.2-3.5.3-.1.5-.2.8-.3,4-.3,7.3-2.4,10.7-4.1,1.4-.7,2.5-.8,3.8,0,1.3.7,2.6,1.3,3.7,2.2.9.8,1,1.6,0,2.2-2.2,1.3-4.4,2.4-6.6,3.6-.4.2-.9.2-1.3-.3-.4-.5,0-1,.1-1.5.7-1.8.6-2-1.7-1.9h0Z"/>
      <path d="M283.4,240.8c.9-2.2,1.8-4.3,2.5-6.5.5-1.5,1.4-1.2,2.4-1.2,1.2,0,.6,1.1.6,1.6,0,2.6,0,5.3,0,7.9s0,1.1-.8,1.2c-.9,0-.8-.6-.8-1.1,0-2.3,0-4.6-.3-7-.9,2.3-1.8,4.6-2.8,6.9-.2.5-.2,1.2-1,1.2-.8,0-.8-.8-1-1.3-.9-2.2-1.8-4.4-2.7-6.6-.1,0-.3,0-.5,0v7c0,.5-.1.9-.8.9-.6,0-.8-.2-.8-.8,0-3.1,0-6.1,0-9.2s.1-.8.6-.8c.8.1,1.7-.5,2.2.8.7,2.1,1.6,4.1,2.4,6.1.1.3.1.7.6.8h0Z"/>
      <path d="M163.7,180.9c.4,0,1.1-.2,1.1.6,0,.9-.2,1.7-1.2,2.1-2.4,1-5,1.7-7.1,3.1-2.5,1.6-5.2,2.1-7.9,2.8-.7.2-1.6.4-2-.4-.4-.7,0-1.4.5-1.9,1.7-1.7,3.4-3.3,6.1-3.4,2.4-.2,4.9-.7,7.1-1.8,1-.5,2.1-1,3.4-1h0Z"/>
      <path d="M363.9,198c0,1.5-1,2.6-2.5,3.4-1.1.6-2.2.5-3.2-.3-.6-.5-.8-.8,0-1.4,2.1-1.8,1.9-3.6-.4-5.1,0,0-.2-.1-.3-.1-1.3-.7-3.2-1.4-2.7-3.1.4-1.5,2.3-2.1,3.8-2.6,1.4-.5,2.8.4,2.9,1.9.1,2,.4,3.9,2.1,5.2.5.4.5,1.1.5,2.2h0Z"/>
      <path d="M160.5,171.7c2.4,0,3.5,1,3.4,4,0,.3,0,.6,0,.9.4,1.8.1,2.4-1.7,2.4-1.9,0-3.6.5-5.4,1.1-.6.2-1.1.3-1.6-.2-.4-.5,0-1,.2-1.4.3-.6.7-1.2,1.1-1.8.2-.3.5-.6,0-.8-.8-.3-1.2-.7-.7-1.7.6-1.1,1.1-2.2,2.5-2.4.6,0,1.1,0,2.2,0h0Z"/>
      <path d="M359,208.8c-.9,2.4-1.3,5.3-2,8.1-.1.4-.4,1.1-1,1-.6,0-.8-.6-1-1.1-.6-2.1-.9-4.3-.8-6.5,0-2.9.5-5.7-.2-8.6-.1-.4-.3-1,.2-1.2.5-.2,1,.1,1.4.5,2,2.1,3.1,4.5,3.3,7.8h0Z"/>
      <path d="M216.3,192c0-.9-.4-1.7-.8-2.4-.3-.7-.6-1.4-.8-2.1-.1-.4,0-.9.4-1.2.4-.4.9-.2,1.3,0,1.9,1.2,3.6,2.7,4.8,4.6.9,1.3-.3,4.6-1.9,4.8-2.6.3-4.7,1.7-7,2.6-.4.1-.8.5-1.1,0-.3-.4,0-.8.1-1.1.6-1.3,1.9-1.7,3.1-2.3,1.3-.6,1.8-1.6,2-3h0Z"/>
      <path d="M144.3,235.7c-1.1.4-1.8-.1-2.6-.7-1.7-1.2-3.9-.7-5.1,1.1-1.3,1.9-.9,4.4,1.1,5.8,1.7,1.1,3.9.8,5.1-.8.2-.3.5-.5.4-.9-.2-.4-.6-.2-.9-.3-1,0-2,0-2.9,0-.6,0-.8-.1-.8-.8s.3-.8.8-.8c1.5,0,3,.1,4.5,0,1.6-.1,1.5.7,1.2,1.7-.7,2.5-3.1,4-5.9,3.8-2.4-.2-4.5-2.2-4.8-4.6-.4-2.7,1.1-5.2,3.4-6.1,2.6-1,5.2,0,6.5,2.5h0Z"/>
      <path d="M185.6,235.8c-.9,0-1.5,0-2.2-.4-2-1.5-4.2-1.2-5.5.7-1.4,1.9-.8,4.6,1.2,5.9,1.9,1.2,4.1.6,5.6-2.1h-3.8c-.6,0-1.2.1-1.1-.8,0-.9.6-.7,1.1-.7,1.4,0,2.8.1,4.1,0,1.6-.2,1.7.6,1.3,1.8-.8,2.4-2.9,3.9-5.6,3.8-2.3,0-4.5-1.8-5-4-.6-2.5.5-5.2,2.7-6.4,2.1-1.2,4.7-.8,6.5,1,.3.3.7.6.8,1.2h0Z"/>
      <path d="M166.9,235.7c0,2.5,0,4.6,0,6.7,0,.6.4,1.5-.9,1.4-1.1,0-.8-.8-.8-1.4,0-2.6,0-5.3,0-7.9,0-.5-.4-1.2.5-1.4.8-.1,1.4,0,1.9.8,1.2,2,2.4,3.9,3.7,5.8.2.3.4.5.9.7v-6.2c0-.6-.1-1.1.8-1.1.9,0,.8.5.8,1.1,0,2.8,0,5.5,0,8.3,0,.5.4,1.2-.6,1.4-.7.1-1.2-.2-1.6-.8-1.3-2.1-2.7-4.3-4.1-6.4-.1-.2-.3-.4-.7-1h0Z"/>
      <path d="M344.9,240.5c0-2,0-4,0-5.9,0-.6-.5-1.5.8-1.4,1.1,0,.7.8.7,1.4,0,2.6,0,5.3,0,7.9,0,.5.4,1.2-.5,1.4-.8.2-1.3-.2-1.7-.9-1.3-2.1-2.6-4.1-3.9-6.1-.2-.3-.4-.6-.9-1.2,0,2.6,0,4.7,0,6.8,0,.5.4,1.4-.7,1.4-1.2,0-.8-.9-.8-1.4,0-2.6,0-5.2,0-7.8,0-.5-.5-1.2.4-1.4.8-.2,1.5,0,2,.9,1.3,2.2,2.8,4.3,4.1,6.5.1,0,.3,0,.4,0h0Z"/>
      <path d="M259.3,238.5c0-.5,0-.9,0-1.4.1-1.3-.6-3.5.4-3.8,2.1-.5,4.5-.7,6.5.7,1.7,1.2,2.6,3.6,2,5.8-.5,2.2-1.9,3.4-4.1,3.8-4.5.8-4.7.6-4.7-3.8v-1.4h0ZM261,238.4v1.6c0,1.7.8,2.5,2.5,2.3,2-.2,3.2-1.6,3.2-3.8s-1.3-3.7-3.3-3.9c-1.6-.2-2.4.5-2.4,2.1v1.7h0Z"/>
      <path d="M209.3,244c-3,0-5.5-2.5-5.5-5.4,0-3.1,2.5-5.6,5.6-5.6s5.7,2.6,5.6,5.6c0,3.1-2.5,5.5-5.6,5.5h0ZM209.4,242.5c2.2,0,4-1.9,3.9-4.1,0-2.2-1.8-4-3.9-4.1-2.2,0-4,1.9-4.1,4.1,0,2.2,1.8,4.1,4,4.1h0Z"/>
      <path d="M308.9,244c-3,0-5.6-2.5-5.6-5.4,0-3.1,2.5-5.7,5.5-5.7,3.1,0,5.7,2.5,5.6,5.6,0,3.1-2.5,5.5-5.6,5.6h0ZM309,242.5c2.2,0,4-1.9,3.9-4.1,0-2.2-1.9-4-3.9-4.1-2.2,0-4,1.9-4,4.1,0,2.3,1.8,4.1,4,4.1h0Z"/>
      <path d="M371.4,239.4v3.4c0,.6,0,1-.8,1-.8,0-.8-.5-.8-1v-8.8c0-.5,0-.9.7-.9,1.3,0,2.7-.1,4,.1,1.6.3,2.4,1.4,2.5,3.1,0,1.9-.6,2.8-2.9,3.6.9,1.2,1.8,2.5,2.7,3.7-1.6.7-2.3-.3-2.9-1.4-.7-1-1.4-1.9-2.1-2.9-.1,0-.3,0-.4,0h0ZM371.4,236.5c0,1.4.4,2.1,1.2,2.1,1.7,0,2.8-.9,2.8-2.1,0-1.2-1-1.8-2.7-2-1.8-.2-1.3,1.1-1.4,2h0Z"/>
      <path d="M163.5,219.6c-.9,1.2-1.4,3.1-2.8,4.3-1,.8-2.2,0-2.4-1.4-.1-1.1-.2-2.2-.4-3.2-.2-1.1-.5-2.1-1.5-2.8-.7-.5-.9-1.3-.4-2,.5-.7,1.1,0,1.7,0,2.4.4,3.9,1.9,5.3,3.8.2.3.6.6.5,1.4h0Z"/>
      <path d="M194.6,238.4c0-1.4,0-2.9,0-4.3,0-.6,0-1,.8-.9.7,0,.9.2.9.9,0,.6,0,1.2,0,1.7-.2,1.5.2,2.1,1.9,2,2.4-.2,2.4,0,2.4-2.5s0-.9,0-1.4c0-.7.4-.7.9-.7.6,0,.8.1.8.8,0,3,0,6,0,9,0,.6,0,1-.8,1s-.9-.4-.8-1c0-.2,0-.5,0-.7,0-3.2,0-3.2-3.2-3.1-.8,0-1.1.2-1.1,1.1,0,.9,0,1.8,0,2.8,0,.6-.2.9-.9.9s-.8-.4-.8-1c0-1.5,0-3,0-4.5h0Z"/>
      <path d="M270,238.5c0-1.4,0-2.8,0-4.1,0-1.1.3-1.4,1.4-1.3,1.2,0,2.4,0,3.6,0,.6,0,.8.2.8.8,0,.5-.3.7-.8.7-.6,0-1.3,0-1.9,0-1.3-.2-1.6.3-1.6,1.6,0,1.4.4,1.7,1.6,1.6.6,0,1.3,0,1.9,0,.5,0,.7.2.7.7,0,.5-.1.8-.7.7-.6,0-1.2,0-1.7,0-1.6-.3-1.9.4-1.9,1.9,0,1,.2,1.5,1.4,1.4.7,0,1.5,0,2.2,0,.6,0,.7.4.7.8s-.1.8-.7.8c-1.4,0-2.9,0-4.3,0-.8,0-.7-.5-.7-1v-4.3h0Z"/>
      <path d="M258.2,243.4c0,.3-.1.4-.4.4-.4,0-1,.2-1.2-.3-.2-.3-.4-.7-.5-1.1-.3-1.4-1.1-1.8-2.5-1.8-1.5,0-2.4.3-2.6,1.9,0,.4-.2.8-.5,1.1-.3.4-.9.3-1.3.2-.6-.2-.2-.6,0-1,1.1-2.9,2.2-5.9,3.3-8.8.2-.5.4-1,1.1-.9.5,0,.8,0,1,.7,1.1,3.1,2.3,6.2,3.5,9.3,0,.1.1.2.1.3h0ZM254.8,239.1c-.4-1.2-.8-2.4-1.2-3.7-.6,1.3-1.3,2.4-1.1,3.6,0,.4,1.4.2,2.3.1h0Z"/>
      <path d="M164,243.4c0,.2,0,.4-.3.4-.4,0-.9.2-1.1-.2-.3-.4-.5-.8-.6-1.2-.3-1.4-1.1-1.8-2.5-1.8-1.5,0-2.4.4-2.6,1.9,0,.3-.2.6-.4.9-.3.6-.9.5-1.4.3-.5-.2-.2-.7,0-1,1.1-2.9,2.2-5.9,3.4-8.8.2-.6.5-.9,1.1-.8.6,0,.8.3,1,.8,1.1,3,2.3,6,3.4,9,0,.2.1.3.2.5h0ZM159.4,235.1c-.5,1.6-1.3,2.7-1.1,3.9,0,.4,1.4.2,2.3,0-.4-1.2-.7-2.3-1.2-3.9h0Z"/>
      <path d="M363.9,240.7c-1.5-.5-2.2.3-2.5,1.6-.1.4-.3.9-.5,1.2-.3.4-.9.3-1.3.2-.6-.2-.1-.7,0-1,1.1-2.9,2.2-5.8,3.3-8.7.2-.6.4-1,1.1-1,.8,0,.9.6,1.1,1.1,1.1,2.8,2.1,5.7,3.2,8.5.1.4.6.9,0,1.1-.5.1-1.2.2-1.4-.6,0-.2-.2-.4-.2-.6-.3-1.5-1-2.4-2.7-1.9h0ZM364,235.2c-.4,1.3-.8,2.3-1.1,3.2,0,.3-.3.6.1.7.6,0,1.3,0,1.9,0,.4,0,.2-.4.2-.7-.3-1-.6-1.9-1.1-3.2h0Z"/>
      <path d="M229,243.4c.1-.3.2-.6.3-.8,1-2.7,2.1-5.5,3.1-8.2.2-.5.2-1.3,1.1-1.3s1,.6,1.2,1.2c1,2.8,2.1,5.6,3.2,8.4.1.4.6.9,0,1.2-.5.2-1.3.2-1.5-.6,0-.1,0-.2-.1-.3-.9-2.2-1.5-2.5-4-2.2-1.2.2-1,1.2-1.4,1.9-.3.7-.5,1.4-1.5,1.3-.3,0-.6-.1-.5-.5h0ZM234.9,239.1c-.4-1.3-.6-2.5-1.4-3.6-.4,1.3-.8,2.4-1.2,3.6h2.5Z"/>
      <path d="M248.7,235.8c-1,.2-1.7,0-2.5-.6-1.6-1.3-3.7-1.1-5.1.4-1.5,1.6-1.5,4,0,5.6,1.4,1.6,3.3,1.8,5.1.4.8-.6,1.5-.6,2.4-.5-1.2,2.2-3.6,3.3-6,2.7-2.3-.6-4.1-2.9-4.1-5.3,0-2.6,1.6-4.8,4.1-5.5,2.4-.7,4.8.3,6.2,2.8h0Z"/>
      <path d="M223.7,237.3c0,1,0,2.1,0,3.1,0,2.1-1.4,3.5-3.4,3.5-2.2,0-3.7-1.2-3.8-3.4-.1-2.2,0-4.4,0-6.6,0-.7.2-.9.9-.9s.9.3.9.9c0,2,0,4,0,6.1,0,1.3.4,2.4,1.9,2.4,1.6,0,2.1-1,2.1-2.4,0-2,0-3.9,0-5.9,0-.6,0-1.1.8-1.1.9,0,.8.5.8,1.1,0,1,0,2.1,0,3.1h0Z"/>
      <path d="M374.3,179.5c.2-.8,0-1.5-.6-2-.7-.7-.6-1.5-.3-2.4.8-2.2,1.4-2.3,3-.7.9.9,2,1.7,3,2.6,1.2,1.1,1.2,2.2-.1,3.1-1.3.8-2.7,1.5-4.1,2.1-.8.4-1.2,0-1.1-.9,0-.7.1-1.4.2-1.9h0Z"/>
      <path d="M387.1,244c-1.4,0-2.4-.6-3-1.9-.2-.5-.7-1.1,0-1.5.6-.3,1.1,0,1.4.8.4,1.1,1.3,1.4,2.3.9.9-.5,1-1.4.6-2.2-.3-.8-1.3-.9-2-1.2-1.6-.6-2.7-1.5-2.4-3.4.2-1.5,1.2-2.3,2.7-2.5,1.4-.2,2.5.4,3.1,1.7.2.4.6,1-.1,1.3-.4.2-1,.2-1.3-.4-.3-.8-.8-1.3-1.7-1-.6.2-1,.6-1,1.2,0,1,.7,1.4,1.5,1.6,1.5.5,2.9,1.1,3.2,3,.3,2.1-1.2,3.7-3.3,3.7h0Z"/>
      <path d="M348.5,238.3v-.9c0-3.3,1.7-4.7,5-4.4.5,0,.9.1.9.8,0,.7-.4.7-.9.7-.5,0-1,0-1.5,0-1.6-.3-1.9.4-1.8,1.9,0,.9.2,1.4,1.2,1.3.8,0,1.6,0,2.4,0,.6,0,.6.4.6.8s-.2.6-.6.6c-.6,0-1.3,0-1.9,0-1.5-.2-1.8.4-1.8,1.8,0,1.3.5,1.4,1.6,1.5.9,0,2.6-.9,2.6.8,0,1.5-1.7.6-2.5.6-3.2.1-3.2,0-3.2-3.2v-2.2h0Z"/>
      <path d="M146.8,237.4c0-1.1,0-2.3,0-3.5,0-.6.2-.8.8-.8s.8.3.8.8c0,1.9,0,3.8,0,5.7,0,1.9.6,2.9,2,2.9,1.4,0,2-.9,2.1-2.8,0-1.8,0-3.7,0-5.5s-.2-1.1.7-1.1c.9,0,.9.5.9,1.1,0,2.1,0,4.3,0,6.4,0,2.1-1.5,3.4-3.6,3.3-2.1,0-3.4-1.3-3.5-3.4,0-1,0-2.1,0-3.1h0Z"/>
      <path d="M191.5,234.6c-1.3,0-2.4,0-3.5,0-.5,0-.8-.1-.8-.7,0-.6.2-.8.8-.8,1.2,0,2.4,0,3.6,0,2,0,2.3.5,1.3,2.3-1.1,1.8-2.1,3.7-3.3,5.5-.8,1.2-.5,1.5.8,1.4.7,0,1.5,0,2.2,0,.5,0,.9,0,.9.7,0,.6-.2.8-.8.8-1.7,0-3.4.1-5,0-1.5-.2-.9-1.3-.4-2,1.1-1.9,2.3-3.9,3.4-5.8.2-.4.4-.8.8-1.4h0Z"/>
      <path d="M324.2,185.6c-.2-.8-.2-1.7.8-2,.9-.3,1.4.6,1.9,1.2,1.5,2.1,2.3,4.6,3.1,7,.3.9,0,1.7-.9,2-.9.3-1.3-.4-1.6-1.2-.3-.8-.8-1.4-1.5-1.9-1.6-1.2-1.8-3.1-1.8-5.1h0Z"/>
      <path d="M290.3,233.3c1.6-.8,1.9.5,2.4,1.5.5,1,.9,1.9,1.5,3.2.6-1.4,1.3-2.5,1.7-3.7.4-1.1,1.1-1.5,2.3-1.1-.6,1.3-1.2,2.6-1.9,3.8-1,1.8-1.6,3.8-1.4,5.9,0,.5,0,.9-.7.8-.5,0-.9,0-.8-.6.6-3.8-1.9-6.6-3.2-9.8,0,0,0-.1,0-.2h0Z"/>
      <path d="M327.1,238.5v-1.2c0-3.1,1.6-4.5,4.7-4.1.5,0,.8.1.8.8s-.4.7-.9.7c-.3,0-.7,0-1,0-1.9,0-2.4.6-1.9,2.6.1.6.5.5.9.6.8,0,1.6,0,2.4,0,.6,0,.6.4.6.8s-.1.6-.6.6h-.5c-1.8,0-2.7,1-2.7,2.8v1c0,.5-.1.9-.8.9-.7,0-.9-.3-.9-.9,0-1.5,0-3,0-4.5h0Z"/>
      <path d="M316,238.5v-1.4c0-3,1.5-4.3,4.5-4,.5,0,.9,0,.9.7,0,.7-.4.7-.9.7-.3,0-.7,0-1,0-1.9,0-2.4.6-2,2.6.1.6.5.6.9.6.8,0,1.5,0,2.2,0,.5,0,.8.1.8.6,0,.6-.2.9-.8.8h-.2c-2.9.2-2.8.2-2.9,3.1,0,.6.6,1.7-.8,1.6-1.3,0-.6-1.1-.7-1.7-.1-1.2,0-2.4,0-3.6h0Z"/>
      <path d="M380.6,233.1h1.9c.5,0,.9,0,.9.6s-.2.9-.8.8c-1.3-.2-1.3.6-1.3,1.5,0,2.2,0,4.4,0,6.6,0,.5.2,1.2-.7,1.2-1,0-.9-.6-.9-1.3,0-2.2,0-4.5,0-6.7,0-.9-.1-1.4-1.2-1.3-.5,0-.9,0-.9-.7,0-.7.4-.7.9-.7.7,0,1.4,0,2.1,0h0Z"/>
      <path d="M334.3,238.6v-4.3c0-.6-.1-1.2.8-1.1.8,0,.7.5.7,1.1v8.6c0,.5,0,1-.7,1.1-1,0-.8-.6-.8-1.1v-4.1h0Z"/>
      <path d="M304.3,190c0,.2-.1.4-.4.4-.1-.4-.1-.6.4-.4Z"/>
      <path d="M91.5,207.3c.2,4.4-.5,8.5-2.3,12.5-.6.1-.7,1.3-1.6.6,0-.2.1-.4.2-.7.2,0,.6,0,.5-.4,0,0-.3,0-.5,0-1.4-.1-2.7-.1-4.1,0-.4,0-.8,0-1.2,0-1,0-1.9,0-2.9-.1-.8,0-1.2.1-1.2,1.1s.4,1.2,1.2,1.1c1,0,1.9,0,2.9-.1.4,0,.8,0,1.2,0,1.1,0,2.3,0,3.4,0,0,.7.6.7,1.1.7-.1.2-.2.5-.4.7-.7-.4-1.1,0-1.7.3-.3-.4-.8-.1-1.1-.3-1.5-.6-3-.6-4.5,0h-2.4c-.4-.6-1-.3-1.6-.3-2.2,0-4.4,0-6.7,0,.8-.6,1.8.2,2.9-.7h-4c0-.1,0-.3,0-.4,2.8.1,2.8.1,2.8-1.7,0-1.1-.2-1.5-1.4-1.6-1.3,0-1.6.5-1.5,1.6,0,.3,0,.7,0,1h-.6c0-1.2-.6-2.5.7-3.4h2.7c1.4,1,.3,2.6,1,4v-4.3c.2-.1.3-.2.4-.4,0,1.1.1,2.1.1,3.1,0,2.5,0,2.4,2.5,2.5,1.4,0,2-.3,1.8-1.8-.1-.9,0-1.9,0-2.9,1.7.2,3.3-.3,4.9,0-1.2-.9-2.8.1-4-.8,1.1,0,2.2,0,3.3,0,.5,0,.8-.2.7-.7,0-.5.3-1.3-.3-1.4-1.1-.2-2.3-.3-3.4,0-.7.2-.2,1.3-.3,2-.6-.5-.3-1.2-.3-1.8,0-.5.2-1.2-.7-1.3v-1.4h1c.9.7,1.8.2,2.7,0h-2.7v-.3c1.4-.2,2.8.4,4.1-.4.4-.2.6-.8,1.1-.7.5,2.3,2.2.9,3.3,1,1.6.1.5-1.3.8-2,0,0,0,0,0-.1,0,0,0,.1,0,.1-1.4-.1-2.7-.1-4.1,0-.4.5-.8.3-1.2,0-.7,0-1.4,0-2.1-.1-1.9-.4-2.3.6-2,2.2-.7-2.1-.6-2.4,1.6-2.4.2,0,.5,0,.7,0,.2,0,.4.1.4-.4-1.6.4-2.9.2-3.5-1.6,0,0-.1,0-.2,0v-2.1c.2.4.3.7.5,1.1.3-.3,0-.9.7-1-.5,1.1-.3,1.7,1.1,1.6,3.1,0,6.3,0,9.4,0s1.1.1,1.4-.4c.2.5.7.5,1.1.5h0ZM85.7,217h.5c.8,0,1.6.2,1.5-1.1,0-1.2-.7-1.1-1.4-1-.6,0-1.1,0-1.7,0-.9,0-1,.4-1,1.1,0,.7.1,1.1.9,1.1.4,0,.8,0,1.2,0h0ZM88.9,211.1c0,.4-.2,1.1.6,1.1.8,0,.6-.7.6-1.2,0-.4.2-1-.5-1-.8,0-.7.5-.7,1.1ZM86.9,209.6c0,0,0-.1,0-.2h-2.6v.2h2.6Z"/>
      <path d="M91.5,207.3c-.5,0-.9,0-1.1-.5,0,0,0,0,0-.1,0,0,0-.1,0-.2,0-.4.2-.9-.3-1.2h0v-.4c-.2-1.1-.2-2.2-.5-3.2-3.2-14.3-16.1-24.3-30.3-23.6-15.1.8-26.8,11.8-28.6,26.8.2.3.5.4.9.4h10.3c.3,0,.7,0,.9-.4h0c.9-1.3-.2-2.9.7-4.1,0,4.6,0,9.2,0,13.8-.2-.8-.5-1.7-.7-2.5v-1.9c.5-1.1.6-2.1,0-3.2,0-.1,0-.2,0-.4.6-1.2-.3-1-1-1-2,0-4.1,0-6.2,0-1.7,0-3.4-.3-5.1.2h0c0,1-.9.6-1.3.8-.2-11.2,7.8-22.9,19-27.5,20.6-8.4,42.2,6.1,43.3,27.2,0,.3,0,.7,0,1h0Z"/>
      <path d="M42.7,212c.2.8.5,1.7.7,2.5v1.1c-.8.8.4,2.4-.9,2.9-1,.4-2.2.2-3.4.2,0,0,0,.1-.2.3.7,0,1.3,0,2,0,.6,0,1.3-.4,1.8.4-1,0-1.9,0-2.9,0-.9,0-1.2.2-1.2,1.1s.5,1.1,1.2,1.1c1,0,1.9,0,2.9-.1.1.3.4.4.7.4v.4c-3.2.7-6.5.4-9.6-.7.9,0,1.8,0,2.7,0,.6,0,.8-.3.8-.8,0-.4.3-1.3-.4-1.3-1.2,0-2.6-.6-3.8.4,0,0,0,0-.1-.1,0,0-.2,0-.2,0-.2.6-.3,1.2-.5,1.8-1.5-2.7-2.4-5.6-2.7-8.7.6,0,.7-.6,1.1-.7.6.1,1.3.3,1.2-.7,0-.5.4-1.2-.6-1.4-1-.1-.8.6-.8,1.1-.4-.4-.4-1.3-1.3-1-.1-1.1-.2-2.3,0-3.5.4-.2,1.2.2,1.3-.7-.3,2.1,1.3,1.1,2.1,1.4,0,.4.2.9.6.9.6,0,.7-.4.8-.9,1.1,0,2.2,0,3.3,0,1.8-.1,3.6.4,5.4-.3.5,1.1.4,2.1,0,3.2-1-.3-1.9,0-2.9-.2-.8,0-1.2.1-1.2,1.1s.4,1.2,1.2,1.1c1,0,1.9,0,2.9-.1h0ZM35.4,214.8c-.4,0-.7,0-.9,0-.8,0-1.2.1-1.2,1.1,0,1,.5,1.1,1.3,1.1.6,0,1.3,0,1.9,0,.4,0,.9.1.9-.5,0-.5.1-1.2-.2-1.5-.4-.5-1.2-.1-1.7-.2h0ZM40.6,217c.3,0,.6,0,.8,0,.8,0,1.3,0,1.3-1.1,0-.9-.3-1.2-1.2-1.1-.6,0-1.2,0-1.9,0-.8,0-1.1.2-1.1,1.1,0,.9.3,1.3,1.2,1.1.3,0,.6,0,.8,0h0ZM35.5,210c-.4,0-.7,0-1,0-.9,0-1.4,0-1.3,1.2,0,1.1.6,1,1.3,1,.5,0,1,0,1.5,0,1.2.2,1.3-.5,1.2-1.4-.1-1.4-1.3-.4-1.8-.8Z"/>
      <path d="M32.4,221.5c.2-.6.3-1.2.5-1.8,0,0,.1,0,.2,0,0,0,0,0,.1.1,0,.6.4,1.1.6,1.6,3.2,1.2,6.4,1.4,9.7.7,0,0,.1,0,.2,0-.1,1-.9.5-1.3.5-2.4,0-4.8,0-7.2.1-.6.4,0,.7,0,1,5.5,8.3,13.3,13.2,23.3,13.8,11.9.7,21.1-4.4,27.6-14.4.5-.2,1-.7,1.7-.3-4.9,8.8-12.4,14.1-22.2,15.8-13.1,2.3-26.3-4.3-32.7-16.1-.2-.4-.3-.7-.5-1.1h0Z"/>
      <path d="M50.5,171.8c-.3,0-1.2,0-.8-.3,1.2-1,.5-1.9.3-2.9,0-.5.7-.9.6-1.5-.8-.1-.7,2-1.8.6-.2-.3-.3-1.1,0-1,1.5.4,2.1-2.2,3.6-1.1.5.3-.2.7-.5,1-.9.9-.9,1,.2,1.9.8.6.5,1.4.1,2.2-.2.4-.4,1.1,0,1.2.8.3.5-.5.6-.9,0-.3.2-.5.6-.4.1,0,.4.3.3.3-.8,1.9,1,1.1,1.6,1.5.3.2.6.2,1,.3-.4.8-.8.9-1.6.4-1.6-.9-2.4-.7-3.5.9-.3.4-.6.8-1,1.1-.5.4-1,.3-1.4-.2-.5-.5-.6-1.1-.2-1.7.5-.8,1.4-.8,2-1.3.1,0,.3-.1.2-.3,0,0-.3,0-.5,0h0ZM50.9,173.5c0-.3-.2-.5-.4-.4-.5.2-1.1.4-1.2,1,0,.3,0,.6.4.5.5-.2,1-.6,1.2-1.1h0Z"/>
      <path d="M39.5,176.6c-.6-.4-.9-1-1.8-1.1-.1.7.8,1.1.6,1.8-.1.4.1,1-.4,1.2-.6.2-.7-.4-1.1-.6-.7-.5-.4-1.4-1-2.1-.8.8-1,1.5,0,2.3.6.5,1.2,1.1,1.3,1.9,0,.5,0,.9-.4,1.2-.5.2-.9.2-1.2-.2-.4-.4-1.1-.9-1-1.3.2-2.1-1.5-3.1-2.6-4.5.9-.3,1,.5,1.4.8.6.4.9.7,1.5-.3,1.1-1.9,3.2-1.6,5.1.8-.2,0-.3,0-.5,0h0Z"/>
      <path d="M27.9,195.4c-.4-2-1.4-3.5-2.5-4.9-1.1-1.5-.6-2.9-.2-4.4.2-.7.8-.4,1,0,.5,1.2,1.1,2,2.4.9.4-.3.8-.2,1,.2.3.5,1,.9.6,1.7-.1.2-.2.4-.5.3-.3,0-.2-.3-.2-.6,0-.4,0-1-.5-.9-.6.1-.6.8-.5,1.3.1.4.4.8.5,1.2.1.4.3.7-.5.9-.7.2-.9,0-.9-.4.2-1.3-1.7-1-1.6-2.2,0,0-.4-.2-.5-.1-.3.2-.2.5,0,.8.8,1.3,1.6,2.6,2.4,4,.4.6.9,1.3,0,2.1h0Z"/>
      <path d="M71.7,244c.3.9.6,1.7.9,2.6,0,.2,0,.5-.1.6-.3.2-.5,0-.6-.4-.5-1.2-.9-2.5-1.4-3.7-.1-.4-.3-.8.3-1,.4-.2.8-.1,1.1.2.7.8,1.4,1.6,2.5,2.8v-3.2c0-.6,0-1.4.8-1.5.9-.2.7.7.9,1.1.5,1.1.8,2.1,1.2,3.2.1.3,0,.6-.3.7-.3,0-.4-.2-.5-.4-.4-1-.8-2-1.5-3,0,.6,0,1.2,0,1.7-.1.8.5,2-.4,2.3-.6.3-1.1-1-1.7-1.5-.3-.3-.6-.7-.9-1-.2,0-.2-.5-.4-.3-.2.1,0,.4.2.5h0Z"/>
      <path d="M87.3,178c-2.7.5-3.7,1.3-2.9,2.6-1,0-1.6,1-2.7.7-.5-.1-1.2,0-1-.8.2-1,.8.1,1.1,0,0-2.1,1.9-1.8,2.8-2.9-.7-.3-1.5-.6-2.2-1-.5-.2-.9-.6-.5-1.2.5-.6.7,0,1.1.3.7.7,1.7.8,2.6,1.2.6.2,1.3.3,1.7,1.2h0Z"/>
      <path d="M28.2,226.3c-.4-1.5-.1-3.5-2.5-3.2-1,.1-1.6.8-1.7,1.9,0,1.2.7,1.8,1.8,2.1,0-.2.1-.3.1-.4-.1-.7-.9-1.2-.6-2,0,0,.4,0,.4,0,.5.9,1,1.7,1.3,2.6.1.4-.4.4-.8.5-1.4.2-2.4-.5-2.9-1.7-.5-1.2-.2-2.4.9-3.2,1.2-.8,2.4-.8,3.5.1,1.1.9,1.1,2.1.4,3.3h0Z"/>
      <path d="M68.3,170.6c-.4.3-.6.6-.6,1.2,0,.5-.3.9-.8.9-.4,0-1.1-.2-1.3-.5-.2-.4.3-.8.8-1,.4-.2.8-.4.8-1.1-.8-.2-1.4,0-1.7.9-.2.5-.4.9-.9,1.2-.2.1-.5.2-.6.2-.3-.1-.3-.5-.2-.8,0-.1.1-.2.2-.3,1-1.2.9-3,2.3-4,.5.7-.4,1.1-.3,1.9.8-.3,1.8-.3,2.3-.8,1.2-1.2,1.1,0,1.4.6h0c-.1,0-.2,0-.3,0-.5.2-1,.3-1,1,0,.2,0,.4,0,.7h0Z"/>
      <path d="M23.5,220.3c.7-.2,1.4-.4,2.1-.6.3,0,.7-.3.9.1.2.5-.2.5-.6.6-1.2.4-2.4.7-3.6,1.1-.2,0-.5.3-.8,0-.3-.4-.1-.6.1-.9.4-.5.9-1,1.4-1.6.4-.5.8-1,1.5-1.7-1.3.4-2.3.7-3.3,1-.3,0-.6.2-.7-.2-.1-.4.2-.5.5-.6,1.3-.4,2.6-.8,4-1.2.3,0,.6,0,.7.3.2.3,0,.6-.2.8-.7.9-1.5,1.8-2.2,2.6,0,.1-.3.3-.2.3.1.2.3.1.5,0h0Z"/>
      <path d="M23,205c1.1-1.6,2.2-3,.3-4.2-1-.6-1.9-.3-2.6.5-.7.8-.6,1.6.5,2.7,0-.1.2-.3.2-.4.3-.6-.2-1.4.6-1.8,0,0,.3.2.3.3-.1,1-.2,1.9-.5,2.9-.1.3-.6,0-.9-.2-1.3-.7-1.8-2.4-1-3.7.8-1.4,2.5-1.8,3.9-1,1.3.8,1.7,2.5.9,3.8-.3.4-.6.8-1.7,1.1h0Z"/>
      <path d="M96.7,223c-.9-.4-1.8-.8-2.6-1.2-.3-.1-.6-.3-.4-.6.2-.3.5-.2.8,0,1.2.6,2.4,1.1,3.6,1.7.3.1.6.2.5.6,0,.4-.4.5-.8.5-1.2.2-2.5.3-4.2.6,1.3.6,2.1,1,3,1.4.3.1.8.2.6.7-.2.5-.6.2-.8,0-1.2-.5-2.3-1.1-3.4-1.6-.2-.1-.6-.2-.6-.6,0-.4.3-.6.7-.6,1.2-.2,2.5-.3,3.7-.5,0-.1,0-.2,0-.3Z"/>
      <path d="M35.6,234.5c1.5,0,2.8,1.1,2.8,2.6,0,1.5-1.2,2.9-2.7,2.9-1.5,0-2.9-1.3-2.9-2.8,0-1.5,1.3-2.7,2.8-2.7ZM36,235.2c-1.3,0-2.1.6-2.3,1.8-.2,1.2.5,2.1,1.7,2.2,1.2.2,2.1-.5,2.3-1.8.2-1.2-.5-1.9-1.7-2.2h0Z"/>
      <path d="M62.5,243.5c1.4,0,2.3.5,2.8,1.6.4,1.1.4,2.1-.5,3-.9.9-2.1.7-3.2.8-.2,0-.4-.2-.4-.5-.1-1.4-.3-2.9-.3-4.3,0-1.2,1.2-.3,1.6-.7h0ZM61.7,246.1c.5.6-.6,2,1.1,2,1.2,0,2-.7,1.9-1.9,0-1.3-.8-2-2.2-1.9-1.5,0-.4,1.2-.8,1.8h0Z"/>
      <path d="M85.5,234.1c1.6,0,2.9,1.2,2.9,2.8,0,1.4-1.3,2.8-2.7,2.8-1.6,0-2.8-1.2-2.9-2.8,0-1.5,1.2-2.7,2.7-2.8h0ZM83.5,236.7c0,1.4.8,2.2,2,2.2,1.2,0,2-.7,2-1.9,0-1.2-.7-2.1-2-2.1-1.2,0-1.9.7-2,1.8Z"/>
      <path d="M95.2,194.5c-.7.5-.6,1.7-1.7,1.4-1.1-.3-1-1.2-1.2-2.1,0-.6.1-1.3-.1-1.9-.7-1.5,1.5-1.2,1.3-2.2.8.7.9,0,1.2-.5,0,0,.7,0,.9.2.3.2.1.5-.2.6-1,.5.9,1.1-.1,1.6-.7.3-1.3-.5-2-.2-.8.4-.2,1.1-.1,1.6,0,.7,0,1.6,1.2,1.4.2,0,.3-.4.8,0h0Z"/>
      <path d="M22.2,210.3c-.6,0-1.2,0-1.7-.1-.9-.2-1.4-.8-1.4-1.8s.4-1.5,1.2-1.7c1.2-.3,2.5-.1,3.8-.2.3,0,.5.2.5.4,0,.4-.3.4-.6.4-.9,0-1.7,0-2.6,0-.7,0-1.5,0-1.4,1.1,0,.8.8.9,1.4.9.9,0,1.7,0,2.6,0,.3,0,.6,0,.7.4,0,.5-.4.5-.7.5-.6,0-1.1,0-1.7,0h0c0,0,0,0,0,0Z"/>
      <path d="M72.7,170.2c.5-.2,1.2-.1.6.4-1,.9-1.3,2-1.6,3.1-.3.9-.9,1.2-1.9,1.2.1-.8,1.1-.9,1-1.7,0-.6,1.9-2.2-.8-1.6-.9.2-.6-.8-.3-1.4.8-.2.3-.6.1-.9.2-.1.2-.3,0-.4h0c.6.5,1.1-.2,1.7,0,.7,0,1.4,0,2,0,.3.6,0,.7-.6.7-.7.3-1.7,0-2.4.8.9.4,1.5,0,2.2-.2h0Z"/>
      <path d="M47.9,247.2c-.5-.4-.7-.4-.7-.5-.6-2.3-.8-2.4-2.8-1.2-.2.1-.4.2-.6,0-.3-.3,0-.5.1-.7,1-1.1,1.9-2.1,2.9-3.2.2-.2.4-.5.7-.4.4.1.4.5.4.9v5.1h0Z"/>
      <path d="M101.4,211.4c0,.7-.4.8-.8,1-1.4.6-1.5,1.6-.4,2.6.3.2.8.4.5.9-.3.4-.6,0-.9-.2-1.2-.6-2.4-1.3-3.6-2-.6-.3-.8-.8,0-1.1,1.7-.4,3.4-.8,5.1-1.1Z"/>
      <path d="M99.5,209.1c.7.3,1.5-.2,2.4.8-2,0-3.8.3-5.4-.1-.8-.2-.4-1.8,0-2.6.5-1,1.9-1.2,2.3-.4,1,1.7,1.7.3,2.8-.1,0,1.5-1.6,1.5-2.1,2.5h0ZM97.9,209.2c.5,0,1.1,0,1-.8,0-.6-.2-1.2-.9-1.3-.8,0-1.1.6-1.1,1.2,0,.8.5.8,1.1.8h0Z"/>
      <path d="M19.3,211.3c1.8.4,3.4.8,5,1.1.3,0,.6.2.6.5,0,.3-.2.5-.4.6-1.3.7-2.6,1.4-3.9,2.1-.2.1-.4.3-.6,0-.2-.2,0-.4,0-.6,1-1.3.9-2.3-.6-3.1,0,0,0-.2-.2-.7h0Z"/>
      <path d="M54.9,244.9c-1.6-.9-2.6-2.4-4.1-1-.6.6-.9,1.3-.5,2.2.7,1.9,2.3,1.1,3.9,1-1.1,1.2-2.1,1.3-3.2.8-1.2-.5-1.7-1.5-1.6-2.8.2-1.4,1-2.2,2.3-2.4,1.4-.2,2.4.4,3.2,2.2h0Z"/>
      <path d="M40.7,237.7c.5.2.3.5.2.8-.5.8-1,1.7-1.5,2.5-.3.6-.4,1.1.2,1.5.7.4,1.1,0,1.4-.5.5-.8,1-1.6,1.4-2.3.2-.3.3-.7.7-.5.5.2.2.6,0,.9-.5.8-1,1.7-1.5,2.5-.7.9-1.5,1.2-2.5.6-.9-.6-1.1-1.4-.6-2.4.5-.8,1-1.7,1.5-2.5.1-.2.2-.5.6-.5h0Z"/>
      <path d="M31.7,229.7c1.3.3.6.8,0,1.2-.7.5-1,.9-.3,1.7.7.9,1.2.5,1.8,0,.3-.2.6-.8,1-.3.4.4-.2.7-.5.9-.8.7-1.6,1.5-2.5,2.1-.3.2-.5,1-1,.4-.5-.5.2-.8.5-1,1.2-.7.6-1.3,0-2-.9-.9-1.1.2-1.6.4-.3.1-.5.6-.9.2-.3-.4.1-.6.3-.8,1-1,2.3-1.7,3.1-2.9h0Z"/>
      <path d="M69.5,245.1c-.4,1-2.2.1-1.8,1.7.3,1.5,1.7-.1,2.2.7-1.9,1.4-2.7,1.2-3.1-.9-.1-.5-.1-1-.3-1.5-.6-1.5-.1-2.2,1.5-2.2s.9-.4,1,.2c0,.5-.6.4-.9.5-.5.1-1.2,0-.9,1,.2.5.3.8,1,.6.4-.2.9-.3,1.3,0h0Z"/>
      <path d="M54.8,248.9c.8-1.8,1.5-3.3,2.2-4.8.2-.5.7-1,1.1-.1.6,1.6,1,3.3,1.6,5.1-1.4-.2-.9-1.8-2.3-1.9-1.4,0-1.2,1.4-2.6,1.7h0ZM57.5,244.7c-.2.7-.8,1.1-.4,1.8,0,.1.7.2.7,0,.4-.6,0-1.1-.3-1.9Z"/>
      <path d="M97.5,217.8c.5.5.1.9,0,1.3-.2.6,0,.9.6,1.1.7.2.8-.1,1-.6.2-.4,0-1.3.8-1,.5.2,0,.8-.1,1.2-.1,1.5-.9,1.5-2.1,1-.7-.3-1.4-.5-2.1-.7-1.2-.2-1.6-.7-1-1.9.2-.4.2-1.3.7-1.2.8.2,0,.9,0,1.2-.1.6,0,.8.5,1,.6.2.8,0,1-.5.1-.4,0-1.1.7-1.2h0Z"/>
      <path d="M96.9,202.4c.8,0,.8-.7.9-1.3.3-1.2,1.1-1.8,2.3-1.4.9.3,1.3,1.6.7,2.5-.2.3-.5.8-1,.5-.6-.4,0-.6.2-.9.4-.5.3-1-.2-1.3-.7-.4-1.1,0-1.2.7,0,.3-.1.7-.3,1-.4.8-1.1,1.2-2,.7-.8-.4-1-1.2-.7-2.1.1-.4.5-.8.9-.6.4.2.1.5,0,.8-.4.6-.2.9.4,1.2h0Z"/>
      <path d="M31.7,229.7c-1.4,0-2.9-.1-4.3.1-1.4.2,0,.8,0,1.3,0,.3.6.6.2.9-.5.4-.7-.2-.9-.5-.4-.7-1.4-1.3-1.1-2,.3-.7,1.5-.4,2.2-.5.3,0,.7,0,1,0,.9,0,2,0,.8-1.3-.2-.2-.5-.6,0-.8.3-.2.5.2.6.4.5.8,1.1,1.5,1.3,2.4h0s0,0,0,0Z"/>
      <path d="M90.5,232.5c-1.6,1.1-.8,1.8.2,2.6.2.1.2.4,0,.6-.2.2-.4,0-.6,0-1.1-.9-2.2-1.9-3.2-2.8-.3-.3-.2-.6,0-.9.5-.4.8-1.4,1.4-1.3.7,0,.2.6,0,.8-.5.5-.9.9,0,1.5.8.7.9-.2,1.3-.5.2-.1.3-.5.7-.3.1,0,.2.2.3.4h0Z"/>
      <path d="M79.2,240.9c.3-.7,0-1.3,0-1.9,0-.4,0-.8.4-.8.5,0,.4.4.4.7.1,1.4-.1,2.9.9,4.1.2.2,0,.4-.1.6-.2.2-.5,0-.6-.2-.6-1.5-2-2.1-3.2-3-.2-.1-.6-.3-.3-.6.2-.3.5-.2.8,0,.6.4,1.1.8,1.7,1.2h0Z"/>
      <path d="M90.9,226.6c.2,0,.3,0,.4.1.3.3,0,.5,0,.7-.2.4-1,.7-.2,1.4.8.6,1.1.1,1.4-.4.2-.2.3-.6.7-.4.4.2.2.5,0,.7-1,.9-.3,1.4.5,1.9.3.1.8.4.5.7-.3.5-.7,0-1-.1-.9-.6-1.8-1.2-2.7-1.8-.3-.2-1-.3-.8-.9.3-.7.8-1.2,1.2-1.8h0Z"/>
      <path d="M87.1,177.2c0-.6,1.2-1.1-.2-1.3-.9-.1-.6-.7-.3-1.1.4-.7.5-.2.8.1.6.6,1.4.7,2.2.8.5,0,1,.3.8.9,0,.4-.6.6-1,.5-.7-.1-1.5-.1-2.4,0h0Z"/>
      <path d="M96.5,206.3c-.6-1.1-.6-2-.4-3.1,1.2,1.6,2.7.7,4.1.8.4,0,1.1-.4,1.1.3,0,.6-.7.4-1.1.5-.6,0-1.3,0-1.9.1-.8,0-1.8-.1-1.8,1.4h0Z"/>
      <path d="M95.8,187.4c1.1.5,2.2,1,3.1,1.6.3.2.6,1,0,1.3-.5.2-1.6-.3-1.5-.4.4-1.6-1.2-1-1.7-1.6-.2-.2-.6-.2-.4-.6,0-.1.2-.2.4-.3h0Z"/>
      <path d="M96,228.3c-.2.6-.5.4-.8.2-1.2-.7-2.4-1.4-3.6-2.1-.2-.1-.5-.3-.4-.6.1-.2.4-.3.6-.1,1.3.8,2.6,1.5,3.8,2.3.1,0,.2.2.3.4Z"/>
      <path d="M23.8,185.4c.4,0,.8-.2.7.4-.2,1.2-.2,2.4-.8,3.6-.8-.6-.6-1.2-.4-1.9.3-.7.7-1.4.5-2.3h0c0,0,0,0,0,0Z"/>
      <path d="M94.3,186.7c-.8.3-.3,1.6-1.4,1.9-.4,0-.7-.1-.8-.5,1.3-.2.2-1.9,1.2-2.1.3,0,.8.2.9.8h0Z"/>
      <path d="M23.8,185.4h0c-.7,0-.2,1.4-1.2,1-.3-.2-.9-.3-.9-.9,0-.4.3-.8.6-.9.8-.2,1.1.3,1.4.9h0Z"/>
      <path d="M39.2,174.2c0-1.1-.4-1.9-1.7-2,.7-.7,1.5-.8,2-.4.8.8-.2,1.5-.3,2.3h0Z"/>
      <path d="M87.6,220.4c.9.6,1-.5,1.6-.6-.2.9-.6,1.7-1.1,2.4-.5,0-1,0-1.1-.7.2-.4.4-.7.6-1.1Z"/>
      <path d="M91.5,187.5c0,1-.8,1.9-2.2,2.7.2-.7,1-1.6,2.2-2.7Z"/>
      <path d="M39.5,176.6c.2,0,.3,0,.5,0,.6.8,1.2,1.5,1.7,2.3.2.3.6.8.1,1-.4.2-.8-.2-.8-.6-.2-1.1-1-1.8-1.5-2.7h0Z"/>
      <path d="M30.8,212.1c-.4.2-.6.8-1.1.7,0,0,0-.2,0-.3,0-.7.3-1.5-.3-2.1,0-.1,0-.2,0-.4.9-.2.9.6,1.3,1,0,.3.1.7.1,1h0Z"/>
      <path d="M98.6,188.1c-.2-.3-1,0-.8-.6.1-.4.4-1,.9-1.1.5-.1.4.4.4.7s.2.9-.6,1h0Z"/>
      <path d="M31.7,191.3c-.8-.1-1.4-.6-2.2-.5,1.2-1.4,1.6-1.3,2.2.5Z"/>
      <path d="M72.7,170.2c-.7.2-1.3.6-2.2.2.6-.9,1.6-.5,2.4-.8,0,.2,0,.4-.2.7Z"/>
      <path d="M69.8,169.3c.1.3.7.8-.1.9-.2,0-.4,0-.6,0l-.6-.3c0-.7.6-.8,1-1,0,.2,0,.4.3.4h0Z"/>
      <path d="M29.3,210.4c.5.6.2,1.4.3,2.1-.3-.7-.3-1.4-.3-2.1Z"/>
      <path d="M73.4,168.9c-.7,0-1.4,0-2,0,.7-.1,1.4-.6,2,0Z"/>
      <path d="M68.4,169.9l.6.3c-.2.1-.4.2-.7.3,0-.2,0-.4,0-.7h0Z"/>
      <path d="M72.5,215.2c.2.1.4.2.6.3,0,.4-.2.7-.3,1.1h0c-.2,0-.3.2-.4.3-.4,0-.8-.2-1,.3h-2.7c-.6-.6-1.2-.6-1.8,0h-3c-.7-.6-1.4-.5-2.1,0h-2.8c-.8-.8-1.6-.8-2.3,0-.8,0-1.7,0-2.5,0-.7-.5-1.4-.6-2.1,0h-2.7c-.2-.6-.6-.3-1-.4-.3-.4-.5-.9-.4-1.4.1-.1.2-.2.3-.3.1.4.4.4.7.3h.4c1,0,2,0,3,0,.2,0,.3-.1.4-.2,0,0,.2,0,.3,0s.2,0,.3,0h0c.1.1.3.2.4.2.8,0,1.5,0,2.3,0h.5c.4,0,.7,0,1-.3,0,0,.2,0,.3,0,.1,0,.2,0,.3,0,.1,0,.2,0,.3.1.2,0,.3,0,.4,0h2.7c.4.1.9.2,1.1-.3,0,0,.2,0,.3,0,.1,0,.2,0,.3,0h0c.3.4.7.3,1.1.2.9,0,1.9.3,2.8-.1.1,0,.2,0,.3,0,0,0,.2,0,.3,0,.1,0,.3.2.4.2.3,0,.6,0,1,0h.4c.9,0,1.9.5,2.8-.2h0Z"/>
      <path d="M90.1,205.6c-3.9,0-7.7,0-11.6,0-.6,0-.3.7-.7,1-.2-.4-.3-.7-.5-1.1v-1.1c.8-1.1-.3-2.6.7-3.8.2,1.4-.3,2.8.3,4.1h0c.3.5.8.3,1.3.3,3.5,0,7,0,10.5,0h0c0,.2,0,.4,0,.5h0Z"/>
      <path d="M77.4,215.6v-1.7c.8.1.6.8.7,1.3,0,.6-.2,1.3.3,1.8h0c1.2.9,2.8-.1,4,.8-1.7-.3-3.3.2-4.9,0v-.4c.4-.6.4-1.1,0-1.7h0Z"/>
      <path d="M77.4,209.3v-1.7c0,0,.2,0,.2,0,.6,1.7,1.9,2,3.5,1.6,0,.6-.2.4-.4.4-.2,0-.5,0-.7,0-2.2,0-2.3.3-1.6,2.4h0v.4h-1v-1.4c.4-.6.4-1.1,0-1.7h0Z"/>
      <path d="M78,222.8c-2.6,0-5.2,0-7.9,0-.2,0-.4,0-.6-.1,0-.1.2-.2.3-.3,2.2,0,4.4,0,6.7,0,.5,0,1.2-.2,1.6.3h0Z"/>
      <path d="M83.6,219.4c0,.7,0,1.4,0,2-.4,0-.8,0-1.2,0,0-.7,0-1.3,0-2,.4,0,.8,0,1.2,0h0Z"/>
      <path d="M85,222.8h-4.5c1.5-.6,3-.6,4.5,0Z"/>
      <path d="M86.9,209.6h-2.6v-.2h2.6c0,0,0,.1,0,.2h0Z"/>
      <path d="M78.4,212.4h2.7c-.9.2-1.8.7-2.7,0h0Z"/>
      <path d="M82.5,211.8c0-.6,0-1.1,0-1.7.4.3.8.5,1.2,0,0,.3,0,.7,0,1-.6,0-.7.5-1.1.7Z"/>
      <path d="M67.7,221.3c.1-.2.2-.4.3-.6h.6c0,.2,0,.4.1.6,0,.1,0,.3,0,.4h0c-.4,0-.7,0-1.1,0,0-.1,0-.2,0-.4Z"/>
      <path d="M87.8,219.7c0-.1,0-.2,0-.3.2,0,.5,0,.5,0,0,.4-.2.4-.5.4h0Z"/>
      <path d="M87.7,210s0-.1,0-.1c0,0,0,0,0,.1h0Z"/>
      <path d="M60.8,198.3c5.6,0,11.2,0,16.9,0,.6,0,1.3-.4,1.7.3-5.2,0-10.3,0-15.5,0-.6,0-1.3-.3-1.8.3h-19.6v.7h30.3c0,.1,0,.2,0,.4h-27.7c1,.7,1.7,1.3,2.8,1,0,.2,0,.3,0,.5-.9-.3-1.8-.2-2.7-.8-.6-.4-1.5-.2-1.5,1.1,0,6.8,0,13.6,0,20.4h-.1c0,0-.1,0-.2,0,0-.1,0-.2,0-.4v-7.3c0-4.6,0-9.2,0-13.8,0-.1,0-.2,0-.4.2,0,.5-.1.8-.2-.5,0-1-.2-1.4,0,0,.2,0,.4,0,.5-.4,0-.5-.4-.8-.6-.6-.3-.6-.8-.5-1.3.1-.8.8-.5,1.2-.5,5.2,0,10.4,0,15.6,0s1.1,0,1.7,0h.7,0Z"/>
      <path d="M42.8,206.6c0-.9-.7-.8-1.4-.8-3.6,0-7.2,0-10.8,0,1.7-.6,3.4-.2,5.1-.2,2,0,4.1,0,6.2,0,.6,0,1.6-.2,1,1h0Z"/>
      <path d="M30.6,204.8c4,.3,8.1.3,12.1,0-.2.3-.6.4-.9.4h-10.3c-.4,0-.7,0-.9-.4h0Z"/>
      <path d="M78.4,204.9c3.9,0,7.8,0,11.7,0v.3c-3.5,0-7,0-10.5,0s-.9.2-1.3-.3h0Z"/>
      <path d="M42.7,200.8c0-.2,0-.4,0-.5.2,0,.4.1.6.1,0,.1,0,.2,0,.4-.9,1.3.3,2.9-.7,4.1,0-1.4,0-2.7,0-4.1h0Z"/>
      <path d="M90.1,205.6c0-.1,0-.3,0-.4.4.3.3.8.3,1.2-.1-.3-.2-.5-.3-.8h0Z"/>
      <path d="M42.7,221.4c0-.7,0-1.3,0-2-.5-.8-1.2-.3-1.8-.4-.6,0-1.2,0-2,0,.1-.2.2-.3.2-.3,1.1,0,2.4.1,3.4-.2,1.2-.5,0-2.1.9-2.9v6.2c-.3,0-.5-.1-.7-.4Z"/>
      <path d="M32.7,207.3h1.4c0,.5-.2,1-.8.9-.5,0-.6-.5-.6-.9Z"/>
      <path d="M50.7,222.9c-5.2,0-10.4.2-15.6,0,2.4,0,4.8,0,7.2-.1.5,0,1.2.4,1.3-.5h.1c.8,0,1.6,0,2.4,0,1.2.1,1.7-.2,1.5-1.5-.1-1.2,0-2.5,0-3.8.6,1.8,0,3.7.3,5.6.9-.7,2-.4,2.9-.4.4,0,.7,0,1.1,0,0,.1,0,.2,0,.3h-.8c-.3,0-.6.1-.7.4h0Z"/>
      <path d="M70.5,224c0,.8-.6.5-.9.5-6.1,0-12.2,0-18.3,0-.3,0-1,.2-1-.4s.6-.3.9-.3c6.4,0,12.8,0,19.1,0,0,0,0,.1.1.1h0Z"/>
      <path d="M68.7,222.7c.3,0,.5,0,.8,0,.2,0,.4,0,.6.1-.3.4-.8.6-1.3.6-5.8,0-11.5,0-17.3,0-.2,0-.4-.2-.6-.3.2-.2.3-.3.5-.5,5.8,0,11.5,0,17.2,0h0Z"/>
      <path d="M65,227.5c-.6.1-.8.2-1,.2-.5.1-1.4-.4-1.4.4,0,.6.8.1,1.3.4.7.3,1.4.7,1.4,1.6,0,.9-.8,1.4-1.7,1.5-.9.1-1.7,0-2.3-.8,0-.1,0-.4,0-.4,0,0,.3-.1.4,0,.2.1.3.3.5.4.6.4,1.2.4,1.8,0,.3-.2.4-.6.2-.9-.4-.7-1-.7-1.7-.5-.4.1-1,.6-1-.2,0-.7-.1-1.8.9-1.9.7-.1,1.5-.2,2.6.4h0Z"/>
      <path d="M68,229.1c.2-.6,1.3-.4.9-1.1-.5-.9-1.2.1-2,0,.3-.9.9-1.2,1.7-1.1.7.1,1.4.4,1.2,1.3,0,.3-.3.6,0,.9.7.8.5,1.5-.3,2-.9.6-1.9.5-2.7-.2-.2-.2-.4-.5-.2-.8.3-.3.5,0,.7.2,0,0,.1.2.2.3.7.4,1.4.4,1.8-.3.5-1.1-.8-.9-1.3-1.3h0Z"/>
      <path d="M56.8,231.7c.4-.8,1.5-1.6-.1-1.8-.8-.1-1.2-1-.8-1.8.5-1.1,1.5-1.3,2.6-1,.8.3,1.6.8,1.2,1.7-.5,1.2-1.3,2.2-2.9,2.8h0ZM59,228.6c-.1-.7-.6-.9-1.2-.9s-1.2.2-1.2.9c0,.7.6.9,1.2.9s1.1-.2,1.2-.9h0Z"/>
      <path d="M51,227.3c1.4-.5,2.3-.6,2.1,1.1,0,.6,0,1.2,0,1.9,0,.4.2,1.1-.4,1.1-.8,0-.5-.7-.5-1.2,0-.3,0-.7,0-1,0-.8.4-1.8-1.1-1.9h0Z"/>
      <path d="M51.5,222.7c-.2.2-.3.3-.5.5-.1-.1-.2-.2-.3-.3.1-.3.4-.4.7-.4,0,0,.1.2.1.3Z"/>
      <path d="M70.4,223.9c0,0,.1,0,.2-.1,0,0,0,.2,0,.3,0,0,0,0-.1-.1Z"/>
      <path d="M72.5,215.2c-.9.7-1.9.2-2.8.2h-.4c-.3,0-.6,0-1,0,0-.9-.4-1.8.3-2.6.7,0,1.3,0,2,0,.8,0,1.2-.1,1.2-1.1,0-.9-.3-1.2-1.2-1.1-.7,0-1.4,0-2,0-.6-1.2-.6-2.3,0-3.5.6,0,1.2,0,1.9,0,.8,0,1.4,0,1.4-1.1s-.4-1.3-1.3-1.2c-.7,0-1.4-.2-2,.2h-.6c0-.2,0-.4,0-.7,0-1.9,1-2.4,2.7-2.1.5,0,.9,0,1.1-.6.3,0,.6,0,.6-.4.1-.3.4-.4.7-.3,0,0,0,.2,0,.3-.5.4-.7,1-.7,1.7,0,4.1,0,8.1,0,12.2h0Z"/>
      <path d="M72.9,216.6c0-.4.2-.7.3-1.1.5,0,1.2.2,1.1-.7,0-.3,0-.7,0-1,0-.7,0-1.2,1-1.2.9,0,.8.5.8,1.1,0,.4-.1.8,0,1.2.4,1,0,1.2-.9,1-1-.3-1.5.6-2.3.7Z"/>
      <path d="M76.3,221.3c-.2,0-.2.1-.3.1-.7,0-2,.1-1.9-.1.2-1,0-2,.2-2.9.2-.5.7-.3,1.1-.3.6,0,.7.3.7.8,0,.8,0,1.7.3,2.4h0Z"/>
      <path d="M76.1,208.9c-.4.4.9,1.7-.7,1.4-.4,0-1.5.7-1.2-.5.2-.9-.9-2.5.9-2.7,1.7-.2.5,1.2,1,1.8h0Z"/>
      <path d="M76.1,203.4c-.2.6.8,1.8-.8,1.5-.4,0-1.4.5-1-.6.3-.9-.9-2.4.8-2.6,1.6-.3.7,1.1,1,1.7h0Z"/>
      <path d="M77.3,200.8c-.9-.2-1.8-.2-2.6.5,0,0,0-.2-.2-.2,0-.3.2-.7,0-1,1,0,2-.4,2.9.3,0,.1,0,.3-.1.4h0Z"/>
      <path d="M77.3,200.8c0-.1,0-.3.1-.4.2-.1.4-.2.6-.3,0,.2,0,.5,0,.8h0c-1,1.1.1,2.6-.7,3.7,0-1.2,0-2.5,0-3.7h0Z"/>
      <path d="M77.4,209.3c.4.6.4,1.1,0,1.7v-1.7Z"/>
      <path d="M77.4,215.6c.4.6.4,1.1,0,1.7v-1.7Z"/>
      <path d="M73.2,201.4c0-.1,0-.2,0-.3.5,0,.9,0,1.4,0,0,0,.1.1.2.2-.5.3-1,.1-1.5.1h0Z"/>
      <path d="M57.6,215.2c-.3.3-.6.3-1,.3-.2-.2-.3-.2-.5,0-.8,0-1.5,0-2.3,0-.1,0-.3-.1-.4-.2h0c.2-.8-.3-1.8.4-2.5.7,0,1.3,0,2,0,.8,0,1.2-.1,1.2-1.1s-.3-1.2-1.2-1.1c-.7,0-1.4,0-2,0-.6-1.2-.6-2.4,0-3.5,2.1,0,3.2-.6,3.3-2,.2,0,.3,0,.5,0,0,3.3,0,6.7,0,10h0Z"/>
      <path d="M58.6,215.4c-.1,0-.2,0-.3-.1.3-.8-.3-1.7.4-2.5.9,0,1.8,0,2.7.1.5,0,.8-.2.7-.7,0-.5.3-1.3-.3-1.4-.9-.2-2-.2-2.9,0-.8.2-.2,1.1-.4,1.6-.3-1.8-.6-3.5.1-5.2.6,0,1.3,0,1.9,0,.7,0,1.5.2,1.8-.8.3,1.5-.2,3.1.4,4.6v1.3c-.8.9.4,2.4-1,3.1h-2.7c-.2,0-.3,0-.4,0Z"/>
      <path d="M67.4,215.3c-.9.4-1.9.2-2.8.1-.3-.3-.7-.2-1.1-.2h0c0-.1-.1-.3-.2-.4,0-1.4,0-2.8,0-4.1.8-1-.3-2.4.7-3.4,0,3.2-.2,2.6,2.6,2.7.3,0,.6,0,.8,0,0,.3,0,.6-.4.7-.7,0-1.4,0-2.1,0-.8,0-1.1.1-1.1,1,0,.9.2,1.3,1.2,1.2.7,0,1.4,0,2.1,0,.7.7.2,1.7.4,2.5h0Z"/>
      <path d="M47.7,216.9c0-.5-1.5-1.2.2-1.4,0,.5.1,1,.4,1.4v4.6c.7-1.7-.3-3.3,1-4.3h2.7c1.3,1.2.3,2.8.8,4.1-.3,0-.5,0-.8,0,0-.1,0-.2.1-.3.4-.9.5-1.9,0-2.8-.9-.3-2-.6-2.6,0-.6.6-.5,1.8-.1,2.6.4.9,1.4.2,2.2.4.2,0,.3,0,.5,0v.3c-.4.1-.9-.1-1.1.4-1,0-2-.4-2.9.4-.3-1.9.3-3.8-.3-5.6Z"/>
      <path d="M48.3,204.9c0-1,0-2.1-.1-3.1.2,0,.5-.1.7-.2.2,0,.5,0,.8,0,1,.5,2.2-.3,3.1.5,0,4.4,0,8.7,0,13.1-.2,0-.3.1-.4.2.1-2.2.1-2.2-2-2.2-.5,0-1,.2-1.4-.3,2.1,0,3.2-.7,3.1-2.1.6-1.2.6-2.3,0-3.5.1-.8.2-1.6,0-2.3.6-.9,1.1-2-.2-2.4-2.2-.8-3.2,0-3.2,2.3,0,0-.2,0-.3,0h0Z"/>
      <path d="M49,212.8c.4.5.9.3,1.4.3q2.2,0,2,2.2c-1,0-2,0-3,0-.2-.1-.3-.1-.4,0-.3.1-.6.1-.7-.3,0-.1,0-.2,0-.3.5-.6.2-1.4.3-2.1h0s.2,0,.2,0h.2s0,0,0,0Z"/>
      <path d="M67.7,221.3c0,.1,0,.2,0,.4h-.7c0-.1,0-.3,0-.4,0-.7,0-1.4,0-2.1,0-.8-.2-1.1-1.1-1.2-1.4-.1-2.4.1-2.1,1.9,0,.4,0,.9,0,1.4,0,.1,0,.2,0,.4h-.7c0-.1,0-.3,0-.4.3-1.3-.6-2.9.8-4h3c1.4,1.1.4,2.7.8,4h0Z"/>
      <path d="M53.8,212.8c-.7.7-.2,1.7-.4,2.5-.1,0-.2,0-.3,0,0-4.4,0-8.8,0-13.1,0,0,.1,0,.2,0,.6,1-.3,2.2.5,3.2,0,.7,0,1.4,0,2-.6,1.2-.6,2.4,0,3.5,0,.7,0,1.4,0,2Z"/>
      <path d="M58.7,212.8c-.7.7-.2,1.7-.4,2.5-.1,0-.2,0-.3,0,0-4.4,0-8.8,0-13.1,0,0,.1,0,.2-.1.5,1-.3,2.2.5,3.2,0,.7,0,1.4,0,2-.7,1.7-.4,3.5-.1,5.2,0,.1,0,.2,0,.4h0Z"/>
      <path d="M59,217.3h2.8c.2.2.5.4.7.7-.4,1.1.5,2.4-.5,3.5,0-.6,0-1.2,0-1.9,0-.5.1-1-.5-1.3-1.5-.7-2.9.1-2.9,1.9,0,.4,0,.9,0,1.4-1-1-.2-2.4-.5-3.5.2-.2.5-.4.7-.6h0Z"/>
      <path d="M68.1,205.2h.6c0,.7,0,1.4,0,2.1-.6,1.2-.6,2.3,0,3.5,0,.7,0,1.4,0,2.1-.7.8-.2,1.8-.3,2.6-.1,0-.3-.2-.4-.3,0-3.3,0-6.7,0-10h0Z"/>
      <path d="M54.2,217.3c.8,0,1.7,0,2.5,0,1.4,1,.5,2.5.7,3.7-.2.1-.4.3-.5.4,0-.5,0-1,0-1.5,0-1.1,0-1.8-1.5-1.8-1.4,0-1.7.6-1.5,1.8,0,.4,0,.8,0,1.2-.2.1-.4.2-.5.4,0-.6,0-1.2.1-1.9,0-.8-.3-1.7.7-2.3Z"/>
      <path d="M67.6,207.3c0,2.6,0,5.3.1,7.9-.1,0-.2,0-.3,0-.2-.8.3-1.8-.4-2.5,0-.7,0-1.4,0-2.1.3-.1.4-.4.4-.7v-2.4c0-.1.2-.2.3-.4h0Z"/>
      <path d="M62.8,212.4c0,.9,0,1.8.1,2.8-.3.5-.7.4-1.1.3,1.4-.6.3-2.2,1-3.1h0Z"/>
      <path d="M63.5,215.3c.4,0,.8-.1,1.1.2-.4.1-.8.2-1.1-.2Z"/>
      <path d="M58.6,215.4c.2,0,.3,0,.4,0-.2,0-.3,0-.4,0Z"/>
      <path d="M63.1,215.2c0-.1,0-.2.1-.3,0,.1.1.3.2.4-.1,0-.2,0-.3,0Z"/>
      <path d="M49,215.5c.1-.2.2-.2.4,0-.1,0-.3,0-.4,0Z"/>
      <path d="M53.4,215.3c.1,0,.3.1.4.2-.1,0-.3-.1-.4-.2Z"/>
      <path d="M69.4,215.4h.4-.4Z"/>
      <path d="M56.2,215.5c.2-.2.3-.2.5,0h-.5Z"/>
      <path d="M78.4,200.7c0,1.4,0,2.7,0,4.1-.6-1.3-.1-2.8-.3-4.1h0s.2,0,.2,0c0,0,.2,0,.2,0Z"/>
      <path d="M63.2,221.7h.7c1.1.1,2.1.1,3.2,0h.7c.4,0,.7.1,1.1.2,0,0,0,.2,0,.3-5.5,0-11.1,0-16.6,0-.4,0-.7,0-1.1,0,.2-.5.7-.3,1.1-.4,3.7.1,7.4.2,11.1,0h0Z"/>
      <path d="M51.5,222.7c0-.1,0-.2-.1-.3h17.4c0,0,0,.2,0,.2-5.8,0-11.5,0-17.2,0h0Z"/>
      <path d="M68.7,222.5h-16.6c0-.1,0-.2,0-.3,5.5,0,11.1,0,16.6,0,0,.1,0,.2,0,.3h0Z"/>
      <path d="M78,200c-.2.1-.4.2-.6.3-.9-.7-1.9-.3-2.9-.3-.6,0-1.1,0-1.7,0,0-.1,0-.2,0-.4h5.8c0-.2,0-.4,0-.7h-16.5c.5-.6,1.2-.3,1.8-.3,5.2,0,10.3,0,15.5,0,0,.5.4,1-.3,1.4h-1Z"/>
      <path d="M60.8,198.3h-.7v-6.2c0-.4-.2-.9.4-.9.4,0,.3.5.3.9v6.2h0Z"/>
      <path d="M78,200h1c-.2.2-.4.5-.7.7h-.2s-.2,0-.2,0c0-.2,0-.5,0-.8h0Z"/>
      <path d="M62.1,199h16.5c0,.2,0,.4,0,.7h-36.1v-.7h19.6,0Z"/>
      <path d="M47.9,201c.3.2.7.4,1,.6-.2,0-.5.1-.7.2-.1,0-.2-.1-.3-.2,0-.2,0-.3,0-.5h0Z"/>
      <path d="M49.7,201.6c7,0,13.9,0,20.9,0,.6,0,1.3,0,1.9,0,0,.4-.4.4-.6.4-1.3,0-2.6-.4-3.9.3h-.3c-1.5-.6-3-.6-4.5,0-.1,0-.2,0-.3,0-1.5-.5-3.1-.4-4.6,0,0,0-.1,0-.2.1h-.3c-1.4-.5-2.9-.4-4.3,0,0,0-.1,0-.2,0h-.3c-.9-.8-2.1,0-3.1-.5h0Z"/>
      <path d="M68,202.1c1.2-.7,2.6-.2,3.9-.3-.1.6-.6.7-1.1.6-1.7-.3-2.7.2-2.7,2.1,0-.8,0-1.6,0-2.4h0Z"/>
      <path d="M52,207.2c.6,1.2.6,2.3,0,3.5h-3.1c-.7.6-.3,1.4-.4,2.1h0c-.1,0-.2,0-.3,0,0-2.6,0-5.3,0-7.9,0,0,.2,0,.3,0,0,0,.2.2.3.3-.3,1.6,0,2.6,2,2.2.4,0,.8,0,1.2,0h0Z"/>
      <path d="M44.6,215.7c.3-.7.3-1.5.2-2.3,0-.7.2-.9.9-.9.7,0,1,.2.9.9,0,.2,0,.5,0,.7.4,1.6-.2,2.3-2,1.6h0Z"/>
      <path d="M46.7,221.4h-2.3c.5-.8.4-1.6.4-2.4,0-.6,0-1,.8-1s1,.2,1,.9c0,.8,0,1.6.1,2.4Z"/>
      <path d="M45.8,210.6c-.4-.4-1.4.3-1.1-.6.4-.9-.8-2.6.9-2.7,2.1-.1.6,1.8,1,2.7.4,1-.7,0-.8.6Z"/>
      <path d="M46.6,203.7c.2.7.3,1.6-1,1.3-.5-.1-1.2.1-.8-.9.2-.4,0-.9,0-1.4,0-.6,0-1.1.8-1.1.8,0,1,.3.9,1,0,.3,0,.6,0,1h0Z"/>
      <path d="M48.3,212.8c.1,0,.2,0,.3,0-.1.7.2,1.4-.3,2.1,0-.7,0-1.4,0-2.1Z"/>
      <path d="M53.3,202c1.5-.3,2.9-.4,4.3,0,0,1,0,2.1,0,3.1-.2,0-.3,0-.5,0-1.1-.4-2.2-.4-3.3,0-.8-1,0-2.2-.5-3.2Z"/>
      <path d="M62.4,206.4h0c.1-.1.2-.2.3-.2v4.9c-.6-1.5,0-3.1-.4-4.6Z"/>
      <path d="M67.3,207.6v2.4c-.3,0-.6,0-.8,0-2.7,0-2.6.5-2.6-2.7h0c1-.1,2.1-.1,3.1-.1.1.1.2.2.3.4Z"/>
      <path d="M63.2,202.1c1.5-.6,3-.6,4.5,0,0,.9,0,1.9,0,2.8,0,0-.2,0-.3,0,0-2.6,0-2.5-2.5-2.5-1,0-1.3.3-1.3,1.3s.4,1.2,1.3,1.1c.9,0,1.7,0,2.6,0,0,.2-.2.5-.2.7-.9-.9-2.1-.6-3-.3-.7.2-.3,1.3-.2,2h0c-1,1.1.1,2.5-.7,3.5,0-2.9,0-5.8,0-8.6h0Z"/>
      <path d="M63.2,221.7c-3.7.2-7.4.1-11.1,0,0-.1,0-.2,0-.3h0c.3,0,.5,0,.8,0,.2,0,.3,0,.5,0,.2-.1.4-.2.5-.4.9.7,2,.2,3,.4.2-.1.4-.3.5-.4.4.5.6.3.7-.3,0-.9-.3-1.9.2-2.8.4,1.1-.5,2.4.5,3.5,1.1,0,2.1,0,3.2,0,1-1,.1-2.3.5-3.5.7,1-.3,2.4.6,3.4,0,.1,0,.3,0,.4h0Z"/>
      <path d="M52.2,221.1c0-.9,0-1.8,0-2.8.6.9.5,1.8,0,2.8Z"/>
      <path d="M48.6,204.8c0-2.3,1-3.1,3.2-2.3,1.3.5.8,1.6.2,2.4-1,0-2,.1-3.1.2,0,0-.2-.2-.3-.3Z"/>
      <path d="M49,210.7c0,.7,0,1.4,0,2.1h-.2s-.2,0-.2,0c.1-.7-.3-1.5.4-2.1Z"/>
      <path d="M63.9,221.4c1,0,2,0,3,0,0,.1,0,.3,0,.4-1.1.1-2.1.1-3.2,0,0-.1,0-.2,0-.4Z"/>
      <path d="M62.8,206.2c-.1,0-.2.1-.3.2-.5-1.6-1-1.8-3.8-1.2-.8-1,0-2.2-.5-3.2,1.5-.3,3.1-.4,4.6,0h-3.7c1,.4,2,.1,2.9.4,1.2.4,0,1.9.8,2.7v1h0Z"/>
      <path d="M62.7,205.2c-.7-.8.4-2.3-.8-2.7-.8-.3-1.9,0-2.9-.4h3.7c0,1.1,0,2.1,0,3.1h0Z"/>
      <path d="M67.1,205.6c0-.2.2-.5.2-.7h0c0,0,.2,0,.3,0v2.4c0,.1-.2.2-.3.4-.1-.1-.2-.2-.3-.4,0-.1,0-.2,0-.3,0,0,.1,0,.1-.1,0,0,0-.2-.1-.3v-1h0Z"/>
      <path d="M67.3,204.8c-.9,0-1.7,0-2.6,0-.8,0-1.3-.2-1.3-1.1s.3-1.3,1.3-1.3c2.5,0,2.5-.1,2.5,2.5h0Z"/>
      <path d="M67.1,206.9c0-.1,0-.2,0-.4,0,0,0,.2.1.3,0,0,0,0-.1.1Z"/>
    </g>
  </g>
</svg>