<?xml version="1.0" encoding="UTF-8"?>
<svg id="Layer_1" xmlns="http://www.w3.org/2000/svg" viewBox="0 0 400 400">
  <defs>
    <style>
      .cls-1 {
        fill: #282424;
      }

      .cls-2 {
        fill: #5d5d5f;
      }

      .cls-3 {
        fill: #626263;
      }

      .cls-4 {
        fill: #b72528;
      }
    </style>
  </defs>
  <path class="cls-1" d="M60.48,153.9c0,3.28.09,6.56-.02,9.83-.15,4.35-1.74,6.01-6.11,6.04-13.26.08-26.52.09-39.78-.01-4.27-.03-5.78-1.46-5.83-5.8-.14-11.71-.14-23.43.02-35.15.05-4.06,1.92-5.68,6.03-5.7,13.12-.06,26.24-.06,39.36,0,4.44.02,6.18,1.83,6.31,6.34.09,3.26.02,6.53.02,10.83,4.52-5.07,8.44-9.41,12.29-13.8,1.29-1.48,2.6-2.89,4.62-3.26,3.43-.62,6.11,2.09,6.17,6.49.1,7.44.03,14.89.03,22.33,0,3.72,0,7.44,0,11.17,0,2.63-.57,5.08-3.28,6.12-2.76,1.06-5.03.08-6.96-2.16-3.95-4.57-8.04-9.02-12.07-13.52-.27.09-.53.18-.8.28Z"/>
  <path class="cls-2" d="M165.16,260.31c0,5.38.04,10.76-.01,16.14-.04,4.72-1.53,6.31-6.13,6.34-10.37.06-20.74.06-31.1,0-4.76-.03-6.19-1.45-6.21-6.19-.05-10.76-.05-21.52,0-32.28.02-4.8,1.33-6.04,6.25-6.06,10.23-.04,20.46-.03,30.69,0,5.15.02,6.48,1.41,6.51,6.73.03,5.1,0,10.21,0,15.31ZM126.19,275.44c-.61-2.5.99-3,2.93-3.43,6.65-1.5,13.09-3.9,20.35-4.49-1.21-6.05-2.36-11.84-3.49-17.47h-20.47v25.4c-.13,1.08-.45,2.18.75,3.25h13.74c.88-2.42,3.55-3.83,5.16-6.92-3.81.98-6.95,2-10.18,2.55-2.9.49-5.67,2.35-8.8,1.1ZM152.1,261.29c1.64-1.88,1.87-4.14,2.73-6.13.81-1.87.75-5.05,4.55-2.95-.74,5.35-3.31,9.9-5.64,14.8.94,1.67,1.09,3.93,2.89,5.53,1.14-2.34-.49-5.04,1.4-6.6,1.29-.85,2.05.42,3.05.08v-16.2c-3.75.01-7.27-.3-10.92.23.1,3.93.68,7.55,1.95,11.23ZM125.57,246.01h19.93c.56-1.46.54-2.61-.31-3.6h-19.16c-.93,1.26-.69,2.33-.46,3.6ZM150.78,271.23c-1.47,2.72-4.13,4.48-5.27,7.35h15.36c.63-2.35.49-4.33-.09-6.31-.34.52-.44,1.04-.52,1.56-.28,1.71-.86,3.37-2.73,3.74-2.08.41-3.18-1.17-4.26-2.66-.79-1.08-.95-2.55-2.49-3.69ZM160.8,242.42c-1.85-.35-3.72-.59-5.8.19,1.61,2.47,3.1,4.31,6.08,3.42.64-1.24.39-2.38-.28-3.61Z"/>
  <path class="cls-4" d="M19.12,195.82h14.73c0-4.02-.07-7.86.02-11.69.1-4.17,1.72-5.86,5.29-5.78,3.31.08,4.91,1.8,4.93,5.72.06,11.72.06,23.44,0,35.15-.02,3.69-1.95,5.67-5.13,5.66-3.17-.01-5-1.96-5.09-5.71-.1-4.27-.02-8.54-.02-13.06h-14.72c0,3.88.01,7.95,0,12.02,0,1.37.09,2.72-.61,4.03-1.13,2.12-2.94,2.88-5.15,2.67-2.05-.2-3.7-1.23-4.24-3.36-.3-1.19-.43-2.45-.43-3.68-.03-10.89-.04-21.78,0-32.67.01-2.64.09-5.41,3.2-6.53,3.78-1.36,7.03.8,7.18,4.9.15,3.98.03,7.96.03,12.32Z"/>
  <path class="cls-4" d="M60.46,208.78c0,3.27.08,6.54-.02,9.8-.13,4.23-2.14,6.44-5.5,6.3-3.22-.13-5.04-2.23-5.06-6.3-.07-11.46-.08-22.91,0-34.37.03-4.04,1.92-5.91,5.37-5.86,3.3.05,4.98,1.76,5.16,5.66.16,3.38.03,6.77.03,10.15.27.1.53.2.8.3,3.35-3.76,6.69-7.52,10.04-11.27.92-1.03,1.82-2.08,2.82-3.04,2.28-2.19,5.3-2.43,7.46-.66,2.3,1.89,2.65,5.17.5,7.75-3.18,3.81-6.59,7.45-9.89,11.17-.82.93-1.61,1.88-2.7,3.15,3.64,4.1,7.28,8.19,10.89,12.3,3.69,4.2,4.07,7.22,1.28,9.65-2.85,2.48-5.66,1.72-9.41-2.52-3.65-4.13-7.31-8.25-10.97-12.37-.27.06-.54.12-.81.18Z"/>
  <path class="cls-2" d="M34.13,246.9h20.32c.91,2.98-.57,3.49-2.65,3.5-4.95,0-9.91,0-15.01.35,3.79,3.62,8.3,6.03,12.93,8.25,1.12.54,2.26,1.03,3.41,1.47,1.34.52,2.17,1.39,1.57,2.83-.52,1.23-1.6,1.3-2.79.82-.88-.36-1.8-.59-3.01-.98,0,4.69.05,9.19-.01,13.69-.06,4.3-1.38,5.81-5.68,5.88-8.01.14-16.02.13-24.03,0-3.73-.06-5.08-1.44-5.04-5.02.06-5.16-.58-10.35.57-15.53-2.37-.05-4.22,1.62-6.66,1.39-1.97-2.38-.32-3.22,1.74-3.87,5.43-1.73,10.49-4.18,15.09-7.54.42-.31.79-.67,2.03-1.73-5.49,0-10.06,0-14.64,0-.97,0-1.93,0-2.9,0-1.33-.03-2.66-.32-2.62-1.94.04-1.59,1.38-1.86,2.71-1.86,5.8,0,11.6,0,17.41-.01.68,0,1.35-.07,2.07-.11.94-1.33.73-2.59.21-4.13-4.81,0-9.62-.03-14.43.01-2.08.02-3.63-.33-2.9-2.97,1.38-1.15,2.94-.75,4.41-.77,10.08-.16,20.16-.4,30.16-1.83,1.52-.22,3.27-.66,3.62,1.51.35,2.21-1.41,2.28-2.97,2.43-4.51.42-9.02.86-13.56,1.29-.22,1.69-.72,3.16.66,4.89ZM17.75,270.07h27.5c-.06-1.81.82-3.53-.73-4.98h-26.35c-.98,1.72-.66,3.21-.43,4.98ZM18.01,278.68h26.64c.91-1.64,1.08-3.04.14-4.41h-27.1c-.14,1.53-.35,2.74.32,4.41ZM29.52,261.14v-8.04c-4.17,3.18-8.23,5.55-13.19,8.04h13.19ZM33.36,253.43v7.58h11.13c-3.9-2.66-7.38-5.03-11.13-7.58Z"/>
  <path class="cls-2" d="M256.25,258.04v-10.6h-2.26c-4.5-.25-8.99-.29-13.77.04-.15,2.9-.29,5.48-.42,8.05-.93.33-1.86.63-2.83-.32-.08-.21-.34-.58-.35-.96-.21-12.03-.4-10.28,9.99-10.46,3.17-.05,6.46.67,9.53-.56-.23-1.83-1.35-1.6-2.25-1.61-3.73-.03-7.45,0-11.18-.03-1.34-.01-2.86.32-3.55-1.5.16-1.79,1.51-1.92,2.96-1.92,10.9,0,21.8,0,32.7,0,1.27,0,2.53,0,3.2,2-2.33,2.72-5.67,1.14-8.52,1.38-3.13.26-6.29.06-9.35.06-.55,2.53,1.03,2.2,2.18,2.21,4.55.04,9.11-.02,13.66.03,4.66.05,5.96,1.82,4.57,6.24-.45,1.43-1.06,2.83-1.75,4.17-.83,1.59-2.05,1.66-3.38.52-.45-2.56,2.22-4.41,1.62-7.19h-17.1v9.65c-.42,1.7.67,1.76,1.87,1.75,3.32-.01,6.64-.06,9.96.02,3.91.09,4.58.78,4.64,4.6.05,2.9.05,5.8,0,8.69-.06,3.8-.76,4.55-4.64,4.64-3.97.1-7.94.02-11.82.02-.39,2.84,1.32,2.98,2.82,3.01,3.73.08,7.47,0,11.2,0,2.68,0,4.08-1.25,4.16-4,.04-1.34.02-2.8,1.29-3.72,1.14-.28,1.92.04,2.35,1.14,1.62,4.17-1.38,9.83-5.75,10.11-5.09.33-10.23.25-15.34-.01-3.24-.17-3.92-1.28-5.47-6.53-3.9,0-7.89.07-11.88-.02-4.24-.09-4.99-.9-5.04-5.2-.04-2.9.02-5.8-.01-8.69-.03-2.76,1.36-4.04,4.07-4.06,4.42-.04,8.84-.1,13.27-.15.62.06.8-.23.62-.79ZM255.33,262.69h-12.87c-.39,1.3-.83,2.41.05,3.43h13.16c.12-1.18.34-2.13-.34-3.43ZM259.89,266.16h12.83c.4-1.24.55-2.26-.37-3.41h-12.25c-.53,1.19-.41,2.13-.21,3.41ZM255.35,269.91h-13.02c-.1,1.18-.47,2.16.51,2.96h12.56c.42-1.13.57-2.02-.05-2.96ZM272.59,269.81h-12.46c-.52,1.15-.6,2.12.05,2.96h12.56c.24-1.12.39-1.91-.15-2.96Z"/>
  <path class="cls-2" d="M72.24,255.61c.72-.87-.35-2.25,1.46-3.32,2.11-.82,5.11.4,7.89-.52.76-1.49.45-2.98.25-4.64-2.72-.9-5.28-1.01-7.63,1.74-3.31-2.55-5.78-5.6-7.89-8.93-.61-.96.2-1.8,1.43-2.27,2.95.81,3.93,3.9,6.34,5.94,2.22-1.02,4.85-.22,7.33-.72,1.32-1.55-.08-3.67,1.23-5.12q2.74.04,3.23,4.97c2.64.68,5.37.24,8.07.28,1.3-1.66.15-3.62.94-5.29.89-.84,1.87-.9,2.93-.06.78,1.49.17,3.25.7,4.9,2.97,1.57,6.61-.84,9.36,1.52.5.43.23,1.3-.24,2.1-2.74,1.19-5.9-.13-8.86.81-.86,1.59-.46,3.15-.31,4.76,3.03.67,5.8.23,8.53.36,1.17.06,2.37.22,2.44,1.64.09,1.72-1.23,1.9-2.56,1.91-2.59,0-5.18,0-8.32,0,2.2,4.18,5.48,6.31,9.04,8.03,2.21,1.07,3,2.19,1.28,4.15-2.47.2-3.88-1.84-5.92-2.05-.18.27-.46.5-.44.71.46,6.14-.85,7.07-7.66,6.95-4.12-.08-8.24-.01-12.25-.01-.9,1.8-.74,3.22.23,5.26,6.17,0,12.62.18,19.05-.09,2.37-.1,2.67-2.46,2.7-4.48.03-1.95.52-3.31,2.89-2.65,2.34,5.97-.48,10.79-6.61,11-5.66.19-11.34.16-17.01,0-4.29-.13-5.56-1.56-5.68-5.92-.1-3.44-.02-6.89-.02-10.66-1.41.28-2.63.52-3.94.78-1.89,6.11-3.56,12.35-8.42,16.75-1.81-.35-2.58-1.44-1.86-2.46,3.96-5.61,5.88-12.01,7.17-18.08,1.67-1.29,2.55-.12,3.7.07,2.47-1.85,4.74-3.95,6.81-7.42h-9.43l.07.06ZM82.24,269.43h16.56c-.19-1.86.33-3.47-.52-5.19h-15.86c-.68,1.85-.57,3.44-.18,5.19ZM82.95,260.14h13.71c-.98-1.49-1.92-2.93-2.83-4.32-2.64-.26-5.08-.28-7.66.01-.96,1.28-1.93,2.58-3.22,4.31ZM94.44,251.96c.11-1.98.6-3.6-.43-5.27-2.69-.11-5.38-.28-8.06.12-.55,1.83-.62,3.39.05,5.15h8.44Z"/>
  <path class="cls-2" d="M158.8,196.61c7.33-5.73,12.68-5.32,18.9,1.34.98-.86,1.9-1.82,2.96-2.6,4.27-3.14,8.86-3.55,13.68-1.37,4.48,2.03,6.79,5.61,6.91,10.42.16,6.62.07,13.24.05,19.87,0,.96-.16,1.93-.88,2.75-.97.68-2,.67-3.05.09-1.06-.97-.94-2.27-.94-3.49-.04-5.93.06-11.87-.06-17.8-.07-3.39-.67-6.65-4.36-8.21-5.66-2.39-11.61,1.14-11.92,7.35-.27,5.37-.1,10.76-.12,16.14,0,1.1.04,2.21-.03,3.31-.09,1.61-.46,3.1-2.53,3.08-2.11-.02-2.35-1.51-2.35-3.15,0-4.83,0-9.66,0-14.49,0-1.38.03-2.76-.03-4.14-.25-5.84-3.15-8.97-8.16-8.84-4.77.12-8.22,3.78-8.31,9-.09,5.38-.02,10.76-.02,16.14,0,.83.01,1.66-.02,2.48-.07,1.67-.55,3.04-2.59,2.99-1.79-.05-2.35-1.27-2.35-2.79-.03-9.66-.02-19.32-.01-28.98,0-1.53.56-2.88,2.21-3,2.53-.19,2.6,1.94,3.03,3.89Z"/>
  <path class="cls-2" d="M224.12,264.51c1,.64.95,1.52.61,2.79-4.7,1.13-9.57-.07-14.66.79,0,3.64.04,7.2-.01,10.75-.06,4.02-1.33,5.27-5.31,4.92-2.54-.22-5.24-.36-7.31-2.97,2.53-4.13,5.76.57,8.74-.95.39-3.67.2-7.59.06-11.61-4.5-1.14-8.96.27-13.32-.96-2.22,3.59-5.41,4.51-9.26,3.31-1.44,4.57,1.14,9.6-1.64,13.86-2.57-.46-2.43-2.1-2.43-3.59-.01-12.41-.05-24.81.02-37.22.02-4.18,1.31-5.32,5.52-5.42,1.1-.03,2.21-.07,3.31.01,3.42.24,4.67,1.88,3.97,5.22-.32,1.55-1.39,2.99-.72,4.69l.09-.04c-1.32.05-.76,1.07-.9,1.73l.06-.09c-4.5,5.71,2.28,9.63,1.99,14.78h31.19ZM188.6,266.9c1.49-3.44-.04-6.01-1.57-8.39-1.57-2.44-1.59-4.77-.86-7.44.82-2.97,2.34-5.81,2.14-9.27-1.62-.09-3.07-.48-4.78.31v25.36c1.66-.19,3.24-.37,5.08-.58Z"/>
  <path class="cls-2" d="M377.36,195.86c.22-2.44.19-5.22,3.86-3.89,1.23,1.16,1.07,2.72,1.07,4.21.02,8.53.01,17.06,0,25.59,0,.82-.05,1.65-.17,2.46-.17,1.19-.78,2.12-2.06,2.22-1.47.11-2.27-.7-2.51-2.14-.1-.61.21-1.35-.73-1.97-2.74,2.84-6.11,4.41-10.2,4.2-6.84-.34-12.12-4.73-13.79-11.6-1.17-4.8-1.01-9.58.88-14.17,3.94-9.55,14.22-12.11,22.3-5.63.3.24.68.37,1.35.72ZM357.5,208.83c0,3.2.36,6.33,2.07,9.14,1.87,3.06,4.52,4.68,8.22,4.54,3.53-.13,6.11-1.74,7.6-4.83,2.87-5.95,3.01-12.04-.27-17.82-3.48-6.12-11.57-6.07-15.33-.12-1.76,2.78-2.29,5.86-2.29,9.08Z"/>
  <path class="cls-2" d="M378.21,138.93c.27-1.1.38-1.93.67-2.68.37-.94,1.02-1.66,2.18-1.58,1.34.09,1.86,1.05,2.16,2.16.14.52.13,1.09.14,1.64,0,9.1.01,18.21,0,27.31,0,2.56-.63,4.46-3.66,3.48-1.18-1.1-1-2.45-1.48-3.86-4.67,4.86-10.17,5.47-15.87,2.69-5.86-2.86-7.69-8.33-7.99-14.41-.12-2.47.1-4.91.63-7.38,2.14-9.88,13.77-16.29,23.22-7.37ZM378.5,152.02c.16-2.96-.36-5.92-1.82-8.64-3.39-6.31-11.51-6.65-15.03-.42-3.4,6.03-3.38,12.45,0,18.5,3.32,5.93,11.46,5.72,14.83-.2,1.6-2.81,2.19-5.9,2.01-9.24Z"/>
  <path class="cls-2" d="M176.1,160.29c3.1,1.61,2.21,3.34.58,5-5.52,5.63-20.49,7.42-25.54-4.34-2.27-5.28-2.45-10.68-.49-16.1,2.52-6.96,8.07-10.76,14.79-10.2,6.49.54,11.69,5.55,12.91,12.59.33,1.88.53,3.82-.29,6.53-7.51,1.37-15.49-.02-23.31.75.28,6,3.34,9.97,8.15,11.04,5.62,1.25,9.21-2.68,13.2-5.26ZM173.22,150.2c.24-6.66-3.56-11.46-9-11.54-5.61-.09-9.49,4.61-9.44,11.54h18.44Z"/>
  <path class="cls-2" d="M255.44,138.89c.32-1.11.51-1.9.79-2.67.36-1,1.05-1.65,2.17-1.54,1.29.13,1.93,1.05,2.09,2.21.15,1.08.1,2.2.11,3.3,0,8.54-.01,17.07.01,25.61,0,2.65-.72,4.34-3.62,3.5-1.15-1.16-.94-2.54-1.61-3.86-4.05,4.42-8.98,5.1-14.33,3.27-5.58-1.91-7.97-6.45-9.08-11.83-.7-3.41-.45-6.78.23-10.22,2-10.13,13.71-16.72,23.24-7.77ZM255.79,152.18c.02-2.92-.32-5.75-1.65-8.41-1.53-3.06-3.77-4.98-7.35-5.14-3.73-.17-6.45,1.45-8.08,4.65-3.01,5.9-2.96,11.92-.05,17.84,1.53,3.11,4.27,4.72,7.69,4.68,3.42-.04,5.98-1.77,7.61-4.84,1.46-2.76,1.87-5.72,1.83-8.78Z"/>
  <path class="cls-2" d="M247.78,210.94c.31,5.1,2.17,8.64,6.21,10.6,4.06,1.96,8.06,1.18,11.72-1.33.91-.62,1.75-1.34,2.62-2.01,1.08-.84,2.29-1.26,3.34-.18,1.24,1.29.47,2.57-.5,3.64-1.91,2.11-4.39,3.35-7.08,4.06-6.4,1.68-12.54,1.22-17.13-4.01-5.19-5.91-5.81-12.89-3.13-20.12,2.85-7.68,9.48-11.31,17.41-9.75,6.52,1.29,11.83,8.48,11.64,15.7-.06,2.41-1.16,3.46-3.58,3.43-5.52-.06-11.04-.02-16.56-.01-1.5,0-3.01,0-4.98,0ZM267.15,207.14c.14-6.94-4.12-12.01-9.67-11.89-5.63.13-9.92,5.62-9.14,11.89h18.81Z"/>
  <path class="cls-2" d="M365.11,268.98c2.24,3.14,4.47,6.29,6.71,9.42,1.23,1.72,1.17,3.03-1.12,3.69-2.18-.77-2.62-3.17-4.64-4.65-5.63,2.1-11.5,4.29-17.37,6.48-2.92-3.21.57-3.72,1.8-5.05,0-7.66-.03-15.24.01-22.83.02-4.56.76-5.15,5.27-5.42,2.06-.12,4.34.98,6.17-.88h.38s.38.02.38.02c1.22,1.72,3.02.74,4.53.9,2.64.27,4.06,1.36,3.91,4.19-.2,3.83.28,7.69-.28,11.31-1.65,1.92-3.84,1-5.6,1.68-.29-.02-.58-.04-.87-.05l-.86-.16c-3.01-.14-6.03-.43-9.15.22-.41,3.21-.49,6.31.08,9.59,3.37-.65,6.3-1.91,9.25-3.37-1.04-2.39-3.77-4.48-.18-6.52.3.06.59.11.89.17-.24.68.11,1.03.68,1.26ZM354.35,257.54h13.01c.11-.65.23-1.06.22-1.46-.02-.38-.18-.75-.27-1.07-8.19-1.53-12.68-.74-12.95,2.53ZM367.33,263.72c.27-1.17.51-1.97-.32-2.75h-12.35c-.59,1-.64,1.77-.1,2.75h12.77Z"/>
  <path class="cls-2" d="M304.12,169.57c-6.22-.05-10.48-3.09-12.76-8.73-2.2-5.43-2.31-10.99-.19-16.52,2.42-6.29,7.21-9.74,13.46-9.69,6.18.05,11.08,3.68,13.29,9.95,1.75,4.96,1.78,9.98.14,14.99-2.21,6.74-6.92,10.1-13.93,10ZM314.17,152.13c-.19-3.17-.49-6.32-2.16-9.14-3.53-5.95-11.53-6.11-14.91-.07-3.4,6.07-3.4,12.5.05,18.54,3.44,6.03,11.36,5.81,14.89-.17,1.67-2.83,1.96-5.98,2.14-9.15Z"/>
  <path class="cls-2" d="M106.18,227.05v-45.02c4.62-1.17,9.04-.4,13.4-.59,1.93-.08,3.87-.04,5.8.07,1.29.07,2.54.42,2.53,2.1,0,1.65-1.26,2.09-2.53,2.14-2.9.12-5.8.02-8.71.08-1.77.04-3.58-.27-5.63.36v16.15c3.3,0,6.31,0,9.32,0,1.11,0,2.21,0,3.32.03,1.36.04,2.53.44,2.54,2.07,0,1.61-1.2,2.15-2.5,2.17-4.13.08-8.26.03-12.68.03-.6,5.88-.16,11.48-.3,17.06-.06,2.5-.48,4.55-4.56,3.36Z"/>
  <path class="cls-2" d="M206.11,138.67c3.86-3.9,8.14-5,13.08-3.28,4.94,1.72,7.81,5.55,7.98,11.39.18,6.34.08,12.7.03,19.05-.01,1.62.04,3.64-2.33,3.64-2.67,0-2.41-2.15-2.42-3.93-.03-5.94.03-11.87-.02-17.81-.05-5.69-2.98-8.83-8.11-8.84-4.9,0-8.34,3.48-8.45,8.78-.11,5.52-.03,11.04-.04,16.56,0,.97.04,1.94-.06,2.89-.15,1.35-.74,2.36-2.32,2.38-1.64.03-2.22-1.1-2.29-2.39-.15-2.61-.1-5.24-.11-7.86-.01-6.35,0-12.7,0-19.05,0-1.1-.02-2.22.16-3.3.19-1.12.7-2.13,2.06-2.25,1.35-.11,2,.77,2.4,1.86.21.58.26,1.23.43,2.13Z"/>
  <path class="cls-2" d="M349.7,169.02c-4.03,1.1-4.47-.73-4.46-3.12.02-6.34.13-12.69-.05-19.03-.18-6.39-6.49-9.98-12.15-7.01-3.1,1.62-4.45,4.37-4.44,7.83.02,5.52,0,11.03-.01,16.55,0,1.1.04,2.22-.16,3.3-.21,1.14-.86,1.99-2.25,1.99-1.38,0-2.23-.86-2.24-1.97-.09-10.2-.09-20.4-.04-30.6,0-1.12.73-2.11,2.03-2.27,1.35-.17,2.01.71,2.43,1.81.23.6.36,1.24.58,2.05,4.2-4.2,8.92-4.97,14.16-2.68,2.94,1.28,5.35,3.45,5.95,6.5,1.72,8.83.78,17.74.64,26.66Z"/>
  <path class="cls-2" d="M111.55,138.79c2.52-2.42,4.94-3.91,7.99-4.14,7.13-.55,12.9,4.43,13.17,11.8.24,6.48.09,12.97.06,19.45,0,1.67-.03,3.58-2.39,3.57-2.37,0-2.37-1.97-2.38-3.6-.06-6.07.02-12.14-.04-18.21-.06-5.57-2.71-8.51-7.72-8.76-4.81-.23-8.66,3.2-8.85,8.42-.23,6.2-.02,12.42-.1,18.62-.04,3.25-.17,3.29-3.53,3.25-1.07-.91-1.05-2.2-1.05-3.42-.03-8.97-.02-17.94-.02-26.91,0-.14,0-.28.02-.41.18-1.61-.03-3.66,2.3-3.73,2.35-.07,2.16,2.04,2.55,4.07Z"/>
  <path class="cls-2" d="M276.41,217.8c1.87.28,3.03,1.77,4.5,2.75,3.35,2.24,6.9,2.73,10.59,1.03,2-.93,3.24-2.48,3.24-4.85,0-2.26-1.25-3.6-3.15-4.41-3.29-1.41-6.64-2.69-9.94-4.08-4.63-1.95-6.38-4.36-6.13-8.28.23-3.57,2.78-6.65,6.98-7.79,4.83-1.31,9.59-.71,14.06,1.58,1.69.86,3.31,2.2,2.11,4.22-1.15,1.93-2.88.87-4.3-.07-3.11-2.08-6.36-3.33-10.13-1.94-1.94.72-3.46,1.92-3.54,4.11-.07,2.03,1.29,3.3,3.04,4.04,3.3,1.4,6.69,2.57,9.94,4.07,4.81,2.21,6.7,5.08,6.33,9.14-.36,4.07-3.24,7.2-7.93,8.48-5.81,1.58-11.26.81-16.03-2.98-2.41-1.92-2.24-2.89.34-5Z"/>
  <path class="cls-2" d="M225.04,184.43v16.31c3.84.64,7.68.14,11.48.31,2.14.09,3.95.48,3.09,3.73-4.62,1.14-9.47.02-14.47.71-.57,5.23-.09,10.43-.28,15.6-.08,2.08.7,5.16-2.43,5.22-3.24.06-2.46-3.06-2.47-5.12-.05-12.14-.04-24.27-.02-36.41,0-4.07.47-4.53,4.5-4.57,4.28-.04,8.57-.04,12.85,0,1.72.02,4.11-.49,4.22,2.06.12,2.76-2.36,2.09-4.02,2.12-3.99.07-7.99.02-12.46.02Z"/>
  <path class="cls-2" d="M317.82,252.04c-.81,2.78-3.13,2.6-5.33,2.79-1.28.11-3.23-.73-3.19,2.05,3.26.86,6.54.24,9.77.44,2.37.14,2.37.15,2.7,2.98h-29.32c-.87-2.52.55-2.97,2.44-2.98,3.42-.02,6.85,0,10.16,0,.63-1.63.48-2.5-1.13-2.52-1.38-.02-2.76.02-4.14-.05-2.02-.1-3.51-1.19-3.91-3.1-.65-3.11-.69-6.31.01-9.41.53-2.33,2.51-3.15,4.77-3.17,3.86-.04,7.73-.05,11.59,0,4.84.05,6.09,1.28,6.19,6.13.03,1.36.28,2.76-.37,4.06-.08.93-.16,1.86-.25,2.79ZM299.11,248.55c-.13,2.07.57,2.87,2.07,2.88,3.83.02,7.67.04,11.5-.01,1.82-.03,2.35-1.02,1.67-2.87h-15.24ZM314.83,245.31c-1.39-3.18-3.55-3.57-12.7-2.95-1.83.12-3.28.41-2.97,2.95h15.67Z"/>
  <path class="cls-2" d="M388.23,276.22v-21.71c-3.49-.55-6.74-.44-10.14-.08-.88,3.2-.35,6.36-.4,9.48-.1,5.65-.04,11.29-.03,16.94,0,2.07-.42,3.62-3.04,2.75-1.06-1.56-.69-3.25-.7-4.86-.04-7.57-.05-15.15,0-22.72.03-4.72.62-5.29,5.21-5.36,2.9-.04,5.8.04,8.69-.01,3.14-.05,4.54,1.54,4.54,4.55,0,6.34.09,12.67-.01,19.01-.08,4.97-2.08,6.73-7.02,6.26-2.58-.24-5.19-.67-6.88-3.52,3.04-3.68,6.37,1.77,9.76-.72Z"/>
  <path class="cls-2" d="M339.04,218.3c2.9-8.41,5.47-15.95,8.1-23.47.7-2,1.48-4.08,4.4-2.83,1.31,1.55.49,3.09-.06,4.62-3.15,8.81-6.32,17.61-9.44,26.42-.56,1.59-1.01,3.39-3.05,3.4-2.05.02-2.52-1.75-3.09-3.36-3.22-9.07-6.5-18.12-9.74-27.19-.55-1.55-1.4-3.37.93-4.12,2.09-.68,2.87.86,3.46,2.58,2.37,6.89,4.8,13.77,7.21,20.64.27.76.59,1.51,1.29,3.3Z"/>
  <path class="cls-2" d="M305.75,196.24c-2.12-.68-4.33.17-5.08-2.29.31-3.06,3.17-1.72,5.16-2.57,0-2.77-.07-5.51.03-8.23.05-1.41.44-2.87,2.27-2.92,2.07-.06,2.46,1.44,2.48,3.08.03,2.62,0,5.24,0,7.72,1.53,1.57,4.98-.4,5.06,2.69.08,2.92-2.9,1.7-4.79,2.57-.56,4.18-.15,8.55-.23,12.89-.08,4.55-.01,9.1-.03,13.66,0,1.71-.09,3.62-2.37,3.62-2.25,0-2.45-1.95-2.46-3.62-.06-8-.04-16-.04-24,0-.81,0-1.62,0-2.59Z"/>
  <path class="cls-2" d="M362.69,249.76l-.38-.03h-.38c-2.43-.98-1.75-3.84-3.38-5.47-5.31-1.92-5.46,6.63-10.47,5.6-.34-3.35,7.04-12.81,10.07-13.2,1.13.98.08,2.39.73,3.57,4.52.84,9.26-.66,13.6.99,2.24-1.22,2.02-5.2,5.36-4.76,1.72,1.08.51,2.45.94,3.86,4.98.49,10.17-.32,15.29.49q-.67,2.85-10.14,3.35c-.5,1.76,3.11,4.36-.84,5.49-1.31-.46-1.78-1.45-2.29-2.44-.5-.98-1.06-1.92-1.57-2.84-2.46-.91-4.32-.32-5.72,1.85-.44.68-1.07,1.25-1.64,1.85-.72.75-1.59,1.23-2.57.6-1.17-.76-1.02-1.82-.35-2.87.29-.45.57-.9,1.02-1.61h-6.65c-.84,1.82,2.87,4.08-.63,5.57Z"/>
  <path class="cls-2" d="M139.45,139.27c-1.96-.84-4.68.49-4.79-2.16-.13-2.98,2.92-1.63,4.8-2.71,0-2.33,0-4.91,0-7.5,0-1.7.08-3.68,2.24-3.77,2.51-.1,2.52,2.09,2.57,3.88.08,2.46.02,4.92.02,7.21,1.63,1.35,4.76-.04,4.77,2.72.02,2.73-2.65,1.59-4.5,2.16-.6,3.37-.2,6.93-.25,10.45-.07,5.23.03,10.45-.05,15.68-.03,1.84.34,4.32-2.56,4.21-2.57-.1-2.23-2.38-2.23-4.11-.04-8.65-.02-17.3-.02-26.07Z"/>
  <path class="cls-2" d="M273.03,139.29c0,8.42.05,16.79-.04,25.16-.02,1.99.88,5.11-2.57,4.94-2.89-.14-2.22-2.98-2.23-4.91-.06-8.37-.02-16.74-.02-24.96-1.59-1.37-4.75.39-4.78-2.5-.02-2.85,3.05-1.51,4.8-2.72,0-2.53-.06-5.27.02-8,.05-1.56.41-3.23,2.41-3.2,1.98.02,2.34,1.66,2.37,3.24.06,2.74.02,5.47.02,8.01,1.76,1.16,4.83-.19,4.79,2.67-.04,2.71-2.76,1.42-4.79,2.26Z"/>
  <path class="cls-2" d="M191.69,248.12c1.76-.69,1.84-2.52,2.48-3.89,2.72-5.82,8.87-7.41,14.11-3.55.3,5.92-2.2,11.04-5.27,16.57h13.65l-.06-.08c.29,1.27.5,2.89-1.19,2.92-4.81.07-9.76,1.41-14.39-1.07q-5.63,4.45-7.61,1.97c1.01-2.19,3.84-2.66,4.85-5.05-1.1-1.17-2.21-2.36-3.36-3.57-2.76,1.14-4.39.7-3.98-2.64,0,0-.06.09-.06.09.8-.32,1.11-.89.9-1.73l-.09.04ZM200.46,253.16c1.28-.94,1.79-1.81,1.67-3.16-1.69-.81-3.07-2.41-5.78-2.55.63,2.84,2.64,3.95,4.11,5.71ZM198.67,243.18c1.29,2,2.94,3.02,5.37,3.18.01-1.39.71-2.53,0-3.93-1.73-.18-3.56-.77-5.37.75Z"/>
  <path class="cls-2" d="M146.54,227.12c-2.95,1.07-4.08-.23-4.08-2.84-.02-13.24-.02-26.47,0-39.71,0-1.63.43-3.24,2.37-3.26,2.18-.02,2.57,1.75,2.58,3.51.03,6.2.02,12.41.02,18.61,0,6.2,0,12.41,0,18.61,0,1.64.19,3.32-.89,5.07Z"/>
  <path class="cls-2" d="M299.62,272.16c-3.46-.64-4.38-2.99-3.96-6.09.46-3.43,3.04-3.84,5.83-3.85,4,0,7.99,0,11.99,0,2.77,0,5.33.28,5.85,3.77.49,3.28-.7,4.92-4.47,6.03-.55.16-1.05.26-1.12.94-.29,0-.58,0-.87-.01-.26-.26-.5-.7-.8-.75-.65-.12-1.34-.04-2.65-.04,0,2.73.14,5.41-.04,8.07-.15,2.16-1.06,4.2-3.59,4.24-2.37.03-5.4,1.25-6.53-2.36,1.28-2.91,4.2-.1,6.14-1.91.63-2.41.31-5.08.19-8.02h-5.96ZM314.99,265.77h-15.19c-.97,2.72.52,3.03,2.4,3.02,3.97-.02,7.94-.02,11.91-.06.38,0,.75-.25,1.07-.36.42-.86.47-1.63-.18-2.6Z"/>
  <path class="cls-2" d="M187.74,139.51c5.83-5.91,8.39-6.38,10.57-2.1-.58,1.68-2.11,1.89-3.55,2.4-4.88,1.69-7.05,4.68-7.14,9.89-.09,5.5.05,11-.05,16.5-.06,3-.43,3.18-3.78,2.9-1.13-1.23-.95-2.78-.95-4.28,0-8.39,0-16.78,0-25.16,0-.69-.04-1.38.05-2.06.19-1.41.51-2.88,2.3-2.9,1.73-.02,2.27,1.27,2.4,2.77.05.61.09,1.23.14,2.04Z"/>
  <path class="cls-2" d="M394.26,146.67c0,6.33,0,12.67,0,19,0,1.8.17,3.92-2.51,3.81-2.35-.1-2.22-2.14-2.23-3.73-.04-12.8-.04-25.61-.01-38.41,0-1.81.08-3.99,2.58-3.87,2.14.11,2.19,2.06,2.18,3.79-.02,6.47,0,12.94,0,19.41Z"/>
  <path class="cls-2" d="M388.34,203.09c0-6.33,0-12.66,0-18.98,0-1.81-.1-3.94,2.51-3.83,2.2.09,2.33,2.05,2.34,3.72.03,12.93.03,25.86,0,38.79,0,1.7-.25,3.63-2.43,3.64-2.55,0-2.42-2.13-2.42-3.94,0-6.47,0-12.93,0-19.4Z"/>
  <path class="cls-2" d="M99.25,169.1c-2.4.84-3.78.2-3.79-2.24-.04-13.62-.02-27.23-.02-40.85,0-1.54.53-2.86,2.23-2.88,1.79-.03,2.2,1.41,2.2,2.89-.02,13.89-.06,27.77-.12,41.66,0,.38-.26.76-.49,1.42Z"/>
  <path class="cls-2" d="M318.95,192c2.76-1,4.01-.05,4,2.76-.01,9.5,0,19.01,0,28.51,0,1.67-.39,3.14-2.37,3.18-1.76.03-2.38-1.39-2.38-2.82-.05-9.92-.02-19.83.04-29.75,0-.63.47-1.27.71-1.88Z"/>
  <path class="cls-2" d="M280.57,152.01c0-4.53,0-9.06,0-13.59,0-1.71.15-3.6,2.33-3.69,2.24-.09,2.47,1.81,2.47,3.52.03,9.2.03,18.4,0,27.6,0,1.64.03,3.6-2.31,3.63-2.62.03-2.47-2.1-2.48-3.87-.04-4.53-.01-9.06-.01-13.59Z"/>
  <path class="cls-2" d="M136.17,210.19c0,4.55.02,9.09,0,13.64,0,1.67.1,3.53-2.29,3.65-2.33.12-2.65-1.6-2.65-3.35-.03-9.37-.02-18.74,0-28.11,0-1.62.46-3.21,2.37-3.29,2.23-.09,2.59,1.59,2.58,3.41-.01,4.68,0,9.37,0,14.05Z"/>
  <path class="cls-2" d="M224.12,263.21c-2.31.34-3.25-1.52-4.52-2.83-1.02-1.05-2-2.14-2.99-3.22l.06.08c-3.01-5.36-6.6-10.44-7.86-16.62,4.15-1.74,8.52-2.07,12.81-1.14,2.51.54,2.15,2.91,1.35,4.79-1.2,2.81-3.29,5.06-5.11,7.56,1.34,2.96,3.68,5.13,5.69,7.56.97,1.18,2.27,2.26.58,3.82ZM213.34,242.29c-.3-.33-.42-.34-.31-.04.01.03.23-.02.36-.03-.5,2.54,1.12,4.2,2.33,6.39,1.92-1.91,3.36-3.6,4-6.32h-6.38Z"/>
  <path class="cls-2" d="M338.18,265.33c.69,4.84-6.07,13.11-13.51,16.87-1.51.76-3.03,1.76-4.03-.86,1.21-2.7,4.3-3.17,6.29-4.97,2.05-1.86,3.92-3.86,5.85-5.83,1.7-1.74,1.64-5.52,5.4-5.2Z"/>
  <path class="cls-2" d="M321.92,268.01c-2.2-1.52-2.01-2.86-.41-3.89,5.05-3.26,9.35-7.24,12.62-12.3.65-1,1.55-1.77,2.74-.99,1.42.93.81,2.17.1,3.24-3.88,5.8-8.79,10.5-15.04,13.94Z"/>
  <path class="cls-2" d="M317.82,252.04c.08-.93.16-1.86.25-2.79,5.52-1.12,9.67-4.5,13.64-8.2,1.14-1.06,1.97-2.78,4.02-1.98.73,5.14-10.88,13.49-17.9,12.97Z"/>
  <path class="cls-2" d="M188.16,280.39c4.21-3.42,8.17-6.9,11.4-11.03,2.42.91,2.64,2.08,1.44,3.6-2.55,3.25-5.41,6.19-8.81,8.57-1.38.96-2.71,1.42-4.02-1.15Z"/>
  <path class="cls-2" d="M213.88,271.6c1.24-2.33,2.52-2.57,3.85-1.1,2.59,2.85,4.88,5.94,6.79,9.29.99,1.73-.11,2.48-2.19,3.09-2.73-3.64-5.57-7.42-8.46-11.27Z"/>
  <path class="cls-3" d="M72.17,255.54c-.25,1.18.81,1.64,1.33,2.38,1.03,1.47.62,2.52-1.25,3.65-3.03-3.28-7.3-5.53-8.66-10.32,2.22-1.45,3.2-.18,4.4.77,1.45,1.15,2.1,3.25,4.24,3.57l-.07-.06Z"/>
  <path class="cls-2" d="M297.85,282.02c-1.2.65-1.72,2.19-3.36,2.46-2.25-.98-1.61-2.31-.35-3.74,2.1-2.38,4.05-4.86,5.52-7.69,1.05-.22,2.14-.64,2.92.94-.38,3.24-3.34,5.19-4.73,8.03Z"/>
  <path class="cls-2" d="M241.08,255.58c.47-1.7,1.81-1.69,3.21-1.7,2.96-.01,5.92-.08,8.88-.12,2.05,1.17,2.38,2.89-.08,3.26-3.49.52-7.14.13-10.71.03-.73-.02-1.02-.84-1.3-1.47Z"/>
  <path class="cls-2" d="M253.17,252.35c-3.01-.04-6.02-.05-9.02-.15-1.97-.06-1.97-.12-2.63-2.66,3.82-1.3,7.81-.18,11.65-.72,2.16,1.18,2.15,2.35,0,3.53Z"/>
  <path class="cls-2" d="M261.38,256.4c.04-1.09,0-2.43,1.48-2.4,3.99.08,8.07-.97,11.96.72-.07,1.16-.33,2.44-1.7,2.39-3.92-.14-7.92,1-11.74-.71Z"/>
  <path class="cls-2" d="M312.86,272.94c.29,0,.58,0,.87.01,2.92,3.09,4.71,6.99,4.73,10.29-.21.15-.48.47-.64.43-3.95-1.05-3.77-5.19-5.71-7.76-.72-.96-.95-2.35.76-2.97Z"/>
  <path class="cls-2" d="M133.97,187.69c-2.13-.31-3.49-1.24-3.55-3.17-.06-1.95,1.28-3.13,3.12-3.18,1.99-.05,3.5.96,3.45,3.23-.05,2.05-1.58,2.69-3.01,3.12Z"/>
  <path class="cls-2" d="M323.78,182.79c-.03,2.58-1.31,3.57-3.09,3.64-1.84.08-3.2-1.06-3.28-2.93-.08-2.06,1.2-3.32,3.3-3.28,1.9.03,2.86,1.28,3.07,2.57Z"/>
  <path class="cls-2" d="M283,123.02c1.91.26,3.13,1.34,3.12,3.22,0,1.9-1.26,3.13-3.16,3.11-1.88-.02-3.15-1.23-3.12-3.15.02-1.89,1.28-2.93,3.16-3.18Z"/>
  <path class="cls-2" d="M261.9,249.02c4.29.25,8.67-1.03,12.81,1.42-3.63,2.98-7.86,1.47-11.82,1.67-1.35.07-1.76-1.08-1-3.09Z"/>
  <path class="cls-2" d="M136.06,267.1c-1.24,0-2.49.05-3.73-.01-2.9-.15-4.67-1.55-4.73-4.6-.21-10.3-.37-10.72,9.47-10.49,1.24.03,2.48.04,3.72.12.83.05,1.73.16,2.26.85,2.66,3.45,1.55,7.44,1.09,11.11-.34,2.7-3.08,3.17-5.6,3.05-.83-.04-1.66,0-2.49,0h0ZM131.53,262.96c3.22.41,6.16.75,9.2-.27.22-2.42.76-4.68-.56-6.93-2.89-.17-5.72-.52-8.74.25-.32,2.28-.49,4.4.1,6.95Z"/>
</svg>