<?xml version="1.0" encoding="UTF-8"?>
<svg id="Layer_1" xmlns="http://www.w3.org/2000/svg" viewBox="0 0 400 400">
  <path d="M38.07,256.52c-1.02-.45-1.56-.6-1.99-.9-10.43-7.19-20.83-14.44-31.31-21.57-1.59-1.09-2.19-2.24-2.18-4.16.07-20.53.07-41.06,0-61.6,0-2.05.48-2.86,2.69-3.29,10.28-2.01,20.51-4.31,30.77-6.48.54-.11,1.12-.01,1.61-.01.64,2.26.96,4.56,1.9,6.57,3.2,6.81,10.87,9.56,18.72,6.53,8.54-3.3,13.77-9.52,15.06-18.7.2-1.4.47-2.32,2.05-2.64,10.94-2.22,21.86-4.51,32.78-6.77.88,2.74,1.26,81.76.48,94.33-.88-.42-1.7-.69-2.38-1.16-10.35-7.11-20.66-14.29-31.06-21.32-1.66-1.12-1.75-2.46-1.75-4.07.01-9.24.01-18.48.01-27.72,0-.8-.03-1.6,0-2.4.06-1.48-.74-1.71-1.97-1.45-5.47,1.16-10.94,2.28-16.4,3.45-4.9,1.05-9.77,2.27-14.7,3.12-2,.35-2.35,1.26-2.33,2.96.07,4.22.02,8.44.02,12.66-.01,17.45-.02,34.9-.03,52.36,0,.56,0,1.12,0,2.27Z"/>
  <path d="M189.6,175.83c3.9-10.04,7.52-19.36,11.14-28.67q1.24-3.18,4.58-3.19c3.09,0,6.18-.02,9.27.01,2.74.03,2.78.05,2.79,2.88.02,13.46.02,26.91.02,40.37,0,1.82.04,3.65,0,5.47-.06,2.52-.09,2.54-2.79,2.58-1.83.03-3.66.03-5.49,0-2.6-.05-2.66-.07-2.66-2.67-.03-9.58-.01-19.16-.01-28.74v-3.4c-.2-.07-.41-.15-.61-.22-.44.95-.92,1.89-1.31,2.86-3.95,9.93-7.87,19.88-11.83,29.81-.49,1.23-.82,2.43-2.75,2.45-1.98.02-2.76-.73-3.42-2.44-3.59-9.34-7.29-18.64-10.96-27.94-.62-1.56-1.3-3.1-2.64-4.6,0,.8,0,1.6,0,2.4,0,9.69,0,19.39,0,29.08,0,3.4-.02,3.4-3.26,3.42-1.83.01-3.67-.11-5.49.03-1.88.15-2.3-.67-2.28-2.37.06-8.1.02-16.19.02-24.29,0-7.41.06-14.83-.03-22.24-.03-1.96.62-2.56,2.54-2.49,3.43.13,6.87.21,10.29-.02,2.2-.15,2.95.9,3.61,2.66,3.18,8.52,6.44,17.02,9.68,25.52.39,1.03.87,2.04,1.6,3.74Z"/>
  <path d="M276.64,169.33c0-7.52-.02-15.04.01-22.55.01-2.75.06-2.8,2.87-2.8,10.4-.02,20.8-.03,31.2,0,2.78,0,2.78.06,2.83,2.9q.11,6.04-6.1,6.04c-5.6,0-11.2-.02-16.8.01-2.77.01-2.79.05-2.85,2.88-.04,1.94-.04,3.87,0,5.81.06,3.02.08,3.06,3.04,3.07,6.28.03,12.57,0,18.85.01q3.17,0,3.2,3.11.06,5.63-5.45,5.63c-5.71,0-11.43.08-17.14-.04-1.97-.04-2.55.66-2.53,2.53.07,5.58.04,11.16-.01,16.74-.02,2.59-.08,2.61-2.69,2.65-1.94.03-3.89.03-5.83,0-2.56-.05-2.62-.07-2.63-2.72-.03-7.75-.01-15.49-.01-23.24.01,0,.02,0,.03,0Z"/>
  <path d="M229.95,169.5c0-7.52-.01-15.04,0-22.56,0-2.89.04-2.95,2.71-2.95,10.52-.03,21.04.02,31.55-.05,1.84-.01,2.61.44,2.64,2.46.11,6.5.19,6.5-6.39,6.5-5.49,0-10.97-.01-16.46.01-2.9.01-2.92.04-2.96,2.76-.03,2.16.11,4.34-.01,6.49-.11,1.96.69,2.56,2.59,2.53,6.06-.08,12.12-.03,18.18-.03.8,0,1.6.05,2.4,0,1.42-.11,1.97.39,2.07,1.91.42,6.85.47,6.84-6.33,6.84-5.26,0-10.52,0-15.78.01-3.01.01-3.05.03-3.07,2.93-.04,5.36-.01,10.71-.04,16.07-.02,2.82-.05,2.83-2.83,2.87-1.94.03-3.9-.12-5.83.03-2.03.16-2.49-.72-2.48-2.57.08-7.75.03-15.5.03-23.25h.02Z"/>
  <path d="M159.4,246c-2.41,2.45-2.64,7.43-7.94,5.13,1.38-2.48,2.6-5.05,4.16-7.37,2.06-3.05,1.32-6.37,1.27-9.61-.03-1.72-1.65-1.14-2.69-1.23-.96-.08-1.88.04-1.9,1.35-.01.91-.15,1.85,0,2.73.9,5.55-2.94,9.36-5.1,13.77-.25.5-1.36.88-2.02.83-2.29-.2-2.77.97-2.57,2.89.06.54-.1,1.1-.17,1.77-.8.05-1.47.05-2.13.14-1.74.24-2.13-.65-2.11-2.19.06-5.02.06-10.03.02-15.05-.02-2.85-.12-5.7-.27-8.54-.08-1.69.45-2.54,2.32-2.4,1.71.13,3.43-.04,5.14.07,1.66.1,2.31-.54,2.11-2.17-.21-1.66,0-2.81,2.25-2.74,1.89.06,2.8.55,2.5,2.5-.31,2.07.76,2.44,2.58,2.44,1.71,0,2.1-.69,2.16-2.23.11-2.73.21-2.62,2.61-2.67,1.69-.03,2.23.64,2.1,2.23-.25,2.9.57,2.68,2.65,2.65,1.6-.02,3.21.05,4.8-.06,1.67-.11,2.26.62,2.19,2.2-.15,3.19-.31,6.37-.36,9.56-.06,4.67,0,9.35-.04,14.02-.02,2.23-.67,2.64-2.95,2.4-1.33-.14-1.42-.96-1.31-1.9.24-1.98-.38-3.11-2.58-2.85-1.46.17-1.94-.91-2.51-1.9-.68-1.18-1.39-2.35-2.22-3.75ZM142.64,249.8c3.77-4.85,5.63-9.59,4.93-15.22-.21-1.69-1.06-1.76-2.26-1.67-1.13.08-2.68-.55-2.68,1.55.02,4.93,0,9.86,0,15.34ZM166.67,249.42c0-5.37,0-10.21,0-15.05,0-1.8-1.35-1.53-2.43-1.48-1.03.04-2.28-.4-2.51,1.42-.73,5.61.93,10.4,4.95,15.11Z"/>
  <path d="M292.87,251.74c-4.14,0-8.23,0-12.32,0-1.26,0-2.52.05-3.77.03-1.19-.02-2.69.41-2.81-1.55-.09-1.52-.29-3.07,2.09-2.87,1.37.12,1.3-.97,1.31-1.88.02-3.42,0-6.84.02-10.25.03-4.83-.61-4.24,4.45-4.28,3.09-.02,6.17-.06,9.26.02,1.49.04,1.91-.52,1.99-1.97.43-7.62.47-7.62-7-7.59-1.83,0-3.66.06-5.49-.01-1.41-.06-2.01.38-2.09,1.91-.1,2.02-1.85,2.99-3.66,2.15-.4-.19-.85-.82-.85-1.26-.01-2.15.12-4.29.2-6.44,1.88-.2,3.76-.55,5.64-.56,8.12-.06,16.23-.04,24.35-.01,2.55.01,2.56.15,2.58,2.38.01,1.31-.4,1.87-1.75,1.83-1.83-.06-3.66.03-5.49-.02-1.28-.04-1.94.45-1.9,1.76,0,.34-.04.68-.02,1.02.12,2.14.25,4.27.37,6.41,2.02.13,4.04.31,6.06.39,2.75.1,2.8.2,2.73,2.57-.04,1.4-.69,1.75-1.91,1.73-1.6-.03-3.2.08-4.8,0-1.68-.08-2.55.44-2.47,2.3.11,2.62.07,5.24.01,7.86-.03,1.42.44,2.08,1.96,2.01,1.82-.09,3.66.08,5.48-.03,1.81-.1,1.68,1.04,1.69,2.22.01,1.23-.01,2.31-1.75,2.2-1.59-.1-3.2.03-4.8-.06-1.83-.11-2.86.45-2.58,2.48.23,1.67-.64,2.11-2.2,2.19-1.76.09-2.58-.41-2.39-2.25.07-.66-.09-1.34-.18-2.41ZM293.3,241.29c-.08,0-.16-.02-.25-.03,0-1.48-.02-2.95,0-4.42.02-1.15-.54-1.6-1.67-1.59-2.39.03-4.78.03-7.17,0-1.51-.02-1.98.8-1.97,2.14.01,1.82-.03,3.63-.01,5.45.05,5.32-.45,4.48,4.53,4.54,1.92.02,4.62.64,5.57-.35,1.11-1.14.7-3.76.96-5.73Z"/>
  <path d="M149.42,170.03c0,7.52.02,15.04,0,22.56,0,2.64-.06,2.65-2.64,2.69-1.83.03-3.66.02-5.49,0-2.89-.03-2.99-.04-3-3.07-.05-12.65-.03-25.3-.04-37.95,0-2.73.03-5.47-.07-8.2-.06-1.62.5-2.24,2.17-2.14,2.05.13,4.11,0,6.17.04,2.85.04,2.89.06,2.91,2.81.03,5.24,0,10.48,0,15.73,0,2.51,0,5.01,0,7.52Z"/>
  <path d="M364.46,235.8c0-5.93-.02-11.86,0-17.79.01-2.52.19-2.68,2.75-2.65,9.15.09,18.29.2,27.43.33,2.62.04,2.65.08,2.69,2.64.04,2.85-.02,5.7.03,8.55.02,1.28-.41,1.87-1.76,1.87-7.09-.03-14.19-.04-21.28,0-2.05,0-1.61-1.42-1.7-2.62-.11-1.44.46-2.02,1.96-2,5.15.06,10.3-.02,15.44.04,1.48.02,1.99-.51,2.02-1.98.02-1.57-.39-2.25-2.12-2.22-6.06.09-12.13.01-18.19.04-2.58.01-2.64.05-2.65,2.66-.03,9.81-.02,19.62-.02,29.42,0,.68-.04,1.37.02,2.05.14,1.58-.46,2.26-2.14,2.26-2.33,0-2.47.02-2.48-2.46-.03-6.04-.01-12.09-.01-18.13Z"/>
  <path d="M253.49,235.23c-7.42,0-14.84.03-22.27-.02-2.36-.01-2.59-.4-2.54-2.52.03-1.34.6-1.78,1.88-1.76,2.86.05,5.72.01,8.58,0,.8,0,1.63.1,2.39-.08.41-.1,1-.71.98-1.05-.03-.39-.6-.92-1.04-1.05-.63-.19-1.36-.09-2.04-.09-2.29,0-4.57.02-6.86,0-2.97-.02-3.19-.29-3.26-2.58-.07-2.51,1.68-1.93,3.06-1.95,2.86-.04,5.72.05,8.57-.07.56-.02,1.1-.72,1.64-1.1-.53-.31-1.05-.87-1.58-.89-3.31-.08-6.63-.06-9.95-.03-1.39.01-2.38-.1-2.38-1.98,0-1.85.73-2.41,2.43-2.37,2.4.06,4.8.08,7.2,0,1.7-.06,3.59.73,4.84-1.51.29-.52,3.33-.42,3.6.13.87,1.77,2.23,1.37,3.49,1.4,2.97.07,5.95.09,8.92,0,1.7-.05,2.44.44,2.42,2.3-.02,1.77-.81,2.05-2.31,2.02-3.09-.07-6.17-.02-9.26,0-.68,0-1.39-.04-2.04.12-.33.08-.86.68-.79.86.16.42.57.91.97,1.02.64.18,1.36.08,2.04.08,2.52,0,5.03,0,7.55.01,3.11.02,3.16.06,3.17,2.16.02,2.25-.14,2.36-3.36,2.38-2.4.01-4.8,0-7.2,0-.69,0-1.4-.09-2.05.08-.44.12-.77.63-1.16.97.43.39.85,1.11,1.29,1.12,3.54.1,7.09.04,10.63.09,2.4.03,2.55.3,2.48,2.49-.05,1.32-.59,1.83-1.87,1.81-2.06-.04-4.12,0-6.17,0,0,0,0,0,0,0Z"/>
  <path d="M245.31,237.13c4.68,0,9.36.05,14.04-.03,1.58-.02,2.24.42,2.21,2.11-.08,5-.04,10.01-.02,15.01,0,1.23-.06,2.32-1.76,2.18-1.34-.11-2.94.16-2.67-2.03.26-2.17-.86-2.7-2.84-2.67-6.15.09-12.31.08-18.46,0-1.83-.02-2.86.45-2.55,2.47.29,1.93-.75,2.23-2.4,2.24-1.67,0-2.2-.66-2.18-2.22.05-5,.09-10.01,0-15.01-.03-1.76.74-2.09,2.26-2.07,4.79.06,9.59.02,14.38.02ZM251.96,247.38c1.13,0,2.27.06,3.4-.03.5-.04,1.38-.33,1.41-.57.15-1.44.32-2.96-.03-4.32-.12-.48-1.69-.75-2.62-.84-1.46-.14-2.95-.08-4.42-.04-2.56.08-2.62.17-2.66,2.73q-.05,3.02,2.88,3.06c.68,0,1.36,0,2.04,0ZM238.06,247.39c.68,0,1.36.02,2.04,0q2.56-.07,2.59-2.72c.04-2.89-.07-3.01-3.04-3.06-1.24-.02-2.49-.02-3.74.01-2.61.06-2.61.07-2.65,2.63q-.06,3.11,3.1,3.14c.57,0,1.13,0,1.7,0Z"/>
  <path d="M392.89,246.69c1.2,3.27,2.3,6.28,3.42,9.35q-4.34.56-5.68-2.71c-.69-1.69-1.41-3.36-2-5.08-.38-1.11-.96-1.74-2.19-1.73-2.63.03-5.26.03-7.89.02-1.71,0-1.73,1.22-1.65,2.37.08,1.22-.65,2.82,1.49,3.22,2.77.52,2.76.59,2.49,4.22-2.22,0-4.48-.03-6.74.01-1.28.02-1.49-.71-1.49-1.74.02-3.65.05-7.3,0-10.94-.02-1.33.53-1.79,1.83-1.77,3.32.05,6.63.04,9.95.02,2.77-.02,2.75-.12,2.84-2.15.11-2.46-1.57-2-2.99-2.01-3.2-.02-6.41-.06-9.61.02-1.44.03-2.07-.4-2.03-1.93.03-1.43.14-2.41,1.99-2.35,3.31.1,6.63.04,9.95.02,1.22,0,2.46.26,2.8-1.63.2-1.1,4.17-1.46,4.32-.49.38,2.39,1.98,2.16,3.53,2.1,1.62-.06,2.19.52,2.19,2.17,0,1.65-.55,2.18-2.19,2.14-1.1-.02-2.64-.71-3.2,1.05-.64,2.01.16,3.12,2.54,3.02,3.06-.13,2.72.52,2.83,2.5.1,1.67-.59,2.28-2.2,2.15-.65-.05-1.32.08-2.3.15Z"/>
  <path d="M203.75,237.13c3.54,0,7.09.07,10.63-.03,1.91-.05,1.88,1.06,1.91,2.41.02,1.35-.29,2.19-1.88,2.1-1.71-.09-3.43.02-5.14-.07-1.65-.08-2.31.61-2.12,2.23.07.56.06,1.14,0,1.71-.16,1.57.65,1.96,2.04,1.9,1.6-.07,3.2.04,4.8-.02,1.46-.06,2.33.22,2.33,2.01,0,1.84-.79,2.41-2.46,2.31-.8-.05-1.6-.04-2.4,0-1.24.05-2.72-.22-3.65.36-.63.39-.57,2-.66,3.08-.12,1.37-1.11,1.37-1.97,1.23-.89-.14-1.76-.54-2.55-1-.22-.13-.16-.87-.11-1.31.23-2.09-.94-2.46-2.7-2.39-2.17.09-4.35-.07-6.51.04-1.89.09-1.9-1.01-1.95-2.39-.06-1.55.61-1.97,2.03-1.92,2.28.07,4.58-.1,6.85.03,1.87.11,2.31-.68,2.3-2.39-.02-3.34.07-3.36-3.4-3.4-2.06-.02-4.11,0-6.17,0-1.74.02-1.6-1.19-1.62-2.36-.02-1.25.05-2.2,1.77-2.16,3.54.1,7.08.03,10.63.03Z"/>
  <path d="M200.03,228.56c4.68,0,9.36.06,14.03-.03,1.92-.04,2.19.86,2.23,2.5.04,1.86-.91,1.96-2.33,1.95-7.53-.04-15.06-.01-22.59-.01-3.82,0-3.39-.1-3.4,3.25-.03,5.92-.05,11.83.01,17.75.02,1.61-.25,2.45-2.19,2.45-2.03,0-2.2-1.07-2.2-2.57.01-7.62.04-15.24,0-22.86,0-1.73.66-2.43,2.42-2.4,4.68.07,9.36.02,14.04.02v-.03Z"/>
  <path d="M199.71,225.54c-4.69,0-9.37-.06-14.06.03-1.8.03-2.5-.67-2.37-2.41.14-1.93.14-3.87.35-5.79.06-.55.56-1.42.98-1.49.95-.17,1.99,0,2.97.19.2.04.32.79.35,1.22.06.79.05,1.59.03,2.39-.02,1.15.53,1.65,1.67,1.62,1.14-.03,2.29,0,3.43,0,4.1,0,4.17.01,4.51-3.92.12-1.38.71-1.79,1.94-1.69,1.09.09,2.23-.2,2.47,1.57.54,4.05.63,4.04,4.59,4.05.69,0,1.37,0,2.06,0q3.09-.04,3.28-3.18c.14-2.3.7-2.83,2.91-2.34.55.12,1.33.91,1.36,1.44.15,2.27.06,4.55.07,6.83,0,1.52-1.07,1.49-2.12,1.49-4.8,0-9.6,0-14.4,0Z"/>
  <path d="M338.65,247.37c-2.06,0-3.87.04-5.68-.01-1.16-.03-1.67.42-1.65,1.59.03,1.82-.06,3.64,0,5.46.06,1.77-.93,1.97-2.4,1.99-1.55.02-2.44-.36-2.22-2.09.04-.34.02-.68,0-1.02-.07-1.81.52-4.2-.41-5.25-.85-.96-3.35-.55-5.12-.57-1.38-.02-2.12-.36-2.05-1.92.11-2.27.11-4.55.07-6.82-.03-1.78,1.18-1.62,2.32-1.62,1.16,0,2.29-.1,2.33,1.66.03,1.41-.06,3.26.75,4.08.65.65,2.57.04,3.93,0,.34-.01.68.02,1.03,0,1.44-.05,3.23.38,4.21-.32.72-.51.49-2.51.46-3.84-.03-1.54.9-1.61,1.99-1.57,1.09.04,2.42-.32,2.38,1.52-.03,1.25.04,2.49.04,3.74,0,1.58,0,3.15,0,5Z"/>
  <path d="M329.19,215.49c2.51,0,5.02.02,7.53,0,1.54-.01,2.32.58,2.23,2.24-.16,3.06-.23,6.12-.3,9.17-.03,1.51-.82,1.92-2.21,1.87-1.26-.04-2.3-.12-2.21-1.79.06-1.14,0-2.28,0-3.42-.02-3.95.39-3.57-3.76-3.58-2.04,0-4.74-.63-5.94.4-1.09.95-.61,3.76-.73,5.75-.15,2.45-.5,2.74-2.79,2.62-1.57-.08-1.86-.93-1.84-2.24.03-2.96.06-5.92-.05-8.88-.06-1.66.59-2.23,2.19-2.19,2.62.07,5.25.02,7.88.02h0Z"/>
  <path d="M138.4,215.85c3.54,0,6.83,0,10.12,0,6.16,0,12.31,0,18.47,0,3.93,0,3.93.02,3.98,2.04.05,2.13-.07,2.21-3.83,2.22-8.44,0-16.87,0-25.31,0q-3.63,0-3.44-4.27Z"/>
  <path d="M329.07,235.12c-2.62,0-5.25-.07-7.87.03-1.76.07-2.04-.8-2.06-2.3-.02-1.53.62-2.01,2.04-1.95,1.25.06,2.52.12,3.76-.05.63-.09,1.32-.57,1.77-1.06,1.23-1.36,3.67-1.64,4.45-.12.65,1.26,1.44,1.22,2.43,1.24.91.02,1.83.05,2.74,0,1.43-.08,2.42.17,2.42,1.96,0,1.8-.76,2.37-2.49,2.29-2.39-.11-4.79-.03-7.18-.03v-.02Z"/>
  <path d="M340.35,240.08c3.98,1.94,7.54,3.42,10.76,5.43.91.57.85,2.69,1.24,4.1-.22.14-.44.28-.66.42-3.41-1.68-6.84-3.32-10.23-5.04-1.95-.99-1.03-2.69-1.11-4.92Z"/>
  <path d="M351.82,215.97q.36,4.13-2.91,5.71c-2.65,1.28-5.31,2.55-7.99,3.83-1.11-3.55-1.01-3.9,1.7-5.23,2.66-1.31,5.34-2.58,8.02-3.85.3-.14.62-.24,1.19-.46Z"/>
  <path d="M346.44,230.92c1.13,0,2.27.09,3.4-.02,1.86-.18,2.33.68,2.24,2.37-.07,1.23-.37,1.89-1.73,1.87-2.72-.05-5.44-.08-8.16,0-1.85.06-1.86-1.03-1.92-2.39-.07-1.63.79-1.88,2.1-1.84,1.36.04,2.72,0,4.08,0Z"/>
  <path d="M323.78,253.64c.04,2.65-.3,2.91-2.9,2.72-1.09-.08-1.73-.38-1.69-1.57.02-.57.04-1.14-.02-1.71-.18-1.69.41-2.49,2.25-2.5,1.76-.01,2.59.57,2.36,2.37-.03.22,0,.45,0,.68Z"/>
  <path d="M338.54,253.8c.02,2.5-.07,2.54-2.3,2.61-1.43.05-2.16-.38-2-1.9.05-.45.03-.91,0-1.36-.1-1.5.03-2.57,2.1-2.55,1.96.02,2.31.94,2.21,2.51-.01.23,0,.45,0,.68Z"/>
</svg>