<?xml version="1.0" encoding="UTF-8"?>
<svg id="Layer_1" xmlns="http://www.w3.org/2000/svg" viewBox="0 0 400 400">
  <path d="M155.06,194.52c2.7,8.99,6.31,17.04,13.07,23.35,5.68,5.31,12.24,8.58,20.1,9.62,6.99.93,13.57-.07,20.15-2.12.5-.16,1.09,0,1.64.02-.04.46,0,.94-.14,1.37-3.96,13.33-9.85,25.72-17.93,37.08-5.36,7.53-11.58,14.22-18.73,20.03-8.79,7.15-18.57,12.52-29.22,16.42-5.97,2.18-12.15,3.48-18.33,4.79-1.05.22-2.16.14-3.38-.23,1.67-.75,3.32-1.54,5.01-2.24,12.25-5.06,23.05-12.26,32.03-22.04,6.23-6.78,10.41-14.71,12.5-23.7.15-.64.02-1.35.02-2.55-2.25,3.11-4.12,5.8-6.1,8.42-10.74,14.16-23.91,25.4-40.05,33.04-8.22,3.89-16.87,6.73-25.83,7.7-14.34,1.54-28.64.69-42.16-5.06-8.59-3.66-16.33-8.82-23.33-15.02-10.57-9.36-18.9-20.4-24.54-33.36-1.79-4.11-3.03-8.47-4.5-12.71-.07-.2,0-.45.02-.68.29.11.68.14.84.35,1.6,2,3.13,4.06,4.76,6.04,8.64,10.55,19.48,18.11,32.11,23.05,5.88,2.3,11.98,3.9,18.33,4.76,6.13.83,12.23.89,18.31.52,8.42-.52,16.61-2.49,24.43-5.77,10.62-4.45,20-10.75,27.85-19.19,7.06-7.59,12.38-16.29,16.4-25.85,2.66-6.33,4.12-12.98,5.78-19.59.52-2.09.63-4.29.92-6.44Z"/>
  <path d="M35.12,126.07c.33-2.79,1.03-7.12,1.32-11.47.28-4.18,1.06-8.21,2.3-12.18.15-.47.18-.98.39-1.41.14-.3.49-.5.75-.75.21.26.46.5.62.79,1.89,3.28,3.51,6.74,5.68,9.82,6.72,9.52,15.64,16.34,26.36,20.91,4.63,1.97,9.39,3.62,14.33,4.11,4.45.44,8.9,1.14,13.5.53,3.99-.52,8.02-.72,11.93-1.75,2.58-.69,5.13-1.49,7.69-2.24.54-.16,1.1-.28,1.65-.42-.12.66-.09,1.38-.38,1.96-1.74,3.51-3.21,7.06-3.86,10.99-1.03,6.2-.56,12.2,1.86,17.97,4.47,10.66,12.19,18.13,22.82,22.61.56.24,1.14.44,1.67.73,1.06.56,1.33,1.31,1.35,2.64.11,7.38-2.13,14.21-4.77,20.92-3.01,7.68-7.49,14.51-12.74,20.85-.7.85-1.4,1.74-2.27,2.39-.61.46-1.57.86-2.27.74-12.36-2.19-24-6.53-34.78-12.87-10.82-6.36-20.29-14.41-28.16-24.28-9.41-11.8-16.2-24.93-20.44-39.41-2.83-9.67-3.96-19.57-4.57-31.17ZM88,203.44c-.19-.22-.32-.44-.51-.58-1.76-1.29-3.53-2.56-5.3-3.84-1.69.86-3.39,1.72-5.08,2.58-.65.33-1.31.65-1.91,1.05-.54.35-.95.86-.29,1.44,1.82,1.58,3.68,3.13,5.52,4.69,1.61-1.02,3.24-2.02,4.84-3.06.71-.46,1.39-.96,2.06-1.49.27-.21.46-.54.68-.8ZM101.52,211.09c-.3.16-.76.31-1.1.6-.83.71-1.6,1.5-2.42,2.23-4.73,4.28-4.71,4.22,1.45,6.33,1.31.45,2.04.15,2.83-.78,1.25-1.48,2.54-2.94,3.85-4.37,1.33-1.46,1.32-1.7-.35-2.38-1.35-.54-2.71-1.04-4.26-1.63ZM70.24,187.09c-.07-.27-.06-.55-.2-.72-1.5-1.89-3.02-3.77-4.53-5.64-1.87.34-3.73.68-5.6,1.01-.12.02-.24.02-.36.04-.99.18-1.17.9-.78,1.6,1.05,1.9,2.16,3.78,3.4,5.56.31.45,1.29.83,1.79.68,1.96-.57,3.87-1.37,5.78-2.1.2-.08.34-.29.49-.43ZM126.48,218.04c-.15-.04-.49-.13-.83-.24-4.04-1.32-5.29-.97-7.7,2.28-1,1.35-1.92,2.75-2.87,4.13,1.47,1.54,3.54.34,5.18,1.13,1.1.53,1.57-.35,2.05-1.01,1.21-1.68,2.36-3.41,3.53-5.12.14-.2.23-.43.64-1.17ZM53.39,166.93c4.07-.08,4.14-.18,2.65-3.94-.04-.11-.13-.22-.14-.33-.24-3.22-2.52-3.58-5.04-3.63-.37,0-.73-.05-1.09-.06-2.22-.03-2.21-.03-1.34,2.23.35.9.54,1.86.9,2.75,1.36,3.38.97,2.96,4.07,2.97ZM50.6,145.77c.13-2.78-1.28-4.98-3.76-5.98-.9-.36-1.83-.65-2.72-1.02-1.35-.56-1.16-.06-1.15,1.11.01,3.88,1.9,5.71,5.63,5.98.46.03.91.38,1.37.4.23.01.48-.36.64-.49ZM42.17,124.12c-.34.39-.74.68-.69.84.36,1.33.07,2.93,1.84,3.63,1.22.48,2.3,1.32,3.48,1.92.37.19,1.05.33,1.25.13.28-.27.29-.86.31-1.33.01-.35-.03-.86-.25-1.02-1.93-1.41-3.9-2.76-5.94-4.18ZM42.23,115.6c-.14.19-.42.41-.38.56.18.76.23,1.74.73,2.21,1.4,1.31,2.99,2.44,4.54,3.58.28.21.74.17,1.12.24-.04-.47.1-1.11-.15-1.37-1.68-1.73-3.43-3.38-5.18-5.03-.15-.14-.45-.13-.68-.19Z"/>
  <path d="M119,238.32c-2.85,3.79-6.83,6.23-10.75,8.65-6.26,3.88-13.04,6.68-20.26,8.17-9.64,1.99-19.3,2.22-29.05.44-8.24-1.5-16.08-3.99-23.43-7.93-8.14-4.37-15.52-9.75-21.07-17.3-.23-.31-.24-.79-.35-1.19.33.03.66.04.99.09,2.15.35,4.3.74,6.46,1.07,4.43.68,8.7-.04,12.84-1.64,4.93-1.91,8.93-4.99,11.71-9.55.44-.73.9-1.45,1.37-2.16.51-.77,1.04-.95,1.69-.11,1.88,2.4,3.68,4.89,5.71,7.16,6.11,6.86,13.53,11.77,22.08,15.22,6.58,2.66,13.42,3.81,20.34,3.92,6.68.11,13.38-.76,19.46-4.06.71-.38,1.57-.47,2.37-.69,0,0-.1-.09-.1-.09Z"/>
  <path d="M268.06,122.55c-1.7,2.05-3.1,3.72-4.48,5.4-1.4,1.7-2.79,3.41-4.19,5.11-1.94,2.36-2.13,2.35-4.07-.11-2.41-3.07-4.82-6.15-7.25-9.2-.28-.35-.73-.55-1.1-.82-.09.4-.27.81-.27,1.21,0,5.96.07,11.93.04,17.89-.01,2.72-.18,2.81-2.99,2.85-1.35.02-2.7.02-4.04,0-2.81-.05-2.95-.16-3-2.87-.04-2.33,0-4.66,0-6.98,0-8.09,0-16.17-.01-24.26,0-.86.03-1.72.02-2.57-.01-1.1.55-1.51,1.6-1.49,1.72.03,3.44.12,5.14-.04,1.95-.18,2.86,1.08,3.85,2.34,2.95,3.74,5.88,7.48,8.85,11.2,1.25,1.56,1.36,1.58,2.65,0,3.25-3.98,6.5-7.96,9.61-12.04.86-1.12,1.71-1.56,3.06-1.48,1.71.09,3.43.07,5.14.03,1.16-.03,1.52.74,1.55,1.62.04,1.33-.16,2.67-.17,4.01-.02,9.43,0,18.87,0,28.31,0,.86-.01,1.72-.01,2.57,0,1-.39,1.66-1.49,1.66-2.08,0-4.17,0-6.25,0-1.39,0-1.95-.8-1.94-2.11,0-1.47-.02-2.94-.02-4.41.01-4.53.04-9.06.04-13.6,0-.56-.14-1.13-.28-2.2Z"/>
  <path d="M324.77,125.67c0-5.63-.03-11.27.01-16.9.01-1.99.09-2.05,2.09-2.06,4.9-.03,9.81-.14,14.7.07,2.15.09,4.32.73,6.39,1.42,3.81,1.27,5.49,4.2,5.76,8.08.22,3.03-.1,5.87-2.39,8.15-.26.26-.4.65-.68.85-.87.6-1.78,1.13-2.68,1.69.81.73,1.74,1.37,2.41,2.22.67.85,1.14,1.88,1.61,2.87,1.66,3.54,3.31,7.08,4.9,10.65.76,1.7.45,2.14-1.47,2.18-2.2.05-4.41-.06-6.61.02-1.46.05-2.23-.56-2.74-1.89-.87-2.27-1.84-4.52-2.83-6.74-.6-1.34-1.31-2.62-1.99-3.92-1.08-2.06-2.82-2.9-5.1-2.89-1.24,0-1.73.41-1.7,1.72.08,3.67.06,7.35.04,11.02-.02,2.63-.05,2.64-2.65,2.68-1.71.03-3.43-.04-5.14.02-1.44.05-1.95-.59-1.94-1.97.04-4.78.01-9.55.01-14.33,0-.98,0-1.96,0-2.94h.02ZM334.46,117.81s.02,0,.03,0c0,1.1-.07,2.21.04,3.3.04.34.55.9.86.91,1.83.04,3.69.14,5.47-.16,1.94-.34,3.08-2.07,3.09-4.02,0-1.97-1.04-3.26-3.14-3.86-.7-.2-1.42-.44-2.13-.45-5.02-.1-4.14-.41-4.22,3.92,0,.12,0,.24,0,.37Z"/>
  <path d="M301.13,144.89c-4.13.42-7.97-.44-11.62-2.44-1.15-.63-1.58-1.3-1.53-2.56.07-1.71-.05-3.42-.02-5.13.03-1.5.42-1.63,1.76-1.01,2.64,1.21,5.29,2.47,8.03,3.42,2.09.73,4.32.78,6.42-.27,2.09-1.05,2.38-3.72.44-5.01-1.1-.73-2.42-1.12-3.64-1.67-2.66-1.19-5.4-2.24-7.97-3.62-5.51-2.95-6.98-8.77-4.97-14.13.93-2.49,2.85-3.96,5.07-5.01,4.57-2.15,9.36-2.37,14.24-1.21.59.14,1.19.24,1.75.46,1.8.68,3.58,1.41,5.37,2.12.03,2.2.11,4.39.07,6.59-.01.79-.58.95-1.28.61-3.08-1.51-6.3-2.52-9.71-3.06-1.91-.3-3.66-.04-5.34.74-1.58.74-1.9,2.77-.53,3.87,1.12.91,2.44,1.61,3.76,2.21,2.89,1.3,5.81,2.52,8.76,3.68,2.44.96,3.98,2.82,4.98,5.08,1.18,2.64,1.14,5.45.6,8.27-.92,4.77-6.16,7.58-9.87,8.03-1.57.19-3.18.03-4.77.03Z"/>
  <path d="M299.41,150.8c9.87-.29,20.25,7.84,20.22,19.87-.02,11.31-9.14,19.91-20.24,19.8-12.28-.12-20.51-8.59-20.58-19.82-.07-11.36,9.1-19.99,20.6-19.85ZM313.26,170.55c.84-7.02-6.66-14.61-14.78-14.14-6.2.36-13.59,6.01-13.43,14.51.12,6.56,5.11,13.79,14.34,13.94,7.25.12,14.51-6.56,13.88-14.32Z"/>
  <path d="M237.21,170.47c0-5.39-.03-10.78.01-16.17.02-2.57.07-2.6,2.71-2.63,4.04-.04,8.1-.22,12.13.02,4.78.29,9.37,1.28,13.29,4.45,3.61,2.92,5.84,6.68,6.42,11.14.5,3.83.63,7.74-1.14,11.52-3.13,6.69-8.18,10.6-15.54,11.01-5.25.3-10.53.1-15.8.06-1.96-.01-2.06-.09-2.07-2.13-.05-5.76-.02-11.51-.02-17.27h.01ZM242.64,170.99h0c0,4.04.02,8.08-.01,12.11,0,1.06.37,1.58,1.48,1.57,3.18-.04,6.39.19,9.54-.14,6.64-.68,10.9-4.28,12.12-10.37,1.54-7.72-1.95-14.49-9.5-16.01-3.78-.76-7.75-.59-11.64-.71-1.88-.06-1.94.07-1.96,2.16-.04,3.79-.01,7.59-.01,11.38Z"/>
  <path d="M347.47,150.83c3.47-.27,6.87.74,10.19,2.01,2.51.96,2.51,1.04,2.51,3.73,0,.61,0,1.23-.03,1.84-.04.92-.42,1.37-1.38.93-.45-.2-.9-.39-1.34-.61-4.29-2.18-8.92-2.67-13.56-2.05-6.45.86-10.64,5.58-11.62,11.92-.52,3.34.12,6.55,1.86,9.51,2.43,4.12,6.17,6.14,10.8,6.61,4.89.49,9.4-.81,13.67-3.12,1.86-1.01,2.23-.76,2.3,1.41.01.49-.1.99-.03,1.47.25,1.9-.68,2.86-2.38,3.54-6.79,2.75-13.75,3.69-20.58.74-6.01-2.59-10-7.31-11.47-13.86-3.07-13.75,8.48-24.31,19.79-24.07.37,0,.73,0,1.26,0Z"/>
  <path d="M281.93,229.48c3.18,0,6.37.04,9.55-.02,1.42-.03,1.98.54,1.91,1.95-.07,1.47.02,2.94,0,4.41-.02,1.36-.14,2.71,1.49,3.39.29.12.59.99.44,1.21-.29.41-.89.83-1.37.85-2.69.08-5.38.05-8.08.04-.79,0-1.41.13-1.53,1.12-.17,1.44.43,2.05,1.86,1.65,2.34-.65,4.65-1.4,7.01-1.99.44-.11,1.29.2,1.49.57.38.69.1,1.42-.77,1.73-.46.17-.9.37-1.37.52-.92.3-1.86.55-2.78.87-.29.1-.52.37-.78.56.25.22.47.56.75.64,1.28.36,2.59.63,3.88.97.34.09.84.25.92.5.18.55.2,1.18.13,1.75-.01.11-.78.26-1.15.17-2.24-.52-4.52-.96-6.69-1.71-1.51-.52-2.45-.76-2.73,1.25-.05.34-1.15.72-1.77.72-.28,0-.77-.87-.8-1.36-.09-1.95-.02-3.91-.05-5.87-.02-2.04-.04-2.05-1.95-2.07-2.57-.02-5.14-.03-7.71-.04-.49,0-1,.06-1.45-.08-.27-.08-.61-.52-.6-.78.02-.43.24-1.16.49-1.22.94-.21,1.93-.25,2.9-.25,5.02,0,10.04.03,15.06.01,1.04,0,2.35.35,2.67-1.2.19-.92-.68-1.16-2.81-1.12-4.77.09-9.55.1-14.32.06-.59,0-1.43-.4-1.72-.87-.54-.89.18-1.81,1.41-1.83,2.69-.05,5.39,0,8.08,0,2.69,0,5.39.05,8.08-.04.44-.01.86-.6,1.29-.92-.43-.36-.84-.99-1.3-1.03-1.46-.15-2.93-.11-4.4-.08-4.1.09-8.2.22-12.3.3-.47,0-1.02-.07-1.38-.32-.43-.3-.97-.85-.95-1.27.02-.4.63-.93,1.1-1.1.54-.2,1.21-.07,1.82-.07,2.82,0,5.63,0,8.45,0Z"/>
  <path d="M314.89,201.48c3.55,0,7.1-.02,10.65,0,2.11.02,2.22.07,2.24,1.93.05,5.75.02,11.51,0,17.26,0,.36.05.85-.15,1.06-.37.4-.89.81-1.4.9-.3.05-.94-.47-1.01-.82-.21-.94-.26-1.93-.26-2.9,0-4.04.06-8.08.04-12.12-.01-2.85-.06-2.88-2.83-2.9-4.78-.03-9.55-.05-14.33-.02-2.9.02-2.87.06-2.94,2.75-.09,3.41-.23,6.82-.34,10.22-.08,2.57.5,3.16,3.12,3.17,4.53,0,9.06-.02,13.59.03,1.25.01,1.94.94,1.41,1.84-.25.42-.91.86-1.39.86-5.76.06-11.51.05-17.27.04-1.32,0-2.02-.61-2.01-2.02.03-5.88.02-11.75,0-17.63,0-1.31.66-1.64,1.84-1.63,3.67.04,7.35.01,11.02.01,0-.01,0-.02,0-.04Z"/>
  <path d="M316.43,236.25c-3.31,0-6.61.03-9.91-.01-1.78-.02-1.46,1.22-1.5,2.28-.04,1.04-.03,1.98,1.45,1.95,2.69-.04,5.39,0,8.08,0,2.69,0,5.39-.02,8.08,0,3.27.02,3.26.04,3.35,3.35.04,1.46.17,2.92.23,4.38.02.48.1,1.11-.15,1.42-.4.5-1.03.93-1.64,1.1-.19.05-.9-.78-.93-1.24-.12-1.58-.1-3.18-.02-4.77.07-1.44-.53-1.91-1.94-1.9-4.9.06-9.79.07-14.69,0-1.52-.02-1.89.63-1.83,1.98.07,1.59.03,3.18-.01,4.77-.02.9-.59,1.26-1.45,1.25-.85,0-1.38-.38-1.47-1.26-.01-.12-.01-.24-.01-.37.01-6,.03-11.99.03-17.99,0-.98.25-1.64,1.41-1.68,1.1-.03,1.57.46,1.54,1.52,0,.24.03.49,0,.73-.22,1.55.37,2.18,2.01,2.14,3.67-.09,7.34,0,11.02-.03,2.1-.02,2.1-.08,2.31-2.23.04-.36-.09-.83.09-1.08.3-.42.81-.99,1.19-.96.4.03.89.63,1.1,1.08.19.41.08.96.04,1.45-.09,1.21.33,1.84,1.66,1.71.72-.07,1.5-.08,2.19.12.45.13,1.07.69,1.08,1.07,0,.38-.58.95-1.03,1.12-.54.2-1.21.07-1.82.07-2.81,0-5.63,0-8.44,0,0,0,0,.02,0,.03Z"/>
  <path d="M340.4,233.88c.86,0,1.71,0,2.57,0,2.88-.04,2.89-.04,3.2-2.81.08-.75.11-1.65,1.09-1.49.54.09,1.2.74,1.42,1.29.33.82.06,2.36.5,2.56,1.04.46,2.35.34,3.55.39,1.22.05,2.47-.12,3.66.08,1.28.22,3.63-.95,3.62,1.07-.01,2.4-2.47.99-3.82,1.21-1.43.23-2.93.07-4.39.1-1.11.02-1.21.53-.63,1.36,2.38,3.39,4.82,6.74,7.07,10.21.47.73,2.01,1.57.78,2.71-.81.75-2.12.15-3.23-1.4-2.34-3.27-4.64-6.57-6.9-9.9-1.34-1.96-1.3-1.99-2.76.12-2.22,3.2-4.41,6.43-6.7,9.59-.53.74-1.35,1.35-2.17,1.76-.43.21-1.14-.14-1.72-.23.16-.52.22-1.11.51-1.54,2.13-3.12,4.33-6.18,6.44-9.31.59-.88.94-1.93,1.4-2.9-1.03-.17-2.06-.44-3.09-.49-1.58-.09-3.18-.03-4.77-.02-.81,0-1.47-.2-1.48-1.16-.01-.96.65-1.2,1.46-1.2,1.47,0,2.93,0,4.4,0v.02Z"/>
  <path d="M254.18,206.62c2.21,0,4.41.05,6.61-.02,1.3-.04,1.74.52,1.73,1.73-.03,4.14-.05,8.29,0,12.43.01,1.35-.35,2.07-1.85,2.03-2.33-.06-4.66-.05-6.98,0-1.3.02-1.74-.61-1.66-1.81.07-.97.03-1.96.24-2.9.07-.33.68-.65,1.1-.77.23-.07.84.29.84.45.01,3.04,2.25,2.22,3.92,2.23.64,0,1.79-.29,1.85-.61.19-1.04,0-2.16-.1-3.24,0-.05-.6-.05-.92-.06-1.8-.05-3.6-.14-5.4-.12-.92.01-1.41-.36-1.46-1.22-.06-1.1-.08-2.21.03-3.3.04-.35.58-.96.81-.93.5.08,1.12.39,1.36.8.38.65-.19,1.91,1.09,1.98,1.44.07,2.89-.07,4.34-.13.11-1.18.32-2.37.27-3.54-.01-.28-.9-.74-1.38-.74-3.06-.05-6.12.04-9.19,0-1.25-.01-1.75.42-1.72,1.7.06,2.82.02,5.63,0,8.45,0,.86.09,1.75-.14,2.55-.13.45-.82.73-1.27,1.08-.32-.43-.91-.86-.92-1.3-.08-4.41-.06-8.82-.08-13.23,0-1.06.46-1.56,1.53-1.55,2.45.02,4.9,0,7.35,0h0Z"/>
  <path d="M380.04,250.82c-3.67,0-7.35-.01-11.02,0-.96,0-1.41-.32-.9-1.27.93-1.72,1.93-3.39,2.84-5.12.43-.83.16-1.4-.85-1.48-.85-.07-1.73-.02-2.54-.23-.31-.08-.67-.74-.64-1.11.02-.35.47-.8.83-.96.42-.18.96-.09,1.45-.09,6.98,0,13.96-.03,20.94.01.86,0,2.25-.51,2.32.98.08,1.69-1.41,1.33-2.42,1.35-4.04.04-8.08,0-12.12.04-2.59.02-4.94,1.92-5.44,4.39-.04.18.57.68.88.69,2.2.05,4.41.02,6.61,0,2.06,0,4.12.02,6.18-.05.34-.01.98-.54.94-.64-.32-.88-.66-1.66.77-1.77,1.18-.09,2.21.03,2.68,1.34.08.23.25.42.35.64,1.65,3.47,2.27,3.25-2.05,3.26-2.94,0-5.88,0-8.82,0h0Z"/>
  <path d="M314.58,218.42c-1.95,0-3.91,0-5.86,0-.82,0-1.4-.27-1.43-1.24-.04-1.06.41-1.59,1.49-1.57.85.01,1.71,0,2.56,0,1.05,0,1.94-.08,1.88-1.53-.06-1.19-.75-1.36-1.7-1.35-.98.01-1.97.07-2.92-.09-.47-.08-1.13-.55-1.22-.95-.21-.92.49-1.24,1.32-1.26,1.1-.02,2.21.05,3.29-.12.44-.07.8-.65,1.2-1-.37-.38-.7-1.03-1.11-1.09-1.2-.18-2.45-.02-3.65-.2-.42-.06-.75-.71-1.12-1.09.4-.35.79-1.01,1.19-1.02,4.27-.08,8.55-.09,12.82-.03.42,0,.82.63,1.23.97-.41.39-.76,1-1.24,1.12-.81.2-1.7.07-2.55.13-.79.05-1.89-.28-1.93,1.03-.05,1.55,1.22,1.2,2.12,1.25.85.05,1.74-.12,2.55.06.43.1.99.69,1.06,1.13.13.79-.34,1.4-1.26,1.37-1.09-.03-2.19-.22-3.27-.12-.45.04-1.09.57-1.21.99-.13.48.08,1.32.44,1.58.31.22,1.44,0,1.54-.28.57-1.54,1.76-1.32,2.63-.78,1.08.67,1.47,1.97,1.09,3.23-.12.39-.88.81-1.36.82-2.19.09-4.39.04-6.59.04,0,0,0,0,0-.01Z"/>
  <path d="M256.03,251.03c-2.02-.25-4.04-.5-6.05-.74-.05-1.95-.1-3.89-.15-5.84-.03-1.22-.04-2.45-.07-3.67-.04-1.2.46-1.8,1.73-1.78,2.32.03,4.65-.07,6.97-.02,1.24.03,1.8-.4,1.73-1.68-.27-4.76,1.39-5.44-4.94-5.39-1.35,0-2.7-.11-4.03.04-.86.1-1.38.15-1.41-.91-.02-.85.26-1.43,1.17-1.49.73-.05,1.47-.06,2.2-.06,2.45,0,4.9.03,7.34,0,1.29-.02,2.08.31,2.03,1.83-.08,2.69-.08,5.38-.02,8.07.03,1.4-.43,2-1.89,1.95-2.08-.08-4.16-.04-6.24,0-2.06.04-2.12.07-2.14,1.94-.06,5.78-.38,4.7,4.57,4.74,1.45.01,2.9.04,4.35.03.94,0,1.28.5,1.31,1.36.03.91-.43,1.36-1.3,1.38-1.71.03-3.43,0-5.14,0,0,.08-.02.16-.03.24Z"/>
  <path d="M292.94,208.93c-2.8,0-4.74.05-6.67-.01-2.06-.06-2.4-.36-2.41-2.33-.05-5.9-.3-5.02,4.74-5.1,1.59-.02,3.18-.07,4.76.05.62.04,1.45.33,1.75.79.42.64-.6,1.49-1.89,1.56-1.22.07-2.44.03-3.67.04-.61,0-1.27-.15-1.82.04-.44.16-.92.68-1.04,1.13-.22.81.19,1.45,1.12,1.47,1.71.04,3.42-.04,5.13.06.87.05,2.16-.41,2.33,1.06.15,1.33.14,2.75-1.3,3.52-1.83.98-3.71,1.86-5.54,2.83-.34.18-.53.63-.79.96.33.07.67.22,1,.2,1.34-.06,2.68-.27,4.01-.24.68.02,1.41.32,1.99.69.29.19.4.84.37,1.26-.02.25-.47.66-.73.67-3.17.07-6.34.1-9.51.08-.28,0-.69-.32-.82-.59-.66-1.36.09-3.61,1.48-4.35,2.22-1.18,4.49-2.28,7.53-3.81Z"/>
  <path d="M274.96,217.76c-.86,0-1.72.09-2.56-.02-.97-.14-2.33.64-2.75-.99-.47-1.87-.03-3.25,1.42-4.06,1.91-1.06,3.89-2.01,5.83-3.01.21-.11.38-.27.57-.4-.26-.14-.52-.39-.79-.4-1.83-.03-3.66-.02-5.49,0-1.04,0-1.47-.47-1.59-1.53-.64-5.67-.52-5.83,5.25-5.85,1.59,0,3.18-.07,4.76.07.4.03,1.02.73,1.02,1.12,0,.39-.64,1.09-1.03,1.11-1.95.13-3.9.08-5.86.09-.98,0-1.82.4-1.6,1.47.1.49.93,1.12,1.48,1.18,1.57.17,3.17.04,4.76.11.87.04,2.05-.48,2.32,1,.36,1.93,0,3.09-1.28,3.76-1.62.85-3.28,1.6-4.9,2.44-.35.18-.59.57-.88.87.42.14.84.38,1.28.4,1.54.08,3.09,0,4.62.18.42.05,1.01.68,1.11,1.13.19.88-.41,1.31-1.29,1.32-1.47,0-2.93,0-4.4,0,0,0,0,0,0,0Z"/>
  <path d="M334.46,211.77c0-2.81.02-5.62-.01-8.43-.01-1.14.26-1.75,1.6-1.85,5.94-.45,5.93-.49,5.9,5.61-.01,3.05.03,6.11.03,9.16,0,.85.04,1.72-.12,2.55-.07.35-.61.84-.94.84-.37,0-.96-.4-1.08-.75-.22-.67-.21-1.43-.21-2.16-.02-3.18.07-6.36-.04-9.53-.04-1.16.79-3.19-1.2-3.18-1.76,0-.95,1.92-.98,2.99-.1,4.15-.05,8.31-.06,12.46,0,.73.11,1.52-.13,2.17-.16.45-.85.97-1.3.96-.45,0-1.12-.53-1.3-.99-.25-.65-.17-1.44-.17-2.16-.01-2.57,0-5.13,0-7.7,0,0,0,0,.01,0Z"/>
  <path d="M244.29,237.77c-1.26-.08-1.75-.09-2.22-.14-1.54-.15-3.08-.32-4.62-.48-.05-2.3-.13-4.59-.1-6.89,0-.25.68-.7,1.06-.71,2.44-.07,4.88-.07,7.32-.05.86,0,1.44.55,1.23,1.38-.1.42-.74.92-1.2.99-1.55.25-3.13.36-4.7.44-1.13.06-1.43.67-1.41,1.66.02.89.41,1.35,1.31,1.36,1.34,0,2.68-.01,4.02.02.82.02,1.87-.18,1.99,1.03.11,1.17.52,2.52-.8,3.31-1.25.75-2.58,1.37-3.87,2.04-.43.22-.88.41-1.28.67-.18.12-.3.4-.32.63,0,.09.32.3.5.3,1.22.03,2.44,0,3.66.03.93.03,2.16-.23,2.13,1.27-.03,1.28-1.14,1.02-1.93,1.04-1.83.05-3.66.06-5.49.04-.91-.01-2.02.32-2.31-1.1-.36-1.78-.01-3.12,1.21-3.81,1.68-.95,3.43-1.8,5.82-3.05Z"/>
  <path d="M282.6,220.01c3.18,0,6.36,0,9.53,0,.73,0,1.49-.04,2.17.16.37.1.89.7.85,1-.07.51-.45,1.08-.87,1.4-.34.25-.93.2-1.42.2-6.85.01-13.69.02-20.54,0-.6,0-1.29,0-1.77-.29-.43-.26-.88-.93-.85-1.4.02-.38.74-1.01,1.15-1.01,3.91-.08,7.82-.05,11.73-.05,0,0,0-.02,0-.03Z"/>
  <path d="M379.72,229.53c3.52.61,6.98,1.2,10.43,1.82.59.11,1.35.19,1.69.57.41.45.65,1.25.61,1.87-.06.86-.74.6-1.37.48-2.13-.43-4.36-.53-6.41-1.2-4.18-1.38-8.19-.31-12.26.36-1.31.21-2.62.49-3.91.81-.72.18-1.47.57-1.63-.59-.13-.9-.02-1.69,1.13-1.91,2.27-.44,4.51-.98,6.78-1.42,1.66-.32,3.34-.54,4.93-.8Z"/>
  <path d="M352.39,207.3c2.08,0,4.16,0,6.25,0,.81,0,1.44.2,1.52,1.15.09,1.05-.6,1.11-1.39,1.22-1.64.23-3.89-.87-4.8.67-.76,1.29-.25,3.32-.27,5.03-.03,2.08.02,4.17-.11,6.24-.03.4-.74,1.05-1.14,1.05-.39,0-1.1-.67-1.12-1.06-.12-2.57-.06-5.14-.11-7.71-.07-4.53.61-4.27-4.01-4.22-.49,0-1.05.13-1.45-.07-.44-.21-1.04-.74-1.02-1.11.02-.4.64-1.08,1.04-1.11,1.7-.14,3.42-.08,5.14-.09.49,0,.98,0,1.47,0h0Z"/>
  <path d="M387.25,237.75c-2.15.14-4.31.38-6.46.4-3.12.02-6.24-.17-9.36-.16-.94,0-1.06-.49-.94-1.08.11-.5.44-1.07.85-1.35.34-.23.94-.11,1.43-.11,4.5-.01,8.99-.02,13.49-.03.36,0,.73.06,1.09.03,1.22-.1,1.98.57,1.84,1.65-.07.52-1.09.91-1.68,1.36-.09-.24-.18-.48-.27-.72Z"/>
  <path d="M275.85,246.34c-1.22-.5-2.44-.98-3.64-1.51-.66-.29-1.36-.6-1.9-1.06-.29-.25-.38-.86-.34-1.3.02-.18.65-.53.88-.45,2.85,1.03,5.74,1.99,8.48,3.27,1.15.54.66,2.81-.69,3.26-2.3.78-4.66,1.41-7.02,1.99-.43.11-1.33-.27-1.43-.59-.14-.46.11-1.37.48-1.58.93-.54,2-.85,3.05-1.14.7-.2,1.44-.22,2.16-.32,0-.19-.01-.38-.02-.57Z"/>
  <path d="M253.86,203.87c-2.2,0-4.4.03-6.59-.01-1.75-.04-2.66-1.68-1.68-3.22.2-.32,1.66-.37,1.74-.18.63,1.38,1.77,1.02,2.82,1.03,3.66.01,7.33-.02,10.99.06.44,0,1.13.51,1.24.91.23.82-.29,1.36-1.19,1.39-.49.02-.98,0-1.46,0-1.95,0-3.91,0-5.86,0,0,0,0,0,0,.01Z"/>
  <path d="M352.54,201.5c2.07,0,4.13,0,6.2,0,.83,0,1.44.26,1.4,1.22-.04.94-.7,1.17-1.5,1.17-4.13,0-8.26-.01-12.39-.02-.24,0-.59.04-.7-.09-.34-.4-.74-.86-.82-1.34-.04-.23.57-.82.9-.83,2.31-.07,4.61-.04,6.92-.04,0-.02,0-.04,0-.06Z"/>
  <path d="M348.42,214.77c-.39,1.99-.87,4.47-1.36,6.94-.18.9-.83,1.27-1.59.93-.41-.18-.86-.92-.81-1.36.28-2.75.63-5.51,1.13-8.23.08-.45,1.02-.97,1.61-1.03.96-.1,1.05.75,1.02,1.52,0,.24,0,.48,0,1.23Z"/>
  <path d="M360.27,221.48c-.35.37-.79,1.2-1.21,1.19-.57-.01-1.54-.6-1.61-1.05-.47-2.86-.78-5.74-1.02-8.63-.03-.32.69-.85,1.15-1,.26-.08.97.36,1.03.66.59,2.83,1.08,5.69,1.66,8.83Z"/>
  <path d="M241.92,250.78c-1.21,0-2.43.1-3.62-.06-.39-.05-.95-.75-.97-1.18-.02-.46.49-1.36.78-1.37,2.77-.02,5.54.07,8.3.23.3.02.86.69.8.91-.14.52-.56,1.32-.93,1.36-1.43.16-2.9.06-4.35.06,0,.01,0,.02,0,.04Z"/>
  <path d="M238.98,213.38c-1.13.09-1.81-.27-1.79-1.58.01-1.4.91-1.45,1.93-1.48,1.13-.03,1.82.3,1.81,1.61,0,1.42-.89,1.49-1.94,1.45Z"/>
  <path d="M238.91,201.55c1.26-.06,2.05.18,2.01,1.54-.04,1.34-.86,1.52-1.92,1.54-1.13.03-1.82-.29-1.8-1.6.03-1.33.77-1.6,1.7-1.48Z"/>
  <path d="M240.9,221.05c-.17,1.37-1.17,1.3-2.16,1.29-1.04,0-1.54-.46-1.51-1.53.03-1.2.53-1.58,1.87-1.53,1.19.05,1.76.61,1.8,1.77Z"/>
  <path d="M119.1,238.41c.07-.19.14-.38.2-.56-.1.16-.2.31-.3.47l.1.09Z"/>
</svg>