<?xml version="1.0" encoding="UTF-8"?>
<svg id="Layer_1" xmlns="http://www.w3.org/2000/svg" viewBox="0 0 400 400">
  <defs>
    <style>
      .cls-1 {
        fill-rule: evenodd;
      }
    </style>
  </defs>
  <path class="cls-1" d="M72.66,33.88c17.02,9.92,39.43,16.92,66.26,17.16,27.51.32,50.84-5.06,67.68-15.72,16.97,10.61,40.56,16.15,67.81,15.72,26.34-.35,49.53-7.24,66.29-17.03.32,39.53-.61,77.23-.61,116.57s2.1,79.65-7.9,109.52c-4.87,14.66-12.21,26.95-20.48,38.46-8.14,11.41-18.25,21.41-29.1,29.66-11.28,8.59-24.32,14.68-37.56,21.36-11.36,5.72-22.77,11.63-33.84,17.64-1.54.85-3.35,1.41-4.47,2.9-5.96-4.02-12.45-7.24-18.89-10.61-6.49-3.32-13.03-6.73-19.53-10.06-6.7-3.43-13.41-6.36-19.76-9.73-6.36-3.35-12.13-7.26-17.8-11.65-22.27-17-39.45-39.03-49.64-68.34-5.21-15.13-6.7-32.45-7.61-51.21-.85-18.49-.4-38.17-.4-57.35,0-39.08-.55-77.49-.55-116.86-.03-.21-.03-.43.1-.43ZM199.87,47.93c-23.41,10.32-60.28,13.33-90.18,7.29-9.36-1.89-17.88-4.42-25.27-7.85-.98-.48-2.08-1.28-3.3-1.17-.34,36.36.59,74.09.59,109.12,0,18.23-.88,36.85-.16,54.19.8,17.26,2.74,33.65,7.48,47.75,4.66,13.83,10.88,25.73,18.65,36.55,11.6,16.23,25.64,29.69,43.41,39.32,5.99,3.19,12.29,6.04,18.67,8.99,12.45,5.83,24.9,11.92,37.27,17.96,12.34-6.15,24.87-11.97,37.16-17.96,6.33-3.06,12.69-5.67,18.62-8.89,11.81-6.28,21.87-14.71,30.81-24.18,13.35-14.07,24.26-31.57,30.86-51.93,9.26-28.6,7.34-64.8,7.34-101.41s.11-73.18.37-109.52c-1.12,0-2.21.69-3.27,1.17-7.69,3.38-15.99,6.2-25.22,8.01-21.73,4.23-48.39,3.59-68.84-.88-10.54-2.29-19.87-5.83-28.12-10.03-1.7,1.35-4.23,2.29-6.87,3.46Z"/>
  <path class="cls-1" d="M209.63,59.39c11.52,1.25,20.17,7.26,25.38,15.8.69,1.12,1.84,2.93,1.73,3.81-.16.93-.85,1.67-1.73,1.62-1.15-.05-1.46-1.62-2.32-3.03-4.38-7.69-11.49-12.98-21.65-14.77.48,2.34,1.54,4.6,2.45,7.03.85,2.39,1.76,4.87,2.58,7.2.4.43-.05.98,0,1.57,1.84-.13,3.89-.05,3.59,1.99-.4,2.64-8.27.64-11.2,1.3-.32,2.02-.05,4.71-.14,6.97,1.6.96,9.21-.8,10.75.32.45.29.64,1.23.59,1.7-.43,2.87-8.14.53-11.2,1.28-.45,2.4.66,5.75-1.73,5.91-2.29.13-1.65-3.03-1.7-5.77-2.88-1.04-10.75,1.52-11.34-1.25-.8-3.94,8.44-1.09,11.17-2.18.27-1.94.27-4.9,0-6.86-2.55-.96-10.64,1.33-11.17-1.28-.42-2.02,1.6-2.34,3.46-2.13.4-.37-.21-.85,0-1.44,1.86-4.63,3.38-9.6,5.32-14.21-12.29,1.67-20.06,9.12-23.94,19.6,1.33-.05,3.35-.83,6.01-1.28,2.82-.48,8.55-1.78,6.87,2.16-2.31.74-4.95.66-7.34,1.17-2.34.45-4.47,1.27-6.44,1.99-.37.72-.48,1.73-.59,2.74,2.08-.32,4.26-1.22,7.02-1.73,1.99-.35,7.93-1.78,7.34,1.44-.27,1.41-1.97,1.23-3.3,1.3-3.83.24-8.64,1.49-11.07,2.85-.11.51,0,1.65.16,2.29,2.34-.61,4.04-1.12,7.03-1.6,1.86-.24,6.33-1.49,6.76.58.61,2.98-4.63,2.13-7.15,2.58-2.74.51-4.39,1.28-6.04,1.83.61,1.41.64,3.22-.75,3.46-2.87.64-3.19-6.12-3.3-8.85-.11-4.2.48-7.93,1.33-10.77,3.78-12.98,13.89-21.28,28.67-23.49,1.07-1.57,1.07-4.71,3.14-4.5,1.83.19,1.65,3.25,2.73,4.63ZM208.65,66.12c-.48-1.22-.96-3.94-2.34-3.7-2.42,5-4.04,10.8-6.17,16.2,1.22.06,3.54-.05,4.73,0-.9-4.81,4.58-5.11,3.46,0h4.9c-1.39-3.7-3.14-8.48-4.57-12.5Z"/>
  <path class="cls-1" d="M139.09,71.84c.71.56-.24,1.43.13,1.99,2.08-.4,4.66,1.2,4.87,2.32.29,1.44-1.3,2.98-.88,4.86,3.51,2.24,4.36,7.13,8.35,8.94,1.73,3.27,2.87,8.22,2.13,12.74-.58,3.43-3.99,3.8-3.3,8.3.32,1.94,1.49,5.85,2.87,6.46.9.4,2.13-.08,3.03.56.72.88.37,2.79-.16,3.62-2.77.51-3.78,3.43-7.18,2.29-1.28-.48-3.51-1.94-4.15-3.03-.43-.69-.37-1.68-.72-2.42-.72-1.62-2-2.61-2.74-3.75-2.07.64-8.46-.45-7.45,2.9.48,1.49,5.53.75,3.88,4.57-.59,1.33-4.95,3.19-6.6,3.57-.59.1-1.65.18-2.02.13-.53-.05-1.01-.56-1.7-.72-1.39-.26-3.25.35-4.74,0-.91-.16-3.41-1.94-4.31-2.71-.58-.53-1.75-1.97-1.97-2.58-.67-1.57-.24-2.87-1.92-3.59-.74-.32-1.7-.19-2.55-.43-1.54-.37-3.19-1.62-4.44-.69-1.57,1.73.9,2.47,1.7,3.99.77,1.43.29,2.5.46,4.57-.51.69-1.6,1.94-2.88,2.15-1.73.32-4.07-.98-6.49-1.57-1.57-.4-3.94-.4-4.25-2-.21-1.01.79-1.6.98-2.45.29-1.14-.34-2.05.43-2.98-1.09-1.68-.62-4.29-.72-7.32-.1-3.3-.05-5.53.72-7.9.29-.85.34-1.84.61-2.31.43-1.01,3.38-3.38,4.57-3.99,2.71-1.52,7.23-2.71,12.03-2.02,1.01.11,1.91.96,2.87,1.14,1.81.32,4.26-.19,6.18,0,.58-.35,1.06-.72,1.44-1.28.16-3.11-1.6-4.34-2.45-6.46.4-3.14-.53-6.7.58-9.71.29-.85,1.7-3.24,2.45-4.07.71-.82,2.23-2,3.14-2.15,1.65-.29,4.42.64,6.01,1.17.9-.64,2.92-.64,4.17-.16ZM130.6,78.33c1.43.35,1.97-1.38,2.61-2.31-.37-.69-.16-1.99-1.18-2.02.14,2.05-.85,2.98-1.43,4.34ZM125.34,77.72c.16.21.58.19,1.01.19.37-.85.5-1.99.95-2.71-1.25-.4-2.08,1.52-1.97,2.53ZM134.35,78.2c-1.3,1.01-3.8,2.02-3,4.15.11.03.27,0,.27.11,1.65-.48,2.1-2.24,3.3-3.27,1.01-.85,2.87-1.41,2.71-3.35-1.65-.61-2.23,1.49-3.28,2.37ZM134.35,84.9c.03.06.3.29.3.37.53.35.9-.32,1.54-.37,1.17-.1,2.02.56,2.74.56.69-.66.08-1.89-.72-1.99-.96,1.54-4.33-1.25-3.86,1.43ZM143.5,83.47c-.74-.08-1.03.74-.98,1.28.11.98,1.86,2.07,2.88,2.02-.32-.61-1.17-3.19-1.89-3.3ZM131.03,85.62c-1.17.46-1.84,1.52-2.13,2.82.96.4,1.14-.96,1.97-1.09.99.53.96,2.05,2.03,2.42.26.43,1.54-.16,1.59.43,0,.77-1.22.77-2.02,1.17-.85.42-2.42,1.67-3.73,2.47-2.28,1.3-5.26,3.01-1.86,4.52.37-.29-.02-1.01.16-1.36.27-.69,3.08-2.69,3.41-2.74.58-.11,1.25.32,1.75.24,1.49-.19,1.83-1.62,3.14-2.18.82.19,1.65.35,2.77.32,1.3.45.61,2.93,2.12,3.19.69-.95.16-2.29,1.01-3.19-.14-.93-.98-1.17-.88-2.26.24-.56.88-.69,1.44-.9,1.36.98,1.09,3.59,2.42,4.58,1.17-.72,1.46-3.32.74-4.58-.64-1.03-2.6-1.43-3.03-2.23-3.35.03-5.9.85-8.46,1.65-1.01-.85-1.44-2.34-2.44-3.27ZM147.52,94.83c1.07-.61.48-2.85-.69-2.9-.51.82-.51,2.87.69,2.9ZM134.03,96.08c.32.77,1.52.61,1.73,1.44-.43,1.6.91,2.4,1.17,3.75-.85,1.22-2.19.1-2.59-.72-.63.11-1.03.43-1.03,1.14,3.3.21,1.49,4.04-.56,4.71-.62.27-1.47,0-2.16.16-.8.21-1.55,1.11-2.42,1.44-1.36.48-2.61.08-3.43.74-.42,1.68-.21,3.75,1.01,3.73,1.22-.06,1.17-2.48,2.42-2.88,1.78.29,1.6-1.12,2.58-1.44.53-.21,1.15.16,1.84,0,1.99-.56,2.52-3.14,3.75-4.63,3.24.4,4.04-2.42,4.15-4.71-1.81.35-3.99.59-4.31-.98-.16-1.14.88-1.65,1.17-2.74-.85-1.47-3.11-.32-3.33.98ZM107.4,96.53c-.64,0-.5-.77-1.27-.59.1,1.09-.91,1.09-1.17,1.7.16.77,1.17.77,1.43,1.46,2.26-.05,2.88-1.7,4.84-2.02-.37-2.66-2.39-1.43-3.83-.56ZM114.43,95.52c-.53.82.05,2.21.85,2.58,1.33-.59.91-2.82-.85-2.58ZM121.88,101.37c.61-.72.32-2.56-.74-2.56-.43.59-.64,2.88.74,2.56ZM98.79,102.86c.9.51,3.03.67,3.72-.16-.51-.99-.51-1.83-.43-2.71-1.44.56-2.82,1.3-3.3,2.87ZM122.57,103.53c1.17.21,3.51.51,3.78-.67-.59-1.49-3.99-1.41-3.78.67ZM106.39,106.27c-.63.05-.37-.78-1.01-.72-.85.02-.85.9-1.6,1.01-.29-.11-.48-.32-1.01-.29-.32.29-.8.45-.69,1.11.74-.32.96-.18,1.57.16.24-.27.16-.83.72-.83-.11,2.13-1.41,4.34-3.86,4.55-.24,1.15-.99,1.71-1.73,2.32-.59,2.63.16,5.06,2.72,5.06.18-.48.13-1.22.16-1.91-.74-.69-1.44-1.41-1.14-3.14.4-.35.9-.61,1.7-.58,1.09-1.01,2.05-2.24,2.74-3.72-.48-1.6,1.17-2.71,1.86-1.41,0,.42-.45,1.17.27,1.14.59-.16,0-.58,0-1.01.72-.93,2.29-.98,2.74-2.15-1.09-1.7-2.26-.05-3.43.43ZM99.48,108.9c.8-.66,1.07-2.23.59-3.35-1.44,0-1.7,2.76-.59,3.35ZM117.86,109.27c.11.53,1.19.27,1.57.16,0-.19.05-.32.16-.43-.21-.34-.64-.56-1.04-.72.16.72-.74.38-.69.99ZM130.04,111c-.56.26-1.14.45-1.41,1.01-.21.96.37,2.69-.45,3-1.38-.99-2.42-.24-3.32.75-.69-.13-.9-.8-1.97-.58-.1.48-.53,2.23.27,2.29.8-.16-.43-1.49.59-1.49.26.69.74,1.12,1.12,1.65-.06,1.07-.43,3.22.16,4.02,1.7-.5.08-4.34,2.18-4.5.69.4.5,1.7.56,2.74.61.27,1.35,1.2,2.42,1.31,1.17.13,3.27-.27,3.72-1.14-.75-.59-1.97-.61-2.56-1.3-.24-.16-.16-.75-.16-1.12-1.41-.96-2.08-3.35-1.44-5.48.21-.69,1.65-1.68.43-2.45-.22.24-.11.85-.14,1.31ZM103.36,119.32v.4c1.27-.13,1.57,1.41,2.61,1.04-.32-.98-1.55-1.7-2.61-1.44Z"/>
  <path class="cls-1" d="M308.57,115.18c-1.38-.9-3.19.37-4.63.69-1.73.43-3.27.4-3.99,1.89-.32.69-.16,1.46-.42,2.12-1.17,2.79-3.88,3.51-6.01,5.29-1.44.27-3.14-.29-4.87,0-1.17.21-1.73.96-3.59.59-2.66-.48-6.31-2.24-6.89-3.73-1.14-2.87,2-3.35,3.88-4.15.51-2.87-1.57-2.42-4.04-2.71-1.17-.16-2.53-.61-3.17-.45-.64.19-2.39,2.39-2.98,3.75-.32.69-.27,1.65-.59,2.29-.85,1.7-4.15,3.54-6.01,3.4-2.37-.08-2.77-2.18-5.46-2.53-.61-1.2-.82-2.9,0-3.62.66-.56,2.48-.26,3.3-.88.98-.69,3.22-6.41,2.45-9.15-.51-1.75-2.8-3.3-3.17-4.71-.1-.53-.16-1.73-.16-2.48,0-3.46.1-8.16,2.18-10.72.85-1.09,2.39-1.65,3.46-2.74,1.91-2.08,2.18-5.43,5-6.15-.08-2-.64-3.4-1.01-5.06,1.06-1.3,2.18-2.61,4.87-2.32.45-.64-.56-1.38.13-1.99,1.15-.42,3.25-.53,3.99.16,1.52-.64,3.25-.91,4.92-1.17,2.95-.45,4.63,2.52,5.72,4.5.8,1.38,1.49,2.21,1.73,4.42.1,1.01.02,2.31,0,3.62,0,1.14.13,2.5,0,3.27-.51,2.85-4.61,6.01-.99,7.87,1.89-.24,4.1.38,6.12,0,1.07-.19,2.08-1.04,2.74-1.14,2.16-.37,4.77-.21,6.47,0,4.2.56,7.5,3.3,10.16,5.75.05,1.68,1.3,3.11,1.6,4.98.42,2.98.32,7.69-.13,10.64-.24,1.49-.77,2.9-.29,5,.21.96,1.06,1.52.98,2.31-.14,1.89-2.53,1.89-4.55,2.45-3.62.99-7.45,2.77-9.04-.85.08-2.13-.24-3.19.59-4.63.75-1.38,2.92-1.86,1.71-3.83ZM285.48,78.33c.05-.93-1.01-1.12-1.28-2.02-.27-.77.35-1.81-.48-2.47-1.76,1.38-.24,4.85,1.76,4.5ZM289.63,77.91c.53.05.9-.08,1.11-.32-.18-1.25-.69-2.23-1.84-2.56-.24.8.67,1.81.72,2.87ZM278.3,75.83c.1,2.42,2.15,2.55,3.46,3.91,1.01,1.09,1.28,2.53,2.56,2.72,1.46-1.76-1.33-3.78-2.85-4.42-.66-.98-1.46-2.66-3.16-2.21ZM273.56,84.48c0-.35-.54-1.09-1.11-1.01-.65.1-1.76,2.95-1.76,3.3,1.07.08,2.93-1.36,2.88-2.29ZM279.57,84.05c-.66.08-1.44-.69-1.97-.58-.64.16-1.38,1.78-.32,1.99.64-.4,2.98-.93,3.89,0,.88-.56.45-1.54-.32-1.99-.64-.03-.56.48-1.28.58ZM285.21,85.62c-1.43.64-1.49,2.61-2.87,3.27-2.39-.96-5.05-1.6-8.35-1.65-.42.95-2.77,1.38-3.14,2.71-.43,1.36,0,3.19.69,4.1,1.71-.74,1.86-6.76,4.21-3.43-.21.85-.85,1.3-1.04,2.18.96.64.43,2.02.88,3.03,1.76,0,.98-2.47,2.16-3.03.93-.21,2.1-.21,3-.48,1.38.98,2.45,2.82,4.85,1.94,1.28,1.31,3.67,1.81,3.49,4.1,1.09,0,1.78-1.17,1.67-1.84-.11-1.36-3.01-2.47-4.42-3.3-.82-.5-1.49-1.2-2.29-1.6-.96-.45-2.29-.4-2.45-1.43.11-.48.96-.21,1.44-.24,1.06-.51,1.06-2.12,2.18-2.6.75.13,1.09,1.41,1.84,1.09.03-.99-.88-2.29-1.84-2.82ZM267.87,94.05c1.01,1.78,2.13-.8,1.41-2.13-1.15.06-1.25,1.17-1.41,2.13ZM278.62,95.09c.4.98,1.17,1.6,1.25,2.84-.61,1.6-2.96.93-4.44.98.35,2.02.74,5.14,4.15,4.5,1.12,1.73,1.97,3.64,3.77,4.74,2.5-.96,2.29,1.54,4.42,1.44,1.27.37,1.22,2.79,2.42,2.88,1.41.1,1.49-2.48,1.04-3.89-1.22-.5-2.32-.08-3.62-.58-.61-.24-1.06-1.06-1.7-1.28-.96-.32-1.99.05-2.87-.32-1.23-.48-2.18-2.34-2.18-3.86.29-.69,1.6-.32,1.76-1.17-.05-.53-.43-.72-.85-.82-.53.82-1.94,1.99-2.74.56.56-1.19,1.52-1.91,1.3-3.91.37-.51,1.44-.35,1.57-1.12-.08-1.44-2.47-2.34-3.27-.98ZM304.68,97.01c1.86.4,2.66,2,4.89,2.1.21-.74,1.39-.67,1.54-1.47-.43-.56-1.35-.61-1.27-1.7-.85-.19-.64.69-1.44.59-1.38-1.06-3.14-1.86-3.72.48ZM300.8,98.1c.63-.48,1.27-1.52.85-2.58-1.83-.27-2.4,2.13-.85,2.58ZM294.52,98.82c-.64.37-1.09,1.89-.43,2.56,1.41.34,1.54-2.37.43-2.56ZM313.41,102.86c.93.61,2.61.37,3.75.13-.37-1.73-1.84-2.42-3.3-3.01.13.9,0,1.83-.45,2.87ZM289.79,103.1c.48.77,2.56.69,3.57.43.37-2.16-3.46-2.24-3.57-.43ZM306.12,105.97c.69.88,1.99,1.2,2.71,2.02-.06.32-.26.74,0,1.01.9-.08.37-.69.29-1.3,2.15-1.57,1.89,2.18,2.85,3.56.63.94,1.43,1.04,1.75,1.73.53.11,1.12.16,1.59.29,1.23,2.18-2.02,3.17-.74,5.35,3.19.42,3.67-5.3,1.33-6.17,0-.48-.21-.69-.32-1.01-2.39-.32-4.1-2.79-3.88-4.74.53,1.07,1.35.24,2.29.67-.05-.61-.48-.88-.98-1.11-.4.02-.61.29-1.04.29-.37-.32-.64-.82-1.28-1.01-.64,0-.48.85-1.25.72-.93-.78-2.47-2.02-3.32-.3ZM316.71,108.74c.82-.8.53-3.14-.69-3.19-.64.96-.46,2.87.69,3.19ZM296.52,109.27c.35.32.93.32,1.57.32,0-.24.05-.32.15-.48-.53-.35-1.7-1.25-1.72.16ZM286.32,112.3c-.26,1.41,0,2.5-.15,3.99-.75.69-1.54,1.22-1.38,2.45-.75.72-2.29.61-2.74,1.6,1.84,1.01,4.98,1.09,6.17-.46.19-.98-.24-2.6.85-2.74,1.8.37.23,4.07,2.02,4.5.51-.88.35-3.17,0-4.02.66-.43.66-1.43,1.57-1.65.1.48-.32,1.49.26,1.49.58-.35.5-1.81.16-2.29-1.2-.27-1.2.58-2.15.58-.53-1.41-2.02-1.49-3.33-.75-.48-.88-.16-1.78-.26-3.11-1.07-.4-1.38-1.47-1.76-2.21-.54,1.2.37,1.97.74,2.61ZM310.11,120.9c1.01-.29,1.76-.85,2.47-1.44-.82-.56-2.47.24-2.47,1.44Z"/>
  <path class="cls-1" d="M234.86,82.91c.88-.13,1.14-1.15,2.31-.99,1.81.13,2.24,5.03,2.45,7.45.32,4.26-.05,15.7-4.31,11.9-.1-.93.06-1.57.27-2.16-2.03-1.2-6.07-2.1-9.6-2.45-1.78-.13-4.29.11-3.59-2.29.56-1.92,5.06-.69,6.89-.45,2.85.48,4.5.96,6.73,1.6.48-.37.22-1.46.45-2.15-1.67-1.25-7.34-2.74-11.04-2.98-1.81-.13-3.62.08-3.62-1.73,0-.82.64-1.06,1.17-1.6,5.16.08,9.34,1.09,13.2,2.42,1.06-3.61-3.67-4.07-6.34-4.73-2.66-.61-5.37-.75-7.45-.98-1.17-.59-1.06-2.95.72-3.01,3.3-.08,9.6,1.17,11.76,2.15Z"/>
  <path class="cls-1" d="M213.07,123.64c-3.19-4.15,7.02-3.73,8.3-5.88-1.41-.72-3.4-1.07-5.29-1.3-1.94-.27-3.94-.48-5.74-.48.13,2.87,1.41,7.77-1.68,8.65-2.18.56-8.88-.05-9.2-1.6-.67-3.54,5.11-1.22,7.71-1.57.69-1.54.08-4.12-.43-5.48-5.13-.43-10.05.56-14.31,1.49,1.28,1.99,5,1.49,5.3,3.43.72,4.28-6.68-.05-7.74-.75-4.04-2.32-7-5-9.9-8.89-1.14-1.51-3.46-4.44-3.3-5.98.16-1.54,3.54-2.42,5.75-3.01,12.9-3.48,27.77-4.81,42.14-1.89,1.94.4,4.18,1.14,6.44,1.89,1.89.59,5.4,1.36,5.64,2.71.29,1.78-3.01,5.99-3.75,7.03-3.27,4.39-6.65,7.13-11.73,9.44-2.39,1.06-5.11,2.26-8.19,2.18ZM180.77,106.27c1.94,3.69,4.68,6.52,7.77,9.04,2.08-.75,4.33-1.36,6.76-1.73-.96-.91-2.16-1.43-3.46-2.45-.95-.72-2.81-1.78-2.73-3.27.13-1.57,3.48-2.37,5.75-2.88,7.53-1.67,16.36-1.46,23.54.11,2.24.53,6.02,1.12,6.02,2.9,0,1.01-1.71,2.47-2.61,3.14-1.23,1.01-2.61,1.12-3.41,2.45,2.66.19,4.68,1.04,6.86,1.73,3.25-2.26,5.69-5.32,7.45-9.04-13.67-5.72-38.07-5.32-51.93,0ZM194.29,108.74c5.58,4.87,19.21,4.87,24.79,0-6.65-2.18-18.17-2.18-24.79,0Z"/>
  <path d="M111.4,207.88c0-.32-.14-.72-.27-1.33-.16-.56-.29-.98-.45-1.14-.24-.37-.69-.64-1.41-.74-.7-.11-1.54-.19-2.61-.19h-15.24v-1.3l17-12.56h-10.72c-1.19,0-2.1.05-2.74.21-.67.13-1.12.35-1.39.72-.21.21-.42.69-.58,1.38-.21.69-.32,1.14-.32,1.36h-1.01v-8.48h1.01c.06.26.11.72.32,1.3.16.64.32,1.01.43,1.17.27.35.69.61,1.22.69.58.13,1.55.24,2.93.24h10.22c.42,0,.88-.1,1.33-.26.48-.16.79-.34,1.06-.61.32-.4.59-.88.83-1.43.24-.58.35-1.09.4-1.49h1.01v5.96l-15.86,11.65h9.9c1.2,0,2.15-.03,2.79-.21.66-.11,1.09-.37,1.31-.69.19-.26.37-.66.53-1.3s.27-1.12.32-1.41h1.01v8.49h-1.01Z"/>
  <path d="M93.36,231.58l-.91-8.56,1.04-.11c.14.74.3,1.39.51,1.86.16.48.37.69.64.69.06,0,.16-.02.27-.08.11-.03.24-.05.32-.13l4.47-2.15-.72-7.26c-.72-.21-1.33-.4-1.84-.48-.53-.13-1.01-.27-1.44-.32-.48-.1-.8-.1-1.06-.16h-.64c-.4.06-.64.35-.82,1.01-.13.64-.19,1.3-.16,2.07l-1.04.11-.8-7.82,1.04-.05c.06.24.14.56.26.96.14.35.3.64.51.85.27.4.58.64.88.85.29.19.72.34,1.25.51,2.71.77,5.75,1.57,9.1,2.55,3.35.9,6.33,1.73,8.99,2.47l.11,1.14-17.16,8.73c-.34.13-.66.35-.88.56-.21.21-.43.51-.58.88-.11.24-.22.53-.24.88-.08.37-.08.66-.08.93l-1.01.08ZM100.92,222.43l7.74-3.94-8.33-2.29.59,6.22Z"/>
  <path d="M118.05,253.32c-.05-.24-.21-.66-.48-1.2-.26-.48-.53-.85-.72-1.06-.29-.27-.82-.4-1.54-.4-.67.03-1.57.16-2.61.4l-14.87,3.27-.27-1.23,13.91-15.96-10.48,2.29c-1.17.24-2.05.53-2.64.82-.61.32-1.01.64-1.22.99-.16.26-.27.77-.27,1.46-.05.77-.05,1.25,0,1.41l-1.01.27-1.86-8.33,1.01-.24c.1.26.32.66.61,1.25.29.59.51.9.69,1.04.35.32.77.43,1.36.43s1.55-.11,2.87-.43l9.98-2.21c.45-.11.88-.26,1.31-.5.37-.27.66-.56.85-.85.27-.4.43-.99.53-1.57.05-.67.08-1.17.03-1.51l1.01-.21,1.3,5.77-12.98,14.87,9.63-2.18c1.22-.26,2.07-.5,2.71-.83.61-.26.96-.56,1.12-.93.1-.29.21-.8.24-1.41.03-.64.03-1.14-.03-1.41l1.01-.27,1.84,8.27-1.04.19Z"/>
  <path d="M124.54,265.53c-.16-.24-.37-.53-.61-.82-.27-.29-.51-.53-.72-.74-.29-.24-.56-.37-.84-.29-.27.03-.59.11-.86.29l-10.69,6.12c-.56.32-1.2.56-1.97.66-.75.13-1.49.13-2.24,0-.85-.21-1.65-.5-2.39-1.01-.69-.51-1.31-1.25-1.84-2.13-.77-1.33-1.07-2.66-.77-4.01.32-1.3,1.06-2.32,2.42-3.06.54-.31,1.15-.48,1.78-.48.59.06,1.07.37,1.44.96.24.53.35.96.21,1.44-.06.48-.37.85-.82,1.15-.29.16-.62.26-.94.32-.32.05-.61.05-.9.05-.3-.03-.59-.03-.96-.03-.35-.02-.66,0-.91.03-.16.32-.26.74-.26,1.28,0,.51.18,1.04.53,1.67.38.64.85,1.04,1.33,1.25.5.24,1.07.32,1.65.24.53-.05,1.17-.24,1.87-.53.69-.32,1.43-.64,2.21-1.09l9.55-5.51c.27-.19.5-.37.64-.53.16-.24.21-.53.21-.93-.03-.35-.14-.75-.27-1.2-.16-.43-.32-.75-.45-1.04l.93-.5,4.55,7.93-.88.53Z"/>
  <path d="M117.22,289.31l-5.67-7.42.8-.64c.21.18.48.5.77.88.35.35.61.61.77.74.32.16.58.21.85.21.27-.06.56-.16.85-.37l11.97-9.15c.27-.19.49-.4.62-.64.1-.21.1-.53,0-.96-.11-.32-.24-.69-.42-1.09-.19-.4-.35-.69-.51-.96l.82-.64,5.67,7.43-.85.64c-.16-.24-.43-.48-.72-.77-.29-.32-.58-.56-.88-.74-.26-.21-.58-.29-.88-.24-.29.05-.56.18-.82.37l-11.95,9.15c-.23.19-.45.4-.56.67-.1.29-.13.56-.06.95.08.16.24.53.43.91.22.45.4.8.59,1.04l-.83.64Z"/>
  <path d="M152.95,296.68c-.22-.19-.59-.43-1.07-.72-.53-.27-.9-.43-1.22-.48-.43-.05-.91.11-1.49.51-.53.45-1.22,1.04-1.91,1.81l-10.54,11.01-.9-.88,2.61-20.99-7.39,7.74c-.83.9-1.41,1.57-1.76,2.18-.32.56-.45,1.09-.42,1.46,0,.35.21.8.59,1.41.37.61.63,1.01.8,1.17l-.69.74-6.2-5.91.75-.72c.18.19.56.4,1.14.69.59.32.96.51,1.17.51.46.03.9-.11,1.38-.48.45-.32,1.17-.93,2.08-1.91l7.13-7.43c.26-.34.53-.66.74-1.12.18-.45.27-.82.24-1.17-.03-.53-.19-1.04-.46-1.6-.29-.61-.53-1.01-.8-1.33l.69-.75,4.31,4.13-2.44,19.52,6.81-7.13c.83-.9,1.44-1.65,1.76-2.18.32-.58.42-1.06.42-1.43-.11-.29-.32-.77-.64-1.3-.32-.53-.58-.93-.79-1.2l.69-.74,6.12,5.83-.69.74Z"/>
  <path d="M164.71,318.07c-.21-.1-.54-.24-.85-.43-.37-.16-.66-.27-.93-.32-.35,0-.62.03-.91.18-.21.14-.45.38-.67.69l-.9,1.33c-.64.98-1.12,1.62-1.3,1.97-.24.37-.4.61-.5.85-1.44-.24-2.76-.56-3.99-1.04-1.23-.51-2.4-1.04-3.41-1.7-1.09-.8-2.02-1.7-2.74-2.79-.77-1.12-1.25-2.29-1.49-3.54-.24-1.36-.24-2.69.08-4.07.26-1.38.85-2.82,1.81-4.15.85-1.33,1.92-2.39,3.11-3.22,1.19-.82,2.47-1.38,3.8-1.68,1.31-.29,2.67-.29,4.02-.03,1.36.27,2.69.83,3.86,1.62.96.67,1.76,1.36,2.34,2.1.53.72.96,1.39,1.33,2.1l1.01-.51.99.69-3.96,6.09-.96-.69c.27-.8.48-1.52.63-2.37.21-.82.27-1.6.21-2.42-.05-.77-.26-1.51-.64-2.18-.35-.67-.96-1.3-1.7-1.84-.91-.56-1.76-.93-2.69-1.04-.93-.11-1.89,0-2.85.37-.96.32-1.91.9-2.82,1.78-.96.82-1.86,1.81-2.71,3.03-.72,1.09-1.28,2.21-1.67,3.38-.4,1.15-.56,2.26-.56,3.3.03,1.04.27,2.05.75,2.98.47.88,1.2,1.68,2.13,2.34.74.48,1.43.85,2.18.96.74.16,1.33.27,1.7.16.37-.4.7-.74.99-1.2.29-.42.56-.8.74-1.06l.61-.96c.27-.35.43-.67.48-.99.11-.32.08-.66-.16-.98-.21-.29-.47-.67-.88-1.01-.45-.37-.77-.67-1.04-.8l.58-.96,7.58,5.13-.61.88Z"/>
  <path d="M216.85,321.45c-.27,0-.64.05-1.17.18-.53.11-.96.24-1.3.45-.35.24-.56.72-.67,1.41-.13.69-.21,1.54-.21,2.55v9.05c0,1.12-.24,2.13-.72,2.98-.51.88-1.12,1.57-1.89,2.13-.75.51-1.57.93-2.45,1.11-.85.27-1.65.38-2.45.38-1.22,0-2.37-.16-3.32-.51-.98-.32-1.78-.77-2.47-1.33-.64-.56-1.14-1.17-1.44-1.92-.37-.72-.53-1.46-.53-2.23v-12.23c0-.4-.05-.67-.16-.9-.1-.24-.35-.45-.69-.61-.21-.16-.53-.29-.93-.37-.4-.08-.72-.13-.93-.13v-1.06h8.62v1.06c-.27,0-.61.02-1.01.11-.42.08-.71.18-.9.24-.37.08-.59.32-.66.56-.13.32-.19.64-.19.96v11.44c0,.53.05,1.14.19,1.73.13.61.37,1.17.72,1.73.4.53.9.96,1.57,1.28.66.35,1.51.56,2.69.56,1.06,0,1.97-.21,2.71-.56.7-.32,1.3-.75,1.7-1.3.37-.53.69-1.09.88-1.68.13-.58.24-1.12.24-1.73v-8.49c0-1.11-.11-1.99-.24-2.68-.18-.66-.4-1.14-.66-1.36-.37-.24-.85-.43-1.41-.58-.62-.1-1.06-.21-1.38-.21v-1.06h8.49v1.06h0Z"/>
  <path d="M240.97,310.91c-.24.16-.61.37-1.03.74-.49.4-.8.69-.96.93-.21.35-.24.85-.05,1.52.13.72.43,1.54.85,2.5l6.09,13.94-1.19.56-18.3-10.56,4.28,9.82c.45,1.09.88,1.92,1.3,2.42.4.59.8.88,1.17.98.32.13.82.13,1.51,0,.72-.08,1.2-.19,1.41-.27l.43.95-7.85,3.44-.43-.99c.26-.1.61-.4,1.14-.82.48-.37.77-.69.88-.85.21-.38.24-.88.13-1.46-.1-.56-.43-1.41-.96-2.71l-4.1-9.36c-.21-.4-.43-.82-.74-1.14-.32-.32-.64-.56-1.01-.69-.43-.11-.99-.24-1.6-.19-.66.05-1.17.13-1.51.29l-.4-.98,5.43-2.37,17.02,9.84-3.93-9.07c-.48-1.09-.93-1.92-1.33-2.47-.4-.56-.77-.85-1.15-.91-.34-.11-.77-.11-1.44,0-.61.11-1.09.24-1.41.35l-.4-.98,7.74-3.33.4.88Z"/>
  <path d="M261.77,322.94l-8.4,4.1-.45-.93c.24-.11.56-.34,1.01-.56.42-.27.72-.51.85-.64.22-.29.38-.56.4-.82.03-.27-.02-.58-.18-.88l-6.65-13.52c-.1-.32-.29-.59-.48-.75-.21-.13-.53-.19-.96-.16-.32.03-.69.11-1.12.16-.48.13-.8.24-1.06.35l-.48-.93,8.44-4.1.45.93c-.27.13-.56.35-.93.56-.34.21-.67.45-.88.71-.27.24-.42.59-.42.88,0,.24.1.53.21.82l6.6,13.51c.13.29.32.53.58.66.21.19.53.24.91.22.21,0,.56-.06,1.01-.22.43-.11.82-.24,1.12-.35l.45.93Z"/>
  <path d="M271.97,290.3c-.19.21-.43.45-.64.75-.21.29-.35.64-.42.88-.13.37-.22.69-.13,1.09.05.35.13.8.24,1.24.48,1.65,1.22,4.15,2.24,7.5,1.06,3.38,2.13,6.89,3.24,10.56l-.93.74c-3.46-2.05-6.78-4.02-9.98-5.99-3.24-1.91-5.4-3.19-6.54-3.88-.27-.13-.56-.27-.88-.35-.29-.02-.61-.02-.98,0-.32.05-.64.13-.93.27-.29.14-.56.29-.8.4l-.67-.8,6.71-5.35.69.8c-.59.51-1.01.96-1.33,1.33-.32.4-.37.69-.21.9.05.1.16.21.26.27.13.11.22.19.32.24.85.53,2.29,1.33,4.28,2.52,2,1.25,4.81,2.9,8.49,5.06-.59-1.86-1.22-4.07-2-6.6-.8-2.53-1.35-4.23-1.68-5.16-.29-.93-.53-1.49-.69-1.76-.19-.32-.35-.56-.45-.75-.13-.19-.35-.27-.61-.24-.26,0-.53.05-.85.19-.32.14-.64.29-.96.48-.27.16-.54.32-.8.5l-.69-.82,6.06-4.81.65.77Z"/>
  <path d="M295.18,283.54l4.44,4.2-11.06,13.25-.8-.64c.19-.24.4-.58.7-.98.24-.43.4-.69.42-.91.1-.29.08-.55,0-.8-.11-.26-.32-.51-.59-.72l-11.46-9.6c-.24-.21-.51-.35-.78-.4-.24-.08-.53-.05-.9.11-.27.11-.54.35-.91.58-.37.29-.63.53-.85.72l-.77-.61,10.29-12.4,3.83,3.22-.69.85c-.69-.34-1.6-.53-2.61-.53-1.09-.03-1.83.16-2.26.53-.24.21-.46.48-.77.75-.27.29-.59.69-.96,1.09l-2.02,2.53,6.28,5.26,1.55-1.78c.45-.56.77-1.04.9-1.38.1-.38.1-.77,0-1.14-.05-.37-.24-.75-.53-1.2-.26-.4-.53-.77-.8-1.09l.7-.82,6.22,5.22-.66.8c-.4-.21-.85-.48-1.35-.66-.48-.21-.91-.32-1.23-.35-.48,0-.91.1-1.23.35-.37.19-.71.56-1.12,1.09l-1.54,1.76,4.84,3.99c.48.42.85.69,1.2.85.34.18.66.18.98.16.27-.08.61-.29.96-.59.27-.29.69-.8,1.25-1.43.16-.24.46-.51.78-.96.37-.35.63-.72.82-1.04.24-.29.4-.69.59-1.06.19-.32.24-.64.19-.85,0-.67-.26-1.46-.71-2.5-.4-.96-.75-1.62-.99-2.05l.66-.8Z"/>
  <path d="M312.42,264.17l-2.66,4.84c-2.31.21-4.34.4-6.04.64-1.7.16-3.51.43-5.37.74l-1.04,1.87,5.77,3.14c.32.16.61.26.85.29.32,0,.59-.08.88-.32.16-.13.35-.4.61-.74.27-.32.48-.67.62-.96l.93.51-4.2,7.74-.91-.5c.11-.21.21-.53.4-.96.19-.4.24-.66.27-.85.03-.32-.02-.56-.19-.83-.16-.24-.4-.42-.69-.63l-13.25-7.18c-.27-.11-.59-.21-.85-.27-.29-.05-.58.05-.85.27-.21.21-.43.48-.66.77-.26.29-.5.56-.61.8l-.93-.46,4.6-8.48c.43-.77.85-1.49,1.39-2,.53-.61,1.12-1.09,1.78-1.49.61-.35,1.3-.51,2.05-.53.69,0,1.46.16,2.23.61.72.4,1.28.85,1.7,1.36.43.48.73,1.04.91,1.7.16.59.21,1.23.21,1.92-.05.64-.16,1.38-.32,2.13,1.7-.24,3.14-.45,4.25-.58,1.12-.16,2.5-.38,4.15-.59.72-.11,1.3-.24,1.67-.37.45-.21.77-.37,1.09-.61.27-.19.48-.43.74-.72.23-.3.4-.56.53-.75l.93.51ZM295.14,263.53c-1.12-.61-2.16-.77-3.17-.48-.96.29-1.78,1.04-2.39,2.18l-1.22,2.21,7.87,4.21.91-1.68c.64-1.17.8-2.37.48-3.57-.34-1.22-1.17-2.12-2.47-2.87Z"/>
  <path d="M307.08,246.43c.58-.32,1.17-.48,1.78-.53.64-.05,1.3,0,2.04.21,1.81.43,3.09,1.46,3.89,3.09.79,1.62.96,3.38.45,5.35-.24.85-.61,1.76-1.09,2.58-.53.88-1.06,1.49-1.65,2.05l.88.88-.29,1.17-6.91-1.62.32-1.15c.9,0,1.7-.1,2.5-.27.77-.1,1.49-.35,2.24-.69.69-.37,1.27-.85,1.78-1.38.51-.59.85-1.28,1.09-2.18.16-.64.24-1.28.18-1.76-.03-.56-.18-.98-.43-1.35-.24-.43-.55-.74-.88-1.01-.42-.24-.9-.45-1.43-.61-.8-.16-1.63-.16-2.43.1-.83.3-1.51.85-2.1,1.65-.43.56-.88,1.17-1.38,1.91-.48.66-.96,1.33-1.38,1.86-.8.99-1.68,1.65-2.69,2.07-.99.43-2.15.45-3.46.13-.77-.21-1.44-.58-2.05-1.06-.56-.5-1.04-1.04-1.39-1.78-.37-.66-.58-1.43-.66-2.2-.08-.85-.03-1.65.19-2.48.26-.9.58-1.73,1.06-2.36.48-.66.96-1.25,1.55-1.71l-.85-.88.26-1.17,6.73,1.65-.29,1.17c-.8,0-1.6.02-2.37.1-.77.08-1.46.24-2.16.51-.66.27-1.19.66-1.7,1.17-.48.51-.8,1.14-1.07,1.99-.22.93-.11,1.79.27,2.53.43.77,1.06,1.28,1.86,1.52.88.24,1.65.19,2.34-.06.69-.24,1.3-.74,1.86-1.38.5-.61.96-1.23,1.38-1.84.42-.61.85-1.17,1.28-1.73.37-.48.8-.99,1.25-1.41.45-.42.93-.82,1.47-1.09Z"/>
  <path d="M319.42,232.65l-1.27,9.26-1.04-.14c.03-.32.05-.66.08-1.17.05-.51.03-.83-.03-1.09-.08-.29-.24-.56-.43-.75-.19-.18-.51-.29-.88-.34l-14.93-1.99c-.34-.03-.61,0-.85,0-.24.1-.51.32-.69.72-.14.27-.32.59-.45,1.04-.16.4-.32.77-.37,1.07l-1.01-.13,1.28-9.26,1.01.13c-.02.27-.02.64-.02,1.06,0,.45.02.8.08,1.14.08.35.24.61.48.8.24.16.53.27.85.27l14.9,2.07c.32.05.59,0,.85-.08.3-.1.54-.35.7-.69.1-.16.26-.48.4-.91.19-.45.26-.85.32-1.17l1.04.16Z"/>
  <path d="M306.23,208.02l-.05.98c-.38.08-.8.24-1.25.45-.5.21-.98.46-1.41.69-.42.29-.85.59-1.17.96-.37.32-.58.64-.63.99-.05.29-.1.67-.16,1.12,0,.45-.05.9-.05,1.28l-.06.88,16.63.59c.32,0,.61-.02.88-.16.32-.1.48-.37.64-.69.11-.15.22-.51.37-1.09.11-.55.19-.96.21-1.27l1.04.03-.4,9.81-1.01-.05c0-.24-.06-.72-.08-1.25-.03-.59-.08-.93-.19-1.17-.1-.29-.26-.59-.5-.74-.24-.16-.56-.24-.96-.27l-16.73-.64-.05.88v1.12c0,.42,0,.88.05,1.25.03.35.22.69.53,1.06.32.35.72.69,1.14.98.4.29.88.61,1.36.85.48.24.9.4,1.22.48l-.06,1.04-5.64-.21.69-18.12,5.64.24Z"/>
  <path d="M301.92,185.32c.03.13.11.42.16.8.16.34.26.64.37.77.21.4.4.64.51.8.13.13.48.4.98.77,1.09.83,2.16,1.52,3.25,2.21,1.09.64,2.49,1.44,4.15,2.45.64.4,1.14.67,1.52.75.4.19.93.24,1.65.24l3.96.05c.35,0,.7-.05.96-.21.21-.13.42-.37.59-.66.11-.24.21-.61.32-1.12.11-.53.18-.9.21-1.25h1.07l-.21,9.73-1.01-.05c0-.26-.06-.64-.11-1.2-.03-.53-.11-.9-.18-1.14-.14-.38-.35-.59-.56-.74-.26-.16-.58-.22-.95-.22l-5.05-.05c-.16-.06-.43.05-.85.24-.42.19-.9.37-1.38.64-1.17.59-2.42,1.23-3.72,1.89-1.33.69-2.48,1.31-3.43,1.84-.56.26-.98.53-1.28.85-.29.21-.51.48-.77.8-.13.24-.27.53-.32.85-.11.32-.16.61-.19.85h-1.01l.13-8.89h1.07c0,1.01.05,1.73.15,2.18.11.38.27.59.48.61.05,0,.16-.03.27-.08.16-.05.37-.16.59-.24.26-.13.58-.29.88-.45.35-.16.67-.32.96-.51.88-.45,1.78-.88,2.63-1.36.86-.43,2-1.06,3.41-1.81-2.45-1.55-4.34-2.77-5.74-3.59-1.33-.83-2.16-1.23-2.42-1.23-.24,0-.43.05-.56.24-.14.1-.21.34-.32.61-.11.29-.16.59-.18.93-.03.32-.03.67-.08.93h-1.06l.16-7.24h1.01Z"/>
  <g>
    <path d="M198.78,271.17c-.77,0-1.41.32-1.99.96-.59.61-.86,1.44-.86,2.45,0,.88.26,1.62.8,2.18.53.56,1.22.82,2.02.82s1.44-.26,1.97-.82c.53-.56.77-1.35.77-2.34s-.24-1.76-.83-2.34c-.47-.58-1.14-.9-1.89-.9Z"/>
    <path d="M211.9,271.17c-.75,0-1.39.32-1.89,1.04-.56.83-.88,2.42-.88,4.76s.27,3.81.81,4.58c.58.8,1.22,1.17,2.02,1.17.75,0,1.44-.38,2-1.17.53-.77.82-2.26.82-4.58s-.29-3.85-.82-4.63c-.56-.75-1.25-1.17-2.05-1.17Z"/>
    <path d="M289.79,134.25H123.74c-.21.03-.16.29-.27.45-.16,21.33.08,43.31,0,64.08-.16,21.04,2.9,40.06,9.74,55.04,6.7,14.82,17.72,25.49,30.22,34.45,12.72,9.02,28.62,13.86,43.31,21.44,14.63-7.64,30.49-12.4,43.15-21.63,12.5-9.04,23.81-19.42,30.43-34.39,6.6-15.03,9.57-33.54,9.57-55.2,0-20.91.16-43.09-.11-64.24ZM161.81,228.5c11.28-5.85,22.58-12.29,31.41-20.8-5.85,1.44-10.53,1.6-15.37,1.54.8-1.28,2.12-2.07,3.19-3.11,7.45-6.97,15.8-13.62,19.84-24.18-2.74.93-6.17,1.7-9.87,1.7,7.26-9.31,12.98-20.24,16.02-33.73h.42c2.98,13.54,8.81,24.34,16.04,33.73-3.24-.21-5.96-.35-9.71-1.81.16,1.57.98,3.05,1.68,4.41,3.59,6.6,9.36,11.84,14.74,16.92,2.18,2.02,4.52,3.81,6.44,6.07-5.96.53-8.68.05-15.21-1.68,2.12,2.53,4.92,4.39,7.5,6.44,7.03,5.75,15.43,10.03,23.89,14.5.67.35,1.71.58,1.97,1.46-7.02.99-14.82.45-22.4-1.97-9.26-3.19-18.04-3.38-24.53,2.69-7.23-5.83-14.39-5.91-25.96-2.85-6.6,2.05-15.22,2.98-22.16,2.13.24-.96,1.36-1.09,2.08-1.46ZM187.48,283.89h-1.73v-10.99c-.43.45-.99.77-1.68,1.12-.64.45-1.22.75-1.78.96v-1.62c.98-.5,1.78-1.07,2.53-1.7.74-.69,1.24-1.28,1.54-1.86h1.12v14.1h0ZM202.85,280.85c-.42,1.06-1.01,1.89-1.76,2.42-.8.56-1.71.85-2.71.85-1.12,0-2.02-.29-2.71-.93-.69-.58-1.12-1.44-1.27-2.58l1.65-.16c.16.8.45,1.38.85,1.73.37.4.9.53,1.51.53.5,0,.99-.13,1.41-.38.37-.24.69-.56.95-.98.27-.43.48-.96.64-1.63.19-.69.26-1.38.26-2.13v-.4c-.35.61-.8,1.06-1.44,1.38-.58.35-1.25.53-1.91.53-1.17,0-2.15-.45-2.95-1.28-.83-.88-1.25-1.97-1.25-3.35s.43-2.55,1.28-3.43c.85-.85,1.91-1.28,3.14-1.28.96,0,1.76.24,2.56.69.74.48,1.33,1.2,1.76,2.16.32.9.56,2.18.56,3.94,0,1.78-.24,3.22-.56,4.28ZM216.02,280.93c-.35,1.01-.83,1.84-1.51,2.34-.67.56-1.54.85-2.56.85-1.35,0-2.44-.48-3.21-1.46-.93-1.14-1.41-3.06-1.41-5.7,0-1.7.21-3.03.53-4.02.35-1.03.85-1.81,1.55-2.31.66-.61,1.54-.85,2.55-.85.75,0,1.41.13,2,.43.56.27,1.04.75,1.41,1.3.38.61.64,1.27.85,2.1.21.82.32,1.94.32,3.35,0,1.62-.19,2.98-.5,3.97ZM229.61,283.89h-9.31c0-.4.05-.85.21-1.17.24-.64.63-1.3,1.17-1.89.51-.64,1.25-1.3,2.24-2.15,1.51-1.28,2.55-2.21,3.11-2.98.53-.72.83-1.39.83-2.07s-.27-1.25-.77-1.7c-.48-.48-1.12-.75-1.92-.75s-1.49.27-2,.77c-.48.51-.74,1.2-.74,2.05l-1.81-.16c.16-1.3.59-2.34,1.38-3.04.8-.72,1.86-1.01,3.22-1.01s2.42.35,3.19,1.09c.8.77,1.19,1.7,1.19,2.79,0,.53-.1,1.15-.34,1.68-.24.53-.64,1.12-1.15,1.73-.53.59-1.44,1.38-2.69,2.45-1.03.85-1.7,1.49-1.99,1.76-.27.34-.53.64-.72.98h6.88v1.62h0ZM215.38,244.67l.45,3.73h-16.12l.48-3.73h-50.54l6.31-7.74c5.35-.29,15.67-1.65,24.5-4.95,17.18-6.44,27.61,2.4,27.61,2.4,8.22-6.89,18.54-5.46,28.09-1.94,8.99,3.3,22.74,4.31,22.74,4.31l5.93,7.93h-49.45Z"/>
  </g>
</svg>