<?xml version="1.0" encoding="UTF-8"?>
<svg id="Layer_1" xmlns="http://www.w3.org/2000/svg" viewBox="0 0 400 400">
  <defs>
    <style>
      .cls-1 {
        fill: #fff;
      }
    </style>
  </defs>
  <path d="M10.8,186.37c0-12.11,0-24.21,0-36.32,0-3.45.04-3.45,3.61-4.12,14.28-2.66,28.19-6.7,41.92-11.36,4.61-1.56,9.08-3.58,13.58-5.44,2.48-1.02,4.77-1.15,7.42-.15,10.35,3.88,20.67,7.9,31.23,11.1,8.48,2.57,17.28,4.17,26,5.87,2.21.43,2.87,1.03,2.84,3.17-.1,7.35-.04,14.7-.04,22.05,0,16.72.07,33.43-.03,50.15-.05,8.76-3.3,16.38-8.73,23.24-5.97,7.54-13.48,13.25-21.48,18.34-3.98,2.53-8.39,4.4-12.66,6.45-5.81,2.8-11.7,5.45-17.51,8.25-1.86.9-3.46,1.42-5.58.35-9.64-4.83-19.53-9.18-29.05-14.24-11.2-5.96-20.6-14.19-27.35-24.99-2.97-4.76-4.14-10.36-4.17-16.03-.07-12.11-.02-24.21-.02-36.32h-.02ZM52.35,194.74c-.3.11-.6.21-.9.32-4.45-4.67-8.99-9.26-13.3-14.05-2.31-2.57-4.39-4.83-8.35-3.27-1.26.5-2.86.12-4.31.17-4,.13-4.23.3-4.25,4.2-.05,7.64-.02,15.28-.02,22.92,0,4.04-.03,8.07,0,12.11.04,4.14.07,4.11,3.99,4.31,1.44.07,2.87.27,4.29.5,4.46.73,4.78.5,4.8-3.87.02-5.24,0-10.49,0-16.24,1.35,1.17,2.28,1.84,3.05,2.66,4.98,5.36,9.87,10.8,14.92,16.09,1.02,1.06,2.56,2.01,3.98,2.23,2.99.45,6.05.46,9.09.48,3.47.02,3.54-.06,3.55-3.7.04-8.22.02-16.43.01-24.65,0-5.77.05-11.53-.03-17.3-.04-2.88-.62-3.24-3.4-2.83-3.27.49-6.54,1.32-9.81,1.31-3.23,0-3.41,1.57-3.35,4.01.11,4.87.03,9.75.03,14.62ZM102.75,178.33c-4.33.71-8.34.76-11.88,2.06-9.08,3.33-13.68,10.43-13.97,19.84-.23,7.38,1.96,13.99,8.38,18.81,3.81,2.86,7.93,4.23,12.44,4.16,7.07-.11,14.16-.39,21.18-1.18,7.77-.87,7.74-1.16,7.71-8.93,0-.43,0-.86,0-1.3-.09-3.65-.08-3.56-3.63-3.3-4.9.35-9.81.79-14.7.68-2.81-.06-5.67-.88-8.36-1.79-2.94-.99-4.91-3.16-4.7-6.49.22-3.46,2.62-5.09,5.63-6.32,5.7-2.32,11.62-1.62,17.49-1.52,2.63.04,5.25.64,7.87.99.13-2.85.15-5.72.44-8.56.25-2.38-.97-3.5-2.99-3.84-7.07-1.19-14.15-2.26-20.9-3.32ZM73.1,251.65c0-4.47-.07-8.93.03-13.39.05-2.35-.81-3.26-3.24-3.41-6.18-.37-12.37-.88-18.52-1.59-9.01-1.05-17.98-2.37-26.98-3.49-3.51-.44-3.65-.06-2.36,3.44,2.51,6.79,7.3,11.76,13.27,15.4,7.36,4.48,15.07,8.39,22.68,12.46,4.05,2.16,8.24,4.05,12.3,6.19,2.17,1.14,2.85.43,2.83-1.76-.03-4.61,0-9.22,0-13.83ZM72.33,151.59s0,0,0,0c0-3.17-.03-6.34.01-9.51.02-1.86-.67-2.26-2.37-1.5-2.37,1.06-4.79,2.01-7.21,2.94-12.59,4.84-25.78,7.36-39.01,9.6-2.64.45-3.45,1.36-3.35,3.81.12,3.02,0,6.05.04,9.08.06,4.09.64,4.51,4.58,3.94,3.56-.52,7.14-1.13,10.72-1.32,11.41-.61,22.63-2.53,33.87-4.37,2.01-.33,2.72-1.28,2.71-3.15-.03-3.17,0-6.34,0-9.51Z"/>
  <path d="M362.88,161.81c7.99,0,15.35,0,22.7,0,6.05,0,7.79,1.63,7.82,7.6.05,9.51.04,19.02,0,28.53-.01,3.47-.08,3.54-3.68,3.54-15.62.02-31.24.03-46.85,0-4.84-.01-6.3-1.33-6.35-6.11-.11-10.23.01-20.46-.07-30.69-.02-2.31.91-3,3.09-2.89,2.6.13,5.26-.31,7.8.1,4.67.76,7.62-1.62,10.3-4.8.35-.42.55-.95.82-1.43-.6-.23-1.2-.66-1.81-.67-5.78-.06-11.57-.1-17.35-.02-2.2.03-3.05-.76-3.08-3-.03-2.33.59-3.58,3.15-3.29,1,.11,2.02,0,3.03.02,2.17.01,4.52.21,2.46-3.13-.13-.22.24-1.06.56-1.19,2.17-.9,5.74.14,7.06,2.21,1.08,1.69,2.46,2.16,4.36,2.13,5.2-.08,10.41-.08,15.62,0,2.05.03,3.52-.33,4.48-2.46.83-1.84,5.39-2.84,7.23-1.78.32.19.51,1.32.27,1.67-1.78,2.55,0,2.53,1.76,2.55,1.59.02,3.19.13,4.77-.01,2.42-.22,2.9.99,2.87,3.08-.02,2-.34,3.27-2.8,3.22-5.35-.11-10.75.42-16.04-.14-5.63-.6-8.85,2.16-12.1,6.99ZM364.71,195.25c6.05,0,12.11,0,18.16,0,1.6,0,3.19.17,3.23-2.3.04-2.4-1.4-2.44-3.08-2.44-12.11,0-24.22,0-36.33,0-1.58,0-3.25-.16-3.28,2.29-.03,2.75,1.86,2.43,3.57,2.43,5.91.02,11.82,0,17.73,0ZM364.68,173.08c6.07,0,12.14,0,18.21,0,1.56,0,3.18.31,3.23-2.23.04-2.39-1.27-2.46-3.02-2.45-12.14.03-24.28,0-36.42.02-1.55,0-3.23-.32-3.28,2.21-.05,2.78,1.79,2.45,3.5,2.45,5.93.01,11.85,0,17.78,0ZM364.21,184.19c6.2,0,12.4,0,18.61,0,1.55,0,3.21.31,3.29-2.2.08-2.37-1.25-2.48-3-2.48-12.26.02-24.52.01-36.78.01-1.51,0-2.87.01-2.91,2.17-.04,2.31,1.28,2.51,3.06,2.5,5.91-.03,11.83-.01,17.74-.01Z"/>
  <path d="M266.35,144.25q-1.48,4.4,2.88,4.43c.43,0,.87,0,1.3,0,4.95.15,6.77,1.92,6.79,6.83.04,9.94.01,19.88.01,29.83,0,7.64.02,15.27-.01,22.91-.02,3.57-.06,3.57-3.57,3.59-3.8.02-3.84.02-3.86-3.77-.03-6.48-.09-12.97.03-19.45.05-2.44-.82-3.31-3.24-3.24-4.19.13-8.39.13-12.58,0-2.31-.07-2.97.83-2.93,3.05.12,6.63.09,13.26,0,19.88-.02,1.13-.46,3.11-1.02,3.23-1.77.38-3.74.28-5.53-.13-.46-.11-.72-2-.72-3.07-.05-10.37-.03-20.75-.03-31.12,0-8.36-.02-16.71.01-25.07.02-3.37.08-3.39,3.3-3.47,1.73-.04,3.47-.08,5.21,0,2.67.13,5.2.23,6.3-3.05.22-.66,1.54-1.22,2.41-1.33,1.69-.21,3.43-.06,5.25-.06ZM251.22,166.96c0,3.16.11,6.33-.04,9.49-.11,2.32.54,3.42,3.11,3.32,4.18-.16,8.37-.12,12.55-.02,2.2.05,3.1-.72,3.07-2.98-.09-6.32-.07-12.65,0-18.97.02-1.97-.66-2.9-2.74-2.87-4.47.07-8.95.06-13.42,0-1.82-.02-2.6.68-2.55,2.54.08,3.16.02,6.32.02,9.49Z"/>
  <path d="M203.73,179.83c0-9.23-.02-18.46,0-27.69.01-3.36.06-3.43,3.26-3.45,7.96-.04,15.92.03,23.88-.04,2.12-.02,3.15.49,3.09,2.87-.05,2.21-.36,3.51-3.04,3.45-5.5-.14-11,.04-16.5-.06-2.42-.04-3.24.84-3.27,3.28-.08,6.01-.2,6.01,5.69,6.02,2.89,0,5.79,0,8.68,0,7.37,0,8.36,1.02,8.37,8.56,0,11.39,0,22.78,0,34.17,0,.58.01,1.15,0,1.73-.11,3.19-.11,3.08-3.57,3.2-2.25.07-3.69-.36-3.37-3.02.1-.85.01-1.73.01-2.59,0-10.38,0-20.76,0-31.15,0-4.64-.02-4.65-4.85-4.67-2.17,0-4.34-.02-6.51,0q-4.34.04-4.39,4.24c0,.87,0,1.73,0,2.6,0,10.09,0,20.19,0,30.28,0,3.95-2.59,5.69-6.34,4.05-.67-.29-1.09-1.84-1.1-2.81-.08-9.66-.05-19.32-.05-28.98Z"/>
  <path d="M313.72,189.22c0,6.34.02,12.69,0,19.03-.02,3.57-.05,3.57-3.54,3.59-3.79.02-3.83.02-3.84-3.78-.02-11.25,0-22.49-.01-33.74,0-4.47-.02-4.48-4.5-4.51-2.32-.02-4.63-.02-6.95,0-4.34.04-4.37.05-4.38,4.24-.02,10.96,0,21.91,0,32.87,0,5.02-.86,5.78-5.75,4.82-.7-.14-1.4-1.09-1.77-1.83-.29-.58-.08-1.41-.08-2.13,0-13.41,0-26.82,0-40.23,0-4.04.03-4.07,3.95-4.09,6.8-.02,13.6-.04,20.4,0,4.32.03,6.37,1.95,6.44,6.29.11,6.49.03,12.98.03,19.46Z"/>
  <path d="M165.37,157.96c5.26-1.77,7.98.46,10.1,4.53,1.85,3.57,9.12,3.53,11.29.14.54-.85.99-1.76,1.49-2.63,1.08-1.89,2.52-3.07,4.88-2.56,1.04.23,2.1.39,3.14.58-.38.91-.7,1.85-1.16,2.72-.4.75-.96,1.41-1.43,2.13-.82,1.27-.25,1.83,1.06,1.96.57.06,1.16.12,1.73.06,2.15-.2,2.66.86,2.67,2.83.01,2.06-.71,2.85-2.76,2.77-2.6-.1-5.2-.06-7.8,0-3.5.07-3.5.1-3.57,3.73,0,.29,0,.58,0,.86.04,3.84.04,3.85,3.76,3.9,2.75.04,5.49.09,8.24,0,2.26-.07,2.13,1.41,2.07,2.88-.06,1.5.5,3.38-2.07,3.38-1.88,0-3.76.02-5.64.04-7.33.06-6.3-.55-6.36,6.14-.05,5.62.05,11.23-.06,16.85-.02,1.14-.45,3.11-1.03,3.25-1.76.41-3.72.26-5.54-.04-.37-.06-.67-1.73-.67-2.67-.06-6.48-.02-12.96-.04-19.44-.01-4.01-.04-4.03-4.04-4.08-2.75-.03-5.5-.11-8.24,0-2.65.11-2.54-1.56-2.57-3.39-.03-1.82.18-3.05,2.52-2.93,3.17.16,6.36-.05,9.54.06,2,.07,3-.59,2.8-2.69-.07-.71,0-1.44,0-2.16-.06-3.58-.07-3.61-3.58-3.67-2.89-.05-5.78-.06-8.67-.01-1.75.03-2.69-.5-2.6-2.46.08-1.67-.06-3.28,2.36-3.11.72.05,1.45-.01,2.16-.07,1.36-.11,1.82-.73,1.05-1.97-.97-1.56-1.94-3.12-3.04-4.91Z"/>
  <path d="M363.02,211.84c-8.68,0-17.37.02-26.05,0-4.25-.01-7.83-1.51-10.68-4.79-2.17-2.5-2.46-5.55-2.5-8.5-.16-11.24-.1-22.49-.05-33.74.01-3.01.12-3.01,3.75-2.98,3.35.03,3.43.03,3.45,3.3.04,10.24,0,20.48.02,30.71.01,7.47,2.31,9.75,9.88,9.76,16.21.02,32.42,0,48.63.02,1.77,0,3.9-.57,3.98,2.49.08,3.27-.13,3.72-3.51,3.74-8.97.04-17.95.01-26.92.01Z"/>
  <path d="M215.58,236.1c.99-3.56,1.92-7.14,2.99-10.68.43-1.43.65-3.04,2.93-3.05,2.12,0,2.71,1.19,3.19,2.79,1.14,3.78,2.3,7.55,3.61,11.85.65-1.03,1.15-1.57,1.34-2.19.96-3.14,1.8-6.31,2.76-9.45.83-2.68,2.09-3.6,3.86-2.78,2.2,1.02.87,2.7.5,4.08-1.26,4.69-2.67,9.35-3.89,14.05-.49,1.88-1.55,2.61-3.41,2.5-1.71-.1-3.53.2-4.14-2.13-.73-2.76-1.56-5.49-2.45-8.21-.19-.59-.78-1.04-1.19-1.56-.3.57-.68,1.11-.89,1.71-.88,2.57-1.76,5.14-2.52,7.74-.53,1.78-1.52,2.53-3.44,2.49-1.93-.04-3.32-.42-3.93-2.51-1.47-5.09-3.12-10.12-4.52-15.23-.24-.87.2-2.64.77-2.86,1.48-.58,3.24-.5,3.84,1.54.73,2.48,1.32,4.99,2.04,7.48.42,1.47.97,2.9,1.47,4.34.36.03.73.06,1.09.08Z"/>
  <path d="M178.5,235.53c0-3.59,0-7.17,0-10.76,0-1.15-.1-2.37,1.68-2.33,1.56.04,2.46.66,2.46,2.29,0,5.46.06,10.93-.07,16.39-.02.69-.95,1.84-1.59,1.93-1.98.29-4.02.34-5.25-1.9-1.93-3.52-4-6.97-6.03-10.43-.34-.59-.76-1.14-2.05-1.62,0,1.46,0,2.91,0,4.37,0,2.44-.03,4.89,0,7.33.01,1.29-.28,2.27-1.84,2.33-1.66.07-2.41-.8-2.42-2.33-.03-5.46-.05-10.93.05-16.39.01-.64.77-1.76,1.29-1.82,2.09-.24,4.44-.81,5.87,1.48,1.67,2.67,3.22,5.42,4.83,8.12.71,1.19,1.47,2.36,2.21,3.54.29-.07.57-.14.86-.21Z"/>
  <path d="M316.15,229.29c0,3,0,6,0,9.01,0,1.01.22,2.1-.11,3-.27.74-1.2,1.69-1.84,1.7-.62,0-1.78-1.07-1.8-1.69-.14-5.61-.13-11.23-.04-16.85.01-.66.71-1.83,1.15-1.87,1.92-.14,4.16-.94,5.53,1.22,1.77,2.79,3.41,5.65,5.11,8.48.65,1.08,1.31,2.16,2.84,3.18.05-3.01-.03-6.02.2-9.02.11-1.44-1.15-3.88,1.77-3.96,2.95-.09,2.39,2.32,2.41,4.08.06,4.32.07,8.64-.01,12.96-.03,1.3.65,3.2-1.45,3.52-1.97.3-4.14.51-5.41-1.65-2.11-3.59-4.16-7.21-6.25-10.81-.34-.58-.8-1.08-1.2-1.62-.3.1-.61.21-.91.31Z"/>
  <path d="M340.53,229.29c0,3.29.1,6.58-.04,9.86-.06,1.49.99,3.9-1.88,3.93-2.94.03-2.3-2.41-2.33-4.15-.07-4.32-.08-8.64,0-12.96.03-1.29-.66-3.26,1.5-3.43,1.86-.14,4.05-.93,5.41,1.42,1.65,2.86,3.45,5.64,5.19,8.46.71,1.15,1.42,2.31,2.13,3.47.33-.08.67-.15,1-.23,0-2.65,0-5.29,0-7.94,0-1.01.02-2.02.01-3.02,0-1.3.37-2.55,1.88-2.13.8.22,1.56,1.37,1.89,2.26.32.89.08,1.99.08,3,0,3.89.06,7.78-.03,11.66-.03,1.29.78,3.22-1.32,3.56-1.94.32-4.08.59-5.36-1.65-1.99-3.49-4.02-6.95-6.05-10.42-.35-.6-.76-1.17-1.15-1.75-.31.02-.63.04-.94.07Z"/>
  <path d="M180.62,154.92c-5.06,0-10.12-.1-15.18.04-2.68.07-2.57-1.53-2.6-3.36-.03-1.8.16-3.06,2.51-2.96,3.32.15,6.65-.05,9.97.06,1.79.06,2.88-.49,3.76-2.13,1.14-2.13,4.93-3.19,7.05-2.14.39.19.78,1.29.58,1.64-1.45,2.54.19,2.6,1.97,2.6,2.31,0,4.63.05,6.94,0,2.01-.05,3.7-.11,3.53,2.81-.18,3.23-.07,3.4-3.36,3.44-5.06.06-10.12.02-15.18.02h0Z"/>
  <path d="M297.82,154.93c-4.05,0-8.1-.08-12.14.03-2.43.07-2.82-1.16-2.84-3.22-.02-2.11.5-3.25,2.88-3.09,2.16.14,4.33,0,6.5.02,1.32.01,2.38-.39,2.33-1.88-.08-3,2.04-2.53,3.87-2.56,1.8-.04,3.58-.14,3.44,2.54-.08,1.49,1,1.9,2.32,1.89,2.31,0,4.63.12,6.94-.01,2.19-.13,2.76.86,2.62,2.83-.12,1.72.33,3.55-2.48,3.47-4.48-.12-8.96-.03-13.44-.03h0Z"/>
  <path d="M187.36,232.27c0-2.59.02-5.18,0-7.77-.01-1.43.62-2.09,2.08-2.08,4.04.03,8.09-.04,12.12.06.62.02,1.22.75,1.83,1.16-.54.57-1.02,1.53-1.64,1.63-1.55.26-3.16.15-4.75.16-4.7.03-5.01.19-4.94,2.76.06,2.46.29,2.57,5.16,2.59,1.01,0,2.02-.04,3.03.02,1.1.06,2.71-.13,2.26,1.61-.19.75-1.52,1.55-2.43,1.7-1.69.28-3.46.21-5.18.06-2.37-.2-2.92.93-2.91,3.05.02,2.08.54,3.28,2.91,3.17,2.3-.11,4.62-.07,6.92.06.53.03,1.02.68,1.53,1.04-.43.5-.85,1.43-1.29,1.44-4.32.12-8.64.19-12.95-.02-.62-.03-1.6-1.56-1.67-2.46-.22-2.71-.08-5.46-.08-8.19h0Z"/>
  <path d="M298.76,238.59c-2.68-.16-5.26-.48-6.13,3.09-.42,1.72-2.21,1.96-3.5,1.05-.51-.36-.51-2.03-.19-2.9,1.9-5.08,4.01-10.08,5.94-15.16.59-1.55,1.42-2.43,3.15-2.25,1.48.15,3.24-.57,4.05,1.47,2.32,5.84,4.7,11.66,6.94,17.53.14.37-.86,1.67-1.15,1.61-1.16-.22-3.09-.61-3.24-1.28-.8-3.56-3.29-3.42-5.88-3.17ZM298.73,235.61c3.04-.01,3.11-.04,2.03-3.02-.6-1.65-1.49-3.21-2.25-4.8-.71,1.52-1.51,3.01-2.11,4.58-1.23,3.18-1.14,3.26,2.34,3.25Z"/>
  <path d="M267.1,232.54c0-2.74,0-5.48,0-8.22,0-1.14.27-1.95,1.68-1.89,1.28.05,2.31.31,2.38,1.85.02.43-.02.87.04,1.3.24,1.64.13,4.45.86,4.69,2.08.7,4.53.49,6.81.3.54-.05,1.26-1.36,1.4-2.18.25-1.4-.11-2.92.22-4.29.16-.67,1.29-1.53,1.98-1.54.68,0,1.96.94,1.97,1.5.15,5.76.14,11.53.04,17.29-.01.59-.98,1.67-1.43,1.63-.85-.07-1.89-.61-2.38-1.29-.44-.6-.18-1.67-.32-2.51-.27-1.62-.3-4.44-.97-4.61-2.31-.57-4.85-.28-7.3-.14-.32.02-.77,1.11-.82,1.73-.13,1.58-.09,3.17-.06,4.75.02,1.31-.24,2.24-1.86,2.24-1.67,0-2.29-.77-2.25-2.39.07-2.74.02-5.48.02-8.22Z"/>
  <path d="M360.43,232.54c.29-3.25.59-6.49.88-9.74,3.15-.13,6.3-.27,9.45-.37,1.3-.04,2.62-.1,3.9.08.54.08.99.75,1.48,1.16-.5.57-.97,1.58-1.52,1.63-2.3.21-4.63.25-6.93.11-2.3-.13-3.08.83-2.95,3.02.1,1.61.73,2.37,2.38,2.34,2.02-.03,4.06-.11,6.07.09.76.08,1.44.87,2.16,1.34-.64.65-1.21,1.77-1.92,1.87-1.99.27-4.04.25-6.06.11-2.23-.15-2.68.97-2.64,2.87.04,1.88.09,3.48,2.68,3.35,2.31-.11,4.63-.09,6.93.07.62.04,1.2.83,1.79,1.28-.61.46-1.2,1.31-1.82,1.33-3.75.14-7.51.09-11.27.1-1.61,0-2.34-.81-2.32-2.41.03-2.74,0-5.47,0-8.21-.1,0-.2-.01-.29-.02Z"/>
  <path d="M166.28,211.84c-3.25-.02-3.2-.01-2.6-3.51.99-5.77,1.86-11.57,2.9-17.33.15-.84.86-2.17,1.43-2.23,1.81-.2,3.68.04,5.5.29.17.02.34,1.29.23,1.93-1,5.76-2.03,11.51-3.11,17.25-.68,3.64-.72,3.63-4.35,3.61Z"/>
  <path d="M192.15,188.58c2.03-.35,3.19.29,3.55,3.05.79,6.07,2.05,12.09,3.21,18.11.31,1.58-.28,1.96-1.73,2.11-4.49.45-5.04.1-5.83-4.46-.88-5.05-1.64-10.12-2.55-15.16-.66-3.68-.72-3.67,3.35-3.65Z"/>
  <path d="M257.29,221.84c1.84.71,3.72,1.33,5.49,2.18.43.21.49,1.18.72,1.8-.63.09-1.37.45-1.87.24-3.44-1.43-6.21-.43-8.54,2.18-2.34,2.62-2.54,5.42-.72,8.27,2.02,3.16,4.58,4.22,7.99,3.49,1.08-.23,3.12-.39,3.22-.09.63,1.95-1.19,2.24-2.44,2.78-4.15,1.78-8.21.94-11.44-2.32-3-3.03-3.88-7.54-2.25-11.48,1.66-3.99,5.53-6.65,9.84-7.05Z"/>
  <path d="M379.88,232.35c0-2.44-.02-4.88,0-7.31.01-1.29-.14-2.66,1.9-2.61,1.93.05,2.42,1.1,2.41,2.78-.03,3.73-.03,7.46,0,11.19.03,3.93.06,3.93,4.14,3.98,1.3.02,2.61-.08,3.88.1.53.08.98.74,1.47,1.13-.46.47-.9,1.32-1.38,1.34-3.59.14-7.19.24-10.77.03-.59-.03-1.5-1.57-1.57-2.46-.21-2.71-.08-5.44-.08-8.17Z"/>
  <path d="M257.45,196.34c0-.86-.11-1.74.03-2.57.21-1.25-.83-3.48,1.25-3.42,1.59.05,4.2,1.3,4.49,2.47.73,2.97.59,6.22.33,9.32-.04.44-2.65.87-4.08.89-.66,0-1.8-.91-1.9-1.55-.27-1.68-.09-3.42-.09-5.14-.01,0-.02,0-.03,0Z"/>
  <path d="M330.95,152.14c0,3.45-.07,3.51-3.72,3.49-3.48-.02-3.56-.1-3.51-3.69q.04-3.24,3.49-3.26c3.68-.02,3.74.03,3.74,3.46Z"/>
  <path class="cls-1" d="M52.35,194.74c0-4.87.07-9.75-.03-14.62-.05-2.44.13-4.02,3.35-4.01,3.27,0,6.54-.82,9.81-1.31,2.78-.41,3.36-.05,3.4,2.83.09,5.76.03,11.53.03,17.3,0,8.22.03,16.43-.01,24.65-.02,3.64-.08,3.72-3.55,3.7-3.03-.02-6.1-.03-9.09-.48-1.42-.21-2.96-1.16-3.98-2.23-5.06-5.28-9.94-10.73-14.92-16.09-.76-.82-1.69-1.48-3.05-2.66,0,5.76.01,11,0,16.24-.01,4.37-.33,4.6-4.8,3.87-1.42-.23-2.85-.43-4.29-.5-3.93-.2-3.96-.18-3.99-4.31-.04-4.04,0-8.07,0-12.11,0-7.64-.03-15.28.02-22.92.02-3.9.25-4.06,4.25-4.2,1.45-.05,3.05.33,4.31-.17,3.96-1.56,6.03.7,8.35,3.27,4.31,4.79,8.86,9.38,13.3,14.05.3-.11.6-.21.9-.32Z"/>
  <path class="cls-1" d="M102.75,178.33c6.75,1.06,13.84,2.14,20.9,3.32,2.02.34,3.23,1.47,2.99,3.84-.29,2.84-.31,5.7-.44,8.56-2.62-.35-5.25-.94-7.87-.99-5.87-.1-11.79-.81-17.49,1.52-3.01,1.23-5.41,2.86-5.63,6.32-.21,3.32,1.76,5.49,4.7,6.49,2.69.91,5.56,1.73,8.36,1.79,4.89.1,9.81-.34,14.7-.68,3.55-.25,3.54-.35,3.63,3.3.01.43,0,.86,0,1.3.03,7.78.06,8.06-7.71,8.93-7.02.79-14.11,1.07-21.18,1.18-4.51.07-8.63-1.3-12.44-4.16-6.43-4.82-8.61-11.43-8.38-18.81.3-9.42,4.89-16.51,13.97-19.84,3.55-1.3,7.56-1.36,11.88-2.06Z"/>
  <path class="cls-1" d="M73.09,251.65c0,4.61-.02,9.22,0,13.83.02,2.19-.66,2.91-2.83,1.76-4.06-2.13-8.26-4.03-12.3-6.19-7.61-4.06-15.32-7.97-22.68-12.46-5.97-3.64-10.76-8.61-13.27-15.4-1.29-3.49-1.15-3.87,2.36-3.44,9,1.12,17.98,2.44,26.98,3.49,6.15.72,12.34,1.23,18.52,1.59,2.44.14,3.29,1.06,3.24,3.41-.1,4.46-.03,8.93-.03,13.39Z"/>
  <path class="cls-1" d="M72.33,151.59c0,3.17-.02,6.34,0,9.51.02,1.86-.7,2.82-2.71,3.15-11.24,1.84-22.47,3.76-33.87,4.37-3.59.19-7.16.81-10.72,1.32-3.94.57-4.52.14-4.58-3.94-.05-3.03.09-6.06-.04-9.08-.1-2.45.7-3.36,3.35-3.81,13.23-2.24,26.42-4.76,39.01-9.6,2.42-.93,4.84-1.88,7.21-2.94,1.7-.76,2.39-.35,2.37,1.5-.04,3.17-.01,6.34-.01,9.51,0,0,0,0,0,0Z"/>
  <path class="cls-1" d="M364.71,195.25c-5.91,0-11.82.02-17.73,0-1.7,0-3.6.31-3.57-2.43.03-2.45,1.7-2.29,3.28-2.29,12.11-.02,24.22,0,36.33,0,1.68,0,3.12.04,3.08,2.44-.04,2.47-1.63,2.3-3.23,2.3-6.05,0-12.11,0-18.16,0Z"/>
  <path class="cls-1" d="M364.68,173.08c-5.93,0-11.85,0-17.78,0-1.71,0-3.55.33-3.5-2.45.05-2.53,1.72-2.21,3.28-2.21,12.14-.01,24.28,0,36.42-.02,1.75,0,3.06.06,3.02,2.45-.04,2.54-1.66,2.22-3.23,2.23-6.07.01-12.14,0-18.21,0Z"/>
  <path class="cls-1" d="M364.21,184.19c-5.91,0-11.83-.02-17.74.01-1.78.01-3.1-.19-3.06-2.5.04-2.16,1.4-2.17,2.91-2.17,12.26,0,24.52.01,36.78-.01,1.75,0,3.08.11,3,2.48-.08,2.51-1.73,2.19-3.29,2.2-6.2.02-12.4,0-18.61,0Z"/>
  <path class="cls-1" d="M251.22,166.96c0-3.16.06-6.33-.02-9.49-.05-1.86.74-2.56,2.55-2.54,4.47.05,8.95.07,13.42,0,2.08-.03,2.76.9,2.74,2.87-.06,6.32-.08,12.65,0,18.97.03,2.26-.87,3.03-3.07,2.98-4.18-.1-8.37-.15-12.55.02-2.57.1-3.22-.99-3.11-3.32.14-3.16.04-6.32.04-9.49ZM257.47,168.13s0,0,0,0c0,1.57-.12,3.16.06,4.71.08.69.61,1.66,1.19,1.91,2.91,1.23,5.02-.15,5.12-3.26.05-1.71-.03-3.43-.06-5.14-.04-2.38-1.61-3.61-3.56-4.32-1.5-.55-2.87-.38-2.77,1.83.07,1.42.01,2.86.01,4.28Z"/>
  <path class="cls-1" d="M298.73,235.61c-3.48.02-3.57-.07-2.34-3.25.61-1.56,1.4-3.05,2.11-4.58.76,1.6,1.65,3.15,2.25,4.8,1.08,2.98,1.01,3.01-2.03,3.02Z"/>
  <path d="M257.47,168.13c0-1.43.05-2.86-.01-4.28-.1-2.21,1.27-2.38,2.77-1.83,1.95.71,3.53,1.94,3.56,4.32.03,1.71.11,3.43.06,5.14-.1,3.11-2.21,4.5-5.12,3.26-.58-.25-1.11-1.22-1.19-1.91-.18-1.55-.06-3.14-.06-4.71,0,0,0,0,0,0Z"/>
</svg>